<mxfile host="65bd71144e">
    <diagram id="mnx6MvyEpME_DqsJoE_i" name="Page-1">
        <mxGraphModel dx="753" dy="322" grid="1" gridSize="10" guides="1" tooltips="1" connect="1" arrows="1" fold="1" page="1" pageScale="1" pageWidth="850" pageHeight="1100" math="1" shadow="0">
            <root>
                <mxCell id="0"/>
                <mxCell id="1" parent="0"/>
                <mxCell id="6" value="" style="whiteSpace=wrap;html=1;aspect=fixed;fillColor=#66B2FF;" vertex="1" parent="1">
                    <mxGeometry x="320" y="300" width="50" height="50" as="geometry"/>
                </mxCell>
                <mxCell id="8" value="" style="whiteSpace=wrap;html=1;aspect=fixed;fillColor=#66B2FF;" vertex="1" parent="1">
                    <mxGeometry x="320" y="360" width="50" height="50" as="geometry"/>
                </mxCell>
                <mxCell id="9" value="" style="whiteSpace=wrap;html=1;aspect=fixed;fillColor=#66B2FF;" vertex="1" parent="1">
                    <mxGeometry x="320" y="420" width="50" height="50" as="geometry"/>
                </mxCell>
                <mxCell id="11" value="" style="whiteSpace=wrap;html=1;aspect=fixed;fillColor=#66B2FF;" vertex="1" parent="1">
                    <mxGeometry x="320" y="530" width="50" height="50" as="geometry"/>
                </mxCell>
                <mxCell id="13" value="" style="whiteSpace=wrap;html=1;aspect=fixed;fillColor=#6666FF;" vertex="1" parent="1">
                    <mxGeometry x="490" y="390" width="80" height="80" as="geometry"/>
                </mxCell>
                <mxCell id="15" value="" style="endArrow=classic;html=1;exitX=1;exitY=0.5;exitDx=0;exitDy=0;entryX=0;entryY=0.5;entryDx=0;entryDy=0;" edge="1" parent="1" source="6" target="13">
                    <mxGeometry width="50" height="50" relative="1" as="geometry">
                        <mxPoint x="370" y="360" as="sourcePoint"/>
                        <mxPoint x="420" y="310" as="targetPoint"/>
                    </mxGeometry>
                </mxCell>
                <mxCell id="16" value="" style="endArrow=classic;html=1;exitX=1;exitY=0.5;exitDx=0;exitDy=0;entryX=0;entryY=0.5;entryDx=0;entryDy=0;" edge="1" parent="1" source="8" target="13">
                    <mxGeometry width="50" height="50" relative="1" as="geometry">
                        <mxPoint x="300.0000000000001" y="390" as="sourcePoint"/>
                        <mxPoint x="487.65" y="489.65" as="targetPoint"/>
                    </mxGeometry>
                </mxCell>
                <mxCell id="17" value="" style="endArrow=classic;html=1;exitX=1;exitY=0.5;exitDx=0;exitDy=0;entryX=0;entryY=0.5;entryDx=0;entryDy=0;" edge="1" parent="1" source="9" target="13">
                    <mxGeometry width="50" height="50" relative="1" as="geometry">
                        <mxPoint x="310" y="470" as="sourcePoint"/>
                        <mxPoint x="500" y="515" as="targetPoint"/>
                    </mxGeometry>
                </mxCell>
                <mxCell id="18" value="" style="endArrow=classic;html=1;entryX=0;entryY=0.5;entryDx=0;entryDy=0;exitX=1;exitY=0.5;exitDx=0;exitDy=0;" edge="1" parent="1" source="11" target="13">
                    <mxGeometry width="50" height="50" relative="1" as="geometry">
                        <mxPoint x="310" y="560" as="sourcePoint"/>
                        <mxPoint x="490" y="535" as="targetPoint"/>
                    </mxGeometry>
                </mxCell>
                <mxCell id="19" value="&lt;font style=&quot;font-size: 18px;&quot;&gt;. . . .&lt;/font&gt;" style="text;html=1;strokeColor=none;fillColor=none;align=center;verticalAlign=middle;whiteSpace=wrap;rounded=0;rotation=-90;" vertex="1" parent="1">
                    <mxGeometry x="310" y="480" width="60" height="30" as="geometry"/>
                </mxCell>
                <mxCell id="27" value="&lt;font style=&quot;font-size: 18px;&quot;&gt;. . . .&lt;/font&gt;" style="text;html=1;strokeColor=none;fillColor=none;align=center;verticalAlign=middle;whiteSpace=wrap;rounded=0;rotation=-90;" vertex="1" parent="1">
                    <mxGeometry x="155" y="480" width="60" height="30" as="geometry"/>
                </mxCell>
                <mxCell id="28" value="" style="endArrow=classic;html=1;fontSize=18;exitX=1;exitY=0.5;exitDx=0;exitDy=0;entryX=0;entryY=0.5;entryDx=0;entryDy=0;" edge="1" parent="1" target="6">
                    <mxGeometry width="50" height="50" relative="1" as="geometry">
                        <mxPoint x="230" y="325" as="sourcePoint"/>
                        <mxPoint x="240" y="280" as="targetPoint"/>
                    </mxGeometry>
                </mxCell>
                <mxCell id="29" value="" style="endArrow=classic;html=1;fontSize=18;exitX=1;exitY=0.5;exitDx=0;exitDy=0;entryX=-0.04;entryY=0.513;entryDx=0;entryDy=0;entryPerimeter=0;" edge="1" parent="1" target="8">
                    <mxGeometry width="50" height="50" relative="1" as="geometry">
                        <mxPoint x="230" y="385" as="sourcePoint"/>
                        <mxPoint x="330" y="384.83" as="targetPoint"/>
                    </mxGeometry>
                </mxCell>
                <mxCell id="30" value="" style="endArrow=classic;html=1;fontSize=18;exitX=1;exitY=0.5;exitDx=0;exitDy=0;entryX=0;entryY=0.5;entryDx=0;entryDy=0;" edge="1" parent="1" target="11">
                    <mxGeometry width="50" height="50" relative="1" as="geometry">
                        <mxPoint x="230" y="555" as="sourcePoint"/>
                        <mxPoint x="340" y="550" as="targetPoint"/>
                    </mxGeometry>
                </mxCell>
                <mxCell id="31" value="" style="endArrow=classic;html=1;fontSize=18;exitX=1;exitY=0.5;exitDx=0;exitDy=0;entryX=0;entryY=0.5;entryDx=0;entryDy=0;" edge="1" parent="1" target="9">
                    <mxGeometry width="50" height="50" relative="1" as="geometry">
                        <mxPoint x="230" y="445" as="sourcePoint"/>
                        <mxPoint x="330" y="444.83" as="targetPoint"/>
                    </mxGeometry>
                </mxCell>
                <mxCell id="32" value="&lt;font style=&quot;font-size: 14px;&quot;&gt;SCT&lt;/font&gt;" style="text;html=1;strokeColor=none;fillColor=none;align=center;verticalAlign=middle;whiteSpace=wrap;rounded=0;fontSize=18;" vertex="1" parent="1">
                    <mxGeometry x="325" y="315" width="40" height="20" as="geometry"/>
                </mxCell>
                <mxCell id="33" value="&lt;font style=&quot;font-size: 14px;&quot;&gt;SCT&lt;/font&gt;" style="text;html=1;strokeColor=none;fillColor=none;align=center;verticalAlign=middle;whiteSpace=wrap;rounded=0;fontSize=18;" vertex="1" parent="1">
                    <mxGeometry x="325" y="375" width="40" height="20" as="geometry"/>
                </mxCell>
                <mxCell id="34" value="&lt;font style=&quot;font-size: 14px;&quot;&gt;SCT&lt;/font&gt;" style="text;html=1;strokeColor=none;fillColor=none;align=center;verticalAlign=middle;whiteSpace=wrap;rounded=0;fontSize=18;" vertex="1" parent="1">
                    <mxGeometry x="325" y="435" width="40" height="20" as="geometry"/>
                </mxCell>
                <mxCell id="35" value="&lt;font style=&quot;font-size: 14px;&quot;&gt;SCT&lt;/font&gt;" style="text;html=1;strokeColor=none;fillColor=none;align=center;verticalAlign=middle;whiteSpace=wrap;rounded=0;fontSize=18;" vertex="1" parent="1">
                    <mxGeometry x="325" y="545" width="40" height="20" as="geometry"/>
                </mxCell>
                <mxCell id="36" value="&lt;font style=&quot;font-size: 14px;&quot;&gt;MCT&lt;/font&gt;" style="text;html=1;strokeColor=none;fillColor=none;align=center;verticalAlign=middle;whiteSpace=wrap;rounded=0;fontSize=18;" vertex="1" parent="1">
                    <mxGeometry x="510" y="420" width="40" height="20" as="geometry"/>
                </mxCell>
                <mxCell id="37" value="&lt;font style=&quot;font-size: 12px;&quot;&gt;Global IDs&lt;/font&gt;" style="rounded=1;whiteSpace=wrap;html=1;fontSize=14;fillColor=#CC00CC;" vertex="1" parent="1">
                    <mxGeometry x="630" y="417.5" width="70" height="25" as="geometry"/>
                </mxCell>
                <mxCell id="38" value="" style="endArrow=classic;html=1;fontSize=18;exitX=1;exitY=0.5;exitDx=0;exitDy=0;entryX=0;entryY=0.5;entryDx=0;entryDy=0;" edge="1" parent="1" source="13" target="37">
                    <mxGeometry width="50" height="50" relative="1" as="geometry">
                        <mxPoint x="630" y="530" as="sourcePoint"/>
                        <mxPoint x="720" y="530" as="targetPoint"/>
                    </mxGeometry>
                </mxCell>
                <mxCell id="39" value="&lt;font style=&quot;font-size: 16px;&quot;&gt;\[ v_1 \]&amp;nbsp;&lt;/font&gt;" style="text;html=1;strokeColor=none;fillColor=none;align=center;verticalAlign=middle;whiteSpace=wrap;rounded=0;fontSize=16;" vertex="1" parent="1">
                    <mxGeometry x="234" y="320" width="60" as="geometry"/>
                </mxCell>
                <mxCell id="40" value="&lt;font style=&quot;font-size: 16px;&quot;&gt;\[ v_2 \]&amp;nbsp;&lt;/font&gt;" style="text;html=1;strokeColor=none;fillColor=none;align=center;verticalAlign=middle;whiteSpace=wrap;rounded=0;fontSize=16;" vertex="1" parent="1">
                    <mxGeometry x="240" y="373" width="50" height="15" as="geometry"/>
                </mxCell>
                <mxCell id="42" value="&lt;font style=&quot;font-size: 16px;&quot;&gt;\[ v_3 \]&amp;nbsp;&lt;/font&gt;" style="text;html=1;strokeColor=none;fillColor=none;align=center;verticalAlign=middle;whiteSpace=wrap;rounded=0;fontSize=16;" vertex="1" parent="1">
                    <mxGeometry x="240" y="432.5" width="50" height="15" as="geometry"/>
                </mxCell>
                <mxCell id="44" value="&lt;font style=&quot;font-size: 16px;&quot;&gt;\[ v_n \]&amp;nbsp;&lt;/font&gt;" style="text;html=1;strokeColor=none;fillColor=none;align=center;verticalAlign=middle;whiteSpace=wrap;rounded=0;fontSize=16;" vertex="1" parent="1">
                    <mxGeometry x="240" y="545.5" width="50" height="15" as="geometry"/>
                </mxCell>
                <mxCell id="45" value="\[ T_1 \]" style="text;html=1;strokeColor=none;fillColor=none;align=center;verticalAlign=middle;whiteSpace=wrap;rounded=0;fontSize=13;rotation=0;" vertex="1" parent="1">
                    <mxGeometry x="380" y="330" width="60" height="30" as="geometry"/>
                </mxCell>
                <mxCell id="46" value="\[ T_2 \]" style="text;html=1;strokeColor=none;fillColor=none;align=center;verticalAlign=middle;whiteSpace=wrap;rounded=0;fontSize=13;rotation=0;" vertex="1" parent="1">
                    <mxGeometry x="380" y="375" width="60" height="30" as="geometry"/>
                </mxCell>
                <mxCell id="47" value="\[ T_3 \]" style="text;html=1;strokeColor=none;fillColor=none;align=center;verticalAlign=middle;whiteSpace=wrap;rounded=0;fontSize=13;rotation=0;" vertex="1" parent="1">
                    <mxGeometry x="380" y="415" width="60" height="30" as="geometry"/>
                </mxCell>
                <mxCell id="48" value="\[ T_n \]" style="text;html=1;strokeColor=none;fillColor=none;align=center;verticalAlign=middle;whiteSpace=wrap;rounded=0;fontSize=13;rotation=0;" vertex="1" parent="1">
                    <mxGeometry x="380" y="480" width="60" height="30" as="geometry"/>
                </mxCell>
                <mxCell id="50" value="" style="shape=image;imageAspect=0;aspect=fixed;verticalLabelPosition=bottom;verticalAlign=top;fontSize=9;image=data:image/jpeg,/9j/4AAQSkZJRgABAgAAAQABAAD//gAQTGF2YzU4LjU0LjEwMAD/2wBDAAgyMjsyO0RERERERFFLUVRUVFFRUVFUVFRaWlpqampaWlpUVFpaZGRqanN2c21tam12dn19fZaWj4+vr7XX1///xACMAAACAwEBAQEAAAAAAAAAAAACAwAEAQUGBwgBAQEBAQEBAQAAAAAAAAAAAAABAgMEBQYQAQEAAgAEBAIJAgUFAQACAwABAhESIQMxcWFRQZGB0cGhsVITIjIEQvDhFHJikiOCUzPxQ6Ky0iRjEQEBAQEAAgIDAQEAAAAAAAAAARECMRIhA2FBcVEz/8AAEQgC0AUAAwEiAAIRAAMRAP/aAAwDAQACEQMRAD8Ac6uOHF5T19fKeviXjjLOLLlhPt/v7XZ6dvUvHeWM5YT6/F6Xp8f118tdPDU8I8at55ceW/b2c9l4RiLU7RlYtUgulMdd/h7KqvJvwdOanZiIokLRFZS9HjaRg0aDURBGoiA1EQGoPXyI4p6b8QOZynv8FC20kF7i9OSoBoiIiI08Jl+7LxpK9n+6/wB+ygyqIFiNCVP/AIaTv+4BzAIy011unlw5eV5OMAR9ZcvPtuTat08uLHzjqCvnt6mV8nNtej6mHvPnHl2QB5B40s638ubjf4/auW6289u+v2gt5eymDYQMoeXpWBBc/T5xUk8PnyLXbeLx+8FFZk8zZjb6Ohw+nPzBWnlPnVjxy+DoWY43nq+NL4sfWfARyrJ7E2m5crYpwR0d6x1+K7vy7RWndUdKA6+K8pYritGAEFEMNJMZRjGgaaau4+7nOjj3RlfvsC/R946C714+fm0Lrxr2LyKAQCAy0gyGiLSKpoLASWgc1WaIcwlBTUKQQ1hSAYEKAJjGAJANBBAX8cbnZjO4rJLbqTde+w6Ex556t9o7WOM6U1jzvvfNz+rnp5K9Cnn1NPmuWW+dZllxKCx0fouXGTl2VtvlHRvefN9AnHleetRzetzepNWX2UZnqesexs285el6VgeFznfzu3iH1vLB4LPDT0x5q88errD0PKFg2KwBomgEuXTaSDvTKb2qY85Z81Jfxx1b5Ijod/mXJuyT35L+OFzup7c30PHGYzU7Xm6I4uHS4Od55T7no/L1L9L8qfJ7fPEYFz1z74kWbuvXnFnfa/Klf7by9KDncOP7cp+r2pVufT7zinrPrhmVl5Z8r7X6Kp/rx/bZlPO6vx7KK0zxvOWbeuxz28Lllv8Af0/nr645E5X9GXyYbfbtjeOw6m+Vem2wqySHZGxWKivcnn8swej2ft4qW28nopMvUHa2vRxOy3Kiu4NTlWmVE5+f7M/9GX3Lrzn8jLh6OX+7WKj4KgGNsuhOxysZEAV6XpZb5OOrXc5wR7nfD3mlniJ6fU45q91y4egEOBnF/ZFFeeetw5R52PQ6QdRrmrcRHWfO/wCR7Poj5L1c+K+UaH3bn1f15T9M3McPO8t12Mv0YTGemluc3l88uK7exwIDsnasiD7udllMXOyz9HARX0LDLix/TqX326L5lLcbuPoWOUym4yq6haKpgiT4BogiaRqIgiCCIRqA5RV4r4Cr/buq8Xo57QGgWg1GIK1ERBqMQHlOp+75OQ7fV74+FcFlprGBRWkdv79oMANAICKFiMFdDDLgy38X0Z8oe46WW5w+nbwQdd4/qYa5zt9z2KuD5qa6WeHD4OaigeXenVtRlXAGA1UbZrSmtKagTS0Bc7h2QYKhm7fU3h9eX3/A3i1ynx9wZbdT4KrWIyOOvI4z0kVVyDYFGjwDaihQtX2iLoVXfkHaourmPdyNurj3iI6t7NvYV92b/p+f0tBryt73xeqeXve+NRCGHICoFd1Q8NRpURb4aZw0FJHR4KLgyEcxHY/LyF+XkDio7v5Vb+VkI4KO7+VRflUHAR3/AMqt/KoPPo9D+Vl/dD+VQcFjt/l2M/LybVxWu1+Vkn5dYFCY3KyTu+qY4TpYzGfuve+R/S6c6UtvO+9U98uK98/sjyWvVAZZTp47nhHye3fOvSdTnfB49I2rHxUMepzd/p/uk9eT32OeU5Xs+Ydno/zZZz5VydHvbk535lcHiIteZ2dC5vLZ3kfa4eV29EcnIQwp3ecTBiEKNCeqKdVlukNMLGPePrHR6WGWPHfCzw/w0+VafRelnwcN3yt/V8+W/k8nW58D0uuHl+H7mf8A1y96/kdXG+/1Tl9jqdvl9zvz4jAvfyou01+G/Yknt684Lfa3wruyZy3q9sufzUbf6c/btTrrH9OX7b2rmXinLU6mP2/AA3jk1rHqT5b+F+p5f9E/Fh8frb+j1yw+77V+cftnLPPl9MZCt5e2cy8eX3bcWz1w+c/wW759OeOP+Dn7ntlZ4ikcvbKx67p9XLtec9Xl9XK65V7KYTGag073HHHvU9FCxUclMttKktp8ly5PazGY9mhRmPDAa83QVEaJ5r8VVuA7Eq840WkVcfL/AOXlu44+k3fGvpe5Od7TnX54zy48rl60FA1WWXRk41sbv2l78/mqnHOhnMeDGzUsurPrUGGlG8ucfROn1JnNe7gzp8U7916dPHvrn9aMOvZtw5P1c5yvJ6a9yrz5A8/cdd52vNcmva/F2e+r5armzHV4b2vaoi5ozkpcGvVupEBZ5axtfGXq+tnu6naPJuiv1XleHHzvJ490M/6f9LzWWUxehwXLdPK5Z8SlctkMoY10ccOLneU+2ube7Y1YxyuN3FNrKvpMymU3Fh86xyuN3HuplMpuCrq6qxZGRoiNDWkbilbsHQ3Ip7qq0BNAIBIxAEjEASMQBIForUYiDg9XtPF5h67q/s+cePZaQDQAD/4IH2/4tZURRgJJzoBREFQ+XhssV0FfT+/Oe5Tz3Sy/p+ceiBWs28Zljw17dTs2ivCqt7V0rNOTl2RXFOKPECUegOevTh9+ILQN/T6X4qqwbqeoKQXQWeHYrlHaXOC/3G2aFIejkkV8MPd6zLD3780bc/ht7Ls6b1eOOnSk0y6vE3p6+a5wR38u8/vUedm+pfSf3zZaULhvs5c6b6VqYd3F787yVHB5XlI5dx15vRWejuYdPYPLzpTLyZ+TY+mcOm65uL04+T2Z4ecLmcuXPly0+tXF5DPozL25prljnq0xjl6z6fnHRwymXlfR6Hjx0eGX2P4Z6L0G25kyT0hsF7i9wALsWY0qvsbGsoWYwsQ4sTBQmowCg6P5e5fcVGiFGmSkEEBu/hjrn7q2GPvXa83ir0Ryep+qzD53wjzlvFlcvaco3j1jln759v8ASoX9GM9Xlel5LPLm877uvYo8o9rCgsdrSEdXNeViXpscZYwORi61H053Krk6OZVZhbqyroJisHiYNQKyVHWkQebSd3quGKVxjo4F4ul09WZY93EWZ+my+YOhcepOp09/uy4bOfq+lXld+8uqXveGGU/d0spL/pruZ4/qvny+fs+d7fODl9pr8P3Mt4effG/YLd7z25WOfv3w5y/0/R6vqOZF3Jy1nj6e/wAPd5K3D1yw8vb4X6TMrhvlxdPy9vhR7y/FMvH+7EBby/FjlPPl9MVbPXp/PH/CkWeuGN/036NKm8Z75Y/b96Bu8fbLLHx/uFW5eWX9+Z+7f6plPP8Aux6DodPd47jJrtr7wdPp9Pgm7Od+zydLW3VYjo4Nihw217HTUFSYzE0SMqQrLuiRpy9Jquk3dBsWCze7I8f/ACctYY4/iu74R8ldrq58edvynhHDbDDyXTk3vybZMln6tzv28irLrfpSY7GUnDvittvazvPX5NNudZ6r8cLdXcay09r073nzWfWevOeMeWmXDZVzLPWU93Nh7WXap9/s5e7jznbv8hZZbkuPtRh1JZdm2bmvedqozLG3fr3hXOec9gdLi5PHZ9TXi5nUz/pnzeUAQWI2r7j1s5ODV3+nu8Dvb1mOEmOu7z2WNx846uSm9DJhhzt4r7SPOhdWXZyzuTnAEwwjWsZbYt45XGqbudHHiz/08/oUfRewgWuftpF3aptVaAkYgCQKANoWgJoWgJGIA0CiCNC0USMREU8+eNeFfRHzlG0B/wDBoyFoH7DBQH3tCDqCqiIDGNYKLs+jS8Ul9XzZ3ullq6va/eK9UUeUKo5Tb591Jrl5vpjxXX74+CDx567MLXTnSorgiesnS9XT/LxnmrLwejuF77hnotKPB/l30Xp0a9sLaDxn5VV/ysvF7puweB/Lz9Pjyei6fRm+fO/Y7z1HSnv8oy7Rz7JjNfFVnN3Mpzqpw6eV78FFnt8Z9pfa/OOZ1L2nh9zo5ttm/Fk5R53e66OWfLX2/Urm6W+/3/Q5HD81biX5efNUXsMLbze5mOo4uDv75ub0RTDJp0WPM9Ssr1aqo4OriZTb5Vnhp9irz2c3HWPNY8b0up/Tl8XuHyPOar33Sz45z7x9F8l6FjQuzkBtRl7iFfMBlCiowQGmBBNLbxkA2lJhpjS+wVVgh9kEAu4zZMm9R6iTU0816x2wbzXV56wnfL7npHkMLvLPqe2P6Y+S9zgdTqS5yWamM1pyc8sb229V0+eNyv8AVdrGpllq4zUldlfKu/sTZru+t53HDHlJ5PlLs5qQFoUj0MkyPbyWTk6PT6Wu59sx376edt5XDLWHnzc602diWmlEhdVHRhXYNoiIUgL0eh9nPwju65TzjLKqUeF3ed56j7yw/LW+fpVKIr2vSzsxtn4bPn7PoEy/M6e8e9nLyvo+U9PllZ683dwyywz4ZOLHL29K+b1zqu1xcXPHUy95fevL55Y75zLC+X96UM7q8pbJ/VO/zZxbusepb446+t7NYFu3tnL4z6Nq9x/2Y3wv/wAX+G3/AMd8f037fpcfLHg/djcfDLf0uwHlPxY/adx2T9255/3YrTK7/TcluY680HP4pe+M+H0PpXSzlxkntyeT7Xt81XLOTtbvwVH1lCJZljMp7tRtZFtX7+5XDl6I06DHL4cvKLn6p7y/JFaEHEseHMGfIPI4QKKvneHDK+X3ug5vV/8AVn4fWyPgImHOiMEAKov/AFuv6Y329PN5zW167nu06g13gCtiRA7p8xtWJj6uk5sHS2Th9lU1iMql2R+bda7LrzmU1VFZiMbUTWrkgPo+Ofte/q7ClqYYzD+vvlfTy8Wxthw88OHnO33OU9883nhrnO3p6DLjiAIDGha0gXrujyxy879TyT0fS/q8Yo9EjEaZajEASBQBoFAG0DQG0LQEjEQEgUAbEItk72RkPR5m9ae0t8eTg3qZ3314Ir6DbMe9eAchblRVpgkGgMGwABMCAGGIBaGIKBDWg9pjlxY795yv0rLx2GXDfL3e1FKeOyv/AFbPSR7J5PW88r/uv2DTrLBTGm7LPI2iNqOJYmtAYds8zQCnoh3vBDHu5NSR5bGbs+PweoeOvqctVvZZIeR9FzMvbx+pws++/P6noa5deh5HmuH3UMnpdcnkvZ0ecMdLHu4M5V7PHHltWXp5dXTrcTxWN5/B0pef2MOz1hjlyrW3nesxVbtVryuxdrm1LVa1WK+c9WHdDcy+VXOqsfxLrOeP3yvtR8evWepr3+fTl5zlXgrud3seJUEiJrLQCRjUwps+QgsqzbUgmG0D/fcn5rLIp8jRwYFDLXsZu+ArqYzXjfuX2FPlV7XH6uXDjf77vM5/o6eGHve6xn+vPHH5udllvq2+2I2Tx8F4e8nJ051cZvv8Hibe/neXze8z/j4R1ZeO6nU4nBdzg9HrMelJ51pHzjWub23Qw/qvv28Hlerl+bny8JPJ9f1rl+HU+EaRVzuo+bZ32+53OpbctT2eL33ZjRncVc3YtvQytbURFqIEwKMlmQzTr44sNL2M7R7fLHePg8/jN5Pa9o8zb5wFdymsqpvpPCpZTble7tuPRVvfxnZufU35OJtSEXeL0tUQaWNMDufmcuc+0Ored5JJMe493JzZW9+0NVd67GdnNF95SzVd7iKt330o7P8AH6sluN7ZdvKvpmnxHWNe86UuWE3fex2bepvB623yW5pJJj2mmbG1koOw7FEp8PvOVWNrsQV5z8Z7Ise+2oEuT1f/AFdTw+t2XmOvlw9Kz8XIHw0SI6stRBoG75aJMOAhq6SgtY9lxxpyrsIDRERC1DKbng6RKq8mJZs1dHSNDJFgsaD6pJPaSeTl9ypnr6Xd1x+V+9tzUZVtz+wpVRzs8PefOOI9u4ueHvPgo4qARoE7nS73wcB0+n+6fNUe1QKKgkCijUCgDaAQCEEQNaFiBgnBvVxnbm4l6mV8vBhXtLZO904N609pt5ILDbp3qZX314OQMCCBEFBERFVflWHIdOXbSGI1ACwxigEGgBQSAFGoAXqunlua9HljpdXYPdvMyWTfrd/F6KavP2c7qZ45ZcOH7R6ub63QDYNpytt8mMYNHJjGHA0IR6GTRybTb0HS5bvv7fWrR/TnDxb77k+t0XM6fbL13v4zZ+3zK+7FslW2q2uLuZXMqllk5tz1HZ5LXV3p52zu2Zw3lXoeUqY9np5Hn5dObc1R7nU9XPl7+LizKrVvuw6u9j7+Lq7eenffqu7eZ6nW2r2qO1bbi6ttc3bbXPt06PM4OdUujlw9SeM+9WyrmTu+lHzq/UWWdcjLKZzzn2vR4c487ceHLye5wef+0vcWGuCKxhgWUIF5G6KGk+Q2+SMskGwY0aJ3otaCIW7ePKONJ7PQPJXeDUrRb8XFzy1ja8b0vMy88snDm9eI/aY/EeON6t1OUnevQy6nQw3bn3k5Tx9XpcubryTGSTtHO0wOfIs9TLgwys79p81jTw/8m/snjWkWv4uHfO+3KfB9Cx9vPnfnzcCWY9LCXlNT6b8Xi+r1vzOWO5j6e9bYcy5c8te7iiJd2i0QLTImBaKaaU6MYV08ceT0nTw3NxWwvF7ak+16Hgs/VjbjY8rTtcExn2p7VMOpMuWff1nai9nJXz/L28FB0apvqx41RXsWwqy8rYraems3yHMZGBw9WrcmnVshOnBlU5ePiYtqloJ2c60vnVzt2aG69Qa8RM+9Q7Hp3PKY43n909X1/DCYThn/ANI6HT/Lxu/3Xv5eS9tto7akFeGwMK2UKam3O2LbI78y9quOAMHSfIP5OfF1NTtjyn1vXdXqcGN9e0fGGkGMJrbKGtNBhqDZEKOYKqL87Kwp3B0msEygAmNFVFTTpEoOUW6miFHrs8LNa7JLp7R5jLDXZ1c3pcdZzl3/AL7queEw55Z8P234PKYzLLL9G5fe9ntselh0/wBWd3fW878oK81jx53WON163l9i72Oz61y5Y/pn23xrzM5CLOWO+c7/AHvPPX72q5Y8Xi2jzKxj3nirBaR9JCwIDRiA1ERQQynJvVk7c0HbVLnjj7/B5C55Ze/yUHNp6C9W+0041tvfmW1hpiIjLTAiYoBggqgERAYiIog+xYlR2O4nKl06yoxERtGIiIrEaioFBIAWDQFji/Rlj69lrGSTk5Dv49mmV80Oj3bHHSxHBayf6aHQtDZtfhn5aNVP+bWz/FymOp2wyv4v0/XfscuaWLf2z0lvzrna1FvG6zs9ZL8OS042W9zXt/enT3Lzj49fdhRCtao3JwdnKyry+1/KuS9bwV0os3k42ybW3FbuWyJ3U2xVek2tznO7gmb0jT10p23mJV7bDrru8QduBtZ2w3q/tzsuwduTlVcdcjKrvR/9uH+qOK9R/H/9uHi9scH6Xxin1Ocni7Ln5R6mHgL3viVas5fuviS8yFIymgX7DaiAAeLUQCIi+x7KoBBoLGLq8/kyY6IfMr1RUryXVvaeb0nzeCzu6y6uPb6d79b69hhOnjMZ7fe8X0cP1TK+z3drowVlVTcc7PLTz/Ewr3ff0fJ+v/7LL7ST7Hqcbd8nis99TK3WuK7d2AZZ3qa32naKDp9TD8u8NcvTqMCYjSqhayqtMtEFY0yqO5jHKkeoxxc1eiwm3Q45br2n3uNllqanuRhNvKr0F06kvKPMz9WXDPm9Hbz8oiPIXvVY6kPqPIrsNIoKfucTRyy+7z1kwBjn3vpxFfLJzu/cWvUbsHBCNQO9PpPR6fDOK/uv2T0eM6OHH1JPafqvyfXWlEq3Ha6xXQGle+IcstRzfFVXd+nxU7Q21Rv6fFAwO1aSq9qDpuNn1OCedLuWnkcsd3ajl5ZXLnaprvBQXGxplDRYuhpUVDD2AUIxgBE1AKV1whB0e41HFfZUTRHarIpluzwLXBEHmFmYZX2+L0+tGg9ITVkp6HFkzuE1JHkrblzt3fN6ZwMunMrucr94rnK91O7n5Z6utc/N5vne6q696ll5PWY5TL6HzR1ueN7qj3FnE8zZp2cM+LxXLNtNOhjd4zwWnLwmpp0lZGJz7nji89eple3JkeruUx71wL1fR5trm0bu3vdhY1lobWCRpEagIiIKEIgDLADA0jERACiNEYiIoi5Kpo0juIqSrbaIjUBAiCCIiAiIwA+70OLgTvHoYIurJSAcUY3SDPMZJqKjWLCgex8zx7ZctftvtfSWlaDy1zaR0bjcbN9r6dviLPHVtnblufW484sOWF5fhvb5e8dj8yf1Th369vi81e6OXZt568nrdacbKbeV6ngcu6jXQyct6HiRjWNubEaBpBbZsJaDpSnbc04VY4h8TjBQdziU8rtQMEA+1fwsf3ZfKfB8YfqXo4fl4TH53xeyMvQq3oKe7PZ1ZcbPHc37x5P5PoDzHUmtX1+9zHG92iKchiGBRELM7liIASI6Nd+Y68ScMd7vwdqvn2vTIpuXlp13Hyvr8HkdnmM8d/S52WP6/COrjNeTqYY97616XI3GcMUcrIt5V4fK7cWiLd16SYyd1DpY8Vt9F/qTK48OPO707ObyF62W9dpr299vXdHDes7/ANs9I8/0ujcsv1TlO/0Pq/LW72g0+Y/yJbd/KPGXlH12zLP9Vln4Zfaefm8rnjOLG+2hXhm6r1dkvl4OfZW1ee0zT08x9b8A6isvPaO06/Cdpkc6Y+enal4ZslTvNkSc3a3eUjnR77DDgm7+77nJW8P5c173vVHZG98wbaclVWdAh9FwU1R0Sag5NeUevrz2fdoXeL9LjFRm3MXmbjmbV1Hb2TtxXqOh0/zepMfbvfCIPpvQ6d6eO73zkvhPZ6eLF5lRGmhMVBtzdc9q3e8jrlp5+dTWW/b3Vl3brCfW4+M3zqjlnxZcu3m6WX6YKRlXIrLfmqUQsAgtsgYMKKWg2KgAjagUA4IFsGgAAYxAD1Go847+F3Nejm06GoJprmhBgzRChmCGnpFV0Vd63JRVV4hUcHPCZzn8XzvPG4Xn8X1pSyxmU1RXx+DdnPp3DzjkAj1WHU9r8XlWtK+jb4eetuDc7VLDqa5Xs6lx94g5KMa5tIiIiiGESAhIIaYgkQYwTEAAMLaZAAZbSBY1gNREUREQGoiKiOrLtyjJyaZdloBqgUYiiI1ACjURTJ3ehjz2Pd6cFsCGAiGGCEE75HiFCa3YwFAjGAdeZ298u/irmsukVuDX7bcfLvHMu/T5zm7uwPE+g+a5OM+lZYy9485l0vS10cXkRrtxuPeKbo4loso0yrAOCIgBIoWE9FFYw3T0nR6X5uV56km66o7n8bo8eW72nPxfd5ebiY6lknJ0Pd6EWZ3J9W+5HqrI/ZSy7faL2IrKvOg9lqlOCFhWFcUlh6vGWTiwsGndwurd133iNbWcurrzuvb+9Pn19COzeTyeXOrHFlljuzXpPe/JXk9mZGaPumOc3njfbVnhYPb5j1ctdS2cry+7T248b2GdcC1QnW3+7l4LGuLtZfm8eOz3/R/Tq33v2Xk6d5XVvLX/ANc6Tiwnbly5OtnN5S+ur9P3OzkLGzDHivKSbqh+rL9Wrj6eX+LyXX6n/Wwx/pwym/j9T3efex5XoeP48vfdZc5fZ1+BwssNMtOXRD0uaaRRLWipNoKw9L/ZSt9pzqo4uV1yBjvLljHbx6GV7voeOE6c5NK5fT6fBN39wsrsFyt7f/CrXFHGy76+K0VOdtXXvjzklnI7sKSLKuCrZHHuMydosHjOHKTSnwX1e21zdLU9I6vTJr5xweapcbH1LDpTOTe+zvTo4Y2Xnbud7/g5uLwHT/i5ZSZZXhnxvwfTun08en+2fO93WvNHNCO1EwnlPBgc+2+rlZZebq3lLd8nz25bVVy1z2tEYBqKBQTALYMLQBGtEKQbQKQQVGMExAtgwgFBoIFcxurFVjDT2XZZUZdyVcckE1GorUQq9vtB7Duj51jncfB73HKZR6nMKu6CsqOaSv6VFFN4XPpa5z4PoKmD5Gj2ufT3znK/e8vMLfZVVXWxtjozp+rsa0qqNm3HeqUrNoOE0VmguTQxgGjQhhGisQSIBYMIFlmlNslAGBURjWAjWNURERUaiIIiI0FqXTpOKuytIttRqiI1EQIRsVTce71UecwejgGiF7hENlRBike5gx+oAE04C2fI4QMDrZ2g6AvSrdx1QMOjhAndeuFc9wevXcnPu83n/H98bHW2pfqxu5znu5vU+a3GxHv+rhvnGzDHLGXXd1csfOxO7lhwuZpXlVGG6TVacyFvHHi7LGOPE91jjMeTaPNXCY4W30d7+J26nyee62W/0z5vV/xseGW+unZH0ifuWPf5uZj3X/f5u7K/7kp7tBVquu32cy+2kRzjA0lwQJYwChRBIhNLMYjRvbsHp8E75XLfPt+n+/mhLDtqzllx3ftOxBjExz8uD1c+Ccu97eHu+ZV3+tlxdS+XKPMuiK6usq7Kvr38TLeNx9L9lerwstzzy/bjvH4Td+3k+VfxsrMstTe8bPodbqcVs6Ms1Od9N97a5K+e5ZXK23vbuvd9P+Vykz9v6p3+av1ejjh05Z33zfPhX6J4pZuXZG8fV8RwzuPnH1Hp4cc4reXpPreR1My4arR087jhyxji493Nte4T9GhZVx8uU3XZ6PT4ZxXvfsjmdOfm5XK/txup517etMjuXJwbbW2qG2VPupNRzr6MWJPd2jm3QjiXuecDO7O5qhdV1pXBXpNXCFFI+3WN+U+JavrbTvLj6HhrXLw+90XzbpZ/l28XKX7/AFe4mf6pP6b7+lc3Nf8AaDF6eAbPfd9Ne3i5oTXDuWPjV6+lef6txwmp+77geX6mfFyc8pcAaNaoxgggBrRiFhGxQDBMaGMGxAIBsFAwYQLYJBGNaggWCYg7HT9583cePl1d+j17kpwmNYGojx+eWsrz5RpRLEtl5ObMpVttXu8epxd+7rvmL0mHU9q25vSKi8S6MuaRV4gHLU3TqkCoQsKjaD2pLQNNIDvyrm2adPRd35sNOSYs8OXoruTqYMA2GkawSKwIwgUScS0wUFoWmWIiKNaEQqI1BERrFBMREBH2a5FDVF2VYc1fjQaiIDAiAqOvhHYcnF2AWwtMFY0QgEAZogTtAPFYYhgFmsLBoRlCJ3QYAZrn27ruWPB78vZa6c/V4S/Qd1Zx3Xpv7Wsdtea3KqTk5ON1lcLy9PN1nz30dVa83cXpa5NZHnLGTC5eD0Mw33egk09TyVVxxk7KnUz/AC8fO9nQyymE3XyXLK53ddHnPwnFl977ljyjwHRw1N+r6M6i/id7/MrEUd2F33Onur+53r81Beih25L30q97IOZXPdX2ctxA+xXzq0UypTRfIlEER8/t/wAB7NELK+B3ZnfkKS8v1Or/AE4/Ok9Xq98cb436o8UqhIplVKypYSQMj7L/AA+2eu+5z+V+tc6U1PO86538fG4YW/i1r7XpIwrz/Xv/AE7/AKpPvfHH0b+Tf2z5/F85dFY7vS6l6eXl7xxR6cx9nueF7XapHzHG3G7e9wkzv7uU7vFXR6lS4PzPfU8h53Kz9M5eq1hOHDGeXPxcXZ0cZOnhMZ7fer2opW6Aq3Tn9y7drkVk7R3sIt9F5WoWNtARAjAokbAAVpa01WVEOl8AOXSJlwcu+P3OoqXFlp2Pzcr77n9/N1J1td5NeVv0PnvDq+ixq+LCvSZfyZf24fO7eA787ztdHQtKqrFxa0LQKSLeitIhCGaCBbBlqCANggEG1oLQSIAYNg0BGoIBo2ClsGAQIWsREepxu8Z5cnlXW6d52ev3sK9G1V21yUW3icp+rKPavOdSfql9Y7jyDtY5+rju/j0re/J0R0mulMJJpSs05Kt453HwevlmXZ4EyXQPdkqWOe+/d0nVlQrn12FKxWHILPJUVxmqzbJxxTXbWRKVx32XGPO6vPdmu1ebk2acXQLWNYbaAwtAog4h0YLAIDTLV2Y2zfLw3zUkBogtFREQEREBGhQDTVdYVDDCxKOgJSXFRC6aVW4y7mLsxzMXYbvkQ1rHJpDyxwBGFHAzZ4BgYMIwY1rAYA8sCtCLZoHoeny38vrKZh7/AC+t1bp3R8/6uHF4+1U5luc+Vnd7ezapcd3blY6yvFTeX7XZmHD3516Ds47njeq6nnlOnN3v7QWfUnT88vT0fK8rcru93VxLzyud3fh6LHTw48vInHG53UfSscJjyiDr4uqrYxadRfnZYncv2Njoh07ihU7igGewGezURyff5qqxVZxUJTfgBlU5h7FsAatumhQC4/Vy4ceXe8vl7uw8d1/6fn94PIAQIBVFuqFAt7Pp4a53v7eTy2PePYsj0/Es7eS2s8XJgeX6t4s7fl8HCW6FpSjmvWdLo/mc7+372FcTHp5Z9u3q9/j/AB8J3534PTcPDynILxWu7q65Eil24+eWuTg6EZXhec3aAbo5mR1+ykc9bgthVwu7K2ALVZEhYnTGSkRqohejGCAC1GVQtjWWwErJaKBgmMtEsMAgFogiBKPCKrtG1Rz72MWVSdvAGsMYrJKGsRSGHBRSWHIBbDCwU7Stz1eg6cxyy4Mtay9/SvM3G4243vjbPgILcZueis1A3fl9q5jbuK6/FHpjHF45jOff0eRyzufft6KPR5dbXLH4vLS25bqgJoW8M7hdvpOPUxz8r6V80ywuN5unj0srzvKfao+jKpfbzRkUbCF6udtxbG6+Oeu/NxBCvedwPHy2dnp5lMnRgFjj16VUsdHNwFW2KeWXo5yNOhxC41W4uSNPS8Uq08SbMrER7Ezu83M3QmUrTIrNK7qbjOHivKc/T1c23LA9xj/Gyvfl5d6u5fxfTK/Yw0+Zkva/5bqe0l+ceOsuPKyxtCAiLEG1jVEREFajGiIiICG7LEAzyjlRqIigjyBKLwC3Zxx4plfRthexjoKcdADRCay0nJJaiAYaULuB7QCA0QGgJnuJgBS82Ge9EYImE5Xhlut6/v2BX6eWV69k7Sc9+Xv47r3dfNf4uXPqeuUl+3n976Fq16grbn2tqTC5IOW8bn1+HlhefqDq9Xf6cby98vXw8nh3EF51ZxxuV1HoOn0cupzvKPpsxmGPKaaaea6eHBPP1XY6pOlF6Tk0+tjoLNHO1Vr3W/ZWWxgoBBPY4r2GI4mSsv5Oc4NlB+R/cDCFlNCoWIRYjHgut+6eHJ7MFkymq0Plaq+u4/w+LCWZ6t9ezwvU6PU6f7sfnOc+wV5a1VWtCmO65obhN16YPsNGjlHLsuOTlQcsZb2nR6PH+rLlj6e9ZaXej0OLWeXb2j6Yr3Pnwz/5Ia+da+jivXCytnZ2bXmcq5uJVu/Jzm6WtPTjir6OWZybt7seYrRsZsLoyewgSoagUY0ChiMtBQQUaajGgWA0oQLBBGhBEgFBPVwAhpIgwDRFAEQQCAbFAlGBQLYMIgWCYigYMIoGCCAQCfSMOnjJu9wfNdXXHO0rtfyZvLHqT/8ATHfzx1K9ZnccbrUv1fB5qTi6GeHv08plPD3+yjLwSCY2HD2rBFU8vVQdGuaDERFR9BwddxceUIvU9HJ0d63TkXNyOJZcnbFC5Wl70dYqjq6kq1twVjaK7rVDa4PO7mOeu7k558V8gL+OHvXVhXxw9V7hkdPKcty7eatVScq89V2ucqK5ZpAMQLAW4uy2c597nLYjuTrZz3+L0c/lX3jw+ga9VH3nHr9LPtefho/qTHOc5vzfL+n0Mepzn5njqa++C6uPU6He8eN7X6fSgsZfxc++Fmc+F+Dw9ntz+fd7zp59O+kvnHaz6WPUnLlfaz6xHypp9lxur3KAKCQQKDQGI1Aa1ghBGEF8UFXWubxeRXFWkdlrg8/VGmHb3HZxzurjPfv5PMSX0epwwr0yMPQRfV4uOD23mzN/bQmN0y8rGrGhaArSeS+mgVhm6MFJGsBFIjVkIFtEIZAo52TG77Oi4ueHF6drOc38PMV8/wAbennMpvk+/XKWfp7XWnjulhuW3t7eEnP7XqunjrGT27vQGcsZuvmXV6l6n6Zyx9/W/wCD2XU/XPL2cXHDbY8bj0Z517XDoYY6upa9VMZIP0RpX9lGux7ObOd+KinUk5rVMjLKtVrEv3XI0KS7fYhbogfalH+xCI1oSr7opFcp165Ti0EsQWQvyLNQQilaXSQVVa9qsGa5KPqWM/Tj4Q9w+jlxY6/Dyd7miPJ5dDpZ98Md+s5PheOD711suDC337Txr5fOUVpyJgPhdktlXB1Xmsu7329PnVQBy9+3u+zdXq9LGaxyl9Nc3xYpl0lx9d6WeP8A3XvXqrX5yejw6meM1Hix69fQcsubnFNdcebVkA413cCTjBKgNDGICBmGopTUQVpZoQYxDVZLQxgoCTggwAwCtKGUCIxoAANgjAGAFA1EZCLdRzeN1U5PQgQGscFKAaBEYEQGlAiIyACJZk2CpO88XtsupbNTlPtcLWm/YAzcMpj1ZvtlLjfB5LLq/h+LzsvPbTLr5Y8GWWP4bZ8FR6zr88sc/wAePPxx5fdp5RWgFmFgS56+pUAMaxUep7qGi9r0ryvepm7M0rjTobRzTN0RuizkAg0OlnQjr714rGOTzdDtpxe8xy1b6UvLheRmWjOJpky1yqVaFpCQiKECiBBZWlA4HSO05p4PV49bLHl3nLy7Otn151JlLLJefrzjyGGHHdfHT6H1f42P/wCfKyc5b3+Puo+UadTDq5Yec9HN8ryByoj6Rcun15q3hy9t/S8NZZbL3jmaeixy4/05d/6cvTyBzUVd+QN1WV9HJTQi/uE8XkXwrnBUaVOKq70E6e3UnS8hHiFuY2vof5ToTBsfO5066M6Xm+g8Mi5qej0ubwU6c9Nu3jh5R6GT7zzWXK4VqYugNnaK2vbU/v5rEjTIw9dtvlE0L51GXmGBBINYWLyAxpO1gUow1gMQTBSkEggO/KS35fX2XeCzvccfHnfhPpXZbZDIDjZzg6Fnpjjj88r3+16q/U811/8A13yuN+FennPXnHqFG9orYft+a77H/QoV7RvtB+wr2jSKdnKMk+tbnur+/wDfoNOatwta9lHPN9gH1lCp3MvcUDRR+yqs3tFREb7l+wCnNSN8qrlymOSsAIxAlhysrJbOxtCDm84YsB1sRMcrjeKf4V6efycP6t4X4z4vJ6LdMczer1J1bJjzxx5+NcnsvF6aQgs4Lm2oZdr4Pm76e+XsuwCRgYVrudL93xcU+crL5ssPpaGoyMMYIAowYoDWtVGDGEAj01oDJa0VpZxKsjLNAKFjBgWQsMFLJMCA1cTQLaaEQtBF1lQsEwGBRBABGWKItoQaBm4LnfaqAFJt0Jj6rgKMkiwqZZ44d+/pHjM+pll5T0GXfy6kx7c79jyOWVy7kIoBjUB7yfr6F9cLMvl2v1PNOz/Hsmer2yll+fJxrLjbL3l1fkqlBEAaJVFxUEV0Y1Ud3Ss7elOx5XvVdnbV9aWNIpegLxgqvowQUQxrDEHNpS9YpOjzlgNJdGC0EFRoBIgSA4IAW9FOpjZLzm1Q/Gbe66ePRnPLG5X7HiO3PF1sbMu3K+8FfW/zsZNYzXhNOXxPDu1je0+3yUb1MMcrq99b37vmWWNwur8Xv+pd3ijzuV2MvN7F2I7LEFW+G10p0q9X0tcE+bq6Vl46dN0503a7GqilMZFrUOBbJ7/AQ0xQ48fWlfmT02rbrsUcMuJfaYWe4Qi7iDFAtUGJGohZiDFOLH7gAbBNRA6MA2ACDQ8GIiCsCPn6oKWcjQNlWcbzrlunh7+Cov3sDHtr8N+z2WnPnLKT8Us+c7fW9I6oP8WDUZ7QdD6eB6jMY53uuA1pRz169ijL9Koo+8DT4Ve4Cisf7FQVYyqj3X8u7zd/TXNpYZTK5zgih7ui4tdiMqYxGtuSundYE7Ywpyexg0FILFyB27MaYBWXPYtzaVKHSyFzbVfYjS38gg595S3yfLX0bq/tvjHzoaJCYFFCJqzjN2TziMvpo2961kRrRKBRqAwaHCgQbVZINQaNBaICohR7UVXaIKowBpYMLNLBC0LFRANGUCMANAxqKAB5SKWsY43P9s39gHW6F4epr8eN+M5iCnQz97jPnv7o6E6E98r8pPrerayPPTo9P0t8b9GnRmGM7Y4/BeEyEc/B4/O2a993T2753lnPzNa/ZZutBmX6ZuvD5dW39vKevu99l/7P9t39mUeb6vTly/TqX3nsqvBErNll1eVhDogUawAMEwQyXVex6375l+OTL59q8W9d+7oy/gy18sv8YK4ABFihVVgkVTajFZeyUqcovG96yYAYNa1oMAYgNGwSDXMs06pd5iOKBZIdnnKCaW0gUawAhGABLSqNQ9pLRXq8M9917PU7Xx128Hih6sUe1t/S4ahxLu/Kgp1S06ZcnFmMvddGaju5YZTnhz8kwmndjoy+afmZeF9NfSTx5X3r6nccc/3YzLx7/F5DqdD3wv8A236qwrx3NpIxBLU5qy3j3GHpOn7/AC+t2nLw9/Gfc6rorO3mMaAzsYWghnzNQPYDAiEI0wIgAY1ADsbBggwtATWgRQ9hgMFAwbAYuYqp+Pd0R1lHKbnLvLLP7811HUM3vnPcSjJrfjtcaFn0WvZW9FlBzvdZrFgFH3gKuqV7qjYq1biu2NqtHXs7Keu7LTmqNnF4xZ7GXvtlXI3yUvcWSj2jzo597vVPITu9siK4TEdWSmCaigRNGsKRSjNBQIAYEGACqbRDPml5MkyvbG35afLM8rnd33+wad/q5SySXbxqypAEoaMtI7nS/d4SuI9P0vdEepN2qnsocNmhgYhw1AmIMAMOaBQVsApCHIIElbJFVmHgUA0JbKMCaxUVwoTsdDAmfBXaei83nyJoikeVpZoBEYMLKlEW8Osvw2VYDZuaB9cvclw+jlxdPH1n6b8v8Dcuphh3vP0nO/Y5q65nn2nreUeAv8jL2kx87zvw7PJXLLqX+rqX1vb6AfSsuv05ym87/tnL4vC5XjuWWpN8M18w/l53vlw+U5r2GExzxnPV139d8mmV6/8Arv8A3feZy3Mr78r87S7zz4fay/8A9+ZeX7deln11FU+H825cXt7+PN8+ywuHf4+z6rbq4+cv1RT1MenZefaX+/JsfKwO9n07hJe8+5wWwoIggj1fQ53LD8WNnz9vteTXcMuHKX0ojGOv1Zw9TLXbe54Xm4ooSzCxVcs4lUd45Wi88r3tGgmERomiBYJBWjCJEEAbEVjmWadcAy4BbtWOR2dnIphgXRgCCQCxtYCNYijXT4nKaqvQyRc1ce1+Vc2XbsQHNt5dtPSYYSdvdmtxd6fK30Vl6nGOorxbaYQ0DBHm+r0uLeWPed56z6Xzl9qfPethw3c7X7KDzToYOc6mCD1OHa3z+h05tzMP2/O/e6srYYzsNgFnsaIhdWEBvuJnt8mgI1rRAiawGo1oAMYIEQSCojUADRCAIBo0OoY5PZb22gN846Dm9+a5G1dSdjYCCUZVqGVXjABV91m2QtoAqcLeKepfF27/AAaF28pFeZb3HNz6kvtl8HL4rj7VhXf7qNx04nHfMiZ33rIr5fdycvLsdbv4uXedcR0MO71V71w8PZ3b3rQUI0SoQhyAp2bEcDTCkhNKEIVXQJVVJ7zozGYSzve993idOn085hdXtfvQfQLez84/yOn+XnfS859D9H15brdL83Cz3nOND8zUg+8rq953LZUlhrGVLe7x7TwePxnFZH0BkNi2FZRlNHaOOQL0LS3oSiro7S3oOlVVEuaL0BYFnTdAqEOhomwFUvS6rgqlrhasqpawTQLYMhBx8stcnCx6uWNvaz0v3u1njv2cTOb1ZJNTWmnWXHs5qzc7DfPMM7hdznPePoUsym52dn7GWfZPyUUtEOL8t1zeaQ1rWXjJFY1T36f4Ipqvv5qFvzXphllN7l8sbzny+gFbdksly5+2Pv8AWuzp530wn2/AjCzDqY+3tfm93WVcCdPCf7r65fQ6BxCgXNvK4+M+x0QY48Wd/wBsvxs5KyZvhxwv+n79sxn67b/VN/8A8VK3imp/Tr7MVvP92M8fqjkqtLx2X0uvt/wWP3ZZT2s+r/F1sNTLLH4/PavZOnfG6+6OWtuZbxcPpzl+36HkOr0tW8Pzno9VOWGS7P3XL8U38+b0sPjYHrs+nvHjx+H0PIOisC0Ij1vU549PLy4b8v8A6849Bj+rpZz8NmX1V54GBagFla2vaXseVgHmIN43uQaCQa1rFGMaxAQwmAWixpZmLmiiKR3Zg6MxZHDmOzculucu71sjoaYafAxPVfyMOHqbnbKb+n7XmXvjzFsGjaAagQaAaAW0RYHc3o8epPd5+XS5rfNR9Mx1Zy5uy+M7s9Y9DOvl4+E5tI+qC28vhnllzs1PZ3FZX9oorCsGufnOLGz+9xcIB8rdPBSs53xroYoPUYftnz++uo5uH7Y6jQcEbUC9D+LDFBN7BEqHIxAEaFgIITQKGAYiGNGAEEgrDGIMiCYwaLENoEAXeQVRU26MstcmzSs2r2yncpPf4c3Inqt8mha/M9Jb9hPFlr2gOTFaUe933vqzUt7LfI3caQc1PINz17uTll6ODrbI7Nzlc+9TblEcO2B3PB5vLH38xcLoTfDduYp+yks1Yx7g7uM7fJ0FGd1+dlUAVgKIxEaKQXoxGQog0oQDRbYgpAWtbRsbj1MsfOc+V+l2v8xj+HKfLf3OBpQsYHI/k/l9T9WO5l7zhur8ZHyzs+w6UcunKqvlqeD6P+ThL6uhMJPaIPOdPDhnPvXfdXR6Dk6W9LxjKB0usWYK1uj9HaRSQrum6UVEHpuv75IyrCWtN0CmU6BDQ5pDoqgqoA8hUVi15UAkBxAAcjLH0dkCj5zcfRuGdwvLt7x7DLH3eNyxHaXH0GWZTcE+e4Z3C+XvH0GXc3Ocd36+WfZM/ZKjaLqcWuXzjkY4fivyjg/MXm835P3vzvp7B4be9+UdLWmMvOr612VtRaKHI3jt/d+rz93oZ1Jk8k7/AE8Znhq98brc7+qK7JDj3iw856/SvS7A5Q3ccrr3xynx1F5RkttvpcJ8chHYkmOeX+7i+zhjhy2Y7v7uLU/5c66OdnFL7c/ty/wc7/d73tPSOQu4fpy176u7616Pr47kvpXBmseH1uWr8Xrup/68v9L5t8vXHj8rvPhnvPrgb/QLfDMb/fuTJwzO32u/l/cfReZmXvJ7WfB5DrYc+Xze0x/qvrPqczXKX3s06o+XMWL958wyy9vi2Ox0P36vbKXH4xwXa4ODWUvOWKWdmWeVna20HPGbwrOp4oEj5mK4O0MzRunle1VaucJnCiKAl3l6xN4+sUUD9G8WPr9g+PGevwYGaXuFT/NnpTPzv9v2/wCDI6sxdHTyX52XtMZ8S/zup+LXhJ9C4j6DIv8AC+U/m9T8eXxdf+Pu9Tnbf03vWMH0nS1ppjxuzxX8nHeEv4b97w+ufjK+mfyJ/wBK+Mecyw1jjvvqPbHnrw2WPCqPpGePzjxl/RdWbnm9zi5BDp5Y65znPucxFLa1ihoShAw2XRZSj0Uzi5jnJXk17GbsgPrmPOOooYx122GHtarJKosVURXispztMxPNcm8ehx/bj/pn3LilNSSeUdB0czQBNVBwwk1oMEA1plrBiFAIbAYIbADo4LQCYMwCkEMGME1EAiyjQS1Nl7bYaExunRlVU66RNZbIx9F1zXSZdAo0G1GNK2QCqra2vDQVuGJwnCmwI4dMs3tYvIMu0HkuTpRXs1dLbAsO45WHO+DvArIs6TTKqYas6VwVwiJQEQYrINLAiDQgbsQxVPJFChpahLBtZRppK0gA4elmQVsW9LUi3pGlXSzpd0taByhaX7GMiroC0PXzBQC6Gha16g5OlZ2bNRTBylR2HNaRzFZ0ao1pC1fW1z2VVFYlYACuBa3sgC3Hyx93aIUeAyx90wzuF8vePVZR5TLFXSXHuty852UdPKYZ8F585e/0vd6l5+3ffk7P2ez7Ofy5O2bO4pkF5n4qgLYWMCdXo39WU9Zv4OKyXhyxvnr48kafRpN5Yz1yn2XbymU3blPe719D1U3M/wDTjnfhNfW46Cljlt1elf03H345PjNuJljvnO/3qPO269fqEHhzk32n26r0WHfivpdOXqX9Ptqiyz5Y69r9dcRcw5zfnv730Lvj/wBr5v8AtvD5z6n0q8sb/ov3V87p6o+Zfu1Pw36PpXMv1ZWeuP0lT9PF69xYcpjlfefQ+k85dv7JPOX7QZe09KGcsN+cN7cd9ef3NI87qcWXLteS0pb1vz5kcToLzzerPNdACoRtfV9AoUtd0RpFfaeFX4Xc0Vp857Xj+pyxvjHz59D6/LHGetfO3sjytRg3ZhGhECNY0RjUaCPe/wAafqyvlJ/fweEfT/4s/Tnf90+5yrrHtmmI+O9ihnjxST/djXM63r56v/dHdvOX7HlOtzx8Xv5eeut3x8442pnb4T6z97wlcOXVt83tcnmMsbh27OVZL27+j6pZL2eUy6VnPER89E61kvlfT0cjsKgUEIgU7NAD2vRx93ko+u9PHhkUdqRZLObZGwJQhCrl2vhVxxOp+2sjhRe25Eq9HjfQdl0Mb7Vxdj2aY9UNUxu4sve+aZFhWWWxpwjUQtNGGiljGxULEc0ANNFoChHtAkR+irZPNplAk7Fw2/4ujDdlOhwrKo5uqfrS7pumWlQSyFhpUcn3seg08nl+6+Iq4cTRuiCLMLZbBsjZityQL2IvZe6C72ZzvZT23ioLHD6ndlPxXEVTzjnOreyp08eO79sftvsI9H08dY+PN0tO3E1tzHnNUN7O529fgfwsjymi3rNcnJ14CvMEurY56igBaV0AgaFWSTCkZUZRgFUwkTWQGlho0GGosoI6sVXWx9mRbxm/bS3PBs5d77119yObSnrxOkN2zYMnP1N0HalsD9GacrlL2ixdXe1F/TXN3y802B1jnk2qOxtuXftpx6t2uZXRghVp9VG0LIWCVQgAggUUaSgwtAKKrnWOqWo8RZpmOVx5buvR6TLF5rKaGnRdiXbyUunRRl6FVDLsz5oior3sv1XGn0CZblv4scftu79yi5/T/Zj878t6ixbpkIt+KlleDHz9zP2873vZZwx4t79599ZRuM1z9f7+pVk/6drpZbymPlef2nZc7cZ5X+/g5qrSfrmXrPpr6Rf23/Tp4OfuwnpMnrOt/wCvOeWnzunpjxs55/L6v8VO/qk/25fSt74Jh63+/qI1w4Wf37PpPOblzyuM9uf9/Ad55Sf7aPtcfOf396nj+nGW996+LTLzOXdTPpTSsY0KqxjQgwBgEH3Vh4XzHufOv5PfCeVv2vBPc/yv/Zr0keJfSjxFDdLHDim1JtCkNEIQg3oMcJrn7/YNPPIPWrr0YMtj69/Hn/T8cr9D5RH2fozXSw8Lfja898O8d0TEfKesUeB6vKyef1Pfx5zrYXLHc74/c6xyrxUy1y+cd3XLTy3pXoZX1Xlc+bxd6ZSuJl3K7NIzq9LfOd3gr5vqsoLhhn3EfHwu9n0707z7e1I4Z66FchHU4N+7uY9PGeYip0cee7H0RylsF/bdqZ+lQ/ZuytMaD9uD1f2/N1nNyYaeO5rHOOhwutp5n2+ed/eOFszbqXo3W8fh9Hq80w4X4erwy1XtHyuV9GwymUk3qvbHz66Yo0Ts855xMWEQwZh7QqaTS6wRWGOc+3Na0KpjHuTz+5Rud8PBpl0uU7qPF6faVMcr7a8fodOYT35+Lq5uJzy9a6Ew9fseg0NnWnMkkW1/QnFtS0i8NFco7VX2g5uhaX2qOQ8h1P3PojwfWmsp5z7v/oOdjfZccN2JeLxaVaAETYrELaugqEbWldlWaGVzN8UU4RB/YBeT2+GEwxmM9njPbxe2xy4pKg6QyxsCMK2qcviim8TnWitcdUJtc82qoyBUPVWhhTdiQK+0I4jISIs4C/do4GsqI0uHAi52IEg6EWo5y1Kg68tXduCdtB1tk7c3Yhpf2HaigOhtm1EQLeytkK4GqTFYZZskJDaiVwhUFVUwtUJKMKAilmEKFhCEBIqlgsuPYuIDyGU0GV3q4FmgWbdQqfaqd1m3V7IOzMvU/bhDnOzxZV6+5XC6n4cZ9f1ik97umalyyzvKW2ixuPU9/l6OY4+W7lu+evLye2xmt6np9k+kmXHHtAXK+rya6LeOGsdWi/RLbvneX96cQDlrqs3PHp5SzHc58+fu9Rephlrn514dxP237mWn0Pg6d1q9rvv9Ir07bbvl6PIS7XJbO10Iv3fFJ+FVs3xeWUvwekyv5nTuU/dO8efvKX/dzeuVxeUy52+NV0Y9LLFiY5WWybk7qz3n8feN1f6ptio+fhX88eDPLH0vLwUGmmMaxpl+gGLDZ3fLe58b/kf+3PxeUdbqXeeV9cq5T6UeJ7WTUk8nkr3vi94+f7cmxCRj1ORffT3leTx/dPF7J467vEZfuy8VU7uJ6nAUfc8Jrp9Of7J9z4V6v0NrU16aeTp6oAZjXzHoAMYUHjsujN3XKX7K83L7Was5V9Xec6nRmfOcsp7vZK4WPHXmp7Mszw5ZY3xnOKXFH0XldNY2oiVHoNyzVm56OP8Ak9P2mvmrb06cuxXnODRulrLdvlDwKkdiRVWNg6WhKGx7VFglmy9qCcm91yuK89d4sLkcp0MXne56HisV+prqautX1NGjbx1wps3i9cFvXI+ZfpUOO6ZZuKvC9WvJYu7dOXu4qzjdX5X7nd5Xtsc+XMF6keJiw6su1xG8TiLLow7Vz12jf1ZXXO/cry6d7HOo0OdK3vdeH0u5jhMe0+lY2Y56Naxrk0xqNFC1GihExojBBEDGhaDXlOv2x/1fVXqHleveU8VHh2kBFejxqy8rHWmV9+3s6DoFHb2WoQpLquyEAEUypu1mT3vZS3I28+eXb+/ZlpduX9XykX+jlzseTuW1vp3WXxed6f0+mfM3bjcQuJ6HjWN+PyV1Qraqs7UhKdGS6RsRAGbUjiEUtoEAIUYyIHYDEDwktUasqxiCwariBYN2qGgtbP2ptQdD++6b8vvU0Bf2zajsGwXth2pShQWiNlF7aBsJAo0gQALAYUKHuUhCohXYIgJLEWoqBMVgKJMJAsZLAOcy81wsHmC7bXoLNuLq70Bcm3ssMNc7863HCY8/jT+LiwzvtLjjPnfojA4mefFynaOdLrmt3GXyc7VjKve45cU38Vx81mVnOPcY5zKefo8VjuvhRjzurFazayxscKX4x15dquU3z91aXbbL0WOVwu47/Uxl11Me2rt43budPqcF8r3jmPBQb1HW6XB+rHnhfscHHHivl7voOK5hj/Ve0Nxzt6kpWeW+U7RzZ3niyy9d/KmsscvWX7K8BxT1fUf5U30pfTKfbt8KY58Oleo3PVX4o5MBp6nJ+q1jHuAPtfLHL7ny3sfnm3ZIFqc7PGPovG9pnyleJeu6n7a8axGhDCN6GFnD90evvKXweU6f7vlXoM/235fe8del5RpbXqeZYk3rzyn3v0Pl3vi+E9Kbzwn+6fZzfdL9bw9PXAexJnsCPnPQtFGABppZihffvzfM+t0scLLjO+7r27vpryHX74eF+96o4V43c958HR16KzhdTvH1Hjd3Shbr1+SnOpfEq52+0A7LLa9jn6vONB7xjx0yynuv/mX0iD0iONOpPOOhxY+sBYCrcePq4l6lvbkDrWqLjcV9Qbvq5u7uOzi8jxunxuGO+vbGPP7s9g8Tlj069GS4nEDiZadxHB4k4mkegPkea3Td+bTD0+jOFx5v1d16ZXlxUssCLqZa5Kkr2vCvxflcg6bQemmTszJ5GVflB6jiO4nm9i2D1PFDNvKbM2D0vEZt5zZ+wdvcFtxNj2Ds7BtzAA6mytuOb8wXHL6nPGz++Rn992f33B8u2eVlOG2eivthp0Nt3y5ONsmcnN65cd3iD+br2lcnag4vW9hOpL35HbeGXJW9eTHqaV83GYmri/xeSlbaQBxdsOXcbqxxtujhzyjLb6J/fZu1Nr6T5J+wdiUECHaEDTNlloyoSkKRB7LEWDWMAKEKGCMa0tATYFEDGogHwxXQDxq4gWmqwwMYWJAIiwqHEIrgcEsKgkKQEJQAhfeAOVlULTtqgFFmKihZJpAFkGFgQNCwYETWQtdkk50PKKV590HMzyuV9J6L+XLo4T8WWWXw5T63PynJ1uvyywx/BhjL49794rh432W3CWdqLlm1TVnOGtB6bDqTLleVdp84rr49SzleceSx3euYVLvnGvI2NQs953+9cYDnd/E/YbjvnOVI3vyrY9b0+pwcrzxrOrh+XjvD9t9PZ5bb0XT6tw5XnjfZgeHF7zxe06nR5cfT5y959DwU55eFj265Pr/8j/0Zf9v3vz4/Qv8AJ/8ATf8At++vz858t1YiwSN7XB+p1LO66fUv+2rLj9Xl0s/lPtfIet8OXMP3T5qDs9P93yr6jyOvn+35x5F67qft+byznGi0aN3YdjpTnfB1M/2/OKfS7ZeM+5cz/bfGPJfL0vLFgG9jzPU9D/24fP8A/rX198r/AI//ALZ/pyv2Pqj5vT2wYYiPC7jYJgCGUYBXo8h1++PhfveweP6/7sf9P11358uFebcDqd54O6871P3Tw+t9Z4XOaWJoMaWtzHLLtEaV2rvBlPZX1fS/CoFAXNX0vwW508qg47Ha/Lvrtx+c9mkCWJG0A6ns5zoewPaj2RsnbbK1yTl6Km1O1cR1lG5SOXtzkr08za9RMt16iXb5tO76Dg8b7li5w+k04OXUmF13rodTrTDljzyfOZjllvz710fCWuO5Xm9RjtUx6cnu7smnVyWIsquj42i6sxz1mIOgXtVaov7M25q0ou7btVEC7vxO+KgcItN2qNA1pJYGsKADldTG5c53+95W45TvK9zsrLlOfLbKvnBW3cyjhubTVWnKzDa9jeQ3N7L3E5vQsoq7K24PQtFEmCser6U71w8cd+T2k5O8jyWriKuxvW8jBkNRRUoCKBAhbIjEagSMJQNChYCCEtkNQke1DEL2gHiJQFrbVREFsSpsQHjUjAOCAIHgAWDWlgAxCmbUOKoWAAImAhRqmoMsLAM2oCYoUrLCqBZZyuBTD5AsgdJsHMv5MgQsEodjjx5Y4+uUc7qXjyyy9ba7GF4bcvTHLXjZqOG0OGFesc8VeCqTkuArJ7GybZlNAXjlce1eymcvk8PHWcLGnt0eUmVjuTOXyeTHVeIs2y3U3eznfmS9mVM7d+fmLw7OXerq61FDjvpJ4O2D3OHUuF3j8Hp+Dp9azOfpynOz1fKeJ18eeXL475ueD3f8u/8AT165T7Nviz7Nl1p07wdT9cs793j+tOjqZdO97zn+F5ryV4pGtfQeV+o3m+v/AOq/6sfrehl32srzP8nl05/qj5T2PkK5hdZRTa+m8zs9TKXUnaOEJAaJiNMvQdL+qeFH1L2nzrz8uvWN3b6uOOwGCA7uT6D/ABv/AGf9mX3x9HeA/jfuy/0/fX0B8vp7YgyzHjdzCOywFBhwBMhTxXX/AHz/AE/W9x6vEdf98/0vTz5cK8283n+75PSPN5/u+T7DxOeIDWkdLHHiuvnXuXken+7xj1759eyMEAbzuhYgoIxwur236XTtuB1b/T57rpHJ5gLS31Xlat3sorl7VoesZskptlpaBYVXKWho0rzk6HHl/T8abF9zfQvdqhjhJ512mmuj5xsNLRQ9YVTgWFhWGiLAyTVBGkGqHDJaosiJYCwNUGBgUYDF+Yerh2u7jlsR2JJHnetLdX05PRARXy9yMo9pn073x5+X0PLMq4AD7yK25qQqttLFM0LQlgaNk83SkU1sTXXi65ay2wvmufsQLe2KexgcgAAaUFgGBLCBxYUZGq5hKAgDEBbETahjWhAwDBAYFjACNoKAzqQ0EGWEEaFAawQQLGBAEWBAa0tAaSjQILMLUV2/QaWoqqyZXXm5/F8mRe18iNz2J0IGXmATAAJjATv31Q6ntdeV7fFAgHnO8IXJlrznoZw754/D3RXJcmx11etDigP0rA9DjZJtzbducIFqH7UFzHG5Ig5u9nqJJhN5J+npzz9Hkssrld1lTs87nefwImtb3z9FV0OHV1WgmzVCZbuhaBGbs7FIyLFtyu7dkhEgiIio+mLnFe11lPSzakjk03h6d/p4f9N+qqX5U/pz/wCU19MXEVHJvTzn9O/9Nl+5zfj83qFvivvz8eao8SnwerswvfHX+m2fftU/Lx9s7P8AVj9caV58t2fys/bhy8LPuunPsuPfGz5KFsCIH07+N3z8Mfre8eI/jf1+OP3V7Z8rry98CKBSPG6LYGsFAeQsAH1eA6375/pj30eB6/75/p+t6OfLzV5553P9zvvPZ/u+T7DyOe0LW0Nd6dS+839jgGubbvfmX2kihxZX3rntZxdXuLL1p3Hl6uYEw10/zMvWOaETWMq4RgdELX/6aprv9NVHdRZkMaFPRml4DIraM0e1UTSwSfEQwXtAnqFHwk1FXBqqwBx0AUBy2pmqLA1c5QwKIB7STFBDKQDQgJAjIMq17OXcd+QPc45bXHzKcePay+PIjL8zqfuup5c2B7nLqY4978HzXqdbLqcsYd+VPe3LxdHUgrw3BlFd7exz7GB5U93VUVTWgmCDWlNbaRdPVTWhZGQYBpk+SuNAQChAa1XRlTiwNAaEIBzA1nogMIGgib01AYELdga0CAI0HyAAmkmAEYBjJkCAIrWlDFEIgYNQOwAELQgwITALbQMAABEKIqLBCinedVbiagOSZtc0qaQN2zamUC/sW3NCDpAVQgc3eu3JSAiu/wAs+3LKd56vN2n9ubtWfmTfvO8+tB4+1VX8lJoANZktekmMx50HPx6e3Wucw5Y93Ly6m+U5RxAHefcsSIFu1cuJyVsFI5FiTbQSZJb2W9aImXDWAi8u5Gw27tpChuz1QQj60iI5iIiAFEQGIiAxamVna1WQD7q98cb8tX7FPgw/3Y+F395qA9T0csMOLeV52Xt5aewll7WPkyPNY9GvrlbHymZZTtlZ83ZnWznpfF5/V119HY8hP5E98fhXRnW6d97PGOGV012zVKZS9rL83QscnQMfPf5H78f9M++voDwP8j9+P+n669HPl5q8w4Of7vk7TiZ9/k+w8iiFGtoaMAkGoESjSwDQYIg4ELaFUY6P9LnunOyq9BOxhePaLYELGyDQCawQgDBDEOg2woRYKQsUSyTDRVo0mGIgjiUaRZErnKpgiWIqwivDgPYr7aMnFgYBxQBgFrEFJqssqYpShXRIrI45WnQAgoIsoBBzRgMSGtDFgk0BMYgHBAVEDEE0QDI0IqDCJFEWxKDBlhBYaBAEFmwgJE2gNYWIG6CiDJg6BAAxG/IUbSBCh2xrEGoWYAAoICwiACEmkAIhpaglYRYKoDQKFgNLAorS0FBSL0tooraBpcYCgFYpQFJLcbuG6vgLkireeHFOPHt9zmTCTu2567Ry7bQdm5ydnCtt7kAA7W1rhoMa7YKXCr3XaLtulGRAI+G1akXwU9Tl25KUuqbl3dGcooo1z66NVmByUXdLMBS0tjRofQ0RHNliIgIxrAYiICIiA1GIiojGCsYxgIjERBLEyyna2KrFaeknW6k99+MUc8+Oy32muTkmMiOHn3dZx8u88HVFMws5tEQwSoUMwaKr/EKyiiqi2iCqi2iopOrOxKzAdjD9uPhF1Tw/bPB0FQsbWg0sSCsNQALQiUGTCj2AaIAhoZhQlRZ2wsQLLCEBYQkyVVMLMIA0aucjJrBNAkwo0ECIIoFdYAKSq/4rRYKRawUgqlLYlFDueh6BRqAAxoBAIQSlDBBNZAtYAEY0IGMAiKjWNAA2NBBBCAwoEGe7UZ7gYWIsZG0IgbtiCBGgYCbYWcABBAAwoIGAEWDACKBAUZAMYwsGEDAASULBgECqiYgREQAgCYSUAN2M3v3PK0BJNWnHyo0qxpp0RCtFXWp9roq4rnunMuTnrEgCi1JtJHSRGCRXy7A5Peu05+Pu6Arn0o6kooWDQECIpR9FREc2WIiAiIgMREBiIgIjEQRGIKFjQiNYjARjEVRMYVQCtcMvdXi82KnBj6B4cZ7fevI9Tmq8MP4YejCs4cfT7R8Ebs3bm0RwQPDP7q4gqpw4t4cVkQivwYs4YuCBQ4cf7pvBj6fesmgVIZpg1GsYgBNAIAI1AOawYIgkA1BgBD9q41E91gtoLAGHAX2CcUo00Axk4IGg0YGgMRbUAEjEqhLYERhQ2CkDKaihCIAIWciAW6MKVlAnARpXQvZG76qLodz1jnaYDp7nrDnADOXbkyPQDcyZeroII1qClmMaBZgDAYX2MQGEi7IMhYWeBRjGAMJQgaESA0bGAItpYIIAAE1oAYFCgOLCECjAlgwLCgYUaQACWoAWMYqiAYAQADQABBAAwwIgVq873rtZXTjwU85kWAViatqXdFAsIr1Qe3Z7vOLsukHZczO+zpuHeeSDo49jTC1FWqi6QgS1hopQTywe/REc2WIiAiIgIjEBiIgIjEQRGIAERAYjEBAoxVRSiXm2Ni7FtVPbFgtAKyY0A0BIAYNEBBDTChCnoUMDmFnCCRAK0fABFQaFggY0BoGoBBkaB2SC6hRwCaW0DjCWAsmK5gHFsQFgtAqAOVxqDaGNoNGWeyKxgy1AhMLVSwtIBhR7GVEScFQJxYhkDQDZAqd3fpXO/JNK05Omr+iFCFZcVQVkEjmrT4SYK7Uu4Fyd6dNUFBErAARiAIqoYCFiJEOYIsQATRAHYihAEBpYDSk7HQC0tAaE4sGA/wABgBiNLADWNAsowkEYVTAIINLApjQgFrAqrQmAACI0AsEgNQsqg5WRCLmMBfKWHHt2AbzMRfkFbIrWOiER5ykr1jnCn8V9VrHu5L0OPZBbCJqBJawBBWEaECCjShXvWNY5soiICIiKMREBiIgMY1gNYgQaFGAxjQg0sTn91VFoladA8QDlZMLMaAmliBBMGIjGoKJgkAxiIAzSBgc1iAYQMCqeELBk0QUAIhCApYJaCLKsjQsLCmsNYynM4gxrKzraNoGsqasAJG4ugtkGK6KtIWYAzSxg0QGPRjkzYS/h8Q8p7z4stDQjix9YVxY+r0446sFl8U9W7TIaYBGMY3oYMAHkdjQjLARN5NV98wdGclhTPRtlVjFdUIquVapoLJTGMqcFU2DbIt7XMb7OGOXnFHrgtHFCwGBBokQEKaz3AHYQaHQgxtLELMCIAgEMCdGdhB7AUkP0SCVgmbAowoQMAMAFga0GkCABZVOLABRpQAAIIMAYWqhaxAYESCFoaAUty8q6rz3cEduTUcidzbdgG3YRLANhmySGQzZO0HoRWL06eg6VXOl1LOXMUuhWKor0bXOxrpIAY1iAAGABXLWGA9qxrHNEREBiIijERAYiIDGNYDERAYEQQYFpYFUlDnQaeWYqGGlHAYIpFDEQQCYjBGjYYKBADAfwE0QMEEQCCggQYmAjB7L3Bk8Be4Z8fhQGNusvw5fA/hy9PuVVQLq/l5eR35WXkDkheh/Kvr9jPyZ619L2ePHndh4p6x6H8jD0N/Iw/DPt+lz9m8eY48fVnHi9j+Th+HEz8rH8M+DPtTHiPzJ6A/Nno+jcE9J8FjhNXHzL8zfaO1rq3+j7f8XteEj8vH8OPwjzOzxP69/0T/u7E3in9fT+VlfRuCek+Cxwo0+Vfr9rb4Y377Fzh6vn8Y+mcJ3CK+X/AJfUvv8A/wAv8Dfys/X7b9D6BbhPefLm5d6uE7S3xEeR/Jv4lj/Lb978F+9bL21j4f4vPXLK97a0ysfldPHvnflr6lOzp/ht8apbDzQby9IBuh7ehlxLCZlcfdueTgc65K+k45cS24PTx07z1TxXnpTRAeB6zmBQAudbz+ToPO5Xn8oDrbO24OzNjTtbVreShsvYAtef510MuzmAbzN3fSlbN2it4vFu56lj0gbNX3WUxxtuo+gZYY/lY3HHp88Mbb/VvyeW3B53G7jqOD1ulMeHW7vGXnrv8tL2F5avs9LK6NACtQOqMAGU1TFNCxoMaxgMRrQJNKaIBGGCFgNLBiCMACBaAeQBgADGlgiuaEAANLAss4kAFDCAAjYoFgwihREBAiJBRyunIWd7vPnPqDdb5dvbwAuLAVmMjBGiQV26XNHKF6g9GNEQBoFVz7HFsemcywUvpzeXhzdqvK74a9nLMpsfb4k6ln7csJugMvj2YABgBgtgmA+l/wCX63+y/wDd/gT+R1/wy/8Adi+zMbYfE/yut/479n0kcHV/8eXw39z7RljxWcscte2Xbx9yL05Zyw4L642fVZ9wPies53wz/wCOX0K3F5ZfC/Q+pYTrYZbtysveW7+b3+76g/NXHE48X6X3S+/tPgD83cePqZxR+h9T8OPwhHBh+DD/AIwHwLcFuPu35fT/APHh/wAYV+V0v/Hh/wAYD4aj7d+T0v8Ax4fBn5HS/wDHh8GR8RR9s/I6X/jxT/L9L/x4/wB/MHxEivun+X6P/jx+36Rf5fpf+PH7fpB8JG+5/wCX6X/jxF/l+l/48fgD4aJ9x/y/S/8AHh8DfyOl/wCPD4ND4duJuPuv5PT/APH0/wDjBfl9P/x9P/jAfCeKeoOLH1ffeDD8GH/GHcM/Dj8ID898ePr9icePr9lfojXlPgdzB+ceKefwpu/9uX/Gv0Tz9a3n60H5/wD1X+jP/jfoW+HqX/8APP4V9zCD4jwdX/x5fYf+V1vwT/lH2bTdA+P/AJPW/Dj/AMj/AMjq/wCyfO/Q+spoHzD8jqfix+FM/wAvl+P4Y/4vpqA+c/5f/wD6ZfCLH+Xn4s78Poe/03QPC/5fD/d8TvyMPTfzv0vaaboR5T8np/gxWfy8Z/Tj8HotIDk6N06iaBytN06ohXJ0mnX0ijlaTTqoDl6bp0xg5Wh6Xrqd9RzrnhPdQzRmnDvWx9o5N6+XtqIPa6L5TvZPm+Z3qZXva5OwfT71MJ72+Eci9f0x+NfPtq+6o9netn668Hnrlb3u3JVOKe3Pw/vQrobA5/Pyn2rep4+IJv05mc//AIwnYH8oC1U2o3JkX7XNuW1NjbJOlyQs+OmsO9HR24K26axjpDVhvM7rpbGAY8x1Pb4PRuNnNyg4GxbUURp0dt25yCulXFsPEiKezNiLAx0sOd15OMtzfdVexx5X5/U9RbJ0ec/Fh9u59j5tM7Lz5PScf6Lj65cW/lpkdDq2WYeUu/jtyend7+TjWrOOWhHp0Y0Bh5IGAxkOaAEQAoC1hgBYPQQCic0GWiYEGIiAhYwgCctMjYWBpaIBImMAsAwAELQgUxrACA1XBAoxVYA0sRgWsFRz72W642XOgoU+UPd0NRkSLY5FnQESHnAApBMBBhRUMCiIpZZpaq4tjcMuG2ewsslDuOsuPW5KDfbwRHo6vtQhGEeIoo1UB9WnW6k7dS3/AFa+h2P8x1ffHDLw2+dI6sPqP+an9WFnhd/VHZn8npX3ynjjfqfH+K+ouLyij7nOphe2ePx197pzm/PH6fNJJ7ZaB+h0fE5n1Z2zt+e/vdP/ADHVnfWXjPo0D60181n8v1wnyt+iuxP5PTvtlPt+tkeyE4E63Sv9XxlMy6uE1z4t/h19MB3WuJ+Z/s6nwl+7Im9bCd+OeOLI9GJxJ1enl2ynz5O2DWhaiiRjQaiMBAmvDYcfVnFl1Lhu3WM1Pq2D2jHH/Jvt1ep87L9mnirerP68uVs7Y958mh9Na8h0erlleHLn6XWvu5PZgWg2iAQxAAg0ACGIBaDaAWiaAUE0AoNBQIoXqYT+qfLn9zm3r4T1v9+aD0Qng7/J9JPi49/kZesnh/jtUfVVe2TvZPm+MXqZXvbXO4mlfZb1cJ7/AGVy7/Ix9p8f7r5ZtNqj3d/kXyn9+bkXq5X3rzO02DqboHM2JFWtlbY51ym9d76Y8/uRVsBH6vSY+N3fhPpI4Z725ePb4QUXHPG+k5l7y9JPHnfgs9uxKop69efj9HZb2ph2iLWzNuaUg6OyNqQGQwpjUAiaiDTyjlDV+KhsUdDaw5x+2hZWFUxQ3bFdoPJ5TV8VF7C47eVssRVdrGoMaxqDGsRFa7M1Z7OKYosXndO7wwzHHToDKSPL5cupj6XT1jy/V5ZYX++4PYBYwDRaJOASFlgMLBiiBpA7EGE4kAtYwBe6IgMCYTQExAgCNH2aBJZhYMCMoEV1gAACYAAFGhAlhgQV0NAqlgNLAATCQVLdOOtZXdVgXMY65Uml1AKCYgwAwKACJgMaxgg0YiKxy877Om8xeaqSZGCB3WkztD9MgQtV1AqxhQPVtAjswJAogIDWgE/is9yAAv8AHfJvFPSOcwHU3jfZusfX7HNaDqzHXaz5clr/AKnrfi86PYOlz93rMP5OWE1qXXrt4rivrTOOjT6jP5f+z7f8HR/zWHpl9l+t8g4/KD4p6A+2T+R0/Wz5VenV6d/q+Ms+98F3j5m/p9aD79x4fix/5RenPtqvzty9TOHzx+wH6L1StS95L4x8A1l7a+KzxdWe+X/Kg+68OH4cfhCeHH8OPwj4v+b1Z/Vkd/mOr634T6AfXuHH8OPwi2+O/wCZ6n9w3/N5+mPwv0jL68j5F/m8/TD4X6Vb/NZ+sny+kH2dLy78nwG9fqX+q/d9zh8VoP0Her05/VPlz+5w7/JwnaW/Y+KbYD6jf5V9scfnu/Qp/wCZz8p8nzljY9//AJnP8X2Y/QH/ADPU/F9k+h4doPcf5nqev2T6HRn8rL3mP2vmYgfYP81Pw/b/AIOdf5OXtwx8wYg9tevnf6r933aci52uGYDobBtUTaC01URBb2Lao0VYYBU48fXd8uaDojUv132mPjd34Re/Lx/qty8r2+EUVeKdt7vpjN36F+Y532mP+q7vwn1uzOU5TU+H3LvZB578vH+q3Px5T4T6VjtOU15Tl6Lu/wC/g5v9/YilOcZlk4WxXS2p8Tn7CCxtgGIyNiNYGNYgNYxijTSmgsIjQMiwrCaF0xUHFF8Sm1RfMVVtkCr5Y7dACq8VlhY576E59wl9geOa7v5fnSPy76sjksd/8r1t+DozDGIPOzG16THGR1QqgUNCBTznX/p+f1PQOJ1f2zxB6Gory/px8IsbBrWhATWAAQDGAwRTAWQhEAGhEAwBGBLFjuWAb2Z73zQANYOMAsPY1gFFmIBLTAgWESKALOCgSAxAIAaiqrBNCBCnbpcrg27Bd6eO7be0bcOG9+T0snDNObebq/RXmc8fPlo2I4PzoWowAljLUCxGIMY1ioJoGCq+XZ591M3LFQO2lg6kymvd0PzJr3ecag6PEXxKSAtcTeKeiowHp8ey45ePZ0HZgxANQEICANAsAKIgNaFgIiIAkYiq1oRINRiCCYFAEZskAL/FfWnceXq5Ywdb8yt475fBxxA6/H5Yi45+Gfa4yA7fFj+Fv6L6z5OI0Hb4N9rKo2WKjozOzz8QUjHS/Rl/t+5XuNxBUREUa1jAEwKA1iMAYyEBYG5v6t8rIzgnvuoG8ePnfCG/rvtMfHnV2cu3IwCPy5f3W5ePb7HU7dtTwJJ2jS93/v8Av1FtymbB2eLZjznEnEg7lriWqdyUhB7KaYihMYFkGxEQGFjAQSMBGsRQTQoINpYgOEQe0DOIOBYWSVhQRpRiB7GsUMLaUIxAsZU40g4VoTQCCRBgCvN9T9vzj0Tj9T9tA7p88Y6Tk9L9k+bpgaxjAEcrGwG6KaEFgtiAFA0cAZQIbsDC9sQDSkYCIIsEEAwBK53uQBbWoDCjSgEBBgBgwgAs8AK4FgCqrBWFYFDLsHpzd4vTt4ufedezk4ZJ6Oj7P18+1/ivl2VIZ3uxs0+zr26/hTDQub4oCTQDQCTQKBAYwC2CYIFgmA4mXf5Ki5l3+SoKFJDV+QE1C+UWVeoOTtN11OEWoDkbZt1tRNQHT4eE03dJdmBtLEgNANAYWKGfYF4TzeOXN6ABNAwDEYgCYxBRoFBBIFEBtY1QIBFgcIoQNEFgHIWgGBY0GtYAEXsc7j4ens5qA9P+nPt+m+ns5llndzXame5rLn5+gKQlq465znFJQYGAAaFtQGEIAafKqgB2GOds3Y0tF7VdqzIubK2rARlY2UAwUAxH6QLaewVWRrWUY0IlVgRNBgWgAxjQgMAiwEIBogzQLDQYaJqhg2NBZaAwDWIUBxfZoQEUAzQNPL0YAoNWN7oDGEAGquf7b4Gl338Kg4fR/bfF33mOj2vjHofpAzW07GhAIDdAA8IQgYwMYDUC0BBGwGINU2BqBLoHBQMA4prAEFBAWwQQQowsBljECEU0sGsA0ANaWqlVycq6l5PL/uvio6/Tx/q+Udmma1qe0il3dn7T/nx+aGCax534wLGoiFMEAUBYwKgQoxAIUao1jWA5mftXPeic/hBTjrFaeixxk78/JkUJhb5R1uH0X97McWnM4WcMdNqDm8HkDhj0+MUMtQHiUQL2uYkA1AYi2qMJs2ajI8np6mdljLDfOc5fsVZNTShqMaoJAogNpYlUTQoI1oBAYgEARbQoNEAYNRiAJoWgJgUUNLYgMawwC2IxRexy4V+zfOOAty2AMK7efOOcyCYEKhgSwgYAsCA2kMBaCWJFQTViTYErOnRmMhiCroJwGQss1gpITAIhSCAqo1jEEYggLExoBaYijDENBqwE1oNNAeAUaJUEMJiBhI2AaFglCxhaAmCaBgfdiALekt3Bd1YFsRAkHj+j/V8nrXmen+/KeP2V6f3QZ2RqAcUggCxrABTmMBGoEBsK2IBFdxB2CCGUDQDABgUEDWBYBTTiQCgUBBhQGMYgBLMYBhLD5lMbuzevb1VXns77H9OcuL17eDkyXPLne/O17F2fovq527/inb7AQxzrx/Z17UpGo5vkgAMAIQYUKAsZaiBRAY1qAiIdJb2ZCXTxwuXO8o6+OEx7879jo865Dm8MnYzhdRjLTm8LNOk0HK06mOHqvyKdy3yjItW+07vN8Nt3e7sSa8fUQj5qwWi3tcxNA1QSMaCIFAN3Z2pSBASMRQTQoAhFtFG0toCQLUBIjFGsRARGICtldOPxVfyVMJeeu+mR1JV1Vl3PU1UMCwKqchRgGIiIBAaAANRAMl0t9+cc8cugYEVVgNLLYIYBiIqNQ2MgTpNuzjhv9114e7ocp25KOdMPVbWSwCUMIFIMCBJZxYpTDQAQ1rEABaxUY0QkVAnIIWMSwKSaIwEMaYoGtMGoAY0ATWNBoRsAbE2rgaYxEDAoEDmgCIjUDsBigBg83jy61/7noXmv/wBv79HpwYMB4BaBAEFgAMQSAFrBAXoSBAQimbAaAGBaBGDGiCAYg1f24tZa58+G2fHQGML9k9t6yk5c7jdc/PWgaFA+nLlbZLy567++/nrQDCObvaZXwxt+6Eyy9qBgQ/H23yupvsIAIDnzuuW5N8u99uff5Nm72luu+pb9wrHFy5uvv7FaY3Lescr4S37oK3CcMvrVi+ilJ20tautyZa9eG65eetOj7vvnOSY1Abbzs3rLXrq6+OtOb4SACgjQNJBhQvTlefbleevQIpbG/KzlvnPb1QAsW5jll2xyvhLfugbjlj3xynjLPvBWafjLldTfylv3R6OcON1O/vuavwrmOfj09/u5fe7s5cpNC7i8pLdd9S3XwjAZoRMsvy7z3njFje+0yvtyxys+MjASh0uOU3OZnKc3Nspc7E8/w5/8Mvocv92+Lck9rufHah+7l25T1WpNEcXLespPW45a+OtD20gyyLe/flzupbr4Q1UeHA0Ls5kaIdBGhzmrulfShbGBbBoFFGoxAa0KA1oWiiaBogkCIVGhaqNRiIrUCgjdbc/njdxedKXHLlly8wVOPC+k8Iqzsu3DH12rMqIIWKgzFYbSnoBiIYEIBTWlGCCYIIpRI6QAmiWNMBJxjWQOtvVYyYquM0utAuQUYo0KFAAJgQLJGwCyji0UthhYBLa1EYE1qjAnhFLOCaAjSjUBtAIDxI1UEjBAJns33YAx0pqqMtjAMCUagISBAQwoBjSRgJjDACiIMvM5f+2Xweqrx/U/fj8vveworQhEAWl9hA1ns1oJECgCCZCgRDCwY1GcwaAaA1pbAOLDowDccePLHH2t5+EluvnrTPzc7ZlLw9uHGftk9LPfx+AccuDLHL2l5+Flm/lvYPyupyxkt32y/p17Zb5ztz0Dq4dPHPq48pMbhOrw+P8AT4b59vLSf/7P79Z7763OHXpwcX+LZnPzdYXl+X+Vhl/unOX48uW9uLOn1NzWOUz3+677+9uWtWfeNOXLJjv2/vlz27PUlmsJ/Rjry4sueV339F/9OXWtn7Zlx2ztrCTd8/1endwpe+V995X58xFrLqXXK/l44zUmNs+dvLdH1OeX+64YXL1mWr7e17cjuDLHWVwzt744yXU9LnZ8eGenNy7vd4uLiurdyy3fLtr5TQjsS/8AS6k1jNXp9pd3efvbba5NduY5cHU/Tl/+f9N9sueppyZOLKYas3ZL7WTve/kBl5Y9PH1n5l/7uWPnyhXHlMZjP0STd4bd5Ze9t5X5Nyy48ss/xXly9pyn2GTC2cWWOdl/bjjLvLzt9sb29aDMt5zo7v6spZbe+uOTG65e17+6xnnlLrC8GOFsxmPle99d+ahllnxceUvFuXVlx5Y3epuLmWGVytxlzxztuNnbn6+mrdc9dlUnqfq4c9Sce+LGbktxy1eftxF5dXO3ctx7THHHtPSa9/gf1NY8GE/VwS7s57yyvOTl6/escOfS58Odz8sbcMN+E/VlJ8uaKr9SYzq5akykz3Zvvyls7X+rv8BTLr9S7lz3b7bmE14/p1y9+6hjjxZzC3htvO5S7389c6djOvhyxnUl9OfDv5/p0BPU4bnncec3/wDft25jqdSYzqZzHlJf/v27c4UBf2+V39VlNbJbdSW+Et+4R3+rlxYdK6k/9nLGan7p7PNTld6l8rvX2Wfbyepywz/L6X6cuX5m/wBN3N5e/J5aS5dpb4S37gd/r3dwupN9LC6nb37PN89b1dT31dfHs9P1sctYXhy5dLHfK8tb3vkmMymGUvFw8U3rh1v9Pv8Au9OzIt9OZXo3hy4f+pzvFwyTgne+OlezKa48uOX9t47ljv08Q8OWU3MbZMu0turNTfD4e826Orjhlv8ATx5Y8ON3u6y53Xt/gg6HBnMMOCXec4s7jyvtrHdvKc/scjLjlxme+W7jxc7Ze84plZfXnzPsyzx6fK5Y448Nk56znK7k33nb/FNcPTsy5S5Y/l43vyv6rJrcmv75shW96785ublm55bgZcpjJvgk53ht3ll723lfkH9WsN8WuH9G+Hty9Pl3Fw248VxzuN/bjjOeXnb7Y340BZbyxwu7xXDLnd71xfpt+q+6xcrJ3vTxk1Jjlfjby3VW27uWe92b545SantNztNresprK4Z298cZLqa7XOyb89T05im5XWW7vdw6fFPfivLtO17ctG9+XPvN95ZZz8qq+PHxbxu9attvLXFNd54Lk3vLi3vc3vXpPw8u2nJVLd3bxZ6wm7rPPnbdY4973vkVd28WUmVuW7O07cp78py79zv6cP8AdlnnznprHHXlq7Zbfabt5SetUOmefHjeK7uU5T9uvecPpJ7/ADcqemP6v1WYyc987rn6a91uzPC6k6nFeWWcxy4ZPeYan/8AK+nIGPDN8s+3DLjrePO7/dZq9pvW3UPx/TOphP8Ax58V/FnOV1fSdpyhS/hOnOKf9Sf9PLvwduW9a9/FzJ8+9763rfLeuTA8cOxp9ljo5OVPRYJy9TgY1rEGFaNYCppXdNjQ5Yl7UI15tBKJqgAxGMaGtLaoagEAaBaAmMQVrGsBGNQCxCRBADAojQCATGoDWNQGmAEAwsJoK1W9ESOiwAMatzG3yZFV3pjrxOkk7HtBQ2IAwoFQBRgQCFqCFFLBQpQBBRQhE0QlDEBiCEDGDGAWjCDWtQVh5JoIwSAMyFHCNGAAGBGxVYJGAxoRAJGGICAItQ5jRIAGgFDAk8//AKNB5jrd8f793rObyvW9vm9bBGeLGsBGUbAAncKAJGoDYhc5GAHzCggaiIDS0aAEEgMEgQQPtreWvTiy1z8t6EgE69uWh89a4stdtcWWtemtiABc1JnNXd1jNdpjuW+/v4JeZoBTeLL8ef8Azy+lW5287beXPd3y7c9mABY4svx5/wDPL6SJdXLK8VvDeG7/AKrNbtuW+UYEGTlNGbynKZZyf6svpAAQd3e9t8bb99BLcd6uU8LZz+RSCldvJc4s/wAef/LL6VcQE9+/Pfrz+8zd1riy1rWuK616a2FgFCEFlS27s5y2Xytn3Dkt7c3oZ0tfuvyjI40y6l5TLqX/ALsvpdbDp3D+qzyxt9vXTt9uUmgaYFO7y98tf68vroOHzvfet3V+XZ1NMBQ1N7m5fWWy/YDXPfO3tu22/avBQUtc9zcvrLZfsTXPfO3tu22/av6M0DmzHt35TU3bdTy3VmSyamWc/wC/L6V/S7wg89lrW8rby1zyt7+m6rTrYe+XUn/dn/8A5LHU/c8/qNjv8XTv9Vvbvllvl2527WeXrvfnb99eJ4MfSEcE8we2mMnr213t5ek37Ds8fGWy/GPEcOX4qPec9we15/iz/wCeX0l608rx9Typn5uXviK9NZv19O9nK+3I55n871lO/Ox80Ht8sJl7LdksPR3cXjup0ffH4Pn+Pp6PuT5h1Mf+rlJ782FcdgwooWDYAQmIBbkXu7Lm5IEbs93VcV1Z2gA1PQjS8gOdzA6whpyGuhwwjh82hXYZqktMmIUJVNQtqghFtUMYxoiMGEUtGtEa1BChaiCIgiQEr9zJNvQzBlXPdKYXwdeSRGQuSRYRqgGCRQtgywY0QQaUIsAgOABQTGAWATUVXaYEEaxoBGjAExhgBMYwBIjQE0sQDYIAGGI0QQDUBgUEqowDQQTBAgwAZBGFjUMar6MUOYwQNQDGR5/rdp4u9jzk8I5XV/b81vD9uPgo6bS0AxANBqNCAmFiBGoAAjEADAoIABMLBAiYARIIRgBMZAMa1RgRlKIFjBRBRgAQSAWg0ACCLZGMdOYZZ9p8+z0U6WM/d+r7mR4+Y3LtNvQToyfuvyj0e/TlPSFac2it65SankDS6JgVkOAoSw8WgVB6Wx6BU0syL+hgUWxVAFUdS+0WwA53Biqfl+btBEcD8u+SrwZej1KCvHavoS9wxoeIA9rqekI4cfQHp2hR6nFVy1Ofs8xjlx9a2dtPZqWOGOO9TQBywmXd4nLpXHtzfRhMq+LMfUsunjk8Pl08sfNhXGREBitVkIOIu4qxuPdBeRqIrRgGiiEEaDSqaGg52oXpYRoVNUHN0GtDmI6QJJvm2imjq8GPnDb0/wDdVRxmuh+Xl5VW4M5/T9sAhjOfpfgRuKLKK24P5X4Aa0fDlfbTqzpet+AODv0dnHper0UknbksIKkkhwgitCJiARBYoJEADBMaDShMBgUYDSziwAUMIBA1gI1GooRBaIgRoAUYMVBsAINqMFa0IwaEBoDMAIRrWCAYDNqqqNEYghgWAbCxABBliA0wowAGgaAmCCDm9T9l8YPp/tx/v3Z1P2X5feX0v2T5g7QRBAbEQEEAQBREBECYAQiYABhECIwICYwoDGklgcEIUDQsYAUGgFiEEGoBoIEQ5Le02yFMernR/FdeU5u7Jjj+2a8/dzHkcellf9s8/oehmGGP+6+a93bpzaLttDpZCihYNFC2GoBLTmqhTVrSyCtpYRXASqhYFgGFAsJrALYawCgnBAsJrFCmDYg6zQCe5xG0LUBCA0BIiA4GXSmXblXh8sLj3fWAd2UfGWPd59HfOPHXG494w04N7kLuSkiuwwqdjUVBMaijEEQNGAaDmiMvctRBBEohZoAdpdc+dovxpDRBE6A9oU0DECijSzGA1gRIBQSKBREQYxGAggICBRoMYMIMLGUDShhBgC0BDAoAkLQBNAgIjBAxGgFMCwIHDVxgciuIDGlNGVkaucoaNWEyokYBVGgWgEZqIM01jk3P2nxBcug8/wD6pxfArn6/BX5+tXVYCN31psz0rqoPSzKVeeDd3DPfK9wX8/2ZeCh0v2/N0cv23wrldH9t8fqUekABqDWhECNCwDS2hAwIRAFAJsDEJaAyu4WANgBaAtDtMALNHAAQUEAQtb7I7yaFq/Onnl2nx5PQToyfuy+Uc3B412selnl7anm9hNY/tkn3pzrnrTlTpYY995fc62/Tl4B0ewKw9HMRQo1FAIJFAoNoAaasaBV0saWSVBEAIBCmsQCEQQYEbAAwbBAMEwAsawAsawABEEH/2Q==;" vertex="1" parent="1">
                    <mxGeometry x="140" y="300" width="90" height="50.71" as="geometry"/>
                </mxCell>
                <mxCell id="51" value="" style="shape=image;imageAspect=0;aspect=fixed;verticalLabelPosition=bottom;verticalAlign=top;fontSize=9;image=data:image/jpeg,/9j/4AAQSkZJRgABAgAAAQABAAD//gAQTGF2YzU4LjU0LjEwMAD/2wBDAAgyMjsyO0RERERERFFLUVRUVFFRUVFUVFRaWlpqampaWlpUVFpaZGRqanN2c21tam12dn19fZaWj4+vr7XX1///xACUAAABBQEBAQAAAAAAAAAAAAACAwYEAQUABwgBAQEBAQEBAQAAAAAAAAAAAAABAgMEBQYQAAIBAgIGBwYFAwMEAwEBAAABAgMRMSFxgTJBURKRscGhQmETM3LRBFIi4RSS8GKCQyNTwrKic9Lxk4Nj4iQRAQEBAAEEAwEBAQEBAAAAAAABEQJBITEDMoESccFRkWH/wAARCALQBQADASIAAhEAAxEA/9oADAMBAAIRAxEAPwCNNGYhwJqpG/cNB8yf221nneup7Iold71Y49jxLJyQKRspFHJEoOxNsUDYkhFhAnBCRBwkGUUAWKFAAEcKAAKBChRRwocbQkKCgoGSIYuGRSNiTYkWNBIw0gWFrGnYmKIGPbQicoXNdKwo9ZGkXlF7HXM6+RkAydEwCSnaDekOsMVu6k9ypQQ46D5aMMsVfN/gMt5QqWwXLFdFx6JWhTXCPYju/R8+3H/xsOZC5iCBc5vype4iIAAFcz2SiMQZLIZr2ELEGMImmxAgggkoRATFDgyNEAhexViAQxIWAAUOsABZxxwHHBHAIYCwQIQBxxwUAaLAAAUFBMCwgSgqwTggAODOAE4I4gEMTFCjgAgSDjgTiAQRQEDjizgKExUoCiii0AIJIBAQBFwAKOKOAso4oAAgQgKKCAAoEssAATggEwggQAOCOAo4IADgCzgKOOOAEAMAoQLFAAEzgwABEiQJACUEcAkJ2FiyiBykVxNgABu2yuQLDqauNsoAMtiQCoIIRBRJSbFFZGlcgh2shAlSEghO1xzzV43TvYxESCKWpPFDmGFF8sh6pp4PUzmqYcIYBmFKHAllBHAHAKkm5CLCFGJLiRJLmVr2GunKmyqeQIMWpK6DMgAQgQNRfY77nl0mtOO8x5tWjBbrN6sxWpUlJ2VtJX1MQQBKKsrYmzGJ6nyhxRtWCFTTmokiYoUEUUUBQAZxABQYYQBxYZsIi4QoaQmGKhhFCoqLGG0WwoTrC9iKg2JaVzUjE0DIzOU1UkisgHKxlS9rAXRlcxFbuEanMQ7szBK5pGk2QiMABIF1san2mSLJvleh9Rt7+Jmf2H748XkoLghoy9lBcZt2/qN46Pv+z43+pBxEuccX5FILEDgFREEEDiMLCBBEEBcTAjCYoJkAAigIUmcEcZVRxxwBBAhAEcCWBRRZREccccBwIQYAiYRxVWcDc65kUEJsEKVOE7nXAUBI4N/MollkG5dyCYUQblcwE4syuYrmQGsJmfzIT5lcDWEjP5hLmA2AbmRzFcwGwDkZXMDzAa4Ri8wXMBsXBMvmL5kBplGZzBcyAnlmfdHXA0SiJcu4Eo4jXOuAucI3OuAoCCCARZbEwOBLKAsAUBAE4MAAThUAAQSygLEyyiihAVKASKHByqKuyJ6jWCS1AZVhM0OeT3sC4EEEl3SafA0HKD8Om2RHtnHWGcOZU4yV4yt5MiulNcHoZXDGEUG7rFNAFciJgNDkM9o0hvFE52vk215qxGMqEWNSyC5VZY3CMk4lcrIwBkkjEkBcsyw7gFLE0VmZTdybHgQbak15mkpJ+RgFHNTmwLuYCk0aakn5GRoHEcIypQoEoIMsSLKLjFRvbeaJAFbhViJMEQHJKlGN3KV5PwrtMxI0UrEux63W21kqNzVSJdjivMoMMoIsMEMqOKCKCqOFDjSEhQUCNIAUCFgEwyZYm8plplWJSRvqBpcqIMBI0VHM12QL8uXf8TAkWI4k2ZDdyCdzBOZiXE7hWtzEEiXKuVEi4JFEblEoTI5YQqRrgEYCQA3l08c8iOJ3tfQzo+56+rNbf+Pd90ncnxwMye1FcI9ZoI2+x7PimHCZx534wocJnFBFiBRAQkcAQJiYsyOUAIiwjqMizijiqoEs4irEyhK4CxxHuJ3IJxRA5hO5BolGVcG4GpcG5kXAA1bg3RkgAa1xLmM4ACdzA8xnlAS7l8xDOCpV2DdiBxkXcETOKFAQDggwSigBLKBCiOKOAo4sEDiwSwOKLBILOKKKLLBOILCABKFDgDiBUIQCKFrnXEgSCVcK7IhZRMudchnATrlcxBAA0bh3Mo4DX5g7mEEUb9wrmDcu5BvlXMO4tzAaxZl3CuBPBItw7gKk2GOgzzSjhcoQlLmZCKOAEAUAAEAMMKXjLlwNtVfLoG0cG9Pb1Ivf05CnJCWKS80MMsN6cro8JamNdwla9sidzSta4gpNX4MO8yme8mJjxvFkF074B4XHAChQIAsR3gBkokCKJiAzLCA4xCyAb5JJXKdayd8eAFpk6/HIxh34oj1SazShbl4ZEbNYoJeNiWpNGmpJ+RgFnN5zlLMNSa+Bppp+RhUo4SDIgggDgpYXIYRQ/rCgqKHtclCAocUCGWWBxwYZUAWKitjbJEIWCIEhUkJGvyMjbEsbKg2T1HM2MDKIigkTLIjuSRkuZlTgIPMhtczINyIcbmZ3MY1wLlE24ncg3E7kVNuJEO4ncCeUQgAJtznfeQxMCQUIAFCwBQBARnY3zwtlxz47iaQ45yXm11neP0vq6/RKb5qkn+8l8Scv30GCt7N5YG693t+JYoAE8r8YMo4AgMoQLKDBERMgXExC4ncCQIXEbkcCTcTuRxIKUuDcjlGVFcTBOKEgwQCIIIRLIFBMETIpUoAoAwQCgDKALA4E4EASzjgogTigjjjgQLOBLAso44CijigriiygOLKBAsEIoDiizgKOLOAoo44ATgwAOOOOAososCwTiwKOOOA4osECzijgLOBLAE4o4DjjjgOOKBAMoEoBW4pcjHAS7jseURoLNoctTAox7hXM8MCbcshBgTSiKKALBCIQBFHBgJACokBiyEoy5TRZiAOx8SMLR2RIoEhywJxmS3ARyciEaawAsoVKASExc4DPsJWawZoghojzvejWUkzJInKHvnKtlxWgj2ZF5pLzJXMmRvtQFFHGXzU5S1mhjgYJxhDiuKmSpceknGFSDgQwPTAQBQ9zioUBDKriwyzoy4UFRUKEXFrG4oGFN+xqKLZuqNiRkjKkIxSJRnOY3XIg15SMjnMu4hcMprZEuRxIokACIABAiNwAqQDcilEQqCACRS4IkAAsEIFgKHCYBQsERSyCQRotW87lERM7x+p9XX6Qom6N5Oxo3N17Pb8ftogGfcA8b8UmXBuQwgFbnEU40JIIkUQGcIHALCAiJgKCYImRXACgmRSQAoAECWWCQUCKAgCCEUFccUcBRRZRBQJZwFHHHAUUKAhQlChQAAhhAInChYAACpQCIQZwAHHHAcUGCAmWEcBQkKFgAUGcBQIYIFHFnAUCEcABwRQHHHHAcCcEAJRZwFHHHAcCWUBxxxwAlFlAccUcBRxxwAllHAa1NfcTarzFaO9mRPORRDLBCAsUBOCpAoIChEKlHAlBHHHEFgBAFEdmHvNxmQldoB4JcsDLNKq7RsZpQRiSxNswMQFjWM9YmkBxRxZAIAoAUCUWUBQmKFECQIoUAmcWcRVHAlhHCybQicZU5lmiWZMMDUOSvQQyBap9Uf0/iLf5FuhLpi+0+i4JoqQYzUnbOL4Ps4mxYBMkWCNiMWyqzLGmo3NpQSKcjClMoq73I8tfzkk9hW02fUZ3zFe65VZrf52Z5nKV8DkPoZfMwlG6bvwtmIc6eB87xn9yPSIuxoPi5GuRCrlQoIXAEwDEgbgBSoImUUGCAAQUWCUQEcJHBChQmWARYicBIEARMAwQQSKVI+Vl5sWRF+k9EfrPT1+kUlkPe9LJZqvR7fjP6M44A8j8WMTCAKKKBKICLEwQOLBLAITDEgqhMMogoAUAAAEMTAE4I4ACziiAChQsKTBFQAK1FFlgUUEUBRxwABFBAhXABlhAHHHBQghFhAlBFBXFFgkRRQRQAlBAhXFBFACcccBRxxwVwJZQHFBAgWUEABRZZwAnHHEHFAlgccccVFBFHAAWAWBZxQIFlFlAUccCBZRZQAlnAgPCFlEarzbCvYSA4UExQBQ4o4qlRYQFSIs44sCyjiwOBCAAAqmvuCNemsWUYdZ3dhNYIy5O7ZKhgUTmY6J8sCGBNROIqFjIUOAOKLOKBKCABLIKKLBAE444CiiygoDiyiIs444KnwxNwbCyaHOclenipIJCR9BwZ7gpY9O9aDk2moy34S46fMcnLvJHLFq0szDSaoE1tIaqnZ8jd8sn9S8/Mi3IjUlK4zak/CtfwJMpWGk8k9BlGJCCqym27JKy0syn8vUTt9tuN+wdPy+xpY4Cq8l9NxlZ9I80zWEyNJCZLuZJICJVxMREwJhQkAVEgsjgkUsAAIhEkARLCjABOAWABBILAOOKKEwxMgs4TOClkIrwllLFHoj9d6ev0hfElEcVFdfb8Z/VlHFnmfjAhFAlBiYYkAYJRWsgs44AgsosoooIEoBMs4IAABQAgAMoIgAAUBAAEXKCkyhQsBMTFygAAFjgEihU4AChUoBE4I4AChUoBIAUDAROFACKEoI4BMTFCgALLKAooIoATjigOOLOChOOOA4AMACyjjgKOOOAE4s4AAjgQLBLKAIEo4ATizgiiggALLALCqOLKAoo4sI444IAHiWAWAZYJYCxwBxVKixFFiBc4A4IMs4oK4o44ADdf20zCJlV5WKGUT4YkEXjtIokSxOI7zb0kkI0gjgTI4EsEos4ooCzgTgDOEzgCBKOIOOKKCqKLKKgziiwrhy7kNs3I4HNHuNJOcIPjFZ+Y8FBJFpKnFJYJWWoxZTuetGnKSSG25XIrZDMuZOS5lbofBkRSunfFYltpb10jdnKOTTz6yjSxZEmvtloFotSJ/lxIryP1KkMouy4DhhWcnaVtKGzJWy4EQD064ldDK5m2bSCtu5KRkEsImlAHBSoBwAFiYQABBCYZkcUAUUcWAUAqEAJgLAkcMCyiziBMoo4ijEBQTPTH6709fpWDFBD4iorr7fjP64EoI8z8YA4IEo65xQJBwYmGBYABwBHCYQFgnAkFBHAgcAKFEFAhAhVhgBgEJFggWCWcBwQJYAlFggEWWWBQIQIUBRZQAFhlAJnC1nwfQxTllwfQwIYBq8kvpfQFyT+lgY5Rs+nP6eo70p8O9AYxRt+lPgulFejPgulGRhlG76M/LpI7pyXDpKMkE1lTk+HSSfRn/H9X4AYBQ4PRn/H9X4FejP+PT+BkN843/Rn/H9X4HejP+PT+AGACb/oz/j0/gD6M/4/q/ADDKNz0Z/x/UB6U+C/UgMUE2vSnwX6kJ+lPh3r4gZBRqenP6e9fEH05/SwM04n8k/pfQR+WX0y6GBHOFLPg+h/AS1PoYHHCV0ddGgoUCKBQghggWCUWBRQYIFACgIABFFgCKiYW4IQLCLAoMAMAiwAiqIWEBUCQcCEQEcEcAmUKAgWsSFPMlCTKG0AELWaxWIBI0EQkaiIhYs44BMoIAASiigLOOOA44soCjjgACOKOAIEsoqiOOOILNWG8yidDEwj6Bc7mfc8r9arxXd8AXVqvh3fA9Dmck/mEso5+bwGa6snixvZ7yjY0rid3xI4R0DhjN812ehXPH72dx8Rl0bvIyDqxvmtYwj0i5jSSZzDMwdx1JmC4slReWYU4E0TRpXN+MrmRrBiYtawFFCYQAghAlBgiYRBwBYIFliRYComEcQCACEBRYmUUKAFHEVZwJI8z0x+u9PVEFhP8CjNdfb4+3BCYRwfjCgkCUAoUAcAYBYBBRZQQFgFlhVFFinSAiWTOST8LJvpT4LpCMUscfoy4okej/LuMtGiWPT0Y8ZE70Y8GFefFHqyor6Ok0lSf0xQHi5Is+D6D3BUnxRJ9LzA8L5JcBbklw7z3T0l5i3px4AeHelLy6fwJHovij2nlhwR3+NfSVXjvo/y7hX0VxfQet88FvQl6sOIR5r6C/k/3oJnoL6Zd4+vWh59Al6yW59AU0vy6+j99JJ9D+CHD638WI+s/pAzPQ/jHuJXovhH96iX6k/p6xP1Kn0rvCC9J8UL+k+JH5qnBCHNV8gNH0v5d34g+l/LuIX+TiI/5fqCNX0fNl+iuLMpxqfUByz3yCtv0Vxfd8BP0VxfcN505fV++gH03xCNr0o/UQXTj9Q25Qa8TEbZGRs8sfqIHLHiN63myQ7aDrHOtG0eJHsuJm5eYi/I3y7sxqWErECL45kVnkdmxYqxnrAhMNNmxViJfIzwNkGxCbRFTA1CszOfkWnxAn5h3ZislZWA0bvideXEbxLelmRt80uIV5cRuq7xYTbW8BxXkVm9yMZXaxEuaSA2eVPwR6EJ+nH6I9APNNb0KRq1AEfSh9HX8RD0YcH0scP5iccUbC+Yf0EDE9CP8u4jegvql0I9OXzMN8X+knevS3q2mJWnjvocJd34kf0JcY96PbfUoPh0Ej/A+BoeBejP+PT+BFdOf096Po3kpPh0gejDi+lGh81ckl4X0EbPg+hn0x+X/kI+g/qA+aBZn0E/l5fxZkP5Z/RF9AHiAJ6w/lv4dF+wyH8ul9S/fmB56WOmVHlTabdt1hn3RplKCEgigxURFSCQGJipEGCcEUUJMVEHuAUAFAChttWYV3hd2JMy4R5r52DRA1o4C3Ly8DiL4UCEcGAACgACQAqAAJZRYQZRxYFAhFACUEUFCWUcVBnAlhRCyxQgcZRpcyB5kQ1BsnSio4Zs6KHLO+9d+4zrPg3qKPQ6eUI6DbpjzrPg+gs9TKK4PKrmvCW7cx8WXBETkj9K6CozbnXNTlXAT5V5o4qybmG5u7tgSnCL3y7vgRfTXF9BBkvWaVN2eZfp/wAu4lxhbGxoOlO+GZMMS0XuXaaiy87gSDgxEo4o4UsQIhh2EgAOOECgzgDgLLLBICOEwgBOLBAI4ApZ4XehN9QBChMVOo/A9do9djU9Gaxtov8AgdH2/XcrFsnLgrN+Zn4i7fLj8SN9qyUrri1bPQHt9llna9ShRwldHN+XKhGpCnKbSSemzsj0L8rHi3qDTyg49m/Lw4N6bCvoLyQR4tmLcr4Ht6opEnkgv/YV4dyPgS1SZ7JemuAl60N19SA87VDyZtKh/FDiddcGB6svpIiMqLX0o0/S/kQOeo9yQl/kfiA2/SXFinpwMPkk97L9LjcNN21NfSJc9NcOggeiuCJiprggA9aHn0CDrLgzQ9NCnIjIxfWb8Ih6s90V0ktxQkkgB5qnkJf5H4h0pE0Bmcs34mJKnzWd2x7iEb8qurOyukA1/RJKorgOojOSWLS1gYforgib6aK9Wn9cP1L4kJ/MUl41qu+oCf6aF+RGOvmKbwblojJ9SKdeKxVT9E/gBu8qD5UN1VubOMJtcftXXJESXzHJjCa/R2SYDu5UXZDQ9af0wWmpb/azK/NSUrcsM96qXX/Eo9HsXYYLry40v1SfVExF8zOUrf415/c12Mg9ZsEeZuvJeOD/APqn/wCZlRrznjNR0QvfpYHsJZ4tKtJYVZf/ABxFYVpNXlUnojGHW0B7IAeG1a8kvtnUv/KNPsianqXz5qupxS6gH9NjJeh/pfwGVUqzVuWdTHO7XYhx8yW+q/P1GuoyhTP6Zfpl8CJyy+mX6JfAbvO+dffVtw9R9Y6HNcJ6fWqBUXll9Mv0S+Alyy+if6JfAy4TfO7uo1uXqSXebDmvpkv/ALagEbll9Ev0y+B3LL6J/pfwIlKV78znPPL/ACSXUKznlkpRfFVJhC3LL6Z/pfwEOWX0y/S/gKQknFXUpPi6k13Izak8vt5oaKk31sKl2fCXQ/gJWfB9DNpSjbZlLzdWY3pTfNGznFb16kn3sCtT6GJau4dbnH6Zv/7ZmBGb52nKry2yXO+sCDc646HNf/qvNVZdpmUpuV+adV55Waw15gZV0VdDgnOy+2VVPzaa+JJhNOKcp1W7Z2VO3egGrdCuROnUaceWbs3Z80IO3QszVbX+o3/9UPgA2hQmRnebjena1+Z0ld6kaz5VvpN+dFrvTIMEUsK02pxu1Qj5WnfuYE3GGfLSlolNPoZAsTEjV5Y22af/AM8vgZCknPkVN3xyqpq2l5GGjhUR38q/aGrsq7jU1SpPtJ8K6mrxhVa42j/5GBtunH9pibpx8iA/mIR2ueHvQl2XJf5inxf6Jr/aZaD6UfIg/l4vcu41/WpP+5T1yS6yQqlOWEoPRJMobT+Wjw7iN+Xtx7z0HUHn5lHmvpT3TktZI5aqwm+74HoHSI38wGQnXW8v1qy8MX+9A9MeANlwQDX9eaxgtTJa+Y4wkbXKuHeIci8zQy/WhPKzu+K+J5nO7bssPI9BlBR5XvUl35do0ZcylKMfE8DbJjZcF0IyJIcjhJYxktTMGWB0GcKkYVRWE0MTFQoyjiwiyGStxHQUsCKAFGXM6ntaiRLAy4ZSQeieYeEsNBmGu95klfU9nmBKCLMvhkwRQAgESJAkUIHBgBFlglgEUcUBwAQIVRRRxUWWAWQKCZwmFPW/KvN9w1WOqpGU6s1FXz1dJHdCd7fb0/gHshqY5Leep2tZcFYyqdJwu3a/UjaK5UJQYJXlCcWcQUN2Ur6C5yvksDNMgiwDgoywSgFThIoCQSOZ8WQCwNLmYtzsyDgNj1PIrnMk4DUujjLErrTozNDZDKVKo8INaft6zZVGW+aWi8vggM4EdSpRWLnLTZdWfeTFGKwjFar9dwGOs8E3oTZr+lPglpkl3Yjvu+LOAwFR4y6FfrsT1RgseaWl26rG0ItpYuK0tAGoxWEY9F+u5qXfFmNzR+qPSiN61NePoT/AodaEXitPYxmP5qG5TfQviZL+Y3+mtbbMNMWeJn04RckpLmwyu9+gUdWLu3FZ8L/EevyyjJSkuKWegodCoUo4U4a8+u5vrLJJLQkiHEnEAOTXnhv4u2Qk6z3RJhySzfmwMn1KnBCF6j3jry8iSAzfTk8WK+hceZmOpBYyitaKIPpLyJqppEd1YL6v0T/8RJVk1dKTXH7V/wAmn3Ghr8iFrIYn5n7lFRWlyVsvd5iNP5hrBw/TJ9+QHo9hQ8kjXlKKk5STe6Cjb/q5mY/rSc0uads7q8V3ximB7oA2lieGTndYdMpv/cQKTtHJRvxsm+lhHtPrUl/ch+pfE71Y/wAtUJvqieEzk5SV+PBfA3ZSk/FLpZEelqvGTaipSaxXLa36uUizr8q2Jfqp9k2eQU8ZCM8Ar0xVOZc1oK/GpK/QomK6zUklGlnv+6Vu6JhrZRieNFR6ZKq147e7T/8AKTMSFacm7zlbdZQXTdMy5YGVT3gOKpUe51F/X+AEZfar3k/5Sk+69jCmT47JRkzs2vtis91+1jocrYRgtEENOWKHAwrNhL/JdWT8kkbsqk/ql0jXjtGrIIGlJq+bV/MQm3xfSwKe8GYE2OyjFka0dkypgOLcN7xG9uG94kA42YcdpmwzGjtFGvIzqe8myM6nvIJMxWGAhIKngBBqYM21gjCqYM147K0AYE92lDoY06nah0lGB4kb7G14kONgYUdpmvIxo7RsSIM+nv0i8iJT3kyRQMNkhTwJVPZIs8CDZWBgSxWk2I7JiyxWkocrG+tvUbhgeMDckZdPfpNJmVDGWkCXPAOGygJ4AQ2SCDPdpRv7hvzNzcBirb1GyzD8a0G1IDPp4CFTAKnv0nVMGBsbjB8eo2VgYvjRRstLgQaeyT2ZtPfpIoZvDyaHQ6k/rl0jUqYa0a+4IQpycZStvfBPd5idaTlF3s/PljfuRCjtsWnsvQBuqSt7Ol+hGTCVqjyyyyUpRS6GGsDO8eogcdSrKzs5RfH1JvubaN6Nb7V99XopvriMueD0HR2UTA6I16rk1zxssHOOf/TY0ZV5wz/wzXlzRffc86W3qCqYMmD2L1X9NP8A+b/+SDH5hSTfJUydmo2keb7kIQk03ZtaGzGNPQ5VYb3Ujez+6N9/kNas4Ti+Wd3w5JK+fmNqq27Xbel3MuHLfOPNrfYaVV3y80XKLvaybsak1iT24f6Uf1S+I25W3JryvcqIYqImmoSe62kCxY1FSe92NX01pAawrZvBNjy5EnZIdaXKrIDxuSksYy6GUj3DMhOMXjFPUEeQHHpDo03utoMt/L8JPWvgFMN4DbPSHQqeT1jIdOccYvoKHiYZqJ3SIDxK/Sez4ykjizjL82AEUAAoAVBATAFgAhA4MACjjjgBBLBCqLOBKOOOOAsSDEgPpdZZLIaUsZW+oeSGK3nrPPy8ImXvfUQBTtzBPNwUAIYJ9FhQ3Zyvkhecty1mEBxYSTeCNn0rYvoKMQkqLlgmzZtGO7tZCk5SxeogxHJRbTxQPMnvIjRB/eAab9wxsp/vMUT0BTkKG9zC3MEbgqrvBN6E2N/mNBVJrCUkuCYDoVGpwUfekl3K7NFUY+Kbfupdb+AzvVn9TJfrT8ugB9qnTXgT95t/BdxuqVsMtGXUebevL6V3hfmGt0V0syPSMSjxh16j8XRkYt28WB7e6kFjJdZjP5iC4vuPJrEixoPp/M8I9ZmP5io8Mhti9gFnOcsZMh2JlhexoZtlwPT/AMnO13KEcr4YaWMmxpSnOW1OTXC+RhDeTyK6eg2CKyjG1Hrfyr5abvZXlvaWCPMDcotpyayeWYV7D6kI4zjm8I3m+hEiVRQV2pv+lL/k0eRuUnON5N57zqgR6l6yspJLP6p2fRFSM6PzF21aKS0zv/xGT4VoRDp+LUA8Z/MSuuWTWa8MUu+4c6r89PPLsshiyxj7yNuZoFTl9t7Ju7zkuZ9LuQVJuoteCS6kFT2Fr6yCvaLQwNacm976WJR2I6BCYtDYjoRoZ8dvUyXMhR29TJcwJMPZx0ECO3qZNh7OOggR29TA0ZlU9lFTOp7KAzntLSbsjBe0jckBlU95U8DqeLBngBqrZRi+JG0tlGJ4kBtywM2nvNKRmU8WUFMnR2SDMnR2TIxpYocLG9LFDhYGFHaNWRkx2jYkBAp7wp4A094UwJMcDJka0NkyJgb24wHtIcW4br2kBvMxI7RvMwI7QGvIzae81pGTTxYEiRUMA5A08AIk8CfDZWghTwJ1PYWgBv1B07hsVMB0bgG29pDhY3ntIcrAba2zcZhrbHDIDChizQkQKe0zSkFQqeAnPAUp4MqeARKjsoyJmxDZRjTCnBuG54hybhr+II3ZGTTxZrSMmniwJExSGyJzOhgBmzZr3yMKRP3AZ1/uNSUjC39BPkAEJWLlK5Dj2CbA2IzyM9yzvwAWGsh8f3vAcrmuDIMZWb6SEyMsdQGzKVyYpqw3N4KwA1FJc1ybKSaY2fiKMBwwkuVEVtc60dphxwEXigHzLBiNPZWgbhFhgUOXxrR2kmeD0MazecdZr3INZbKIkdp6jJg3YK9prQBpTVzP5XHGxoXI0+p9hlU0h7y08hHeA44rK45rZ6DAjghz/VrKyS3aWSLZg7lpFt/QQDHHWabM2OOsnsBMWuRrBmQvc4SKDRcPMiHFAOMXikzGdGD4rR+JvnBoyHQe6SelGQ6VReG+h3PTQiMvGcOK0gns+PmYjpQfhS0ZFV5mUPR/LrdJ60YMqU47k15MgxwBQABMTFhIIAEsECijjgqiyiyoA444KESFhED6iQwOGvqPQuOhnn+5PLDyPJy8Mg3hlnE4+GgGNOVslibY3OJ7GGVyN77GsopColc0NAubzy06Lmartq4m3eU/J27j2dHArgR2cR2eN3YMjCkbTMh5brmWkO4IrdcCsuHeaAilyOUBMuXcgHEE/mBuyGEUTLigiicUEkTrEZE4gVsK2AFQFAxMMiCCACKCLOLAIjslEdkGYzdo+LUYbN2j4tKKFfHEkVMBDxx19QpUwNjS8K0Ig0/FpXUT/CtCINPxaV1EEZ7UdKNiZkPajpRrTKE4bC19ZnR9otDNGGwtfWZ8faLQwJUxWOxHQhKZJj7OOhAZcdvUyTMQht/0vsJMyBeHs46CBHb1M04ezjoM2PtFoYE+Z1PYRcyqewgMp7S0jgkN97S0jhkBlU8ZCc94pTxYnU3gaq2UYniRvLZQ3/EgHBIyqeLNWRlU8ZAFMnw2SFMlw2SDEliOVjaliOZ4ANyO2bcjFW2bcgM6nvFJiFPeSJgKQ2TKmatPZMuYG+tkbbxQ5VsjbligHIxux2xxvAba2wN6Rj08WbMjFhtMCdIjU8GS5EalgwE5kynsLQR5i1LYQGLUwY5VgtA3qmDHAtlaAG7LEc7GxLEc7wAbPjQ4ZDe8aHGwG/DaZryMiG0bEgMylv0hzwKp79IpPABWGyYszXp7JlTA3tw2PEh0LZGs9pFQ4pGLDaZuSMGG0FTJiFPAl1AqMJSWSy4kQ254mh4UegflE8ZvUkL/AJWP1y6EFePb/wB8SfI9H/KR+uXQgn8qn/cf6UB5ZHFa+sRZ6n+Ut/cf6V8SI/k2/wC5/wBP4gMDc9JnPfoPTvykvrXR+JGfyc/rj0AMZkdY6meg/lKnGHS/gRfylVPGHS/gAx2EsB5P5Wr/AB/UR/y1ZeFfqQDP+KF2b35et9H/AFR3axJ0av0PuAb8cBCW42lTqRxhLoIDhP6ZdDAUZFjgyW0+D6GZsXa4CstxtIb7fWbqAhQwFntIRj2issYmRokSW/SiUQZYPSgpRYBFLAsMnQsEOdYsaywHMsdXYUL+FaUL79REWzrRKe7R2hBLaek1GZS2npNZgJhCIqZUZxxYUIIqcAgUSCgIpROKAgidydYgGhYoJAAefVo8srrB9ZgHotfY0NPpPOyKSExQSIABLKIBKLOCuLBCAE44oooQFxEI+pHg9B59bDR2noUtmWgYO/V2nh5+EUEECdOPhtw2RyjaPW5gk7Iii0sCIUbVPOa19Rk0/vm/Ntkym/uWh9RAoycM1wa6T0ubbvy80eJhs0N93mJs8zoabMV3Y4GQA0b5xxwHHFmtGm5AZIR6VClFeekeNlwA8FDH1XpqOaGKBKRMIaJoCxKEBYqJIuICwCooJChAYQAoUEECEQGRmSSMwMtjgo4S0rqG+xwUcJaV1AKeNa+oOpgJ+Na+oVqYGxqPZWgz6fi0rqNB7K0GfT8WldQEd7UdKNeZkPajpNeYCcNhfveZ8faLQzQhsL97zPj7RaGBImS47EdCIsyVHYjoRRmQ2/6X2EmZGht6mSpgTI+zjoMmPtFoZrR9nHQZMfaLWBqTAp7CDmBS2NbMjIlitI5ZDYlitKHTMDCp4yLnvBp7UhWYGlHZWgw/EjZhsLQYb2lpAccjIp4s2ZGNTxYC0yTT2RGYpT2SjInjrHK8BtTHM8CBtLbN+RgLbHBIDGp4slzI1PFkyYA09kz5mhS2SBMDbjsobssRxx2UNuWJA6HgNlbaHM8Bs+IBxSMKG0zekYMNpgaciDS3mhIzaW8BeZdLYQUxOlsAQKmDNuOytBj1MGasNhaEUN+Y69w15jp3FDWe2hzMbb2kOZgNmO2bsjAjtjikEY1PGRKmQ6eMidMgRp7Jn1CdSwItQK1Y7I2ZYr97xyQ2UNuWKKHJIbsNocbwG9HbCHYoepJLcenJWG5RWLHOZB4YiV1xG+KGFbmXE7LiZQZRpZcTtZnBhE3oL6CCcBOOIJwE46xBOAn2Zdn5kAsCdn595Wfn3kQK7AUuxO4pd8WHd8WBn2jwi9RD9Om/BDoRs3YlfyXQVWG6NJ+CJCdCk/D3v4jnv5Iq6+nr+JAw5fLLwt6H8TzeV1dPJn0EMv5mHNDm3xx80B5esAgUEzSnRG9uscyxv+8DCW8cS/fQRgFsraCfbtI/4EoITtm35pGvIz1v95dRoS3hUQVM/mXn0Ey64oypcIssKE444iOOOOKODEzgAM9mgZjKAEAwSojVfZPQus80PUqns5e6eVkaJCYqIhQlFlGRRxRwUYsIkoNl0RWiYCQZIkTGQTTD6mnsSGSld38sR6T2HqG6sD5fMiC8rEQWbvusJHr4+IgRuDjG4ethGluIyQtLcIhWisTGjkTTMSV5Zb2ehzbF0Q2+AuIM4OjBelkUnMzc/wB5kaYtrmgoi90JcxkaaSRscyQzeZka5oPr1bYEmlUbmk99xgJNm5TVpxA9UqJOOo8w9I9PeA2iKYNmnYmGjUxWggBBiokKGkLi5GFgJAoICgCwYmGAQRQoQER2TCOwMdjgo4S09hgMcNHCWnsAUW2tfUXVwOW2tfUXVwZ0Gw9laDMp+LSuo03hqMyn49K6iCO9qOk15mQ9qOlGvMBOGwv3vM+PtNTNGnsL97zOj7RaGBKqEqOxHQiNUJMdiOhFGZD2mpkuZEh7TUyZMCRD2cdBkr2i19RrQ9nHQZK9pHX1Aa0xGlsa2SJiNLZ1sgypYrSOaQ25YrSOWQGBT2pCkyqe0w5kEynsR0GI9paTbp7C0GI9paQHPIwqe0zelgYFPaYVOmFT2QZhUtkqMmY5tw2pjm3ANjxocUhu+NDjkQYdPaZPmQKe0zSmAhSwIVQmUsCLUA2I7KG7PEcUNlDeniA59w1fEh17hqeJEDokN2G2ONjchtgbMjLpbzXkY9LFgTZkejskmZFo7OsBKpgT6ewtBEqYEqnsLQFY9Qc24bNQcq2QhtPaQ5mNeW0tI6mUNVbY5JDaW2hzSKG9T2pGtIzIbUjWkQZ1LAQqC9LBidTBlE2GyhuTHHT2UN2YDleA21tocrwG340GXr1LBmy8GYdHxG88HoOYwUShnqquEu4n+vHhLu+JA7RYaPrrdFvS7dVyvXX0P9X4Bo8Qhp+vD6Z9z7ST69P+fR+JQ4zjD9anxl+lkn1af190vgEaZxB9Sn9aJHNH64/qRAuFcq6+pfqRIz4vpQCFyugmWfn0L4nWfn+lAQujoKJVn5fpA6OhlCBYp+n/AKjujpIIREJQgbQFhSwIkAvewpa91xT6iAaqxIPm+OCFmJx7RVlaO6P76BxL99A2o/voHIt2rqCFt36SV+JE3dBM/EjI14tMTSe8zvq0xNJ7yCEDZcCxYiovKuAdvNkk4NEM+IX3cEKlgR7+TK5kSDgOx3oMh8qe5HWSAXMxmkZjNIRKLKCLl7OXus8kPX5ZU5e6zx8jQRIUAIoSgigBKCKAMWIoRltphiaDI6ooiyQyOdHJ9IT2HqGNN/bndKytbex5z2XqMlK61HyufRlj/dnzWvfOxwo1bfcTPbx8MgG6OIbx6mUaW4g3ROkIkUKZC8T0mmiBb7npPV0curQJrg0ruy159ACuuIk+PHWed1NhmMzXZjtGWmKcSGrC0Y3MojJXHCoWJSViakbcSdhDxR0oc0ocqzM5RwfBpnZz0+5LIaJ6LPDWecnneliVfDrMs2KuC0mQRRigIqbBiwmKgKigAoAYoAKgEKABALCLJAiyDEY4KOEtPYN9jgo4S09gC3jWvqCq4MHxrX1B1cDY1Hs6kZlLx6V1Gm9laEZtLxaV1ARpbUdKNqZiy2o6UbUwEKewv3vM6PtFoZo09ha+szo+0WhgTqgvH2cdCEKhIh7OOgDLh7TUydMgx9pqZPqBCsPZx0GOvaR19RsU/Zx0GP8A3IlVtzEqWzrYvMQpbOsDJlitI55DXnjrQ6pEDfp7TJExGntMkTAWp7CMSWK0m3T2EYk8VpIHTLAb9PbegcMsBvU9t6ANGYFLZFpkejsvSBAqDh8I36g4VslDa8aHLLAbD2kOqWBA3ae0zWmZMNpmtMCFSwEqgvS3iNQDVhsjemb0Nkw5gOXcNR7SHWsBqvaRA6WNqO2Od4DXjtgb8jFpYs3JGDT2mBqyM+jg9JoyM+lg9IBzwYtS2FoE54MulsIDMqDhjsowqhux2QG1PFaR1vAa88VpHTuKGj40OqQ2fGh0MIbcNtmxIx4bbNuQGVS36SqmDOpbxSeDKpWnsmBUN+lsmDUAcvhGx40OjwjX8aDL1ilvHXx0PqGvS3jsXxOY+ZFgiVZcEQ8F3HtH5SP1zvv2X2FaeVWFLG7VpelLlvzZXva28xiKALW+kIoI7Piys+LLOAu749R13+0UcADduHQI8y/gatJf5Yecj6FdODxhF/0og+bb+6TeZ/uR756NL/Tp/piQnQoP+3DoSIPGPUnxn+ocMa+CfPfu6x9flKD8C6ZfE8LlG05JYKdseEij3NCohxFgyAjEgjmwmCcUBxpLEzTSjiB86rfpYTO3v3mWwp1Q/fQOVbtQ2ofvoHLHdqCFd3QSvxIe7oJn4gF9X9JqvfwtgZv1f0mq95hGeKACoaUWEWRQFCgIQJZZQBBCZZVCZbNQzGaQgUEUEdP2cvdZ5Cewz9nL3ZdTPGQ2IEsEgoooEgsESOAXCEgjLSQnY0DIFEZbaAlYTJwdXus9l6UNocctl6huHR4wHBHGwixvDiY3ioXMdG2jDIqUiA192RPTzWkF5T0pns6OHVNsJM7m4ZkCVzyPQxmZTJ7IZgRLXNC9jMeAnGDkac23zrcnIe8FlnGz8iBCKijYPW+farlXBBWFAGbcdOaWz0DAeI/fDqQx3izwvrMCrsrSYY4qmz0DcRl0SBYRFjQWFREVAWFREUAVFRIVAIMEMBcSYsJsDCZvUcJaV1GCzeo+LSuogX8cdfUK1MAPHHX1CtTA2NDwrQjNpYz1dRp+BaEZdPGWoCPLaWldZuzMSeK0rrN2YESnsLX1mcvaLQzRp7HSZ69otfUBPmKQ9nHQVMuHs46CjNj7RaGaUzOXtFrNOYF09hfveY/9yOk16WwjIe3HSGW/MiUtl6SZMiUsHpDTJqY6x1SwGxU7R0vAgbsNpkqZEht6idMA6ewjCnitJu09kxJ9oDslgNuG3qHI8Btw29RBszIFHB6TQmQKOD0lEWoby2VoMOobUdlaAGy9pDtlgNSW0h2vAga8Ns25mLDbNyYGZS3nVDqW8OYEqnsmRUNensmTUAcC2RrS2kOlbI1ZYogdrwGstsdTwGotsBySG/T2mOGWA3YbbA2ZmZR36TWkY9HxaQJcwKOwhWYnR2QIVQ2IbC0GTUNiGytADdqY6x27hp1O0dm4oaL20OtjUe2tI7ngENWO2b0xvx2xxzAwqWLJM8GIUsWSJ7wApbJj1DapYGTUA31sjYe0hzrZGw9pBHt9PZhol1m8hv09mOvrN1GR8yrd73+4+l3hLT2nzb/5f7j6PlhMy085+b9qvc/3MYo/Pm/aL3e1jDCrOOOKOOLOAE4s4DTpe1p+8fQzPnWk0qkW2kk8We7evS/1IfqXxMI2CzP9Sm/HD9SJHNH6o9JzaTj5mntz/wC4/wDkfTJ80TX3y9//AHG0erpriiVdcSLZcESLLgjbCyMSSKbCRRZQRxpxxRmG5F5/+/iFfN2+XvMtlb5e8y2FOuGH74Dlju1Dah++gcK3agFt3R1kz8SJ+BM/EA/q0xNWW8yvq0xNFt8DCMr7uJI+7yYoKhSN39J3N5MkBEUhdeYV0KiYBBEflXAHlXmgJIIhZ/Uy897uUKGYzUMtmkIgBgBCsth+5LqZ4bc91l7OXuS6mfOwabYRimncijECgCCwgBQKUCKOMiwgQiAyUiESVjYjo+gJbL1GCb72XqME6uADiDKXLpYjGfNk1ZlE8wBwDdRRJMez4GuLAYODQpON5K/mSJYk2e1HWfQnivLfMJYGcyW3uRFzeB4HrYLM96+8Vco8X0MQyeD77daMopGhflIaxNM6OFaCdzRuMCX24HKb49LOzhj0e4Fxppy3yQm6vA0449gjnDUMyWI5aD5oJ6UN2WJ5a+ixp7LGmh7tXT0MY6MOiaLCBIKFBUAWKCFARQAxUAUAIUBFQFkJskITYDcZuUfFqMdmvR8WogmeOOlkipgR3tx0kypgbEhbEdCM2njLUaMdiOhGfT2pAR6mK0rrHBMwam7SuscMwIFPZ1szv7kdZpU9l6WZvjjpA15iVP2a/e8WqCVPYWvrAzV7RazWmZHjibcyoRpbC1mQ9uOk1aWxrZkS2o6UFOSZnUsJaew1JmXS8WnsAg1BzvAbNQc/hAbUNvUaczMjt6jXmQIUtkyqnaatLZMuoUOh4DZjt6hz7hsR2+kDfmZlLeaczLpbwAqGtDZWgzahoQ2FoAbk9pDweA0J4oeLwMhoR2xySG4tsckwMelvFpkeliyZUAulsmZUNGjskOoBtR2RqzxQ6YbKGxUxIHc8BqeNDt3DQe2gHRLAbMNtjplgNSG2A45GHRxlp7DdkYVLGWnsA0J7yNR2ekmz3kShsgR6mBqU9nUZtTA0qWzqAb9Qdu4aVXAd62Shny2lpHa8BpS2lpHc8AGmtvUxyTG2tvUOWYQ36W0yZPeQqe0zTnvAi0sDLqGpRwMyoBvR2BrPaQ6o7A1pbSA9mpbMdMhyLcNqlsrSxyrEyj5me/3n1n0lLCR85NY+81/1Hv8AKXKpSk+WK4YvyzMNGd817SPu9owDRnNzld6s72RnmhxxxwVZxxxRRxxxBwjZcF0IWOAj8seC6CuWPBEk4CJyx4IkrdpXWEFvWldYHt9/P/pQv0dFjOJRGAEMlkY2EARQEI4247SMQ244hXzSsXpZIZHWL0k0K24bPQOVeHUNmGz0DjWMdQRNW8lbkRFgyTuQCu/Ujce8wN+pG+95hEAUExQjYjjiwOKKOILCACKiwgSyqSMtmoZbNIRALACJUvZy9yXUz53Pou14vN7MupnzuGiYaEziKngnFkFhHBkVZYQZBGLV2SS1kBpJcq8wkrka93djlhg9RlHqvhZhm34WYx1ZNZrmqNcMgZx5FGSe/qJvNyznfflozMibvqIHTJrPhmM+Io5XVjOgbDoQuIIkFRHlgLVdhPQRHK6wf71mk86a/eDPo8erxcv9YMFkOdZDQU3uinpdjaU532I/qPnPc8WAN902r4dJm8rMDYi7o0LkFKxH5rG3Ek1JiPJLh3k71PImp3wRsQ1FokP7W152HtSpyveVvIxa0VGpd3zs7ceOZXWHd8tsNcJdhFqKz6Rb5eSbnaPKrxaV72yFaqz1mHRhjDQ+xkvalpZzZLEgjEo0FRUSFgFBUTFQFBUTFgDFARQCQCwymA3WaVHGWozmT6O09BBoy246SdPAgz2lpXWaU8DYqHs46CBT25aCdD2a0EGG29ACNXtQ45YDfqjhlgGWbS2XpM97cdJoUsJaewgS246QNmeAhS2NbJU8CJS2XpYGd446TbmYb246RwTwAg0tl6WY89paV1mxRwekyKmK0rrKHXMx6Xi09htSMOljLUFR6g4/CYNU3lsrQFNiO30m3MxV7RazdmBDpYPSZlT99JpUsHpIdQByeEay20OpbI1PGgHJPAxaWMhwTwG/SxYC1Ql09haCPUJdPYQDcqdo83gM2oPXcZDL/uLWOiQ1v7iHbIBu0tqRpVDMpbUjXmBCo7JHqYEmhgJVMANSGwtA1Ko66ewtA16oD03DMe3HSPPcMyW3HSQO+WAzo+01D1eCGXH2mpgOuY3aW1LT2DmmNiltS0oDYmQaGD0mlMzaGD09gA1MCdS2FoI1TAk0dlaAMKrh0DtWyNOrgOyOyUM2e0tPaPLcM2ptLSPLcghm/wBxaGO6Y0/7i0Md8uwBpUtt6jZnvMeltvUbs94VnUcDNqYMn0MCFU3lG5DY/fAaksVpHXDY6OoaksVpDL2WlsL3n1G9FNSk+aT5msnhG3AwaWyvefUOhYkHzi9p++30SHFUqOpK+5YLgN54y959YZhoQoCEVVHBHACcEcQUcWcUCcEUEUcWcBQqsVpXWJiyxWldYV7EiSZ6lHi+gl8yMsiIhMIRtCYIYARxrxvzrC2d3vvuMg247SA+aVv0s0zMXabAaaENkcqxWow4L7L8GhxpO8fNKwRawZK4ayMsHqJnDWBe/oJ9TKE35EPxa0K1vZVNXWQeZKpUXiZK9apx7jEOuYaOX15cETfzD+ldIzrl3AfH5hfSyV68PPoPPb+R2QHpPrQ49zJHqQ+pHl+R2QHrilF70Srp7zxqyCwwdij2JmSzz3nl9TJcZvfmVDuBEgio2Fsv3ZdTPnk+gfA/dl1M8DDSAImiQiKkChFFzIVCEywpcu4iWBJKACIDNCEuV54GYcUfQ62XoMo0oYaiIjaGjKMpTkkSPSjHbbfkrf8As9KpRxfFt9GXYeLylKdSWl9x+e/V5Wz/AI9eHc6dKcG6SaccU759LZ5zTPTflU+a+5po84grSkuDaPXwvezy52HWiRxBLeB9h5WYbMdhrSY1kacN57+Pl5OXg3I7zbITpSb2rLRc0PSisXKWl/A8leiGvMbbHdJJYKw22cXQiYrNgxyKjjopzUdzIkIXzY61JLAKzJycpKSUlboJtSpOqlzRStvJvqOWRtOmla2afE0qF8srN+aHFV+BFprlkatXDUGTLGnPaerqHWNuptLQYEZEkjIlmwYsJCwBiwAqAoKgCoCgoCKALnMJBsBsMnUdp6CJIWpbepga1TFaV1mvPAy6vaus2Z4GhDp+zX73mfD2mo0aWx0mbH2mpgHVwN97JjVcGbPhWhBlmUvFp7DOntLSus0aWMtK6iBUxWldYDhngZ1LB6TWngZNHxaewDPltLSOSeA3J7S0rrHPPADGo4S09hmVe3tNOj4tK6jPqgOuWBgUtqQ4ngNyntMAqpsR2FoMyqakNhaCqbHjQ4p4Df8AGhySwCsqlv0keqL0d+kGqBuLZGv40OaGwtA23togdM8Bt0tpjolgNintMg0KgVLYLqF0tkBv1R6eEadRDrWyAy37RaR3ywGq9tDtlgA1Ke2zeqGLT22b1TeBjUMHpCqYClFW1l1cAJVLYWgblUdNJWjbgYFRXsA6FsjOltrSPGOyNaSvPRmA6nghkL2mpj5eCGgl91+GXSA6JjVpbctQ7p9g0qe3LUBvTMqhv09htT3mPQ36ewBWph0i1HZ1CdTDpJ9Jct1wIG1VwHTHYMKavZcTfjssoZdTFaUPjchryV5d/QOrwoIYv9xaGPafYNO33X4do8J7tADLp7ctKNypvM+CzvxfUadXeBk0MCHU3m1SXL0X7jMqY611lVr09joGlLFaR7QVoyXAatrvU30Bh61S2V7z6hzLEa1LYjpfUOVNcTCvnh7Uvel1nFval70usojRUIoIoososK44I4IE4IsKEoI4IE4IvN5JNt8CKAmw2o6UPVfKvkbbtLFcFbc2NGntx0kHqwoSE/OQT0sMoREJpDZtCYJZQQJvxxMA2otXxCvmtdpumIu02QrYp5rSOPPLjE8iXMsG9A441asWsJWCPRVv/l/7Fdy8m+//ANGZGpfGlOOj7rdTNHmi+PndON+kCRf7k9HcTpx5oyjxWXYQPte/Q+xm6vu0rv8AMg8Gtxx3hWPaXGMsUmQ/Th9KMtPIbFWPWPSp/SIejT4GR5bYE9R9CHmR/wAvHiyjzWwVj0H8uvqfcIeh/IKYwY7/AEJcUI+jPy6ShokpG16U+HeJ8kl4WRBxfLoHANrPg+gnxluNIdD9nL3JdR4We3VftpS0W6TxANEgBQswpCwrYVFCohlE8sKgnEqxDAUCEggFQhAsD6Eo5xXnHsORE+W2I6LEpG6HlSwfk33nirg1Ukslm8cLHovqKm875ozZ1acnzcnM+Ellp39R+O7zle3l7ZR0ZU8+R3te+VkNfe9I7/Vc4LJRT4DXeLPtcOPm1wtcSBAln2XlRGrYIRhf1Fws+k0WYmandPC+W5nWdqzTlITa/l+ljbm58ylGO62NzUjPmyyi+EpcvYavlieGBN+TGzfUOyae9rUM9nmdxmI8TYRHSvcg04YLLA14RWFst8r2sRI5RRoW5llg8UzKmi3a6Tdk8sz26DUoRfkNKFCK89I8G4wWNl+8ApZIKeCMe857K5Vx3v4Dgls6zbLzUxKvh1jh3mLV2dZhGMiWRUSjalxcQJBQYqCKgGKgiwBChQqAqhVnIUYU1pHU/aLQxWQhT21rIhxVsDalgZlXA1XsnRGdS2XpZnL2i0M0KWD0kH+4tZBOqmgthaERKuBKh7NaEEZlLalqIlXtJdPblqEawQ5ZYGJR8WnsNt7Jg0cZBUSpjr7R1SwG1VHVLZAbdHGQhVF6W1I6qA4PCNqntvQONbC0Ib0NsCXUNWKtHUQ6hqRzWpdQDUt96HDLAxcJocEsCqwaWLLqlUsWL1QrWjsjct94544GOtvU+og23gjBprJv+Vu4cD2UY9PZfvLqIDqEuKso+6mJ1CZHCHudrAwWvujpXWOHdLyZhy2o+8usc31+8yhrxV5y92RqvZRCj7R+5LqNLwoDEhst/wAl1GhU3kOOzL349RpVOwgThhT93tMqrgasdml7r6zOrYPSA5PHL97hvL2kNI5fHLQuobXjhp7QNNYS0syY+0fuS7DaWEtLMqPtf6J9SA0fCjDjhU96BurYjqMOOFXTDrYG1LsYz6e3LUPSWC0dgyqe3LUA56m8xaGL09hvVN5gUNp6ewBarg9PwHS/aVNPYhsVtl6ewdT9rP8Ae5ANvxw0o044S0szXtw0rrNSOEtLAx/G/cl2GstlGYvaP3JdhqLYWogbiwnph1sc092hjd3VPeh1sc0sF7r6ghtxwhpl1i9XeIx2Ye9LrJlbeVRx2o+4uowJ7S96PWOCO1H3I9Rhz2178eso34+P3n2jbjtP3Jdg6Y/3NL7RsR2n7k+wiPQ6L+2K87jsQy6PhHoiI+epbUvel1gG+6Um27xzk3i/gF6E+MP1P/xMqwghx+hU/h+p/wDiF6FT+H6v/wCSqbZY4fQqfw/V+B3oVP4/q/AKb5w4fQqcI/qR3oVOEf1IBvnG76NX6V+qJ3o1fpX6o/EDCONz0av0/wDVH4lejV+j/qj8QMIeFGVOEZOUfuTWlrdbt7zJ9Gr9HfH4lejV+h9K+JkFVqOrK+CWC7X5iFPbj+9wr6VX6JdxsUqclNc0WlniZD7QsdYI0iOyET2Z5pkAJZRRxtxxMQ3VtAfNSxfvM1txkx7Wa24KqKtG/E9FpU1FXaz6htwjfkQ9qkuSLlvyS1kRt5ijjLgfP0nr8zJUeF0RX0fyy4Efl8rPyPBrteKX6mJepUX9yp+phX0Dd6dKInM/I8P9ar/qz6WL+vV+uQHr/P5LvA5/JdLPLVUrPxPWl8A/UqrFroXYZHrXN5d4vf8AdzzlVZeXQOiM5Ph0AbwJEu/IxXVs7OK6WEOW6Ouht+p5d4upp7rayjU5ofVFaWl1khWeDi/6l8RjfMR2XbPOLGPZcERXvdmJ2fA8HshTPi+kByfMVFK0Iu6WbfmeeM02ZJVCKCQsRRipYuAkKCwQCJDaNA4DBCNuxnyVgIpYmKge4/K7K0vrNLiQPldj+pmrLalpZ1oa9XGOjtMzLmceF83vsbNTwvgzIlbnck8bu3C5xcm3DZ1sjvFi8NkTlibaJkgQJBtEXmfkiPbeSrPh3ovP6f8AqAQFGJzbSg7XviaainxOt7IaEkuCGq0j0ScLbxis87TLJKyAIc8VoCteLsxT1LN2VxvR+5j3gljuRFT71N1lhd8PInqGd39z4vdoQpG7tbvwZuJNNJ2321gbMcxV4MP7cFwz0oU3mkeYSxMyeyzZmsyHic0MlE4zUaJ0VIJJFJRQsLCIqAuLCIuUGKAigEhCzEyQQNeRChtxJ8jNjtLSA96uBPWwtXUJVdkUj7NaEdGWfR36ewhvbWslUsZaewqW2tJlU6pgdT9mtBIqbJHpbAZZ0PaPQdWKj7TUSqwVreBahv0tqQ4Y5wWhDfpbbAqsOjwowKxurYWoBsUttkmqR6e2TawGlHYWgbkfadI6Ir7dQ117TpA26ovTfMtGXQdUwEaOAGBPEd7wG5LaQ5vCA2aeL0k2rvEYb/ej33+Bo1d5VaKVuhPuMWOVRaH1G7Hd7kTDj7SIVs+FGLDZl70Td8CMSGE9MSIlVBeGEPc7WBUFYYU/dl1gYk8V73ah275+8xq1O34Du8U9PYENmHtP6ZdRO8C1CMParQ+oXWwtRRlR2Z+9A1anYQIbNTTDrNSphqYECGzT/q6yHWwZPjsU9MusjVsHqIHB4/6V1Dae3D3l1jlW2vcj1DbltQ95f8grbXj0sxYe1/ol1IcO+p7zMKHtV7suoCZH2cdRjRwrf0dbNmPs1qMuP97RHrYVsywWh9QxYbb1D+lgtD6hhQ23oQDyqbxs0dp6UOmpv0do2KO3rQEmvsy09g6f7sv3uQ26+zLT2Dn/ALr0LqAbD26elf8AI144T0vtMx7VP3l/yNmP9z3n1siMNe0/ol1I0o7C1EOPtf6JdSJ8fZx1AYSwqe9DrY5JYL3X1DY+vTHrY7JYR92XUA147MPekaFbxau0zY4R95m1W8WrtCIcNqPuLqMSe2vfj/yQ4IbUfcRiT2176/5Bo4o4VdL7RpR2n7kuweEf7ul9o04bUv8Atz7AH1R8OgeaGfRwjoY8ViiMvHnWSbyeLQqq6+ljOeMvefWRzDR9P5nhHpYn+Zf0R6WMo4B8/mn/AKa6X8A/zT/010v4DEOAfn5r/wDNfqfwD/Nf/mv1P4DAOA9C/Nf/AJ/9X4Hfmv8A8+/8Dz8UAff5p/6a/V+BX5p/6a/U/gMU4B9/mpf6a/UwPzc/9OPSxklgPj81P6I9LC/M1Pph0sY4QU9vzFThT7/iGq896j3jKOKyej+Yb8K6RH1/4rpGkWA/41ObyNM84WQ94y5kUaI41j0jaHDx0PqKj5xhuNR4CtOP2X1ASCndT2o6OwX+a9n/AFx6mL01mtHYZnzfs4+cupfiRHjV3fI0b8SGiYRppLle61iXyJrKV0QopO95KOlN36MDQ9KazS5lxg1Lqz6URTflBog5jsjO7Ste7tY0ZQim1fleFtwDKU5R46xxRq3y6wGrcCK0vIBazvk0PqnK2Uu484twFrviRXsLGXPOXQatNSaXM2abhBZHN3wziRc2pU0sDJSzWlGmMOCu7x/qXUzz0fFfCOkYLaRpyKAGQ6nBEJzbKJ8mZxBFCNFy7gFlQd3xBu+LKKIpe74sq74sRBCFbviwCgigQRQEAjWMol3A97+WX2LS+s0J7cheirQjoRdTb6DtWWG81YxPTfEdslYgnNCZnSxNUzpbgiOSSMSjQK6WLS0kuxnPERtbDLQAlV2FpZPWBBmr043ztNd4dlwPZXCdSc3keeNoebG1I8D0sQhyxekmEvcAilyrzY46ezrG+yXRfhCn4orHPI3uRu95X4Ld8QE1wJXNZXuiDTSS8srZCxg+rBbwo1FJ2RQ3qys9ZiIddZdjGiRDMwbXmyaip7b1dQJoTCQRSUULi4AvYBQWExYoUFSrC1gFBcTFrANqRhb1pQ4JDaeJB6pU2Sqfs9RLnskajsajojMp7UgZ7a0l09thVdpaV2EGtPZINHZZry2TGoYPSVGd/cWhmlWM5+0Ws2quAB0/ZrQYMPaG9S9nq+JgL2vSZGrWNCHs9QhXJNL2eoBtR9p0mxWMhe0HBVwAUhnHUNzxjipbOoyErz1N9CA1qmGojUsFrNCeytBVPZh/WuoDJa++PvLrNzdofaZE8pL3l1jhfj959YDbjhU00+tmjV3/AL3kWP8Ac/p/5GhUw1FUrDwe4utmQvaR09pqQwp+52szXtx95dYGytnWY0MKurrHDun7z6zBh/d93tCJc8NTLhs0/wCvrFJ4LQJw2Ye9IDJq9o8fHPV1DVrb9K6h2eOWhdQDcp+1hofUKrYQjH2sCYth6e0DKhhV1dZrzwWh9RlR/u6O03JYLQ+oDGh7On7zBrYPUFD2cPffULVt+oDRW1H/ALaG3Uxj73+5DijjT/7aMGrivf7UA4VtVPe7DFp+2h7r6jeW3U09hgQyqw0PqCpUfZLUZqxr+72s1o+y1mctqt7r6yDWeEdD6hgR2noR6F4YfvcefR2noCnxU36O1DUo7etDyqb/AHe1DNo7fQBqV9men/aOL+6/dXUYlfZnpX/E217X+lANqW1T95f8zbj/AHPefaYstqHvL/mOCONX3n2gYS9r/RL/AIo0I+zjpXWQV7Ve5LqRow9mtMesBu7qmmHWx2Swj7kuoav+ppj1sdrwj7kv+IDSjsx95m5W8X9PaYUdmPvMcdbx/wBPaEQIbUPcRBnjH3/9yNGntR9xEKpjH3/9yMjVjhV0vtMPCcrfRLqRvRwq6X2mK/aP3H1I0HXRwjofaOhDOpu0af74j1ZB87tZvSxGx6XVotu8d+KGv6U/pOSm3Yuw5/Sn9Iv6UuDKGnYKw7vSl9L7i/SlwfcA0bF2Hd6MuB3oz4d4DUsFYdHoz4LpL9GfBdIDXsFYc3oz4LpC9Gfl0gNexdh0ejPy6TvRn5dIDasHYdHoS8hX0JeRQ1Sx2+g+KFfRfkAzzh4+i+KO9F8UQNJGonY2PQf1Cnov6iomLE3G7Rk+CZCjDlMH5mfLHk3yx8lftNIaUPYrT2Iy2OBewj5yl1mDvAflP4jZ+c2af9XYPeO/Qee/NvOmuCb6WAwkLkYWI2WE1k7puL4p2F/D/V2CJlW761S6btK2Dks1rVmH63GLa4N8y/6lfvMI4DdvReMbdK6myd9iX2N6qnZKw0rHAON+f/VFf8omY1bFW81mjKzWDaNFVJLhpwfcETITlCUXdtHplT/JHz3HlXMn5Piej0ZXjbgcHslFSndcrFnGzWkV5UnhiSXu0nleo1PmcuXRJ9R5Eer/ADOP9PWzyk+g+W4oUKCERZAEhBSZwuUEJhWJIYEKwlY2COwM0M0FYlZtWWCNjGAJ6SYryb0aGWGcXvMj6zhsx0IzauK0dptUtiGi3QQKy2dZ0QkYDVnYnt25c7X81bvEJbTObKGQpYE0jSwKiASkRSUVSXMt6erMkfa8GteXWRkLWCClH7H5STM2L5lcm2Xp1UluuRI0opLllOOW55dDTPbejzTzVuKaGNLI9CcX9cuiPwGFOPm3+/I+e9TADTvuBshN4BS3P5XNBVILcxpFFDzdd7kkYTk3iZ5LsFSRy0HarHzuukb9jfpK846blHqNVZLQ0MNHqcsNb6j545r4hloT+6Te4qxHJYVIJtiMicArYkAkgo4kFkgARUsMCwyggG3IajHdIabIPXnnBEGjs9JNjnSWhEOhv1nRlmR9pq+AvXEcKmpk2vgFbL2Ru0MZaewcy2Bq0dqQCctuOk3qmBiVdpae0cVTZKINDYMD+4je+XwaMWXtIhDlrYA0dgl1dlaCH8vgZU3P7iHTUwGtLKa1DvqbJEdTwj7nazNiv8i81JdzNKns0/dl3SIscqsNPxAkPYjoE6ezD3pLuFv7cRCGUF/3f9oGdVx1/Ac7/ue8+ob1beOt7VXSv+KAa0canu9TRq1MNRAjtVPcl2GrLZWjsAiw2aWifWZM9pe8utGrDZp/1rvMypjr+ADn/wBT3mYUNqp7j7Bx76mnsG5Dbl5wl1Iomy2Vo7CPDYh776iU9iOjsM2Gxon2AFW36UOJbf8ARExq2/V2mpDaj7iAwl7WH73sneGfvPrID24e9/uNNYT8pMDJjjV91m09mOjsZjxX3VPcl2G5jCH74gN+Hs17/YTq2/V1mfFf4m//ANI9S+Jr1d+jtKE4f2v+2ZNb/f8AA2I/2Pcf+0yq/wDv+BFORe0qaexDeh7alofUxy/3amr/AIobsfbUtD6mBMj7OXlJ9ZnLbr+5I11sVffl1kGKvVre410hU7wQ/e5nncdp6O1HosfZ09XaedR2n7vaiD0Kp/tfWhl0tvo6x8VP9j7BjUtvo6yBx/MbM9Mf+LNJe0XuIhfMbNTTHqZqL2sfcXaQNee1T97/AHjghjU0swp4w97/AHjhjtVdL6gG+vaL3X1I0Yeyjpj1kNe1j7vYidD2S0x60BgJe10x62O97MPcn/xGov7uldbHc9mHuT6gGPHZj73xHRX8f9HaNqOxD3/iOiv4/wCj/cBCp7cfc+Jn1MY+/wD7jThtx9z4mZPGPvP/AJhGtHCtpfaYsvaP3X1I3I4Vv6u0x5e1n7r6kGmwtiH74kmlWTjaWWdk+OQlHYp/vcxnLZX/AHF/xNMvZihnVpOPO02tjDWKQcnVScm1yp6zCnYWMZSl6lFcztJSvnjbm+AhTlKVK7lJu8d/FkD8sFY82vLkrPmllUilm8s18TaqbO/2a/5IoeNjrM83p39Smrv2UXrsQpYw879bIPU7MLlZ5zSzpr34jPt/yQHuVgejpR57XWU/ej1Mzaasqvu9gHqWtdKOy4rpPHayXPPL95Dqmvt/+uPfMB6pp4Si9DBbgsZwWlo8m+Wsm/dl2mZWX3R0R/4ID228fqRHU4PCcXoGdL2a/wC2u+SGt8v43/GRR6m6lJYzQo501jK2pni9XbX7wSHZW7I9TIHoqtOSbUrpY/ayL61K9ufPhys8+oeylpgZEM6sf3vA9JqV1T2Y3fF7tR5M23K7zbirvSbFd5vS+sxni/JRXcih2f2KX9X/ACMHeze/s0tHaxvrHWl0sqPU+J5J817XRFHrj36WeLfMe2nqXcgMEkkVl4Bo4ZWVOnxbnN9Nl1GQT5v7kvpio9GPfchEFCxGLIJRMjCU72t9qu7uxmD8heHy83g6slFaP/VwpiiBPeJHIqMOyhPllbiNcFYmFfQFgbXMCi3JWvhkx9WSPDj2a8urJ8zfHLoGJKHA9vqQ5l36zynB2PovIZ1nwZMUG/IcRxGEZRSJARQGRysiDhBAwQzWsR7AQSKTmiDYgUHNTl/jnHQxpE7JrrNtEnaxVm2S3GxO5bWedmzq26dN0nZtPzRhSjbPiORu6vzeVmZN7Jq2btqCvqWlsaG+u4lW2VpBpePSn3Il1dh6usPKaO5YYNb30WAlu0BrZyve9smljpTBdmo610M5qhCLwZJAKjGJBHQo8CqjySbIn3LZk9DzXxF7WwCut+Wn44AaFOTk5KSSvCWDujGp1YuMU3ZpWzyHFDKcejpyGpCLzX8nk80ezo49TyszzioOn04PGlb3LvqafcMOpGCeSetS7Twu7KbIbzJL2clYy0yBexKUL70Lc68idzRe6PSyiSqf8o9I5o0U99+gbnPSW6L0cxH9aKwj++kg9QjSgvCmOaMeEVqPAfzNTc+XoILr1XjOXSaHtPzFVU4uOMmrZeeLPDUY9wrlDnNFDcU/Jd5qqXku8gcKNJEeK5t3exyKmvMCATcvIkemuLFfSXFlCGXkGL+kuL7jvS830IAArF+l59xXpefcBdhWxH9Lz7gvSfHuAxpoZ8h6zp239w0HbzIPTKVvS6CJQxensJNH14xjaEXFq6zzzFor5hO7pwetWNPZ+axZe1Ws0q2yLyXzDfs6a1kh+s17KmvMifmihnDUuobNL2kh4RhWS2KT1u/UzMVGspc3LS0XduoPIwq+OtDnlsEKpCpJW5aMP6nfqJH3Ws4Un587/wDEiMz5fxaewyamU46e004RqQcny0nfdzWtoyEqinPCNKP9d2NU5KmytBj/AC2/97jQcpNW9On/APJl1GJT54OV4U3fcppW6wjPqba/e8ektlDUqc88IQj5+omza55W9lD/AORAS4YU9FRd6Ef7kfeXWIxm0kpQjlfJSwv5kVzbd1Sis8XNAbvhl5Tkv+oiRa5Gt/PF9RE9R29lF6JpEFTkm/8AFCz3c4GnW3jiX3ObwvbqGhOfNhSWlzRNVX/8lqmgEYu035wfUjcexHR2DdVVqV1StpkiR6tkl6WH88gCp7Mfea7riNbeF6mSTpKyd9pYgSqKX9l6XJfEaHctqov3smFTSdTP6X1IT9bNt0seEl3meqrTvGlbTJMaNlZ04PyRnw9m/fj1IT9RKNvRw4Ty6yGqkll6UbN32hoc1ZY/veKxxpedNDelVv8A2f8ArQSrPK9PZVlaSv1+RNGg/aR97/cT7Z1dPWrjXlVu01Swd7uS+JK9bFypK7xtJDWmtTX+SXnB/wC0WhnSp6huKrKLvGkluzkmLKrZJelhwmrDQrH2Mv8AuQ64GtV7O0bHqytb0ocrd2ubR5+RIlVv/Zv/APYiaNpf2Pcf+0z/AJjf766kZ6qyXKnTg1HD7ldaxOdVywox43c0y6H21/ml5xi++3YNmPtqWiXUyGq0m+aVODeGU0viQvVldONKCa4zv8BodEdmt78usCHtqvnH99ZjKs7O9KDvm7TSvqIHqzTbjTpxurZyu7DQ7Iezp6u083W3/T2oc/rZW9KGqa+A1rz51Plpq2XLzZayaPTqn+x9h59Tf320dZtOtL/TpX978O0bUHUhOUrU3zbm8tQ0Pz5jCemPUyavaR/7a7RqSqyktikr+bfYhCNaqsfSlp/BE0Tqm1D3/wDeOSO1V0sZMqtR4elHzV796FY16scXTl7yd+5EGtF/5o+72InQ9lHTHrQzJVasvFCPup/Bmmq9W2NJ6Yy7ACX93Susdzf2w9yfUecudVu/qKPurLoNH161tuOnkzAOOxD3viOWu789v4dp5+p1E7+q76Muh5Gk61V/3OiKAc1PbjfL7PiZs83DS/8AkNyNScMKstaT6wJVJzylVloUUuoB+x2a2T37tJmyTdSdl4XboQ2I1ZxVlVnrUX1mdJym7yqTfd1GR6irqMMnlfc+DGzGE3Ffa8p37rGMqlRL2lTu+BiZ3vzzvxTsyj1ium+eyfg3aRemn6ilZ25VnqPLHOclZ1KnT+BAV47Mpx0OxB6jGL9Wi7WSjK7eWKl8RanTnGkly74vdgjyV3ltSlL3nctfbg5LRJrtA9J5JOFRZJuqnZu3AcVSE+V5eCKxW6VzwvljvV9Jdo8O9gevU4/5ItOMrQUcpLcjJqpw5HKysuK4s815Y8Edyx4ID2SnG1NWcXaSeUlgMdcvNyucFmnjl04DWtHgjrLgij1Gs4tSfPT2k9q72TPpODjL/JD7lvdrdJ5/ZcF0C2XBEDmqODm/vVpPFZpdA6pzpte1hsxWOeTvgeX5BBptUKlKMfuk4txa2W1puiNVnTc4tSlJb7RtbJJWvYgXOuA9pVaPLtSwStyPc7mBQnTjFqXOm00/tuszJuIXA05yg6l/8jWd3y530GzVqU5J8rm3w5fLiNG4jcB3UpxUOV06l8n9tngIQTjU5nTqWytlnrwGvcU5n5sDfq/dsxnndfclv1sxbzTcrLzvmugnxnqfEPHWbe7jx/Sb68JU/ujFuOSjmvO+PEQ5akkpKnGKvGV09y0u5G5Y/THv7GOOM2ozjuskiul4Xj3bfNlG983Y8equ9WfvM9Yjko6DxFu8pPi2afLUyVHNr94EIWjlfR1mRIvdt8QiIK3AVAOOKJUYubUVix216im0oq0YLlWGO/C6M2n9sKk9+UV/UNt5ZcCNlwiEXcMlxHFpeZ1yTDFv6U3r3ERrRnyy5vNX0Ns94R87xjzNrzSPZ6WUY6O05Kc4wq1PxLWP8SYdnhJZu1Ycr8mYJtycWAWVHHBAkFnFglFiQoCQI2XAR5d+7fZ5ksTKEpRhf7W38SdZ0fN9yviQnxEc5v8AeR1ehALRNkBksG2ssSsPpaltPzSfQb8s4y0Ma8NtaGup9g8yvM81jsvUw/Dvx34nQxsLYxerdbrxOas8AsooxRcp4sMAsCeYelilmsGUT7KNmla0lhpID+2pUX8usWbds0asrc0v5RT6Mj1dHEosDzutiz0Gy4DKrRR5XYxtzGiO+w1mZUgcK2LsFIHEixdgI5xKsLqLeCb0FEAUsP2Py03tWj3sfcfl6cd3N73wDLxWMZPBN6EzZTcfA3qZ9CKTWSy0EjmfFgeHKu/o6yd+Y/h3s9sTfEcsUmsF0AfPX5n+D6fwJf5lfRI985I/THoRG9Kn9EP0oDxL8zH6ZC35mHCfQex+jS/04fpXwIv5ej/px6APLvzNPhPoFPzFP+f6T0L8rR+hd/xNlUoRSXKrLjn1geS/mKX8/wBP4h/mKXGf6fxPWfSp/RD9KB9Kn9EP0og8Fq/MQeypPSrDO5uZ5I+p3RpPwQ/ShiVKcYSSikk4vJfxkuwPVxm04vlpXpQ8lbobXYPQ8/8AlbOnolJd4/bIO3PtSFsiLfPrJzILyXnuOLlGf6mKW526DIlOT39Bkxp1Fu7y3Cq93eacULIK6BdOp9JF9OovCzLKU7DfZKcJ8GRnGXAghCdyUlJbiLyyvgBYmSGnwZST4MCMGFyyvgyQ0+DAjgC6T4MFp8GGiZxPs+D6COk+DAEIUafBhJeT6CIQKLs+DJHSQQyw1fg+gJ34PoAAEkLX0CGfB9AFEY0yDv39AESwnY1WBECDYuxMYusAMywVhUmsDNsXYUWJJYECx1iTEphSYkaKw/AhvQ+gITsJGwZDx3hRCBsMyltYPoCLYmaDEooKhnWFHoJEdB0xnUEOwu0+BMt5HNWUcL2d8CY15EVlBExJ8A2nwIjMsJNGwotbhFxb3AZ9gTYs+BF5WaEexHxNazEVFoKzbA2NNpsGz4BGUxawvyyF7PyKMsIl8r8g+VvgBBSEWa3K1wK5GBAsAjW5XxL9N8SjIFDa9JveS/Qb3sgaxY9Py0vPoJX5WXmVoxBHeek/lH5i35R/toiPM2AerflP3cw6lH03FcUzrO7Lz8Bnq1Kgqkb5cGuA5Pyq8iK8JKPfvyq4934h/ll9XcQfP44EehzoxXi7jB9PK/Nw3cTrH3vXyk3WERH4v3vHt6UbpXeF3+m5ypRXNK7wazsda9Hs5yzIKeX9MV/xPBkrrRie9TqqcZxUbXxf7R5/TXLzQ+pYnmfnsMM4kyi4uzANuRMEVuS7N4ZlZQSybyy+kjZrdYgk8z5eXdzXIlysygCKODKEhwbMF/L7tWEe1mdGN8dlYvsDqScnpztw4LUgNSngew7Kh7q7zxZS5XbUeiVpcjjC7b+2/l5HMehoIzk8ieYdmdKKkrM8ia5W09x7WMWvHLm4dQQxQgjjbmA4EsCziiiiijigOKOBIOBLOABkA0BIrT3xO0ovzXfkP082eB6SehxefvKo9LCSzl5p9wrVyn0PsA8e74mFZBxxxBnyxKFJCYEZuzwYvfyfQy3iLplBppik1f035NdvYLizX+PLdn0O5644VFXN5a8uobdZPel037EOy/M2+OZi1c4nmdXlJCcbNZqV90WT951Tw5wlZeFW6XbNmGitSCi19vL/AFKT/AUnTUbNRmk98rZ6Eg+WVS3JTUbb81fWxyL5dYzk5Ph+JAy5KCtyuUn7v7ZoxoTlu5V5/A9SjGMdlJEgKaEfl4LG8uocySjgraBcwZVYLD7nwXxwA2hNyUdppaRkupN4WgvLN9LMay0vi8SoeL+Y+mN/OWS+Ia+Yl9Me/wCI0SiB+r5n+C6WOOPza+m2v8DyIso9x/Nw4MX/ADVPhLoXxPCDgPoJfM03vfQSfXp/V3P4HzqJPAD6UVam9/c/gS/UhxPmWDHimGnt3PH6l0oPnjxXSeNpitwPaDzf5h/dGzzXN323mPexHDXhLpP0ua2931mv60+K6PxME407263/AFanGPR+JOhVbf3JaVcbBZlx16lzR4hc0eJ5ecZc3qPMuJd1xPMhco9A+3y6RDlh5DIFQHlyQ4IL04cBliwU7vThwB9OPAa9w7sByenHgB6UTCu+LCu+JEbXpRA9KJj8z4svmfFlVq+kuIXpLizHu+LL5nxYxG36a4s7015mTzPizrvixitf015nemvMy7vizuZ8WQafprzO9NeZm8z4s7mfF93wI00vTXmd6a4szuaXF93wO5pcer4Blo+mvMH0lxZA5pcer4Bc0uPUQSvSXFnekuLIvM+PUXzPj1ASPSXEH0lxEuZ8eoHmfHqKJPpLiy/SXFkTml9XcvgVzS49y+AE70lxZ3pLiyBzS+p93wO5pfU+74EE/wBJcWd6S4szuaX1dy+B3NL6n0L4ATvSXFl+kuLMvml9T6F8CuaX1Pu+BRoel5g+l5mXeX1S7vgJ3l9Uu74EVpej5kP0vNEDN+KXd8CNb+Uu74EVO9N8UROTzXSR+Xzl3fADlXFhBcnmiO423ol9Ihyrz6T3b2eLO6JbzI+s0bBHz3uZNvME1wrFxhhCfSb9kJG8NY/SJW0m0WcmmNbSVbSbOQPEoxrHW8jXFiDDt5HW8jcFCjBtoOsvI2y7sDGtoCsbNwSKzNXcLX0dAsUEDzW/9Er1Lf8AogkIB0+u1/6JH5nyGKIFD9/NeQD+af0nn5xoPr80/pIz+blw/fQMNkYgeUvnJrcun8BtT+ZlLGKw+r8DHavdcRtviWXGT9h8zZWV454brD6UnJXVSTWr4HzyToylB3i7FHvGf1Sx4nOOcs5Zeb+pIa9OvGpk/tl3Mdz3+dmaRCjFc9O6xipcc/ufYiPf/H583VFdrNrF34Ry/TbtIfLlTXFvvlHsRUTXtVdDXcomTJ2UF9XM+hrEB4Vffjb/AOS/UDJ7l9Kvpu8jm6xkYS0ox5xeO9DrUb5mgzyPrPK6iU4pmBYfMla64jM2T0PJSPL5h5JWvdXvYgNsind4ktNXwRoKbwxXB4GKTGs2BuXhwlH3XddDEWk98X/0v4GJYqwE9qK326H1MpJcW9ViGOOlPklmr3y8wqDj7qzsZ6vJ31s3JwSyTsm72xeglKyVkRGPGMpZWxeLPRqlNU4tt803JJyfYZ8M5R0o3/mXhpkwi6U/ts9w6rnlcHZ6R13scnU6rkFrmTvvVjF52SU5PcZaedtWbXBiZvVlaS811Mbx0cnAhAgcCWCBYJQJRwAIABnCAmQSwSPcsI91WaH7DOMdCPNot/bljiP+ls24P8T6fKY5smt4XpMuTwfa11Yjlqr7dDGu39qw35t2t++B4WiUtpkcmzx1EECgBQACPZp7Taawwt5Ey4BRQtl9Meokc1sF3kIs0yNWX1dGXWJ1HeDtdvL7bPrOKAYMaE3m2o97HPGlThgrvizYCMNLEzBlWgsLzflh0jdlVqS3qC/j8QHxKUYbTS6+gazr/RHXL4DXsl8d5JA6TlPak5eW7oOOKAs444K44o4os4o4AjjjgjgTiwqHAfSGBDEfSA1ELCIRFLllIs0yEtHBBpICEQgghQAUMgiRchkkBcIRLKhcIAsKMVEAwhQVIwoBZxwACxYmWdXNwuICh3cxHCRx5XoKgiIoQLXKEASCVcq4kCBILEiiBc4TOKFDhM4ARQROAUOEwApQERLAUExIABUAEECigwCARK4WRxkUCCEUUFcIinpcBnCJxz10KiZxxtgmKCZx5nUZYIRlomKiIYFlFlAWAcEQCCGAaEYQsSACCKIEwigJkclMjgZrExZkc0I6M2Ss/J9YcTReaaPIhi2sK3Jsl3GYdwkO6nXlDJ/dHg92gapRofQcJxqL7XutZ4mlF5x8j5uTcWmnZo9Sp/Mp+06UuwqHe4/ZrT6EyHFb9x43J3k297bH/Qqqyg92GgzXoh+IFnBnzn1TPnvPID2CpknoPHLM9keKlShKzLzPQ8LVjDmzulbiwL5sSjLlv9qencI3uFTjiP8Ad+0TP8nF9H4FQtyvfl19BJw2enf+BFSn9JOs+BlWYSbk705ftk9UZeRUafy7/wAkb7syRW2l5LrNWnDkTd9Y0pS5pN8SMow6Rqm7F5HN0TwQREy2Uq3lFfx3+TGoPFZ5cRpNWbT3GmSZRxZpkBQQAFCYQkUAJCgiAkJBiABliZEuRH0LHHRkPKlvWhjYWBtU9rUz6fK7XBvzV4y0dQzY5rO3E9BWfmjy7YzbStxZ4XVqT3GUaHMpwus8CAFUUWUEUcccBRYVrmFKrCO/mfCOffgUbghKUYbTS6+gY8q1SWH2Lyx6TCstL4sodjr/AER1y+A25Nz2pOXlu6DijI4so4Is444qrOKOAs4o4CzijgLOKOA4444DjjjgqAtp6R7IZD2h5xA2BYiolAcKiYZRQocWAYRQYRwYIoQEKCQqAqEJlECwohIIAxQAICxUTOKCOOAAIVEizs5FADjjDYygQjqws4oA4uhQoAsyogDjiAwhIIA7nCIZQoUJAgKlHCYB3AuUCFKAnAgEJAgAKlgAgGJBiJkUCcCABKEC2dnIAIIRydAgigiZaEUKbxAqFgeIBZtksCRwzi24ME4BQ4TEwFAhMECjgSwKAFxAASKSRACICShEDOaMx79Y4jLxTRQ2omsZdrM0Dy1EKSMBrUPFmda+TKGsCbDjYzbHcRyg9QPSUbVOq6burPimew06kKuFr2zT3HgfSKK6zV0yj6Js+AtZ8O9Gb8vN1IXeKdmOw872aYk6cmns20/gMbkieyyzR87+rPy6Ds508OSPBEvkj9KGD6s+PUbSqrfJm3I7OVcESLGFjv7zs+LCN/JEPnXG+jMj/d5S0iNrYJrvAzXOT3NCiY41JPHqK5YvAyIHMvMm+quDIfpsiODW4oWlNyywXAzCywgCdEhho5tNwREE7iphtYhUztLUxUVWeRpDbOFmrNrgJG2QlFlBCQmKCRUJCQuI2CIxQocGnBFChEe83NGDXMujpMg49bkxEuWVldWdssjzmpeUpSed23oPZ3Hnd8Jd0vPSebyg4+a4nF96ZWDTqOk/4vFdp6+8jxaUeg9dg+aEHxig83KJBREnOFPalnwWb7hpuvN7CUPN5y+CD5p7O0VeTUV5sar+YXgjzecrpdGIzrXd3eT4vMXAOTlPalfyWS6BLJYBHFHHHHBHHHHBXHHHBHHHHBXHHHAccccBxxxwHHHHAWcUcBxRxwVnyxQ54sbEsDfgdGTnJZCRKObSyQRxUBYo44oIMo4iFBQSFgLFxEUAUBEyyBc4A4CSLEUWQFBFAFCwQidcBQ4oAqLFCiiKI4AsAyjgQOCAFAOAOBAULESwDCEjgFThI4BUoEoAgBIoKMoQCAVKAKAssjhAECAEQWcIlgKiYAmbjmIEsEtWLEyymcXQqJnCYCgIIJFK3CECwFwADrgKgiJQC4AmGBYBYAFBAFAUUGRgExMMTAQERQQCIrV7GdL7XpNgkbs+8uPXJrHEGafJK110EA8Tyo1xJpcLBtAphzQ+X95MHl/djVtwFFcujK5f3Yvk8zeE4tvE7KenyuUJr+S6h7DbobMvOXYOkOrFqbL0PqPmQ+ppYPX1HhcqH0vpOimWEKtOOTVhM0ymLIcaqNY59ZhImmUOZTX1LXkbamuK1M83bSI/M75AeuKUZYSXSu0UcHius8pdpEazX4B0eup8SeeJ3f1S6S7vi+lhzesSgjEtYa0as44PUxwKsntK2jNEVNzQGQvjsu5HvxMqStYWEW0gzClTRWZmG7FBWZVWD1DZPSakOaD4rPoPMzoixMUEjbAAChMIkommbFk8BGxEsaBQGUWTyPYg9uDBCPS5CAlFTx7usUFCNG3+Xj9UuhGXVhKnCKjN8t7ZZPjmP4yqqvSn5Wl0Mjrba8hSSFizjDio444rSjjjgjjjjgOOOOCuOOOAo444CzjjgOOOOAo444I4444K4444CjjjgqNLBkymIiFM7xzP1EsgIno4NLDADClghMEKkiggGAqLCJYQoKAlAKHFFAGWCUQLHFggLFABFCgQmCZClzhMsoUOOOAssAAAhQRFCjgygCAywQQFASxEAixAsoI4ROAVBEcgQFgBERuFSLlXM9sTA0rnXMQ6+IGtfA65h3E+YyNy5dzB5jucyN65Ric4XMaGwDczb9wtcCdcAg3OuUaIgRRW5hoqcJBgKFCYICgoRhO4Ew4jnAEEIhAKnCJwComInMCQUJlgEIBAAUIMlCQEYjE0ihCIi87cFnpe64uJFDxpu6vqDnBTwyfXpG/SlaTjueeseRxaeaNOLs8SFY9KnZxs8xiyjbQcWGXYXCFDmy4y5OxqGNJHSK9a+Wv6SvvbaHeNWh7Kno7WOO68+g7OpBjMHu9fQxjvI00zZWeOYzZUl4egeDM00hhP7cmIXuepq0lZq68zGl8unsPU/iEefhkhxccmrCIBkvsIhMj1hopkyOJYHB0cUSVLik9JIjFSYc0JOzuh683MN1xj5mrbzObeJBHS5cr5dQdiGyCdGX3WZ6akeDM9L+Xq832PHd5hh6FHNvQ10o8OinJKy6T3hZLUNuEFFJBHnbpzW6+gxLntW4YdWmmsM+J0ZefuRCu2aUoWWRjASUaikZCJBWDhuEYyZoJlVJOEywj2kIEI9DmUFREVIFRdK+XG66URxQg8OWStwyDNysuWpPzd+lXMMyqjjjg0o4I4ATiwb4ed+4Is4Rx1rNeYos0FGUWUEcUEUFUcccUccccBxxxwRxxxxFUcccBxRZQFkFJxz3E43U/8co8fgBpLAmmTHA1QhUsosiuFBM4olnCYoBYoccAscUcARxRwBhCNwiBYsSFACABCICFBEUQHCoIJQqAcJAKiYRwCgJQICoBZwFHFAgGWIFgcUcAUWIhAACcCIAEyOKkcKTE2CQgLZAFzPbAVbMxyMqUrmcQavMTOZDdDuYaOxPMnjagzeIieS7mSKkaagNyPcVCFyhEsIkCTvuEywJRZGDAMERCKFixAUIgzhEUKpUEooqieRxQYFFlAAGUJBAWJioACYAuUGUawnYnWZxoYTPQoPmhF6nqGva5NjLlTW69zm2nu7LjT3voNZLK+IVzIxp0oTf0Piu1DQlSrR/n5p9jPQzmRHl3LVfgfcSvTq71Ff1LsuekFkCtLKnBeRuEFEno6Sugn+8hjSxY+f3sv8BhzxeZWmKzIJbM4rKYnYciGmbUWBqSXMrNXR53Oi1s5rgemANFR4qWPipTvnv6xkFRIfHiJWFlnkCHRHN5fal5mOL3CNmJqDcUiTzHneloN2MMkLMqxpliyBUnFprcGyIdHnfTfMnHmWDV+khYHlkKjdGVO/iVtG8KNScMHqZhD/Ulg/wATHqr7CIvmOMbeaAnUU8kFYuCIlxe1wbI5tMdpMzWrDlsiM0dGDeLFbFHRgrcUuRjjSPoAUEgz0ORQUEhQBYMSFCBlfMrOEvJx6HkMk9Qrq9J/xafYzy8wrjjjgrjjjgrhDRufWLCWeHlj5gDhm9z6xXjpB7V02O+GHmAqQpbiaRZYAT3uI4SwBAs444o4444CjjjgjjjjgrjjjiATgjgKNCMeZCcYuWA8owUUaEBKxMJ1jrGq9Xb8/wD1FEzSsJ2OTyowoL2DKEQg2iwKCOFABLODAo44sDizggBLCEQFyyhQgTDKCAIISCIOLKuCULAghgIihYkAoCCCAoEIggSRMSBAVAECihUEhggKiQgJXClSHc65GATEyC5xW8g+oiDWG/Ue4r1DKlK7KEBMMTIqiiiiK0IYodo1YYjjMCQGIBkEkVIosAscUcFLhiAYRZYJYRZxxZQocdxOCODBLCuKDKIqxUTONIosEMo44OwZWEYVCErm0KgiBZFKiYkcGnACwic1SoyccGbaqLerDaBRlTxFcRpczW80/U4roAcJxRRBpLM0P3wM5YIXyfnpwMuhF2fDXmMt5ylbO2OVrD0b0df4DKcHdtZNhphMzrm+09JmWDKJdCxdhOyKNVStibGGcegaSdjWT1aPgBsXT/i+4a9WjfNZPuZvbWJecPOIR5InyvzRNasx/VKaqK61P4nnzTWTK2TEhYiGmVE25mEhGRtomsyjaRl1YTMk32sjKaKyKGJuDfWTHCyuSMIu6VzQSudVTdlrYECNTczYG3yMQi3E5tHciGxQAissjmsJWNIyATXsVY0y9oFBIUPY85UMTDAVDEwwFbc14/Umuk8PR7ceW1Y8tSfm7rWZVjHHHEVxxxwVQIQLzVgEcMksHYK3dfvFygOOOLII8BUg8md/MnAccccBZxxxRxRYIHFgBgcccLpN4ECBuRp3zfQbEYKOk0QDFBMUCFBM44CRmcJoVCuCAOAs4E4yFCiyigQiyyizjjgOLCLASCLCAEMA4gIo4oAiyjgKBDEwDFRI4CzhMUAEGxzCAE4AMBMIEEAQBQTKECgwQIthElCIEZ4DAnJywJU582GBhAZ2YIuIGWkm5L5bq5kjwgA3NwAqxEKE444g1YYjlMaG9m0ZFFnFkFioBYQsEUcFKCgkKEFCgmWUKBiQYBliYsVkQYFhaxtkBwqcaRQJQQQRwicRooUAEFcAWUYaUWUCBYQkWUAxQ4AgTFjhEoq5xZxlUhSccBzRmn5DPFQPR0TDBX2+ZtmGkZiVicIkbZtjNcTbEwGu4rcjCcWPqxBaAYxIHC4irjkvIDHRo345p4MDlDsRA7D8nuMv5iK5YzXG3SOFK2TwMuatGUXg8PJorTzAhkwiGgmLoRFkGWkb8DARuxMtAeJFaHBJZ3M0y6m0zas27JFxjzTS1np0IqOBpwZkKaivMbktp6ew9EueeynzSlpIIDM5miRjDSJHI0iASE7kAhWJIrYiIthN4GmYE3uKr2IVIhIPpPGWDEwwFAxMMBQZ3zC2JaY9qHeZlVc1OS4Wl0fgRXlpRZRhXHHHBXHHHAcDgD5eTzB7VqyKFOOksDPuwDIOOOOAo444DjjjijjjjgBCOOION2m7SXmmYRPi7W8mA9RQDeGAIR2AICpwRwRYfEEsyLLKOKqxNigmAoLCIQCpwJRRYIQQFFABAKghCYBnFnECZxZwBnCes4BYoTLAIsoEARQEEAQjhEBYEEABYAoMCigAwErAiwBAkIkgSvY0PGkR2TZPN24mQBwAQBlpQ6k7RuNU15ZQj5gZQYiKEVYQJLirtAOaKskSigjIs4I4yijhQsKI44soUCOsKmmSYqKHXNYyAXAONMpBRHFApQ4AMy0TDKBILDOOI0IoANgCEcWRVFHHFHCYuJBHFHHAJ3OCEyos444KRCCKMq4444DeVXiug24zTwepjBOA9WO4jLhUtk+kdaZlsYTLDZlUESJRRRCsXYmihFZVgrGqGBl2urEPHJmuyPy3CvIKtNwl5bhrn0FOneL39ek8UnGzNDEFDiwynI24mOjfiZaObcNCeRst5DVb5jk7HrQjk2945Zu2/IyFUjGIzJzc3mbcE2VVvJfau8bQsIGkTovcTRtmkpXMqnEI0COYVoLM0EYidjdRgA8jz1u7HbUeQyzvFe5pk8bhNTPe8TeFDOUicQKhiQQCosiOWQePtcrceDsCOeuvvv8AUr61kNgw0o444K4444ARLDJbn1itr5CV7609IFYY52fWSBHtWOgUICOOOKKOOOAo444o40YwcvJEJNJ5q47FUi/I81dYv04tcPMaGDsz0YaVXaWg8srtWKKIQFkfQeQ+U7pPiiYY9PDQzWKOCOBIDBCCKgzgAgCDKBCqFSjgFCgTgOLKOAI4I4oMR6DgQDLLLAoEUBILLOCARFAQwDBOCAoAsEDgTigKBLAAo4I4DgDjgDOBDA4TFAQqONatK0Ut77B1Hj9SXNJlGWIHCZFGUUalOPPJLT3EAxi5vLDiFVVpWW5HqSSWCwPH5Pmk3xYEcMAMijHPRWLGweiU1aC88yokkYmFlxhCKJYmERwhQRKFTiyzKjBLCI0Iss4DjhQ4iuuEECBYYAZFEJoI4IEUExQII44oqrKLBIqwUyyijigQAizjjiixMUAIBOLOIOKCKKqgAwSCgSwQgheMnHDoIhKjGU2+XlVsW/wAeMZqWHQbCe4aKoPfUl/Sku/McttL0mWkkMQJBFEcGWFVmK28xRCxGiVlwOFDiChvTowqY3Wiw4TOnUjSXNJ6FvZoeXVfluRcyldedhgE+rWlWeeCwW5DfTsbGkT0zOguZ+RuNJYGHoztqPds4MEjzhADAKwRERYTKI4BJDsQa0c0xQgxyNZnF0QSdF5CIkiKzKrzRjC0neT0kc9Ti9bFSGiWdXEuSkyGT1G/kZaT0yWZji15lJl1WqWRLkg6Msesrwv9L7niednrtr3XFWPIewwLOOOIrjjjiixL4oUOAos44CwQgQOKOEwCOEziKMUEziBW7WDaAOLMNKLBLNMnFTebXHsHCM2Ds0/3mPU0hQAoUILBuEWVFigJwBnAlgcEcCFcGJigHACpZRRYBwHFnBAWGIlgGEcAQGUCEBRRYQBnAhgWJioiAAIIQCB1hY4BI7uOOAIEJoIAQSiwCOBFAGxWfLDzll8Tyod9eV5W+nIZrDRATFBMyox2/Lq835JjOHz8tjJ+RUOeo1CDerpPHx3/ADEryUfp6xoGlGGAGYCmOXE9WtYYlJfenwzPQSsI4kxcEKjgEkoyqEUSCgEhQIIypMIssBIVKDKjghQAoMAM4CxUEEAhcAoCgjiwBOFCgEwwAiKAIEI0AOFDiBAEUBKjijjiATghMg4oIEK4I4ECjikAEEO2hsN/VNvoyGcP6krUoL+N+nMyrTOBKMgjhK4ncKlh3MbmITmUPNYCx4fT+anHa+5dDWs9AXzFJ+Pl8pKwaPIobvrU9009FzJlWfhVvPeFbFWtGis85bo/HgfPFSpKpLmk79mg1akHm7t344jQOiFRRK7sRhQIf6tFWIRmqd8SeHu5ct7TwIA4ow8LgAigoCgigOKOKCLNJO5lgmGjgM95Eu5Algc2zaDOJUVc9Ti9BRKuN/mFLmRs8+eQ807q55iOeEraGfPr2nhcxJU3jB/0yw1M1BU4qaqqK9pfa+D+JuE2SjPKSTGc6dSnnB8y4fgfQnJ5sOm4yqsfuclg+smRrJ4/b1Dh7z0ODzI4dcqaeccvIa+BtkBxxxRxxxwFnHHAUElc2qdJzzwjxN6cFTdlgctbN9QWdxsD5GfJWkzTJAMTCAULKLCuCKOAMEosos9DxV+IylHeSFTa2W4vuD6X4tmneWYvM42U1a/iWGvgbAfOEWUUVzLBHAgGWCEAoAWcFcECEARxxxRYJwQABFBgCCLAAWcUUBZZwQFhAhkBHBFAIiYsJAUIihxtkkcKHWN4yos4G5cRQYQBeyLLEw/N4LEdlLDJnX8NNXfH4DQq1XU8luRqwjyrzeJm11xmql9T6Cb6cPN6WaQR8zXpZ6px4dZI9OH0o1UKHJo1HSW66NWmnTjK1m3Y0xMuoYUqc73ed+Bi2serCTSlirnXWXl4oOV0XuMOzWOR0YO+grJviOYUtbJYFmmUY4VOKiMcKFWKhMoULCkwhY4IjnC4IHAEq2YiAJwocVSYoEEQAWWcUcCFYIATgjgOOBKAsAVKCgKLOAE4EUATCLEgLLKOAEEM4goTDEwOKKI4ComIiYFSeR6q8suGXQeXRzlFea7sx+tmUSrkO5GIxFSLke4mJlFmNN2i/wB4mqNes7RtxZoNI4TCNAx4xqc2Tx6xlgkHpg05075oUhU3PpHGUebqF/IzsD0hx4DXcb6Q6G+bsZbmYOAQYO04yYy3M1jmOBLBCqKLBCuOOOATBCBMqkoIAWSMvQb5pQKliR1kdnmbCNBGMicmcHRriiINy7nmdz6hK6sbJ55Fse6dzi20hQQCOCoM6camKs+K7RgSp1KWaw4x7UenhYHWVzx5zGt9S1r4G79tRcetE2dGE8PtfFYa0eezpypvNf1I+jK8uNCUHHzRlE6NaSx+7TiTf8c8Hyvg8kz1OTEOF2nHEXjCU8OngUQx+06CWc8/4/E3oU401lm/q3k8+XeT1yFDFqr7U+D6zZAtzXXE8cda89MGpueo2yJJXiz7j5xrnABlUqWSFGUsEJWaxViCjgSjQUALOKNSMtw+Iq+e480N6nUcH5O10Zfd4+y5lep8qazV1wGpKnKlnG7jw3rRx0HoN01df+jClUS/fwK+fbprKSkrp3JgDgpO6+2XkRIyvpWJXhTCwSioWOEzgFwSywgmcccFEGJnFBnAHAWWCEAYJ1wSsiCACOmMuOCKLjOjOKOL2URxxQ7AREWIhNMEcIlmdaxYIIRy1pPS5tBlSutA5VZRuYkruDdjwa9WMLnNZO6GwKXsdZWTnGb8xPJR45vsHXF3PIqkuecn59R6HMnDaHgN6Cy1jgPJXYIliLC5xdFC4iKGRILAETKlihIUuUUdiIChoTbsUuQQS6jSJRjo0z0OKjgzju5BOCsdYISOFrHWAQOFQgBExYTCuBFjiqROJBViITAsKhFAFBFACUKHAcCcCBxxRwHFFXMJy/EK1chLmQ1bOb+1a9xqv7XZ48eJW8bpRnpk0jBQA4EIEFBAYEVwkLkcAiOLEcARI4AI1KSvPQmOsb9HxPQjdMhEQFBEDhMITKpp1ZuLSTayzsMpu56U4Rbu1cZUneT0mhBDLBAoEsAIo24VLZPDqMIED04jONxmwm4aB7Jp4BTTlG42sD1Bq42JRuA1jXjLczHasUZDvAMiMuJsEUJRxQHHFnFaIhAhmHWCJFyGJkdC7IbKI51edLTJpjk5FYaqNNIzEaJ5HpSTajKxkBnndHoAsN6D3G4eZ0SDgQjmpc5iJIIGtKhGWcfsfc/gefThKGUlrxR7MXfo4HplcMYtK1SlHmSlZWd/I20kkrZIjxjGF+VWu72JXE5WuhVFiaFzi6BCOCCGLUVpvg81rMwdtZZJ8MukZ59qeHzzNas2izQqLO/EzT0MHjTd1bgajzxVzz9Np3Q41V4roPHY9SR6cd113kH03xRrqcXv6ciectphiuMo4roIp6GM6ceV5YM9ErjjMDEiWkepDq9R2y3pXIqkZwqszi9BwRZCeLYtYI7PKtM0LmUK3Ozk1yzPuLXNYjQEwdQoXGFigkCULHAnF7MlgDgRsChdxM4aYIMSBM61hY4HMs562VCESyKVDScnaNlpI2I94R5V5sK81lKUJOOTtq+IHqcVbvPXnnjnpG3KjCWH26MCBp8yYgNSUWm+V4b9zAvV/j0lU6yhi+pPfkaSm3vMB0ipgczJ/MZU5396z3Ey32s6OCJlj5z2POZRsZo6aiMXlyuEZ97DPlTeKHKyPgdmUaOUUSyViQTDRU4AAgnEsgolEUqRGSiMzIji1yIKFCoYiLkEsQDCAo1EZhoI0jSBEwz6DyLKOOCEwgQswBKDAAIITBsAQQAZWnHBHERGYo0ccUCcUGAmccCBYOJYABCYZYEfuM5xT80aoIVIVlglYQklLJ/+iPgSj1x+642cp/ht7Ls+knJmm1dZjezTs9TOGPz3Ph+e88Nsox+ewonK17Sa48rtl5pWOb4rVEzN5mKtu3M1K2WdnbptYKklES4N3k7ZNtLDO2PnrAkCASvLBSehN9SIadyBUTK6cvLjgR3gA8qWwvNtmiZifKkrP7eWLeVrvdm8+OQte7aSbtjZN26ERCgiIJp6seK0o5O+Ck7ZZRb6kQLgCSaaugL5XtJriou2XnaxpSTds+B5mPOpL7ct9huckmrqMmuNnbpNCACcABYBQAHFCrTSTs7PB8bcCOARNjJxIzTVrpq+a0cRED0RSUldCuIz4RqYxjJ6E2h1WkrXjKN+Ka7DKMWcP/Y0sD0VXbsk35JN9RiTjuwa3PJrUQNY0YytkzMwNCMJT2YuVuCb6iq2yjLTccnu7jdUZS2YyloTfUiKjgHCbCrOJnJK1+WVsb8rtbjgQDDs4SJrjJK/LK3Gzt0mYaRQiT5QnHNxktKaM024OJSZAFjSNtGkmN9GkmcnVuEgy7inMeV2bd0mOpSPOEOJM4O58ig3VK2811I8zScKiIRhRiQsCYBF7wgQqiUIhECpwJ2BRzXMmuJ5geoJ8BjVVyzfB5o9/F5KbM1dDbHSxrvJtH1HjWEJBhSoabWDa0CJxGm6qr3q4hOXNZJGXibCSRwx2LqNg7GsIs4vWyiXAhSdjUPRHmpcoos9uvARbAtJ4IWZuwadjlr604bNYnLNeFfq/Ag87WMXqzH1N52T3GPfde+kxry4hKWnXl1k4lWuuzcY6yujo4tIVIAqRlNFjPuEAsEAAULFHFERwqJFgLnFigHFAnFVOTQ/McDzUNNxwCvRBh1J82Sw6ycqr35jWwAgTwyMuPEmtmVcKQItiWJEQtgSEJCxkP2k7prWjfPP6cuWVx+vJnz69bJqK6M9r7dQ63mjJteyOKvKkKnYMVOjKHHeuBMsZTylcckVdX1BTdeQiaM0YaNDXROMdDie4ikyK8CcRTAySQRhQ0JqFTkLEACggKoBckCIsQTAgQj6LyOOCANMu7gEKBAcJhCZRYoUARRliZZVWcAKEQIBbLKORwAmAZxxQUNywSggQBUMBEEMEKEQwFhIrpLiWJNJqzIV7E89b9xx5TnDfhS5qsYPBvpSV7dhK9epzKSfKvDFbKXBrtNdS5JRluTz0NNX1XuYPoVbqKV08JeG253zWG48tflOfH8064U4zqxVlyuCq8u7Pw6L5l//AOjbtO+Nrq2jk5vxKjNeraDy9P0oS3cyzTeXHLK9zAVOrzLljJTvtO+O9uVrNdZl85kZKN1b97s7m5VTVofRG39Us2+PA0ftlXk1sp87awtFK78/u4Yjevi3vvJ68wJMqktz9OKWUYt9LeV2HVzkvqcIOXHmtw3O1iYoShaThNyxjFJ2XBzaz8+VcMzDfNd83NzPind3ywtqSQGzGV6NRcsVbkwTu7y3tttjZ3peY6owl6dX7ZZ+nb7XnaW7IbkYuVRQs1fJ7mr44/xuA7t0PO9R79rKOOeUcuAgnJRSvyJZvlbvKW9t5PUHzc0pS+p5aFksfJXA5W48zjNxezGKd5ebe6L6WQBK8lSzfNJON3jy86UXbLc3Z7yRKUr2i3BQbjFR8ni+N3uZlylPm55J811KzTirRd7K6JsoybbgnOMm3FrDPPPhZu2dgE5/dyysvvvzRV0m4ys3fdzFSqTxTcd0YxwXBW39Bc2o8sF93Imm1necndpZceskcs6bT5Zue60W4QvoX3StqzKMGs4xrPLmipXtfF2Ta378UWpfM1Jc0efN5Wuo5aft6Q1HnkoN8t3jJO98fLN6iDFfM02lFVFbK2fL/wCOvDeBl13F1ZuOab79/eNkcfzHKqs1HJJ9+/vGwUEKp2eCfk79jTIxKjGUtlN6FcB+/MS56VF2jHbyirLFDFjLld+VS8ne3c0P+pTqOjRXJK657qzy+7eMCMJT2YuVuCbAeXzTu6byV6cXZYLHAZfLJrms7LfbLpH/APMU5/43yyypRvk8rXvcb8fV9GVvZ3zwxy18AHZRUn8u+WXJ/kzlzcqty73psYVVVYKLc+eLwak5Rvr3kCNKpKneN5RvnFXyejXuvkONRlToTU7x53Hli8cnm7bjIdPJUVOHpp3muaclk91ldvLEatT1Fyxnfe4t5uzxV02nrzJlRTq06druMUotLNqSyd0u78SrOFBqeSclyRljk/ufkv3vAakoXSyavmrp56C3XkoxhD7EsbPOT4t9hpT9Tlp817W+zZwy4Z8MTTVK6U5Qm14YxTvLzbtlHveIGVWfNToyltuLvfGyf2/+9496ka05c1JvkaXLyy5UvK11vPO5ucqkZVlJJtYppWvgja+Yp1ZVG7OaecXFNrl3WsUFXzqWvzStFStvnhl3YEalFerFTW/CWW7LvsaNXmTpK96qyeeGd433XMOak52qNKTte+GGWyn5EVNlVrc7u5KV9lYeSSwfaPL0VKuuZJXgpyju5sLdOe+5nP8ANX5Ly4c27Tz2v2mn6ylXfK1nBwjLdzY30Xy33Cs3/wD1357S48t1a3Dlv+Jl/LRu6k0k3BXjHN5u9t98rGZGlW51aMlK+01l5tvB9o8efmnXVNq8kuV4XttW83nZ6yox2vmoKUpJyTT5k2mrPyTy1YHlh6J8vTqxqJ2lBLOTkmly78RmTac5cuHM7aLlYZIqRxUrSWTkzKJCA17kxGYjVR53ZsInXSMHmKPM7tG9zZizNSNk87q1UzVTG5exn87ucGnoJxgKRocxyaTBQjBlQZTEyI5ZBhNbsY7ZHAufRkebS5iTlzW8iJKVzLPW4LJPKniiMjQOzmyHT4PpM+zQ6izSGYGOtpPFGQ1Yw6IiyJBFFji9abcV5iAZ7ObRRu44IZrRkNY2oYtHqeNtAhCRWF3KTEizi9Utide4sRiOcHorVU3oCIAsj1vnphYkGaYLXCBBNCUCJhAXgECEEKigmKAEKCYoaFglnBQnBkBysRVSdhutibZCAEoE4gWBKNaKIrPDNSyELEQkemp80U9R5uOik7OzwfWcK7HLFkeX2yi93xM6V4s29tHgdnm9RWk9Ik1YdFdXszOtkjSGmx0U9ifk11MxbG5T2Z6EUNiW4zjWmsCNYojjgWcV5ZEWKVx0StgsCKbxCJ7M8yrOkCKyIx1RqotsQRBvcyJxMRnmojIlCwRxFLBCIR9F5CxYiWbYLCYIoABRZWYChQiWBZwIoVQHAnAWEJg7wCACCAE4ooDjjiwEwRQAASwCgqyMKFBCYnmiQJB0lwqA7Qg48zzulFSllqvYj3cc4uw3njmd36K+yWeO5aPBmheS+3mla1rcztbhiYRrr7l5o4PziQmkprO8rRVsko3V9+/QRCXGE5K8Y3WldV7iLUljGS1MMpfPL65/ql8SNdt5tt8W23l53ItwQNDnn9c/1S+InBtSm25NuL5Xfe1a7baw1meK4Wz/AAAcN0shPmtkpTSX8pfEiOceBlOXkjI2G74uT0tvrEVLlwlKN88pNdTG+2yGQbfNFYXy4fEF1p7pTX9cviYBxsT+dvad773mOC7tbmla1rc0rW4YnnzzNyEtzAypR5WRB8tXQzWnFmggS4ylHOLa0OxCCIN71qv+pP8AU/iQYznHZk434NoQSubChbEDvUqyy55v+piiulbmdnnZPIXuRb2Amq8c4tx802uopu+cpNvzbfWYzkyKZGpzuLvFteabT7iJKUpO7belt9ZDBAcEZOTSbbthd4aB4JyWSlP9UvieVDyhUvk8eIGlOPOs3J2wu2+sa6lOnkpSjobQ8iDJcxVM5ZZrIkXcndtt+eYm1Yk2CNDnna3NK1rW5na3DExiWQQqf6k7W5pWta13a3AxhQTDLRdSclZzk1wbbMo4A0ExQQFCKXFiMKFGimTjHJyZBOubcTJJCODudKCcrGBzAHldmhe5OiriEUb9zi7KtYlFZbzAlO+SPPjbb5lc0+YYKxHCdcZbblwM8RKbse/HgK3sYbdwW7kY7ORJiZQuaQZIEjQUJPcaQkUakpJKyWm4zedxeaugHjaO9vUQXSW6TekT/wAUsbrzWK0oJxlS380eKDTDlHl/f/tCQ8FK64rzG9KNs1hw4aDDvrOFHB6SlnYcZEpldwsnZpjuMtxho0G3BoCAlfgKcph1xwuSLFM8r2oQrYElHojyVQRQZ1cCoYgKlCwQkGVCgYBxVKihGFAykBiAYCwQgFcBY4iN2M1sKlSkNZyIzdyNYokHCXKLWIrghQ4ilkjVIyFACCBOIghQAsB8RaqKzxXeDTXJJxe8asXZo9NklLE+fXrZFSP26zC3LyyHZirPEby3o87RszVmLwX21NC6zRmsw4+zfm+oqm41dEqnmrB4C0VZ+QF2QmxQSYVmyMw1WQzQzGQDVZlM6IVTM9EhCkFdmxqJGmiO3uJJxQoERCYIhQs44+i8jghMI0LCEwQyVAKOA4so4Diygg0AI4EqDKKBIBDKBIOLLKA4AISKOADI5RYImUFcJgCQBAiIIRIIrDEQMhhKXKxaSyuZUY3zYaOZxzsrZ8cBBTa3knFaBuvJkDh9RvHPSJ3jwtoG/c3Kcee8pZQji+PktIF2Ilgpz53fBYJcEIKTAXxIRLyeGQMs9IEIQErnAGZ7YTdxICzXBSsLgS1LcyW4qSGm8RxQldZlQ1mrOwSV2PCUeYgUV/kV/Dm9RAfMlksusznIRb5m3xbfSIhRXEyygKKLBKBEywCAxYoUCHDCe5moM01E21YBR5kYUZENKEjBiIRQBwBUUJBCQRRYJZGioqIBlEkkEMWKNZM10Nk0UwjR5RWOQaZNtc89dU9M0b2G5khG9zxvUnuTYNriSVzdWRvE0olYliQLdj1vGNuxkssTKwTEiyjSqJCRyV2T7XwAybj4pPIbSiOhRsGWdVGrHO46ZobcMZaSq3lFG1HONjEjmaqyNKw+VPDJheTyZoPG5eKIhsNWd0E5JGjgNuatYw7FHJvyJUUQEjcRwegpYlIQDOTsmEJi1yMacbVHBHHreJxQQQRQYBxGkoIjChUKhABFQoEIBgSSwQShUjtlmdJ2ARbtpMNu5zZFDSziw8iA7kgh2OAnhiJCeZkOJBjSJaut5Q5yjFuyTzAagBDuKXAlnpClzK+PE8uuh5U3lkeaux03TIDNG9xM+a9TBaOt9qRo2EgG41kJxwN2xAsUQSEzSMxmhEEQhI0yz2ZxLkRDsiGjQjlzayHFGq1dPz+JQnBGywFkJM4hUSvn5CuBlNmkOIMgomWPc8oygxE2ys444qFASygLAOOA4ITLICEwzgA1lhCYFhMAoCwjrAgERxQQKOEjgCihEsSAETCEwBLKKChExQTAojWz8iWAFAnZiE13ZoUJGK0GRh04Oo7YJZt8ET6lRStGOUI4Lj5sUnK0FCKssZPfJjWKJxxGuLgCakZXyZkiQE+SszJbHHtxGzYCzVSsClYkgWWWRpYAZI41kjDirscgE1CLdoTl9TUVoWJFbsgqv2uMPpjnpebAb5xxwAlFlACAWCBQZQqAYRwYFkwjihpAEcIQKKEzgAigDhMI4A4oDjjjiNLDEwihUVEAyiUSSCLFRspk65gkwy0nk5IgI1UcXVrIlGcHc6OKdchCRwZKiImERFBBkhRcnZFVrQX23+rqJNjVx7BLeaEdWNZ4YkCxGwNCmNGnjLSx2mFGNpTIJUN+kcI344vSboHMimgRQM5mZJXTNdkYw0bMMDZIFrSZOPG+g4UERQ6vJaVOBKOzgIoM4oEISCIDOADCrLADKFABIWCFAxM4qDFSOSzQQY2nI2GxvsiopxYoZUkWKWACrFBMIIISCxLsyK4M44oIVACIFDiywEbo3KU1FmWYDOFeh9H3v5hHl9GukrS1Ds9aPFdKPnV6m+IGf6kSK6seJyGgzLZkuqjLdRGkarILMHnIfMd2Wk2ZzZFvcgs6Itsjgk2KOg0UrInIRFzihcqxZJMqQY2xyyRkNBkvA2hvxHAeyPOsEss7ubjgSyiwSigODBAAUKOLCLBOAICKDBAEoAICyxIooMjhCbAoSFCOBQgGJFAglHAWJnFAAcccFUCcAFXjks2T3aFo4vxPsQtsK3iePkuBgmQTW4brVh1SzszKeZRgFnC33ZY5AacYiMiYpWMpsA4OzNOSzuZCRu4oCILCwoQJmPPHQbo1sSjRgsTXI8VZEsBeCTmr4K8noQ2nJybk8W7jgvanJ75vlXurHsGwBRxRYAlFlgJlChQFC4AqBYRQZUGIliBQImEJFHAHCYRwmcCRHHHHFH//2Q==;" vertex="1" parent="1">
                    <mxGeometry x="140" y="360" width="90" height="50.71" as="geometry"/>
                </mxCell>
                <mxCell id="52" value="" style="shape=image;imageAspect=0;aspect=fixed;verticalLabelPosition=bottom;verticalAlign=top;fontSize=9;image=data:image/jpeg,/9j/4AAQSkZJRgABAgAAAQABAAD//gAQTGF2YzU4LjU0LjEwMAD/2wBDAAgyMjsyO0RERERERFFLUVRUVFFRUVFUVFRaWlpqampaWlpUVFpaZGRqanN2c21tam12dn19fZaWj4+vr7XX1///xACeAAACAgMBAQAAAAAAAAAAAAACAwQBBgUABwgBAQEBAQEBAQEAAAAAAAAAAAABAgMEBQYHEAACAgAEAwUGBAQGAwADAQEAAQIRIRIxA0FRcZGBoWEisQQyE9HBclJC8ILhYvEzohRTI5LSskOjNCRjcxEBAQACAQQBAgUEAgMBAAAAAAECESEDMRJBYSJRQnGhE4GxMsEEFPAjcpFi/8AAEQgC0AUAAwEiAAIRAAMRAP/aAAwDAQACEQMRAD8AoMoI5ghgIwCxyQs2aObZgZQ086moAayE3SsogyxeXtJQiK56slAeUb23kdr4X4Mxg9zlo0+J47uQe3KtVwO8ZRE6ZlOphps4OniehGQNEQ2xDcZVeWl1s+jjfTyWIY4WOPpPI444U2lr2cwDuj1L3XapucviawXJGD7cMc0teC5HoUZUfPte+R6eLZrs2GJr27PlOqY5GrBOKOJEdRJMQGOtKWa9HZ5TFWl0PUZPLCT5RfsMRjhGPkkYaClRuomhTxMq4m22WRN4aGJvzkpgLdIM0u7oZRrc+JkHAwYy94KjbLXgFnGmT17SfxFoJFEsIEICzgTjIs8+2/XvTl+RZe94mWbk1CLbMQ90acZc81vvKjIdzWuRpJUli0jKXBXbvHzOUduGKil5192FYbtpSb9LaqtHXa6RK/0mx+Ttk/qbqW/tr9Ufb7DHZe8wX6py/DGvGRoZgoUqTUFyikvbZovlbNuTipt9Z/yRgr94fCEes25fQ1Ut7cl+t91R9ivxND2tNQWEVFedRRon7xD88f4U5+KwPEnjrj5vF9om6IPTH71L9Me+TfsRonv7r/VXSkYmnm0Tl0TfsNytvcf6H30vDUirzSesm+rN7EKPu24+S/fcZmvducn3Yfz8TavE+EvOa8LZSUVdcq7We9L3fYj+mPfj7bJl7UdEu5AeKRhK8IPjwr24GQL3fddemKrnL6JnpL3ktEa178uSJtWmXus2sZpdFftf2NyvdY8ZTfYvYjVPcm+Jp229W31GxmfydiOqj3u/a2FexHRR7o/yMBKMbHoPz4LSL7KI/wDqOUfEwYMwMy+fLkiP82b4mOkswNhnl+ZirfNkcYZBCwHS1dERSi9Gn0x9hBJEjP4Z/wDSf0GZNz8j7Y/+RtUYUOyy45I/iml7EyP1ntLpJz8EkECRxnp/3ezal9SK3tr9W8+kYr2orThJ2bb5bz8m4RXbHEDNHht15/Mk/B4HJ6tgOJJHPI9KLQuiWcZVs4xNwa9G1OToyLZ3M6cX8UdfsZHpgedbO08z3b10Xkekn0Y+XVmN7sM2KWPtMiCPQ4vL/l7n5H2w/wDIR8vc/wBt9sP/ACBnBKTVLsNXlXJdgE75W7/tvth/5C/l7v8Atv8A7Q/8iDljyXYBljyXYRWQwjuxf+G6evqh/wCRkeWX5MeeZfU80qKv0RlfPgaXJH8q7Ay9hqX5fGP1Kyy5eK+p49lXCF1rUW660iPlj+Vdge6Zaerz9EtuWF4xeONP6V4mQOcPz7ffNI8MSWZYJamxowxbt7GtyH59v/uiRnT0cH/GjxShVLkuwrzver8l2obj+V/5fqfP+WPJdhWWPJdgHub24y12ovrGL+5qHsbX+0v+r+x5TS6dCXml+ef/AGf1Az3/AE+x/tv/APIR37tsf1r+J/cw/PNfrn/2v2kz5u7/ALj7I/Q1tU//AE+1w3J/5X9iN/pVw3H3xX1C+du/nvuj9DvnT5bb6x/mNoi/6WfCcX1TX1IX+m3Vxg++vsTPny/29vutfUlf6hf7X+d/QqMaezur9KfSS/kQ/l7i/RL2+wz9b8OMZrpTJPzYc5r+H+YR5TpqpLuf0I9o9nW7H8/amjDfetxOCSaeJoafayTzXrXpXmTt3byUuNY9pgieXTgbR70nq235mWUgs0Lm270OzvyZ0ab8I03zFyJmaL4hEo444CjgTgOLKLIFiSSKA1SwZvTUtDYsqGkc2LIBUJFDxZRGFDwDQ1xFNkRTIhmZe7wzSvgjEz2/ajkgl2nNG9QxukWYzvS4GVYhJ27I5ZRl0CCGRmcm0GRqw27AI9LjanQVs3048VwOjDIYq0KImzNPA3Z6XlqcEUGc2BhlDKsyqUkTShp52xF6Bmsk1avqZGwNX8UvJe0By5avTAnJUqNAyhgh0k23SRBD49FZhE3nvzHSnm00+xDOqMPyu8qVvkjLFsKCzbr/AIV939DcfMyQ9Ky8+bZ5z6pu2z1urIsz+FZYJ3jdUjM9hZbk5Zk1Ss8ncc0lFdvM9QulS0WCK5tNKKi8NOHkRi27Ijdeb5H1JXzdLbrrwRtIQp5pYv2CIxrF4tm683SXn9CWttleiWrZ6FGK28NZcWYp7v6p2k/StX5mSt3ieCvUlBEVMlHBBj6CDIBGcH0A1VnPR9waYRvYbUvOl2s1PAn+8fAlznHwIhlWtj8SN7eJrttXNdSWtStM8iZEYzEyNGWzzG93gZIYtu6ojCDtq5dPablu2DBZY3zxImmuB1ZGGiIm3om/BeJslGXkvEIcPILy8W2+WvgjnPKuEV/U1HwxCtmEYBL3mC4yl+FUu1/YwmW/N6eheWL72zKPbnJL90YvL3iEdHb8sfHQ8TeOuPXEYRW43Jy3Hb04IxjPLblcXTN0YkvXN0m+ibOiMtfvO9+ZLpFC7c9W5Nc2Pj7vvSd5K/E68MWZVD3Gadvcr8K+7+hptg5EbR7n/ptlfF6vxP7KkbBT2tv4Ul+FGUeKLa3Zabcu/wBPtMkXum69XGPT1P7Iz17/ACXaad703xroZUK9zh+qUn3pLw+ptVs7G3+mHZftsxpyb1bFmNqzv5sFzInzuSRh4Rkb97sma5yk+LIoZlFliG1HVpdQ78pPpGT9ioAhJKyz/JXm5RS8GyJ/Htr8N7nglEKEQF6Pz7j/AAwS/wDYQ8n+23+KcvFLAop4EZST0x6Jv2ErNWkNqPSOPaP+ZuP9b8F7EaQKjN6Qm+qy/wDtQ7JPiox/FNL2WanF6uUurbE5VyXYVG4r/wD021+FPc9lDfT+eb/DBL/2s1o8yJnp5Tl+KWX/ANAfT/tx/icpe0SGQSFJx0jtx/DFL6j/AJk/zPw+hrjiKK5fmn/2Zq8q5Inkc0hFLkjhosKQJYwUwqOAETFBOOaWKvBcyKepKStBmQNQyqlGPkjUngr6Ea04n0alziuNnJ3blGg3dy/TF66iVn3dMEekbXu6grep2kcts2iqSJxHWiJJ7nzkYYQ18Ul0faiYdGWD7y9XcYxTq+D8zLfePhT5P2nkM9ySeHsX0DLKxRgvzdzn4L6CfnbnPwX0KrOcrabS01NKY182b4+CF/Mlz8F9AMzU5RTSdJ6mrMc+ZPn4L6FfMnz8F9CDKlr3MlmghO7zNJm3zR/NHtRA4EG1zXaiu9dqMtCOK712oLs7QKOLKog41UtzK6qzcmPy27dp1ZVKW7bxXYZAaKO1WLdm6IIbFBMWaZSkSRCGmUEYlN3LoZQ8EYPridQZGWLSGMODyu9TYyD5a5s172nwa9htIzzE85jD8kuRCprVNGdlgefEpSkuLMsaT1SNfkj0KNf8x8aZNU48bXiQ3t+ZBcJIDKLT0a9hIpmCl21o2ijNQDHvmz531Jq3Vxj2FE807wZuU4PSVdUNe3J6U+jQC0yma9XHVNGxbwKiILG2UVEIocIASIJAsit7swzSvgj1k0O3HLFc+Jv0YYNbpHl0nbsyjdlwMPMuijjjjm0A1kmSWzRN2cnoLGAG3hE00yfbVKyeztEKPS8jWypY1iBHca1IEnbIh0YesjChpyRZsER0bA4NLDOJSOLbVW6JBMNDL8vP2FCF622+42i5P+4KVJD6TNBppZ1LDCiDObUsl4NUzG7cU16aTrA6oFyzSbfBC0My3FvlXtGHd65jaw3cbzO+43Dhlap5lWPk/Ih7uM0uhlxtz4m2ogqx5+wlMYyK1z9K8e5EeVr2zYpVi3Xt7kI00X8T1+iLKNjmr4VXm9f5ETx6hFHdh6f7thtylz/sbMlKOXbiugs5IirU3hASNiYDdRgS4hcURoHBdBMtKHXSNHdmBiu/rtrzb7CMSt3/ABIeUJPtZECi2vjXf7C4jNr4u5+wZFBplsTJkYjEypGW000O5w70bs1W58PeZYOateRB9EccL5/zMXEPE6IyR7y513WYlLfXCLl+J5V2LXvBcTE2GkmW7uPjlXKKr+fiaDz48+JMSlL4E5efDteBk6913Hq1Hp6vovabVhJFtXXsxfgeyr3TaXxNy6v7KkZApbe3hFJdFRGXi8drdlpBrzk68NfAymPuk+M0vwr7v6GXvefBGle5J8SbaSF7tsxxl6vxY+Gngb35m3DCK7kqRhIBnaMoe++CSNE9yb/UzXgkRwRGcktXRMSlL4YyfdXjKkULOG018T249ZW+xLHtE+j885fhgor/ADWZU4VmV1ePLj2C/Tw24/xSlLwZMzz0TUVyikl9wi0pPSEn1WX/ANq8Aaa1ltx6yt9iWPaQnjq3Lq79oqkuAE/0/nm/wwUf/ezvT+S/OU34xWHYRwwJak1pkh+CKV9bsFuT1lJ99eCoQERUfLHkuwcEUUJAGgmgkEmZWFl8zSItSSTapPQSbTKiUlHkUaMcbWlyBoIhFk2gSiGCbDKdRRqgTb0JoqNQQTc0BRRpyMbJkUioqjmdK/2z1ScYOoYuuEU/aYVtLM2lyxZ6xCKSVKkFYX8vcttRjVUszfsSZoHs+8R0UH0f/lR7gUcXbb5zWxuzfqtfvuRnMPdEtT1Aj0jLptCjBR0Q6X3Q53yIlptFc20CCLK5sSbre6w+5vzRbixUuRuGGWg3Fmgz55n8TPol6PofNz1NqjCxoo6uZYsYARsko4EIsEsJK3QQoSbaUVE1xhTkd2DUQwg76B2RSgqZmfn2kjO+b7TUlhG4+ZLmwvmvn7DSgBtvM4/P0MaOAzD5nl4j/mLkzCh5hWRTmmqRqBfEM0iKzdfKdKmjR6snFG/jDKbQw62uLGZpczLLKgTGvmS8jeGWjBZwsooUUJNIBsgUh4hhF5E+NCcjNdTMqQVi7TXAWm1o6MwEUnwIER943I8b6mtzNu9L4DZRSxICND0dShKHqxksEmsEjGLp448jHjZQbk1eKXMyN41Jaxfdia3Dn9j0tbsPyyj5xd+D+of/ABz/AFJ/iVFV5dVG12o5pXwRlvyFwtfhdr7k2EcqoiNqG3Ss4xrdlwMIx1u3Yko4y6hEN0PMYk7ZHQTZFEDCOiQjNoKjQwjZmBXChIEnSJZjMnbPU86KTY5Xg+0iDTqw9dHAkpHjdUkacMPO2IkspAEVRqI4+p8RksWo97J4CGWNIpkY/uxtXxtLqYvVPDmbqcrdLRGsPW+hjfH1tOirzL+mXhiQuBuNr415prtRoI/Cuh0ee5WsfXq3e1mZNVizEtv4nJ9xtfErypObl2v6Gv64mRLa3H+murSNkvdpP4pRXTFnPbWmGlnpH+l2/wA+54fQZ/pttfmfV/Q57d/GvPR0Vcorm17T035W3+XxY9RjF2opMeTXjW9nqiER2+YOZGfKOXjW4RNQmOKOtHqeY77mqluJYLU1ctxv4e3j3EdIIrFmySAdRVyaS5sxN7s9zCCyR/M/ifRcDCqlLNuyr9MVHv4jaHRgoqkTQG7ap9zISNlDj0ZritNzEypGHRMsRltPNdP4SeQ5fCzmjCwBwB1ZVdW+SbfceR7cc9yljjgmZ3vya26WLk67lr9hG3tpQScnfGksH3mm2R7W6oQSUaqxj3ZPyNEo5FV3eIJyE274kUj5ldceSxfgbPLJ45aXOTy/z8DLKOWdUeM+6Cv/ADPAr08IX5zd/wCVekBVrTV8li+xYkzLN45aXOXp9uPgdnnonlXKKSX18TWVeuPXH2mkSqXHcXSCcv8ANp4CPR+WU/xyy+EMO04WESVOS+FQh+GK8bsjtuWrcurw7NBYRWiqS4IcURHOK/Uu2/YESwzTT3FDVSd44aV1NnBqZRJANxlRIo0NDjyY2mbwRRpEKvMuupPFGkRgR44gijKJGBKNiPQzL0GDQF0GNLAjUKNl2Cq8gNUwu82XcEQa+hhs68uxfQXS7yjWi6XI2+X92i6KNBRF7jJq/dCKIMRZqHgZi4Mi7e3mlb0j7SDJtmLjBJ68epkuNYV0AHIw0gfM8pvomTVJNXZsLEZUYRdjiLkR2KIp53EMjLiFLdrRdxKvyoeadu5UuBQM8IMq/Qhe6/Q+4V+hFGvPnqWEn1Z9CngW58UupoasEltaPmC1ST5nRlDBJjHVgmRGmBHMINIhdtYoktCqCJMpqXA1YgeQPIgZQAgjAQFnBHFAghAhVHFnBVjBYwyJKKHkFhlvtqMWm3Kuitmrng8Hh0rwFp0O9L8iohWT5UjVjUaVNStmQGqiTjKJBQgIjROj6ksjvE5cuPtAqkKokCiALOtEUUBsiyKhuiCtdLWiGUhTKh0VmZlcYqJrdvQ2pgOADLMja7SxvgZYIisqomlC26R543bs327K8DHTDQQQgTDZTNU4E5s0ZydyGmhkVZNzM38I2bRtYqkGPZAPS8iHJmlLu8Tjoy4I4IqPYzYkdImnhbWOAJZzbUR3grHmqli1HvZ0ARXF6vE2BZRgCaaUsqb4vQ2ph25LNKuCwRBpxhZZ6UToOpRfmjXNU5Lk37QyKaQJlnu8M0nJ/p068+4xQ9F92+GVLFv7ErpGZO3gtfYjBpbtaEvf3ltLKncmeRyt6YHyZNvXt6P/AKgT/qPL99h4u5TXFno+zsbk1c5uC4c2fQ8HPbJvnG0W4uLJUIQ23/xxx4zkzRT94SwilPm2sO414Hknua4X2GMymaWW5Kerb9nYaxmfHTPk9EXvSjFJRbpat1ZoXvzfBGOFcLPY8bafOnzXYb1e8v8AKm+GJhjjKOqoh0FZHmU5XuNyfdSMrW5DhI84EkR7GnY083huSXmj0XXEyqQsL6EQkENyS8yDbRMliYIpmWQZHRvyxIV1rgclYk1Toim0dzdpPvw9otRx/mdnSTbSJXuP+iOVfieL+xvMr4+LPOtvck0/VKOMm8q4vz1B11xI+nvTKpU2ln0VVFOTfZgjWej8rl+N1/ljga5YaYBmXy7y2meeiaguUEkiDV64vm8WUdgRyNOEOUVWVN870OjKWLwjlV6di7Tb0a43uJIJq8zeJp7d448iPIyeyLmTZrENKjVvdfBLvsyOGKxMKcadGaQwRVbKjxncjknhpwPY5fCzDZrMsNVbPVpEb49p3g4aXStPVYvga/ZlldGrjKMcXBTfm5exE+V7jVwjD8Mas4q9tTtJkk1u1WRGRUVGroCja0BroaRr68g68kTqGV07foFamvIKjb1+/wC4NJga6iza1y9g/tA1VEnK+XikTqvz7/qdh5vtYEWn/T/2f/iPrzXtJdP8viPyv9sK11efgdlXLvxRtcr4vuJORMI0NL9q/aPx8+5L6G5yo5RCtPj/AF+32OhmVvgvE3xYGhyvkvEXlfku0yQUBj9S69MPadT5S7V7EzIrAAxnL/TfX+YqKrgbhvoJObZqDKHGWQhoVgVTCNgGY3mrVGu+cFZjQu0v7GI/PXFNdMSct5PRxfW4+3UyN4mnoaH3f1QzcZYsN7kNJxyt817JLDxC24x21ljdXeONWBC33ovNMkv4H1Rp5YzaNrN1BeZFQeB4tPj1PYeB4g3qaEqTvbS5HXe0o4elmssBM2jZ3e3T1TwNnt5XtTUu7mYoWaEJh8BYoCQ9AOAoECE9Ti2AVCySIGkAhHBALKDBKAKDLClnBFAcS1i+hFNgiCma0exQQoEaAUGMI40qNusBtmoH2ZGyDIQwKmAVYgeFdfP+5wwhU1p2EDBhEvmmiSsSDjWSfA2TwNCaDSNqWyaqQFweVmSGJSo38Xa6BlKMg2VeJoqt0elJUkuREPI8nlRLMJ3JZmcW2qKLKObooQNNa3RzdkCTIpxYdkyKsz1KkavbjWJsmdnjqMaWb4E9ukY8dnIQQAZpBgnBFHvIRwZ810GPYYg0obpWa6KwviypYtR72bE0BBDFHMaycssW+LwRitV8WBsNx43rlwXm+ZrHF6yxZ2Qps0zZNZoGzqNjm8xifMx4moDcWjebe8oRlSxZhrEq244XisCh+Vt5pdxLMzlsty9PHHLy8jFWmsGqZ6NMoHG+Rlcd2363Zi4hnZh6PvbqayweHF/YwjAjx0XQ16dts5DZIIWCYVJJrncIw0SevEgFBXSrNg2/N8SOcZFsf4ivkyDHkCzJd2vTXNmKgMM42p4NcjASfF0zIzOU2zX2Y492PDEXnk+FGRnvU3cd6MPM8jxfElZQr1F+9N6IX/qH/TflbZ58TEUZQ96cufsMfc5ydOTXkqo4ltXG+KeBHeWxP93nlk4v9X7oLcgtp6pL9N+zuMZfqVo9m2J/MjjqtSObzdRnL4YSfdlX+avAySOxucXGFrGvU/FJLxPUwjTLDV7tt8bl+J/ZUvA1W/lhFRikuNJUekHknvHx9gZYcTNNv8cvCH8zWG2mqpflil3vFlGpAasitjkwOTNkaqWGPaSbIJbVmxXBEBMnFEaeiL2lmk/KL8TeR21N48udewz2G1HbWC15s9SPniUMjrvTMoyue3euTHXgZP74qjB606b6mBRnOF5ZON66fdM4qynZkk65npyrg27PFons+1UlXQIPBcEXlb1vpeBvaGhGmy9F3DcptygrXZFxxJdC8yCsIjvr2kdfvCh1kawNhlVEo1N/ugrCtqcabN0Ovz9gG3EGqvz9gAG6si5jWWuRFcv3/cMt3mFXzx7vqae2H+9QrZ3WiS7BN/v9s119RVlRs83QjZvOjUNrma/N+8QrIk7ZsTFdt22+CN5Dcz/CsDm23YGnQcEVlG10NY7QEotYwdex9xrPn1hOLXmsUYUUt1rgmYk5qX6UuhlUsslgzBnFoypYJHOMo3MZuOGq/K8UZlCaa9Gv5W67DzgkpXqBny28c08L87Ik3b8uBFikuCAkFN4PoeHntK+z9h4izSk2BYoWbDrBsQAVBiigCiyijjQESOEmUMYBOSs2klmrRUEaIME4qrBLLIAKCOKoCwjijiaxaKYEMYChpAkUSRZRFHAnFYEGAWQNCsjiw02tklGoRsUBPFibIFkVs7B14WCkSG6xKjQPXgGLQDAYlbNw0uSCiqRJCtU0uRDi8rN2BCGeflxDLOdqNLNz0MuE0SNDijT7ksqMIJcpZnZEObs4o4Wc3QlmjbslyZrTD0qN1CNmvSszyKyo25VJ0NexjZo5Pget40KTtkYoMIsIAAAyciKkTyD3EkIWSjwOjiPdYjTUSxaj3s6Co83q8TYlFmVCa2Usqb7l1ZNZjG47lX5fbxIiE5ZHlXDApzvVGsk1blxZrrs9KJDrka5pMIQUKyeZNSrVkLEsrSU2j0H3Xbd55cU1Fe1mt2trFNrA9NUpJpRh6ed0enF2vEbbCHVnlE4OfqerM/naT4t+CNFGOGaeF1hxrhGj6r5jyAhsynd9TuqXAxY81itw8EaJUbpmqPE6pAxiENMqkllg8SqQxTCYkKWGRSSyIAIjhIg2CVEoSOIDGCyyhxMRBJyCmG5/T3mkNv8Ap7yK17VY9v1J8JOEsy7/ADHRFuOR1wen0IPc4yUkmuJJPK9ncyPK9HoeqEFHhu7PPNtaHoPvMssK5uu48aINjGOeUY834cTT7083lmbl3cDdw0nLlGu+WBiE/i6YFRFNgiGTTY25D0dDUO1Mhpu07RjSJ6IPQtp4/U9As8gWJu1NribGX7kYzi4usV48z53SawZ7F8yvqliYFOrvmUQEZxszpmDGxi6Ky92sjZjDozJOYgyXMLzGPWOso3FsjWa60iLYG0sTZp7E2BurSDvzMfDCNxmKzGnLsK22Yj2a6wbCNkcaeyrKqdaAshg6agSbF2RbviVjyYDrIl9RuV8gKfIg2jTlt5VrL2GaKNJLkazbwijY2FSjgEhbdGA2zUzpo0UpYiTmrGXGiMbVkEyIgI0sjTkbpEBGxRUbREZjURWFSY6njEli+rPZYmMOCt3zNDzOgaPU8keSDyx5HQeS0zqZ6zlXIXlRB5VTKys9WyoKlyNI8kpnZWes5VyAyrkaR4200Ak2em7kVSwNPFLMj6Em4yh7cJSteIlurPf4Qgo2rT4tSp9l0+8wrc2ott632+B4EeMl0em/LhyB+XHkZbeZhHpny4g/LQHmZR6R8uPmI+XHzIPPSj0H5aMVmqlSKqLwILJzOhHO+hRFCMm+UxHy2QY8LMg+WxXy3yKMfFEimifkbO2kckRWjKZwe2o3xRjjxOaNeLJAsyoCUIGGQYKBHIDZmsk7wHN0QkUEXFWyKZKlSKiSUAcFcZ9tQyx82YztxzO+CPQTIaY1uy4G9k8qPPnicVLOOOOTsEht0PNI3Zyd0UsI2MVZW2424m5bK0RCPY8JTdGNj5O2RTbAiwSjKuLWIk2SKiWcWCc1e8kkpAHlaAauPF88Rk8ajzx7kTDQ4osUzmqO3lTfL2vQwe6i/M3e68VHlr1Mc4HVljtiGMkiGvE7iVmEEFkXHUDZdCQRsNeZK0DT3LbkpRXkZGp/FyTrwPCtueXoem+mdtLFs9OLpk3acHdbmPHRMx6e1xUpX2k9+nhteCaNFLddWnF41yPe+YxXG8r4munFLQ2Kz3jXtGyWGB6WWK8BJspVjRoNT5L0NmNNdZNs5tHkewiCFOYCcf1EJyNcwqa9cC7IugAEoeiCPsg36GkVaEogaGAMKGEohDiKmmxfwo1BtJaIKOOp6DGKnHK+Ph5nm8T0rbINJFa7e5quPPzRlm1J/BLVeK5l7m3nVr4lp9DFq+bHC4zjp90cxqPeJ5p1ywMPLbvUCwN6lUF/VJy7oqvaYDriZdN+nolHtxftMSNspaJaIpMNokGzrQ1ZtGzKoTXENVwvvJJG0w0RFbqDonmiJdgbIgss40NOOOBKjI4s2qMURvkEbOxlkOh+VhTBQ9RvjY3IBqLBMgUP3gMyoDHRqs39f3GlZaHLLkHkfl2o3I3uCtRk8w8nX995tBYVCypcH2oOvJeJJDxCNfXT99Qsq5d5KxBAqhVDhVAVQ6hBaWJkbRYI17m9IkebvDkHCJFZQY9Nml3JO8G+00l9TAJmyRqLGXRlSHqQiY9TXMBwZFi7Q8inkw15JMK2yIw9aEZmgxakT9Ul5kpahvU2IRQ0vvOjKKMGHALFjxYUAJwBRHkriYVj+0Z8Krge2Zac2j2puM1cnWjI83KMpK3g2je0lokBS4pdh38p9nb1prYSbeLZuyJlV4JIeeS3bkYAWUedXBCWGGlXWJ5Zrb5mYbrwrmYiwIbM62o1HqYSlmkkeoAGcUdYZAccWBjW4qp8zN/d8lY5ZOtJNfdUaCStGK5HyPpzmadY9O3YxdelJck7WPLl3GJZI8iLG8kljzXdwxIcZO8WcfF6Mp2s9p+RchORG4KPG8bRfLRF+WZKAQYp8sXkfIyw18pZVZBhD16FMIR8ToC0uJvjeUlhQFI2w0o7XAnZUZFtQrHsMq3sY5VRshRrZypHNtoZyzM04YJxdnABENs5uiHJmuCOMuxyVmWpUjXxRsztHmoWaqT4EpujHD1PO4444CxQwtKyKYkbA4s5gwCyOzy16Y+jBRZAm6Xm8PqRwRo+puXZ0NmJSpDgqiPzfIcaDddRS/Nj3IDFG2229XicUGepzRJIxtozQ0Uo2VpirIdYm9cWJyM0DiGx6wAkZVEujYqVcjSijQyrV2ZdhlV9+GjPOYyMoUop+fFcGfVleZuWstLxFJ4tcfPj0EKWGXhw8g/luVPNVdD0ODVyRopYmW7yqN2eaxlzPmV1SqYjFErMhlnF0a/OR8xtGkzXtINIll2OI9BTLHWQRYG0skGqNrFWBkI8SNAaWAMIGDBVi8xBs0S5GltkhpylRFTFJIyePvEIcLPOWqEkV6nL338sO1mijvOUm3SbxMKGGR6LvQzL5kf4vqeeVboz/a3K+4D2skm0k4tYeV8CowiWiXnZrCdP4q5IimmEgkCiQbU5EotRZLysyEDCaoMjPA0qIiea/TE3TTWpHv1NbUrNmoMhbbUpKr48GvaZlgHhY78teRK+WbgUBGyRRsVhyFBBEw4QMCJAB2JQQwsUdgFNCImoYBhAhAWALYZQwWCVxApA0EV4GRwAN9ewHuAElInqCWuLNoeXT6HlwxSjc6IfSRo9yR6HgYk3bIA0UYAjBZwVRjm49EuJkZrnH1JkDEqQ0oMipA4SOINwtCKbDga0K5ajXqKQx6mgoHtGiMeZ1ZWccd2kBCaOOAIAIoqgEkgSyIWUccAkAJmpnPLpqzSNg2lqzSveXBMxBtvUEDKPnf0+LHLdjxT9piBRRs5tSla0RqmFwIbDTJtlasysRBJRVEkyFHDgQyWCMCKI4Vhh0UKsVhyQ0ADgAu+jWucefgVUwsiWno0MAaYZN5peSNxOVLqYroZCWZFtx4mhSzMzwAxZYorKXFZmZoa+EaXU2yABukYC3bNzuSvAx84O7gSxZxbUaBuyXJmvMvS42cURErMnSoOdO0IxxqpPge540ZuyMccUWcCLIGmzSojxROMiiiyjz12gTTSZJkzWHB7H1IavWflHA2DeVNkOKpG3z0044oyF6ujBJyzSb7OiMvm8sJPn6V36mAnRkQZRZ6UCRhok2ijgNDcw2p7mKVLm8PA6MlKKkmuPAxOSccGenqG1B8d2S7F9vaamUcy0SfBL2Hdl5jRHN9l6+arQtxrhf0OGnRqFibJRLpcBWh3G6SwKqXASm2b7Kz1PMhPM4OLPLT25TSwfiard93zYxwfIzR5IHZLltyhqmjVnidEwzeE9vDMsOJhsJuDtGVx3ISdyik7TMtNPuyi5elUjQ2egS2JbiluLKljKuSR52RpxRQ9GgaVmVrQxsmpnZhkQYlYkqjzOgA0mxhsokDo7d6m8UYrgORr3uJefQwFzeKRqW6zCG7ds1/aaUBYzuQ7Olx7CgafIlZfNGr+YuRH+ZLoGWd7cY6PHjyM6zKqdJcjwW5c2beDpkErdg4zlfMQonqLrdj5rxMEqrNKmKCNqkuSIsdDbGkNCOLOamGOGSEDLyPXiyhQhDMllxu7bb0x6G3zZpTf9Tr2Gvy+ZOSo6XTvvjTZJslkGhlnhcThA0AKcUWcEMHCEPAsI4AA8P7lAvyLArAIrQoB/FggWhNogPmOIliLKJ5xrbOzPyIJxxrszZBu+AG8Zt4cWYSZpt/CgqcObUVb0FMwue41wry/tYUyU23wa4U7p+a9hjH7Y7B417H46iyIWLGijCuKLFMgRYZwBgENAHmhRMRDNmiNNvwNYzZs1jIpQx8xQ02gDsSzjaEgDQNQgDgjgBAGBFUjiccGQJFDywIzPMJO3Z6JP4WedFQkIeOoKiCXyN2aHzKAbIgbCqijYxnl0M5TvFHmpttuWV1wZhGcnWJLKCCBCKOLKOAo10pZUbIwjcdy6EENuwDiQUQqJqk4nEVlBN5nZq2xpN21mkBkMI5V1NkUCYBm1hG8TUrFma1SoBhCnLKiboYRJ5jCogIQJydgkKToezRPE5O4AgTcRQdE2KJbJJR6HialujQmZAnRhhxxkbiuRDyIqNMSUh+UmlVZxxRwVRDbGtmmeJ53tLJcVYlKzcBp7dLFqPe/sbQ1kcW5czZmngUJY4Uub0WJgYvvPFR/KserNAVdtt8cSz0MiKLJsYqSfqqml26vuPQ1rbSNpam6hsznj8EfzS+hKc9rYVxjnl+aX2wGXLcSc8cLrgr/kehz1b/B17O18Ke5Lm9ClOW9q/wCHh/MBqzQyi4vkzLkzdR7h9qNvkrNRDczYPB+0he8PLFLnj3L+ZHtxm6wTM275LxZMhOvi058jS8OuLNXPgjC5c2vRJR4qmmRqTWJg8dxw6cjN4tTV/c+pHznJJ4M2DbitLItUVZ1ci86lhoB8yUcMKNvdqmk0a7JKLuKVcmVFualrarkQJLZl5dAmo/qjKH4cUa97fFPMud/Y5iI9qL0k+81j2pJXw4G9p2lTfcZ9JU8q0jgu48L1PLY7koppPVU1wNXXM9McYt4qzzbc9E5JaKT9phonIIqjII0zTSTs2yUPEDT0MtmnRl0YykrSw52kvEwk2SlXmc9DK8qWs1/D6voiQnFaJy/E68F9TCs78l0ILberZx00zp7j5xj0Mec15s0JZETs3khNsjnBRFE1Qk+BO+U+LSA1BRka21xbZPUIrgg0xCyYsz0TMywRTIEwnPb5doy8z64sZVmzikjYmVROI4w4qOxxZRkNCOKAEBBBgOOBF2UTjjX2FYE5VyG2asUEbewcyNUWBscx1mr1HBU3MyFiGLAdiDjYGAlmQ4rXmXiCUEAGwQDLLsHUgW75hDBQAsybZ4ox7iPTp66FRNnJP0vLceEo33oxhcNUloZbNKdSNNQaa0E2tEdgawSOEGApigxZFUGCPMhgAYsKabRGrNogrZmukbMgSIqOWUMKgTizjYSCEEVCQiykAooacUIs4Yd+9QhII8AitXuYwZgJ6lVnniVNrkEIompExI2iiVWmaMflHkelUah7XJ15FHnmVtm1aN24tcjXNAY/QmjYsSBm0XmSZKNZtad5kJBDOJhQRE0OJQACTAZfE+p6EYbNep+eIGqG0OokUUQzUm+ao1rRRqSSsC6JdAb6MsyJJjUXTM3hG2QbiEaxN2LIk5ZUcxp9yV4GPhFHJ0ULCNXJmHUlshHDErOb1JCVm2uhRRkT83kHmRp26NQactMztBGH2zbo256bgjkARmNJpOAIuZDys6EJYRqmzk7lNiATcpUR0MSGnBGR7osEOBCK8ADTbrqCX5n4I2+rMN3Xmm+SwXcFaoIEI9jAiiyzqgsHg+JkRrI+3Du4/Q2xp7u2P58nJWzauKep0NGzYkeB5rPbcWYzPM2nLp3Hqu5JRizD4TjuRSktf3aMvXzJv7sD1ZoHjI9D3NpxxWK4M830QeVF1Zn6VGH7auRm6Oo2mbniTlcuGHU0hJOu3FJknF1j3Id61xCzvqHmj5o9srDdrFcGJSt4cfIlRSdNW1xwao2F1p2s6uKdl+UsfiaMOo2jbbtmuk1H4nXt7D5zujpc9Fizx+cs8pS5tvtMg3d75mCVR8X1MZDSRFuLtGRZ4VhH7GMDEdEGwTY0iJT1rAKYMEDDs5uLyy5FmVRdrzJoaJbb8kTflrm2bos46VBUYrgTtCwDzuozuYZxhXBlBhTRwgcRTCYiISijYjyAgzKJwJDC6BUmy7IgYEkUUNClhDAyoFFFnAF3WHQIOPiA0rtDGARRmJVEmjKI5ZI6IEKSUS65CgiN3AfvUnBFEYTb6EntJIEPU4kdpfQyIwyh/VWCUKBBQ7+wCvZyJAABoPdmnZvrtENoiseEmyog0wIhQ+iyIUOBCObShY0oyo0bhGpRtUFbEKrAKb4AQV2gUOFHQAVY1YlAcLLKKhbxCYQQEc4sooEWSAAOFgHEBaGP7i0ktdH5oyAUBqVzNskapp7eKVxeq5eaMnjUlcXa/epQsUzYiGBi0jG2ZXIxllGhZFJwmrwAyjaXpMgIsVSRJIOFhCwizjigANPuLBP8vsN2CBiNExIusrrg/h+hsaASaVxrQ3zNUyjUhCwLApRzOkeppUaHbjSvizKDALQwiTs2W5K8DRmGwghEVs5OpEmaYt4gnN6hG5SojJEs5qMjtm1jFy4YGWLJwXaVh5xTlomyTHZ3NxvLF4c8Pae3xlmXQ3spZfM6MPCv9Pux1g30qXgsTVXzw6nuPzfJBNw3cJxsqvAJM1R6Ru+6SjjtvOuX6l9Tzwy6iSs2+gCwIzZlS2zXnE+KKgkjYFBkRwJxZke8llAm3gLvKnLkvF6HnBlm68EueL7sDFTrEEECEd2XDBZJWqOjUbeq7sPuySa1zhHi5PyX79hbztYyW0vLFh+iuHPN1GUuaiq0r96GKvdcvhTfdh4fU1P/ABrROb5y+hctyT1dLywOO/h49449psDi3rS7zV/teRHzck2X6uddDo8mWdyb2G7Xplx8SBu7Nq1/Y0WWLbfBeJM297LhI08DVwjRkNGTS21V6WJypefXA2jTE/JLp1f21Le4o6eGBjMt6XCkdWGbLbXFt+C7QPmbW3pl7lfieUNuWrsVR0c3qMvfH+mC6ybfgRNv3jH/AJMU+XA85NgoSfDtGzTKp+8O/RgufFmHO5O27fmbn5XN9hsltxXC+phpgwZm7imYvVanoRCDGhnZhyMli7VcsDHSdF0ed0RZxy4rT2EIzVOzHZQrTsMjXj06IY89DLMFJMeY3CsyvQ38ko5a0eD6nl3XTQ7CKoaXbmUGCGTSjHAjTjp0WNKGnN0WCOHlURY6gjIEYcSaCIwwknAReJIo4eFAd3DRZUWcWURDBi1F0UiNGgFllFB8WIY8g4UEFqsQgQHiNwBAELvOLWAHah4CuPMIBZwQjXgAXS+8MvuK4gcCGcijmBQZeAFp0HfkK+xOjoBAEsyAhtAY+yCTzXkCzjizmrjiyTRkRyaOyhadQqZdLzEEbXEmnVkBQBQaIQwIVqAQRx1ALBGCQLBBOKGdwBYsg4EIoCxQZQAXRrHB5s0Hkl4PqbIsCOt+v8SDj/VHFM2dxl8Mk+8iWamW3ty/Su7AonSTMXkiT8qPOXaH8qHJvriBieumJlkIZdcTe4LRULKKALCIFgnBBCu84YLA4oWcBbSkqZprcXUu6X1N4A8VTxQGqZp2PySj8OK5M1DlztdQFs2u3DM7eiNWlndI9MiqVFEghzlSJbdIxRuzi2jABizg6o7dGPNj27IRl2cTFzEpWSGyNpdmU7e3mxehje3DPJLtPWJYKkaYRbwyrQnUaezO4NUackeqNY0ZC0RmjD1aY3RKRKykWqDWmQpmHbu0p4rB9DJIsp0dHF4NJODpqmaPU9q3dv5i81oePZcaDS0jagjTkriwSzAoE4itgfQgsMReVOXJeL0K8DDNx5pvsXcQBQ49jIiwTjogxgAZpEhOtMDXPmSxLMq0OPOugqkWJNsH2RW7EEVyKiVdamO6h9TdR229cDSt9t7k0suqJ0tvNim789DkktDZ6Ghhrbt3g46mlpy0RmWTNi+dGyKMTW0+LS8TYLbj16m6DMCPp5HEgEAAQgiBYokizuwxyUaEmUGokj1SubVix4g2wYnRkGpjY1OjzOi5ria0yjU0z21zZoQLMrtOKt8Hh0MZwNtNZFBcfU35Wcq6tqTaIiNieV0ASCx5URxlBEk67cyaJBZJOu5XIoeEPouvsuyESSkMPNp224IIMw0UH3BD/AgUWPEAWANAAvocNOAA6jhgVdCBwkyGdovUcUAFEgUEUCWi6L6AB2hYdQavUtYAWU+tHHMIVihgztOA7uQJVV5hgLFhNfzCAooF2juAACry+rt6DwHjgUbpo1reBj2xua7UnjHBeaMkkiIx1kc2DSKWAVrhht8zNY5S5s5hlPl2tIC+hENfKcY6sDeZmwzQbV7jcmqitDLDLQQCSL7z3R56AM6hx53ZHBHYFEaKKGkcCxgAwCKWTAAEAjxZFLoKqGghChZJFlEYoAMCOWUAUGCcABxwo4oMVQZwFggghlYJxQFFllhQiRwkCgXj5jwiBMYpaJI3miBSNXOXAwqBJ2zXjBZxdgGteI6TIBxdgUjqQZRh0BRVDDgMu2llTfMktk9qopGko7PK2KZv4sx5I36I0y1OySY3EyA4vqQ0iNEoEjqxTFEdtm+kao6vJYVCVGg34ceJtGTl6vS+KOryvIBhbWVtcgDk6GCyiNZlRtkDU7U21UVl7sY/uuopc8e5G7Zh267m/LDsNPE1gYAw9bmso4I6KaGCEEcUWcEQ2k+BqXE3wARjOVi/lc32GVCSohqKjoiaWGVo5DDizogWUCcc1LLGlgKOHgBA0cWCaHCxpR0rBZYwow20rhyNAZsQnFM9O3JiZYxqnRGOyJFk9OzUj1qqM0bvM44xSvzRj2LeaTtvxMsux0VHkj5z0risDZFElEABUT0hlFEWi6Jg4CMNJJQRQYRINMljeABZ38qxoI5iRhvyY0YDQjqENz7MaqT5AgjScLyAJ+Y4Eup92uShZKLGvk2A46hhjxpskAeDRz1XTbqCKBOTSygi6IrqBDCCgA7gh4EdnDAu8A6EUHQAUwUwkNCIhzRGlOO2rl4YtmBz94k/guKXH9X0QHobxKPM/m7qwU5PztDI+8uK9Vy5tsD0cURIyU1cXZLA8r316r5+016943Y4Zr64mWTWaLPL2ZbZ8ve+cF3Nmzj71t/qUl4nkZxth7P87a/NfcYxL3j8qrqYAURWze5J6yZrsBYQV7J7u/8AjMqo8793eVGfWcFShDIuYK7wPTHGp4ogpg2bqROFkIo4OqWLEAhUgMhAATbKsiAASrBvEhhATrLsgnASrOsiiwGFCxZQwoSFZkWUWUBQIQBoCCUNIOBCBKjijgioA445hTEnJ1FNsjHrWxDLG3g2YBvSTm2eXG3K2SdnPbSktIQjYaHqbDJ0jGBrdiDyu6iM3Q54GmPO7AOOOMurjjiwqjd7Ubd8jSGYwVR64m3JsJyNFZIkak9Dzt/FmQ3xRhBOTObbPkbGzBVKjbKZwfQjKLE2aWwLMvU2ZrHgTTUyZ0cKALQ1VktM7PnsQ39bMfMo3dDBboNtka/UrU3CVHNpyVBjQDDT2y6t8k2ecGabjqH4n4Iws7x4DQwQj1ObhoAw0CLLLAoEYJAoIEI0iigzghYRYRQRw0WUJGFhkUoMo4yggSwyqSENDR1jCOUTaEGWiQCY0VRlUIo2dF0Bik48TXKKlG+UkvOnx7TOaIzRVYdKD25JNXej4ESOv71M5lmkknlaXNOzR+qOij2HXaN5NKO3HngcjQZZzdyxMzUTzOjkidQ9IZoGSyxgJRQ0WgiI4IMsquBGlEZUMA0CK0AccGAso4sBxws4AseB3ffU7Q4yDCBHBkpBlBm0EKGirN7rGjhDBvoFZvdY0PwDsi2HZrfwmhlizi8HJxxFsYODk4picO86+hnS7HYNiNBZ53dIsCxRHIrRb0XOPmnZ5zd3w8v5HrtmOThn68yKwHAv1V5J6gNNOngHXl/fmaQ6MnCV318zMXu3KKSq9TAGA8Hg+OplXrB5LONM9AjuqaxwZodyLeKV9Di9bAgQwDu8gRhs1tyfJdWbL5XmBjxtIxvobhbaXmbM823p0csDIkY+bc8e3r02AZBKPdt4NNnYoiHHveRKBIxx5XdIKFnAWEKAAk2CLBAaWAcBxRYIBlFAgGAWCUUCECQccWUAYocLKABDAIyYUAEVRiyXGMpv0rveiM5hsxjb+KuL0vyRpliUNpzxeEfF9DPo7UYvCPVt4k+8Ulj5sm/4cW27PHldfmjTb06VLU8iZsJyt2a0/b9LDwj89ldhw6MqV8RhstuMpySXDHE9uclnLjMrGNCz2bc92jLGPofksH1R4xuxntupquT1T6M/mEu37Vqm7EBAlegQJZxBxw9RcnUU5PkhHFrRrg8GbZMStozazVbcdWE2dHAEjTk9kM7uJll9pGJVEaTFfMn4mlwXkT0ZdW+T5lMg35lN+Zyevbbp4EFsjXgaRs05JFk1M0V8zZRZt5hT0MFcTNJsxww6lKlgSzUMemc3RswSOIYHqO6/UlyXi8TSkmTzSb5sSeuPniDAGHVlYwAYaHBHFgcKCBAAI4M7MuOCOOaqHoEfwNIWUMKIqihpwCDiScQBRxICAjlSagsf5huSirf9zD5LNjJtXw+pthpJTleZXXC2erUYDlbV8E0ZJCd4S15nPbbeHUF2dqOsooAKzkQUcOBRFVQNEksgXoShIAQ0MMEoqiwqC4lBaIUjhpQrHUfoEXqFJoeAEQGAcGFLHChhBwYoIoIUEcBYRQJA06yiwiygSiggCgzIuyPQ4soA4IsDmCwRyRAh6FhlFQAwWWdWB1YNeYgE7bjlykCKsuwbHByKiJQdhX0HBy1jheqTRiM9lrGPYZ5fkAxwcvF2LZ6fOEZ9TCJbUo6YnN3YyzcQi9c2NcH7TTGRQqvM4ttBlbZliSQ8adGDBhdDC6aJEk8QeKx7JSSaiGPPmvemhkUIkKnDCKiWfoY+BQFijjzOogwQgqgigQDLKOAUOKBAsAYUBRZQAFlHHFHAnBAAcUEQcKOKKyssOKcsIq2ZVHYr43b/ACx+7KjFUnJ1FW/DtMvjspP1epr9K072ZPGOEVWRcl9wrfqyrjr3I6CR8OW+xaCXcotvBXoOwi03i6IauXxYLNgufUo2qdyeGCRhO/uW8vIzacskGzwXNiTpTzzt9Ts8OVMYokkNqj+iPzzZpXgtWe0be2tuNdpo9jbyrM9X4IzI/l/X6m74x9rDH2MjSSkqatPgyQGeXHHxj7bwTf8Advl+qFuPFatea5rxPPT69PCt5R+Y8unHlZ6MJ+5lrt8s3LTzYsyJbUpyqNY8zfx90nmqbS/Djfaayx8bp1mUqd7pDCUlrdG+ltPcj653xXpVoyLbgttuCwVWhTSjdaeB2J3YM4KEVH9swmSPQZmCyPK99jWom0anRmQU2jo+c1gJtqIrAhWS0yGWFb6yFdnKuJN16cjLoiSeCRoWbls0hQROia8krBGGQM14ZRydiTV6G4EtWRpGsdVkWMeZvDQyQcLHHsfNWWWcdFMDKCAIIEoAQAigKLHDAFDAhhpCx4I42gQQwDCrCKCIqgwBgQI3QWaqSzp1p7TI115vXLT9KNhCLbzS1eiKjFt3LhojfnzrRxhco1hy06fyM0IM1a80eQeZaMyuE7WJrWjV6dD68o9KRMMaizJLPQCHAgkDBoo4DkOF8wgDCLLIDQuwMSwH+ZYAQVwJYRBQywBoFHBCygwwBLAeOFghVDLLOKysIUERRhiC9CooOwbE0nQDiyxYFHFicQppQscQVoHroLCTaunqAGIF0EgQBLF+ZyNIYRqJQpYmQookCaoqqAB4FhBkEnCyIhAUMDAhOMXqk+pD+XBfpRtgytIWVckBlJoQGtotImB2BrqFUbIZRFYvQkyV4mqcWeXT17a0MQUed6WQRa0NoYRJ+lm+2pZ158T6ONfMyjdUVRRZ7a8i8oFdQwe85bdA5TspdlWOAqmVTJFhWOBGoAm2HY0NYCXN5TR535HJ0bs4xvOwc7ObTIwTHs8uYOeXMqsjKMWzvmDmfMyMsOMQc64mSQ2d3cx+Fc3r2GkSTJobHGbrjS+5kENiG3T+K+LNsp25KKv2aG2VpYJfCny+peZJySxeuHQhqLajmfLDgS8yTkksaOqLScsubrQht1JRwx17NA8t5XJ35cBWa1JRxq+hROpRkm+OFsDLmak+doh0sJzldYrlfkidGVQUpYYWfNzy1Pz4GCe9Txy8tep5VZP3JZpN8zVH7DpY+OEj49bZMz7YhneZ6LxZ5tCEpyUVx/dn0xGKglFcDwdfq+E17rlJupYQsSfz/p4+6/RJN4jRKIU5ZI2eu5bvjEajd3MqrieUMmuWZ4kM/pXTw8J8vzGV2dtyyTT7meuzwcZedPo/50eRUmei7M80cr1WDXNHxuvO2X27u2F0kbqeDjqsX5riiY2pxVcfARD0elu3wfNfU1SXypOT+Gbt/wBLPn94++0clqYRJHrc4vcxX9zy6R4n3pzGMMlxYBEMvn2MhI1AjTo8zWMAmNCQ0aShKAZGkVmlNiUokCUrDZMfkQaOLZBRMykrIc3RpwjeZDbrbRlWLKiWkegqKRh+/hNPmvYajKQMADPovniCBCNqcWCEGVhHFhVBgjAoiwTgGHHFlQw4446sqOLRZzaccEdxIODOFt114ECni6Xf0/mTBCVL2+ZIPi27FBFFnmFF6FGpnL9K1Z0gxuVLHG3okaJO7NrTTlKVXHBVpehpVr1PtjcRdOjLkeeO1w5GUQZtWZpkkgxJmvE0gjtQygLGkMlEFjABgAcxoOgwChQfErUDgqBC1AcKBGVQBAhgAXwBDBChXEv6FjyqqyxCJAZJLGghXCRwoBo7QjlhBUUAUkBYu2SBYAhnC9dQqrsIYCABWIdBAAUEEArzADAAoI4ICPRx1iwg8AASwF0cAUGVggCw0MoUIAlCBVkcisV3JNSas1qfmP3V6upqf0vqFTLl1EZ3zIsouIl1/IyraqUufaSnN6VQS9UZR4rSzXRkn6Z9z4o4tI2a9QlJxdrDyMj+UuvebHLz05GmW+hNTVk48/2cJvlRnJ63BRYkacXdxwssB4sI4ACggQNbPTvMdZks/hfcY2wIJRQAFlgHAcEWAQem+7Qg4uckrUqvgtD0dzcpVHitXoeOe6pSm4vRxvvR65npRrF3XkdGFKHpWbFp8TYZkpUlbrhp2mucHLNmd8UuBNcoxcejwXcd0IpyirdYrBDW1HMkrfJdDX+qSxwSlouptLjBvzWgZRMrlkcuzuHZ4xcl4Loav1ziv0pV1Ni1Hb9Xk0w0JJ3G+XYYt71PSPe/sZbtyuGeWGGnJI8N3J523zPkYz9zqfGP9XGtONINmx2ofN3FHhq+h/SblMY+M9e9126jnaxl7DPxQln8JtvVz3/3T7smoHUaiFqzan288vGO69DyDd3M0vIyT3jcyrKu88ys+7/rdP8AFf4fLzvpsC7o1ljbP6Q+Ik+ZMzNNNao1dgeZnWx7CnHeino0++Mim1uJwa/F++R5RHccJZl/EuaPY4uO4lOL6P7M/leUvRy//N/R97G7aaM/lPJL+F81yNBvbbSz9qXA2jh823LCnhzTBW65Xtv4lg/Nc+8+p3fVl08sZqzOd/a+XivhfajCDwvpdzB5EKK+e2A415KsMJdCmIc6NC5NkdW6wH0YujIVuLkzk0kUOoV8yPmS/mQ8+w5KYkS6OTjJ0mE3RzdUhIn0I0Vlx4nJ102hjPvEfRf5WvEydYiZrNCS8mZZYcWUEfefIcNFDjSjLOCCLCBCA4aLDAIs4I0CLALKhhxYJtHHAnGGjAiwiANFYC5v+yIq9T8l4v8AkbE+ZlRZZQR80ccEcQa+UsqNFWX8b/yodfrbeNYRX3NDLG0v4mfXnEGsnK8FovF8xsFxGKK6myFoPg+jNftsZN1GuL9hDh8R1is6VmxRGRsz0oecGVQBDBYwBov7lfUeAAI0AgMYhFhFDACwADOCKAo4osCgiwwCAB5jwAqgzgACAGFBSzu4s7sAoZiCKQDgiggEnUENAWCVxKAI44sADgjgALKBAAoMWAFBgUGAsWShD1AWLGnAJFjBYQgSSxAACRxQEOhQ8jAa2Uc2pDe2nVJLGzfCDm0xvddNNPVM0sHUl2GY5Y8kFkXJEC+ztNFuZXjhaMm+WvLsJS248kcdDzBNribTNJ4Ns9LyR5ITkiuCPUjVbarvMgGEmj0uLWFjQjzOyMWNOIqwQwQBKDBAS8UzEuBmHExADVlHFAcWcUFcUcWQTtt5Zxfn4PA96bULhXnGv3zPCYK2eyxlGCU+6XMokJzm1fpUlovuxiUduPLK9eLNa5Tk6gqTxTY1QV5pepvnwZ6nFss0puSjgmtX9joqKyz7m2ax7qjVeqUcHRGySm2pvB4pLQK2XzfVKEVd8eBUIyVObt3XkjXymoxVfFHgh6nOTbayqsF5+Zxt1Ar3ncyxUfzexHhTZkfvEs24/wCn09n8zET2dHHWO/vy8VWfRPu218qGPxSxf0PNPddv5krekfafQJ8P/Z6n4Z77tQgikpi1ifKwx8Y+gNEec1CLk+7qTTxX3ndzypaR9vM+ZJ+7n8DGnJydsiWRCz+5yamn5zu2Nl2a8Yd3NtQSJY4MjeBI2dx7L5xeq+5rTZpJc7o8OUmU1XR7g3mjmhUr8fozCXt+nPePP7MxnZm9l/0/vE9MnHOrg9cWuEl9T+aavSur/b6r7cu2FRn81+rhwMM3oZJenFctaM53VGvThLh9GaWM8q9Xxe0+l3e7bBotMkhy2mvUuw1FyvFUcXROtI1WazXnGnNu688CNcfM1wQddmN2ALCNOR9hkYkxTk6QRt9v41Rm9Zmky9vayLXE2Stew8j60iPIRpGueJzxeAlnJ6mz23qbkxFaozA8zz1gJZRZ918FY4SOKpgQIQZGcCcFGEcEBYRwRRQxAjVxNsBKOOKrghY4wOIsn+lPF6vkv5kq0sXok32EaKpY6vFnmtbPWGA0EM+MiwgQjmOCONduSr0rXj5L6lGonV4cPaaQaCekUE2oq2EQL/W9FhFc3zNjRu7x1Zm23DKvM123HM80tTPaPpqtE2i+oaOiDKLCAtnHP2HFBglAkD0AGEAsMIEKaIHiAg6DOBAIUWSAEjRYYAhFFhBnCBoVxZRwU04AqygQggiBPHEYWUArQIaEAg4YLAso4sBIY0WAAIwEBJQxoqgEhDwQAFjzgEADRACywqDAgg0S2AwNaATRVARiqNgOoI02Uuja0VQGuoZRsCyDW0GSgShRwY4ilDxBLR2jCKLJLEma0oEIM5NI4aCLKFCSUKAimMvV9TKTH5fEyDHmJJTEgAUWEFJJajJ6Jm1243izJDw2uums241qZ1DK3UtDHOKNySPdpunuWsscZR7O00mWU/ilSb0XB+Yq0lgseFcQanO3eXnFH1Hy7G4zQ2vZJfc07c51FelfplxIfohjq+et9QXOUlSVLz1XQ25pFRhj+vj5m1U8ybeCu65UrZgzcfxPm8K7yNLduCxxxTPNlPKac2Lu3iMjDM1Fasjme+6Qcpuf5cF1Z+lyynTx/J4Xs+3BbcVFftmxIdtagan8mwlzyuVfThhIEJDW1FNvRHo6mWuJ7dGLe8bny4UtZeHmeBm03dx7km3/AG8jSn73odPwx+a+baYWAcfsHiMLFFBEuxxriQniZZbxI4ihHNAypm82d/5Tp3lfDl5ox0Qzy5YzKarq93ltqdbkNdfKX8zzaSjvNydqu1M0mzu/Jl/S9fLzM33dvM8221b1XCS59T+c6vTur29PrysHuSxatcGazcnapG0e5qqadVT4GojTWnkz6W3qaE4lNUxQQs4acVCixg9K3QEdK8OZ6/t7a2158THNrbWa9aPQTyvp4wgDA4E5vqtbVaGvqsWbZtJGjrM8dCMN1trC+ZvBgR43heclgnH33xDRooaRRDBYwqCLBLKDCBCAMMUMNIMMAJnVlwJwRlQhlHEEOfwSKi3K2614GzMW2njJa/yPFYrKCygj4yrDOKbpWZEeUsq83p9TDn/fzHyd/vTyIB2VYyhYiTei1fgjqiPJ264LVjorO7eCWi5IiRjbpfCvE9CjGlXefRkDUjboQh/FI9IEYEc8CB3kUcUUMoEs4gIooMDggQgKLCKXEBZw04AwwQgKACFAUUx5YUI0oIISPAHhCDh4sNBAHgAEUWcAsMIABgsM4Io4MECgQAwBOLosBYFEgEKoEsIBIIwoBItk0jgLKZJAAjiWSxYCRJJI9aACLJIoChwsaAgsedSAoSSaLAil0SqRQEKjiWcQQwkNLKyeIJgg7VhAJBxxxdijh5xBFouiQWBrWjRz1XQydmP7nAgxaRCo2bIICihgIVkm1pRvDBNDeLd5o+ZY9Ub85Mgqak6GMR6ktsW5Xq33cepqGyG50ellv7fBRj58ew1kn53107DULccpUkbNxwcnodd86fNrGJEACTbZDs/V4zUfOTknJqK1eB9TbcFtQUVw9p5z7psOP/JLV6I9MbPwHWy88vCfy6SIUnZATZdWbhI52zCPWarZ5Z71u28i0WvUy73jd+VGl8UvBcz5+OfQw88vOvNaMEWWf1x4BhCiyoI4E4IsA4EyNimTDRm0TTMspJAYBxQo3G3uy28NY/lendyNSKPLljMpquj0Z7u1urF5X5p+1GGPJmio9GaMj6Yn5j9rXuvoysgnoupqTIZYws0B8+PaAIIE6sDN5tRcpeXMlbey5YvBe09MSpYHCvVISlQ4M0M5UeZ9RubRVcTz/wCawfmNhWXvKiArm6joP+S38Un0Rk0Uoqkc3LYqoIYCeZ53mxxxZ+hfJOCBCCmDBYwDjjjismhFBGkEEcUA0IpaoE7MCLKLMNuBLI8pKEXJ9F5sg0u9PL6VrL90Rfl/KjFrVa94ezC/+SWLen1Mr1MB2DxXEIxPbb0TvGv5mXn5+zTSzEZzzPyWn1NpuSr0rv8AoYiQWcAHorZ2FN5V7DRJNuuL1YTbbvi9PJGXbcKPfINjGNIyFApUSz1gguPadxYZoHQQFhmQs4M4ooMMoATixoAnBhgKL4nFgV9mAPBA4HiMDAUUGhlACCPLA4AMKgBOOKICCoEsBZw04CigzgFBhAgCClSHBALOGlAKKJAACixhQAgDCgOBDAAEWMOClixwICSwywEADhIFCh5QEVgkkICJRw8AASwCSBHGgjQFjTiwKAGnARCiSAA5CXqPDZ6fTghAkoE8juihD6ACljDgihbNFufD3oyJo1E/hYGCs1ht2asAChgJFUCEEQSYumT5Tp4mlNivUqOb1RprbIN4EqSpm/8Ad4fM3Yp6L1dh7pON3s5ZXT0ba93yQV4yeLMN95dSUFpFY9Xie/cT5l3Xe5P8UvafH6P157/l86tEel+6bMZ/8klaWi+5iuzsvelWkVq/sfQKSilGOCR9Xr9Xxmp3rzxKbNZalqJdjqzH5fDHxm6+gbFVqOnNbccz7vNjkubPBveN75ksPhWn1PmyXrZa9Rlj85ucm3xNWcCf2HGTGaj56ywCz1MGlgHGgZQJYRxxxwRxZRwUwMWGGFixhxlogTV0ubRJN/7vHNux8rZ48rqWts3cVWR9Dy6UXB0/7o9lli2QpbXzY1o1oz+d4Xjb7Lx6rdLE9H29isZYvkbPYUVDBVLSXOzIz3WvdIoUEals873gcjC5yJEnZjs8GjbhahBJ4iDj1PlvoXWn5CyNB3CPQNuj471pRpZzUTSS3bwRjZ6ZGNpgQIZ9Z4TAwQiqYWUUGRjRYw0ggwAwGBAhGmR8wQuHeEdUCcWcc2jErMUw3pP8kPFkrck8IR+KXgjcxioxUVw/dkU94mL725kVLVm+lJQWZ+dLmzDdqLk/mS7vqBs4Re1lb801yv6GTSkor2EXVkBwTPFZtWO2AMoWeLSjRqW7x4cFzZIbTtXgtfPyRsoxzPM8PyrkjvIGbcOL1M4QlInnuBBAhmgQ/RCwuAHHCywHHBCwDLLCA4aUNAEAcCABYwUAQ0WNAIUGcARZxQBixhYAFjDgBOGHAAGANAEoIMBZQYQCxgQBAJwwsADiywKOCOAWcGUAAJJBAQCPCAjgkgEKURiaKoCMcS6BAglk0UBEo4ecBDYJLEgAKJgIEEkA0NoAgh9HARggxlBEaiySWFRTiSUQJLDDo9EckQMIYed0KAHlEaIOHF0UQyI9H0NoLoDys1ZujVAJOCOMqEosoCiyjfblQWRY6OXXkbk3WGJvE9F9y+OX4fueamV+7Sy70eUk4n6XOfRZ8PlvopHhu5sSlvtLBS9V+XHvs9q0Jh/KbnenZlPc0+igRjGCyxwQ5gsgLHuJjj5fVl3aJY5R80bCjGN7dWysPifh5lzy3fHEYx71vZf+OP8AE/seODG7diD+i9Lp+GPz7fOqyyjj9A5uOOOA4IAsAzjjiizjjijjjjgCDACCDOOODIT033aNQlL8zpdDzI+h1HJCMOS8T8h18tY6+70RpqJ6wt8sTqI288mzLm8O3D2H5DLtJ930nka3f+R7nCXDy0PXDwc9b2pZtpPjH0v7H63PHUjWOXOmybMRnInzZhUmfGfbSY42R9zRBQ4kqXwsrwsWCJ8YOWOi5syBVH4e3ie15GRRn8uCT1NDKTlqQyzzizjjjTKaMFjD1sHBAhFQQYIYBDASzSGlghmhYRRRpk8Aa9e4E0iyNKSgnJ8PFkurMY/xp/0Q8WYaSNqLVzfxT8Eb/wAgDQbsmqhH4peCCtZL/nnX6IceZlrERioLKv7kkBYPMMd+/wB9h0jmxuiM4N4aGXJDKR522Aw2crt4maJE0OgoxggaFL5D9c3X6AgLUKkHCyRoAsNHBAPBOCAsIsIBQ44MAwRgAFgjQgFhAhgcCGAARZZYBlBnACCEEQCcEEUUGcMAAss4CjgigBBGBACcEcAosM4CgQyyBQRwYABllgKODDAQcWWFICGHAIBHggRaLokFgKI5MLAgnEwWBGOomUdQEahlEwoCMMHHARTiQcBDLHFAJCGhECiiSAbjKMBRJLNVEYMYOOLohhDw6KIZRPoUB5I1Un1ZomZduKtyXX7GLsCIUGUYUxquWKsjhg64LV4AZFBZYPcfHCC9r7jDmZnvtZsq0gsvfxMLZ+j6c42+ZaULxwrW8CSk5NRirbPeNj3ZbXqeMufLoa6nUxwnLlGXK8qza0r6jzij+Rz6sbP5j6qhdEoxjd3ltecnwOczysmMnKmbu6tlc5cF9T58nJzbb1Yc5ubt4s1Z/SOj0fDm93gtCUcCfrnnWAcCcxxxxZkcWUcUGEAEaFlFFgWEAWAQQIRpkw4E4iM591hnnfCOPfwPW3ia/a2/lQUeLxfUnn8qzy/c6nxH0YFI8898l8EOXqf2PTUfOu5P5k5S5vDotD14Ty6n/q6Vpz0z3Zf8e7J8vGjzY9hmvlbMNvi8Wff611jqe64Y92GSZi7NnJnKHGT7kfGj7dL29TIcF5kO+GiEFeY1tsWUWbYEWUWEWcccUTBwkcelgY0UNKgwxYw0GBAhmkGWAGGVjARqOiOLFHAY/vTcU0sMO22b6MVtpRXBY9TR7ytJ9zJ0JZop8dH1RhpMlJRi5Pgabai1c5fFLTyRAw3p/wBEPFmT64kU4aLLIFEvkIo2L1O7mjDhJZ53U8soYRSywi+REVwCFjgC1CKLKppwPEaBw2hgADQggQGADQQKOGlgcEWUBQA8oCjjjgLEj6CAo4sMBZw4sBYQwIACgzgALDLAEEaWAgIYEAosYUABw0oBYQwEBQQwIBQI4EBRww4BRw0oilAEkEoQcOOIElhlAJCCCAE4YXQCTh5YEcIaEBGKJJYEcskFgQyyUCAk4ecQJOJAAEEkiGST01yKCHBHldiTh5YEU4lHEHmW8vX1SMLZ6H7x8Ufw+xmAMohAhBEVHN9sK96H8T7EaUyP3f8Axofxew5VGKSlmbfNt9pEq8Fi3wBx046Hu/u+x8pZnjN+Hkfob1J08Jfjh8p3u/u/yvU8ZvwM4BAP55q9S+WX8R7pBC2PNN82Dm4J40eK36pr07Nyj5p3ouO5JPna809D366NNv7C30uElo/sz6WF/bz8vV/Rxr55ADdptNU1qhR/V97fOWCcUVVnFHGEWcCcUEcUcUWcUcGllgBBBBAllQZwJwFnqHuu1/8ASX8K+5i2xtPdf9K1PcfYfi+t1NfTO7tIIYIJqPzU1hi+iwz3ncybeXjPDu4nhpkW/P5m45cFhHojUJWfr+jj447ve8vn2s19128+5b0jj3nb88+5LkvSu7+ZnH/62zf6pe1/Q8lWB8PK+Wd+2PEerEKVEgAI7vWI4osrLiyiwiwgQiAjjjjQ2KVsgRnmbVU0bGOpjcqjvPk7favqel69fTtkY4gonFeA4MEI6MjGgDDSODKGFHDEJJPB9x0jJQRQw5qXlz+nizzvM1FpfqaXeeuwV955BuzjLdlKKwvDrz7TL6Xjwy5RUFlXDXzZsEaJO1jqbZGXiTzqOJIQtaoexsRTO/pyCWczjg6hCF/YeuJhVliwwhhxawOAMYEMKqOThQwBowEagLHFhAAUGMAAsbQRkLKJAICAhgQEcYOAAo4I4ABhYYCQhpZRRQZZQs4ccZAHDDgFnDTihZww4oAoYcAo4YcAIQQQCixgQCjhxQCQSQUBGOJBwVFLJIICCiQUQRwR5QCShxwCxhwwACxoygIxRKwOAinEujgIpxLoKgIZxKougIhxLOMiKWTqLoDTSQKNlJYM1sT0+nNJDHkqjxuiHQBsqDCtaPolBAeb+8rCPeu08wkewe8/AvxL2M8hZpWtOOOAoyTYX/IpflftwMUs9A241tXxk7OdG42tmt7cm+EsO/E9DF3aT5oA/Lzed5/Dw5KJgqjx/wB4383pjp7TV31L44jdb/vNYQfV/Q8Ytppp01oLs4/oXT6UwjxbfRG1uLfjeklqjcJ0fOW3uPakpLvXNH0VhNKUdGfjOph4XX4b+jvKxf3jY+cs0fjX+ZcjwI+pkzzD3vZS/wCWP8f1+p7OlncL43te1LHlBQwE/orxBLLOKijiyyATjjiNKOOOMCziiwCOOOA42W3B7ksq7/Iixi5tJYtntUILbjlji3q+Z8HqdTwny2yKKjBKEP7kk0CuJs07Pw8n4q+in6YmEb+9lWVay8F9Sbvbi243q9EvueLW27eLerPbhj+5lv1HG0xI9G912s0sz0iYTGDm1Fas9K35LagtqGr16fzP1PVz8Zqd72eCc1ie9ufNnfBYR+veaMWEfnZNR9kQQIR3BHHHBBHHHFFhAhEBFlFlEs13vC+F933NkOn6tp+VPsZ7X08eZZ/LVRdpM3RiW28O8yZEfKbAYLGnVzEccWGRjBYZVEP4CR3I7Rhw5K+4jeXM2bcduLlLSPi3wOD6uM3yx33jccI5F8U1j5R/meYQVyXlj2FSk5ycpayMt240cm8q26i9SbRKQ5B80CJQgboUOXEELh1BPRXIstglnldV8SSvoRhpVXwDBCCDKO1OCmjQTgJI1EYm8ALQRw8B5QQ4yFDg/wCQSI0UGSKHUREMol0XRREBJfcMqyKglmxy+YdFRqzjY0LoioZZJKoKjhEqg6AhBjXqkPoCKWSa8htAQyzYFUVEA4ngEREAonA0ZVCLJdHBUIMMkGkRwqJdBmkQgiWWBELoklgIoKhpZpEehdE04KgUVROLA1x1GyOINSBRuQANSCTiOZA0xtWTEEURcpIoaWAsugyigSwjgBKDBAAYUCZBHEeyrDSQcQzrIiUYvozdmmlqd451uCVZq0xpxdGws6zXnAT7BsgAAaL3jGHfH2nkrPVd7/Dl3e08qZFaksoABdZnR6w8ElyMM93Vyk+Rm7xMjJNp3DobNGO7OskaD3jfq4x739j8zZblcZ7c2u9494v0R04vmeSkhkI/oPT6cwjwBBLOPuOLj0z3Pdyv5b0enk+XeeZHHzs8POadH1k0PpNNPR4MxvZ3Pnbaf6ksUS3uKOp/KvG+Pj7xfRfPm7tvZk4y0/S+aNIe/PdzYNJrk0Yq9nalwcPw/Rn7PDrXX1R5rHlJxl0/dpwVr1ry17DDj9JMpl2cBlFHHpYccUWBxxxxocWUUZUwnQhLcdR/kZLt+7N4z9K5cT0NVFVFUj8xn1ZOJzXbRO3tx2lSxb1Zkaw6sx4rNlxbS6n5bVt3XtbeqNbPcht6u3wRjG9vpr0u5PwPMT3TC537SOW2znNzlb/sQRiTk6WLPWYbcfd1nnjLgj9Dbj05/h5O50EvdoZpYzlouR507bberxZJnOU5Zpf2IZ+aktvle/8AR9CcKCBDPe6CCBCKgzjjiCzjjgLCBCAIsosonG0hxXNP2GrJUcJI9b0Y3VYPFZJuL4YdhlKMW3Hc83N2ZIacK3Y4iDjbgaECEGTRgsYFASGIJdW35HdZzUuKb6s83943VOWWPwx/zPn9DNd7c+VDD4prD+mPP6HjSV4HkfoLxNNvtxvE9AIMY0jZkfDSRgsYaYMLBBCpD0QI1iDrXMYugWSPocHRb0FncBgVZx31OAlHEYYBKCBB5AOJvDvIRJAlIYJs4DZcWbKjULiTrObRrxTfebGOi6EHgS0wGcSSQirKJAwinWBLLNfYVgTiiJYqwJYgjAGRMHGuG2FbEsh2dZRSJZDKsyJgREsqyiaUQrAsongkIsgklWRCgJVgEUo0HjSGWEbCzrIBxRPsuyCcUTbOshFhEyy7IJxFTrOsgHFGws6yAUaRsrOs1pxBsbFWQ7FWBIsoh2VYZbRMk2aOy8xdK3pxqbI1saG8so0Vs6zemW8FmkxKGkb2xVmkKNaZbmwbNMENLttbAs1hQ0bbC0daNdR1DUZ2n2iKxdB8AGIcQUOM10iQcQzjg6JhRGsXYGs3MYM8teh6VPFPoeacANQ9Qbotjo4zivMDOdmDhF2qcnZtTby1NCyK2UJKMl2Hme/B7e41weMenLuMoZs9yPz9n+uHj/c8W/HKZeu1ca8ZEDhJ/QXzSgRoJtkJRYs5tJ8ZOOKbRv8A/UT531xMOKPm3GX06PRo+8/mjHuM9VTVxdo+fTdbe49uVrvXBnwMul7xd9vcVgY9ve7/ADPVDCXLhIy2LjuRUl/YkaH5mW95xY7vmXTB6rUE9439hb3qWE/B9TwxpxdNU+R+5w6kz+L9ni0UWccfac3FEuMZTdRVnpMNmEMZeuXgj52WcxaYTt7M9zHRc2elw24bWmvN6m3zWRHhrgfirnlnftHt0Fti9MW6NTLdS+HHzMSbcsW7OUj0N7Ler4VfmzRV8z4p0+GFoUWfUZaiW3OGqtc1igYQnN4RZlUJyh8Jupe8bjVYLod/PKeo46T1l92j+bcfgYVJuTtu2KBPmSc7vd2AEWcextxZxYBBAhFQRxxxARxxwFhAhAEcccBsByEkKcsqpavwPawx+a+LTBrjz5Gzg7SMNb4G+g6bRoZiiWao2oYOGFHHRk0IWX5YXyAetSdBxcM+ixcu5v2mL7jy4czC5yqOThmzPqlRt7cbqoU5vck5Pjw5Lgjf7cDSwjbPQUjylu0pEk5DDTzgDKOCGnBF8TTJ71I4YotQQ4WGcm1hgo7iFFWg0WMAqziiwHnHFBk9DBIwKl8QiMPMqkjyEOA2A2zXjQNhZZCGfvUB9nCjgGliwQGAhA9oVZQHaCEGNIwQaSgiMEZDjhJZFOBFlGg4EEEyGHAHAMKAKKgigTjSDBBBNsmnCrOs1pnZwZGsWa0JoJDKNac9pdlWRzih1g2LDNcCrKtlnE4UFlhnDYWUGEZ2aAWcCTbWnBgBGdt6GGJKOamnCzgGlCjigwRQJA04jnFEgoQUQSQSOEZBh2QxDAZYFkQUequSXYFkIo8jun2Wa0MBzPMuB6A2edgapsbt47kO0hM3WxjPtMq9WZqGbE1klYGkbJ+3PJJPhxNO0OR57No1HvG38udr4Z4ryfL7oww9W2t2O4ntbmj+FnnW5ty2pZZdz5o+r0s/w3vP1jwWNSAGCfpNvMWCMBOTQDgjjSqCBCNjItnde074PVcz3G1NKUXaZ82mSbW7LaeGj1XM/M9Tp7+qd3eV7gsNSNubcN5U9VpLihqlDdVxfdxRCbawPxnf4sex5DubG5t6rMuaJsPd28Z4LktWemZmdmPrfuZ6/wAuWmvWCqKyoF1HW+iVsnZ0Y9Ler4e0+N9V9O+kbclOv9vy1k/oYdXm31HN27YJ9uTTSzjiz0izjjisrOOOCuOLOCqLOCCKOCOA4IoIDjjjgOOOOAsIEIqODADIqU2oqzD8Zy83qOnLM/YZVCGReb1Pc4NZLahqrNH8Mkz0Ewiaw6HVzZGbBGki7SNmnRydW2DNBn5GvdvU2jePc5GIzWZN8dbFuaXmLjc5JN5b54JHNSr4s12oqzIduIbZFCNI36IpOAacLGBkw4AaA1BL7CCQtWbjCjjjjLQRgNjDDSiwRhVWL/mEMIyrgGCGFcGCBpfk/sA9DRQwIccJOMtJSJJrEyWgJVkgijDQkhiAiBxwosBwJGHAMCEnEDghJxQZRQQDShJYDgiOEAw4SUa0mzgiMWb0xs4IjBGtM7MBsEs1wyuwSgjXChKGAmdmlhFFGNtaGcCUYbGLOOCGHAnGWxAgglDSwATIMEEEgMIUUA0EAIqjOEjAOOBFmQwsjnAPF2CKAYCLBAcJGAAcNFijTLrCEBAcxARCsy2mEQAaz2ennIKBFcTxu59kaxbI1hTWzC3q+plRir1YGjZK25ZZWRSGRXtydmuk6PLVuOPE1styUuJBmT3V5s1z3bWhhqJqAkmYr3iVVJRmuUsTCzjhZKjOMmxufC3tPk8YmNT25bTqS10axTNaevrCOVrMuTPTjbPe3m08cFmdz93wzbfqX5XqunMwk/RyyvIQCSRR62SjghRFGGbmG05a4IziEVH4VXnxPlZZyOumk2vd5PGVxXiemaKkYbLey4W5MxR7u438TPxusupd9nreqNpa4GHT3b+HDz4mM23q7AO/i7nttiCjj1NCCBCKysIEIiOCOLCuLLLNIAsgucV5mtzuWmAGRnGI5W3xZvI2m4ywaINmcccFccccBxxxwFnHHBkRZRZRYYAYVrtqP6n3fUy0jjbrU+g4HmomvFAufLA1ZpyKhcVQ01DnWg3JJv1Ye04uznNcMSUtqc/i9K8ewzPbjGKwXfxNgztploEo7StLHm9TDpOl1MhlK35Iwf4mGBxRnu2jSwRmUUcnZw8aAEOKGFgUEcFwAolLiRSTwf75HeOQACgjg6jZwJZlowMUEjQIsA4wiQCdYQUoeKDAcWK0OKiQCcCZU0kCCwqRY6yEONMpYwiDTvpjaQcKONaY2YGKOLpNngigSahtIKBOHCcjOOOLwvKyxYJNwNLBBJtdGlnFGdtaEcccc9umnBiQjm0M4WcQMCEhEacWCcaZEEJCNIMAsEyDCFggSChRwVYYo4KMUWUEUEJBI0MYLDAMAWAA04ScVB2MEnWQGCUJAbYmzjiCyjhhQAsEWQPFiDjQsAsQZHCRhYCiSyLoGeuPPSACyOeR6CiMMOASzGJasyUxiWoVqBJKACtc0Jo3eV8g8jINPQRusj8g8nmBoxRkeReZCkkkAO0s01yR6ezFthUuplTMCMm07WBqp7cZu/hl/lfU2RHHZh5rJOLqSaf70Yo9MbtU8VyZiThBc+iZ9iZvNpoEnJ0sWZ3HZUcXi/A2EJwisIV34hfMjxzdh8PPPK3U4jekyrMcnN/DBWzbS3NuSrNOPSJhLmoqoWuberPnTn07sfl6bXE12dnEE+9tll6lZLMKToyxOzzOiWGAMMKsI4ICghDaRrHuciI3pGckuJizk2RTQ3j3ORp3JviRgDoqrOWoFD6KjN4PLUuWh36pW7eHaaFTprjRN21q2chvTjjiK4444Is444DggQgOCBCDIggQgDzvga01jnyJENv5mLkunH+R7GSM/BKzdR2JS+N15LUyuMVHBKjbo90jyvL9yCimktGZC7cYN65VfVG53UrT4Ok+0KWVOberar7olahe3jgN3HlXmzRJuMuhrpzbxfAyMem+BUULgruT4eMnojdJHB0beKMpNVE3h0ZLI5sqIADRgwaZEc4I4ihH8P3zED3odo50sIEE8rsWPoWEFMCElkUZ33OOAYcCMCDOBQw6aZcMbVnUMO3jXPag9QLGWb1GN0JJIgobhy2BdkYYY8mtGnagFnDbpofQkEYtGGjijjiNGFiBhFP1KFWVZUSDhFnEVIAEnEDhgosB4IoMgYELBKGgFBEaccCcRFBggkUwsWLAcCccaBhEcIIYCJDAacCAAZZDGFU0IQMIOAGCiqecRRhBwBxwBHAAGQYJwBpDhZxwHCgCjIIIWAUcCCAAYsYLAWUGKAovgAUgBLQs5HeONcyKOZFM1uKLAFnJssjMlEcKiBhCAqygCzI4oEWUMNBM35qpYkG12pKqN83Z5boMzPmQZq3X6iL8xczDQgMgc2xaxfQ1t0rJscMANsRwgzQ1DNUzImjHWyjWkJmyIRUQTcwZraHrAiMvR2ZIxexFmGmQvc5GtcmzXFAWCEEaUsskUSlFvgRlrxlG9W35myUEvMyMVSNmoMyM4wNUtuPU2pZwVxxxwVZxxwZccccBZZRYQRZRYBBAhAec2OI4w9bLeR3Jx0k+/FGUx95a1in0PPxh12y9D3N+Mkkr1WpoJ7jWnB1ZjpVpJm9sskeE5Y3wvmaabt1+7EKVITBvMmtTCslqvT+XX8XH6G1Ss18VRmCXpXm17TUVNaJCZs2rIDR6nnTUnRClYSbQbdowBRKIsdTZgQBJPNeYVXDs8STyIwxnomnGq7ATh7+xNfZdoxXAfQz+RjxrWyQhlg2NT7pu/ZYdCgy/ScmfUZh4iRQ8vhdJR1igTltvUEMFlnHbusdYoWc2kkAMoypmpYosqJJwsMiHnCTgpwZGHEBjRBwUYsA4BoYkIoeCAHZARZwIDAxIBRIBCAAaEILMgwhYQBHCjiNuDEDAgwQQQGFADSoAYLGBFAFhAUWUcZVxwosos4WdyCnCigwBOOoooYLLEtkDgDVua6kDOz38PLyyMSY5nZ2d+R567RkYJrc644ErU87oI4EWVDgRBVgOBFlgccRygOI49iQAKAKKyeQiUQj0VyghIQk8zupglFBSxA0WAIJwDIqxRQAHCBoAEOgaGYA2iBFFUOvyKx8iiM+HaMFvUWaRsrHZl5vuNaibZFRZy4GNGxl8TNOyhtkawQggTgziKEMn5WSspBpx9Nm6SSNwnZBjq22T/lo2wJgLpLgNKOMgjjjiCzjjgOOOOA4444os444I4s4rBagEWa7OvNkPO+CoDfi7Ro8WGbRs8wi2RgzQ1T2pLhfTE1Zl23PK6enPkZpSeqT6nr05PHAz1F7O2+FdDTv3Z/pl2qhpz2wcWbqW1ODpq+jsx2zm6JaeVrjTuuZtI4u9LNA0ZjFYEdG1N4malG2R2jDcKTJea0aYkHXbmkiwSjAcsGjeGOk9M6I2BBLsUEcCECcWzDgTje2QlnA6mGjyzuAJzbchwsAinndBZy4IoeLAsaAYr6lB+RFMDFhAWWLCIOGkcIB40DA4Dh4AIDA74CAiB5wosCjkEtRgVYJwKAeACBYEgUWVYFhCigJQJwIDSxRRkWSBJwBBC7ADRxQBxFGCFQACh4ugioIsAsMuOCOAo44WFNOFiwDDIw4ijOFHAWALIbfIoJy5GleI4WBHBHCcOZQIIqwzKuOutBQgIyJTT11JxghkMJ5sOIG0OOOMooEsABgAIJQIJRZQoWWxGaHOIBiyNmj5vomDn/pl2Uer04JAoTbekV3yE+p/l8WeV3SDiL6vzdiQmvOT7/oFTSM2lxRGyx5DqS4Iqk5l+0KvyZNFmREt8l2isfJEwUBGx5sXRJLCo1HFlBHFghHWOTVS1Yo6epGI2mnWQzjKls1BuSC0BEGnUSDIQI4ksuOpRkYBFshno0jZBaEKJMONVswzUJ0bU84I444yqzjjigjgNCNmQEw41WfyIudhlvxVpcTG22+Ig0Mgc0QvmPkaoICU5N8SGGCUcSkKJhsSAwAzbAwgQjLRDXY9Da7c69L7mRttrK4y01RCaTPY5vTTYR58jzhbjSqyA5OWrs9m3mbybbTrV+BidKSa5NO+Gn3JvPoyKvhS5nCtru79OvhXmS8/OLXiQNf3gdocnZm0cTbVSMFhuOEk9eaPXYtStrRvA9cjlWOhmQujVM46YRAxhZzdCghoRGwBcQR4CwkCDyIhpxxRkAND4CzLQyuQQBGhFHOo6mPPc5dpBk4WvFdp565t6uyDZR6SEefR3HEyxbsH5AbwUUURT/siwTmBYYs4AywEWA84UWZEkMjEsoScAcZDgAassoIdYkYFFicWUgKFjCwBGAnWBRwQoyJFhii77wKBC7gAGhAhAUUUUAY0WL7SNnlCA0ZDSMBZwEgYRhppBhEfj3HFZOLFlBRHHCwKDKA1IphRwgAWQRlkJsoEAE6wEa9DVqNiYyu/JmXxjbS8rb5IwI8NlyTdpcvMx52nT1To9MlooJJ2uxfUwTejGLqN4a9TxTy3d/wNaRWyNbehGrnifQUdoVmpiiMRHoC3I/1d0WMz/wBEvZ9zR7Twa8zKTKIeaX5O2RH9fKHa/obMEDW+vnFdzF1L877kjaHFGty85TffXsI+RderZtXoLA1eSP5UTtBwJVCJHij1Ts83tGOLFHlegJRxxkACcAVSWAWEQRixgkAQCzgAFDQSABgRxtlq5rC+RpjLDF2qKrjgSzKiFBiwAKKOMgSUgkrN5SO0RqqCym3BO/kwiJUWNBPM0UGsDgDCpOYRnEkYyH5mRrZRQQs4I4ADgjgoCgjjQE444DiwxgBkkWSCsrDBCNosI4Iy09Je37tPhKHS/wCaNM/db/w9yM/J0n++wY9n3hfpT6Nfcx5uUfii11X3PRMcfw5/5fK3fs0sk44STT5MWZQ9+1UkprlLHs4ox2WV/D6fLh3M9/jY3tHTIMcVQejBSxkcXqThLJZEZzbQzO/dpYSjwTTXfZghmPu/6vN14HWIzomZSckSD1vGgUIZsiAzkqCSwUSzm6oIBII5zaCCECcXQ4oAICwQwdFbI04x+W5y7TUTm5dDSkVKsiihIU0ojibIJ2pYtDyjLIbl4PuMqPKTKNvc/TLuZFZiXzAL+pkcELCQDAhAZAYwWcQOCFFFDQQgbIGHAnAGMFBBRgnAgMGCTgL4nai3gSMAOYHAo4gsYRxoDBYdgACPABAYMIwwgeKF4nBRlgDCKAIWERTBZZREGUWCVkRYBQCaoKwwCqYcKZxQwjywJKNfuaHr1w8++WvsWQbOs8j0nPQxy29Eb2yOBpYpqT8zNlKoZVg38T5mLS5kXPgQZ5GajF1rzMUb4mM23xJCdteRBPaogk2WhpyjiMGRgNvtv1dx6IeZbfxrvPTDKLCKLYEc4I4oUVRRQHYFFFgKBCLPTHCo4kcCeeupAgliTLRYBzBAAAYKChEjhLAAIEEMiOOKDSiyzgLIklZLBAxXQAyRqzWZCjWCyblYOVlZQCUkT1EkmWhBFBmkEcAcRFAhAgUJGiigRZYBlSwQwAKKLOIBBCBA4444oE4I4AyQUMDIwzgyiwywjaOGHHEV9PN12l3w7i6suvbZ+Q/8f/dqxmXu+1PFwS81h7DGf9Ht8JTXevoeoFUfTnVk939XLTwnc90nFXGSkuTwZgUdL5n1fXM+WXlVqLtJtJ8z9DjnMnNHZrmyYa47ujj0H3dKnf5jzgyjZ3HDhas5c+h78o2YZ86OKp2tUzOttqcc0Xa9hrN7YW7ivTLnwfU8+PU+rV7f0eexjC3oPB2h7xx4czz9xlB1KLT7TJszW1HpfifostSbc8Z5MkQwiRnnhJ1XDwRCjuR45u6vuePvdPTZpsGRjXz3Eqy3/FX2G/M2nxlB+atduprVefaUJ0JTwrk9GsUKPG9ADUTk41XFG5MU3fiXkjLSK92Xl2EByb1bfUgijm0eR+LKEmlFYpsjibIJLZGRHY+GoVvBoJZRYIqwwrKNvdrCWhmZ5Ib+G5WD0MjOiuQevgLIHaizhTxb7jIeGCcVTThILCJgIARAwEEpEDQQwCgwTggohxDeIYFixgoyGlg8hJRJDI4FsB5ZwIHXyGaCwTIkHAjAAGi2KKDHEcoijKGiDKnHBEcBwQsEqGii0GGlBAglZcPvyEA2BLNJufCbA18laZ6d8PPph9lWamyrPO9LZWdZrAwNozHmT7EmRp20bCJEyknQCTJkEEWBQssWUbza+LuPQjCdlcTM7MoIYIOAkEYKyiizgQQABOBAoWWLNxgyxYtijVSLLOOOLoSwQgQAAOBAWLGigBFBlACWECFWEcCABxZQFC3gOIEjrGTcBhrCad+zACghR5W1hAHEBFiygoxYJwZULDFmgIIQJhpwIRQAghAgCCMBIKOLLAoYcMKyIcCNAMYCWUGcUUbQ0sAIisge5uy1c1+GTXsIdSWkmejKCcXmTT5p8DEZ/KWk93sTX2PrTLp/b9HhyxyjUZp8W33siOmUpXdNd+H8iQvU6r99x9f6Ph4/qDDbzPDkQdzbkksKrk8H9D0+EcqIc3h3n47LKb4fpZhw8esgmQ7kctVp4mLs9M5ePsoySJAjA32h+qxmnzbW+2t35Ur4P4l9+4+gj5eTpo9UjvtVSw5fQ/LdbDmZT+Xvwm2194k8FwaPP1b2l5NrxZ6D7xUoxktDzpYbf8TPlS6mn3JNJuy/RuL+r7GLSdG1i6tc8fYjXy4n08ctZbYym4092GxqVEN6n7x+NZVsbmWWWXwTwfJPgzNng3F6o8XZ7In8zaUn8e2vV5pcfCz8Z1ZZdzt7fUxRnJRMFbttnOV4kA8z0CIQ8jGkAQWLZr7AdYoUTIxlLBJsgim5hoIhty3LqsOZtcrh6XqgJADCCKqwwQigSgjgjebc8uD09hmh5eb2G5lwePIyrN0OMS+d5D/m+XiZRkoJjPzvLx/kRfmvlHxDTNhJivzvJeI7539K7WBkpxoPnLkyf8yPPwZBtCyFnjzJVp8U+8yoigRVrmiiSWcUAZxQuwHlCrxDIK1KGGj3J5F58Cjc4Ly6kP5kPzI8rcm9cRYHrCkpaMmWeQWZNDdr4sQM7GkJNcGGZEo4hIsCawBSDKKGCRoBjCMN4GGhI7Ui2WA5FlAEDBdnDAgxZwo0LDKCKEgFDQPM5rLLqa4z7cjmR52VTwQDjI44o4yKBCBAAAM4BYseb+EeIG9SypIk+YscVFcR4AwCjgSwBLFgFAhgggcKCFgcGJCAoEIAyAFBHACKOKAoUMFlFFFBAcCWABxxYIUJRwAHEORLIjO0ZRUTzXo2B1qBFjBZ5VUCMAAoosoKEEIoMgBGFGgs4IogEEYWZaJKGFACANODJZww4ChhQYBBghmgQRRxQZxxwDDgTgMre62QcydpqyGQ3hHv9p8590qW01NQXHT6nq8dqO2qj28zF9ncqavk0ZpJpLzM2tyaIZjMibdKT7DHZYJdDxurVzxizD4xb4N9Debj9PeYaj7uF0+Fkz2tz/bn2Mlrb3X/APOfYY9He3Y6TaMk/wBZvLWXhH6HtvVznqf/AF8vxJ+XuL/5z/6t+w3y25qNuElWN6HqHu+5Ldhmaax48Vz0MibSXqpLzZ+dz/2LZrxd5NXbw1TwcedSj1X8jQNvDqZPtxp86vHnWBomqZp+mQnrfUiM2RHNMN2tjekk1FU8fiWhq5bG9HXbfdUvYep7XvG0tuCbaail8Mnp0Rtf9Rsv9dedSXtRP+R1N/2vzdxjwj5c/wAm5/0l9DLdva3JqX6E9W7tpaYfU9kzJrBt3xEWe3965Ttp6scHkcvdtyKtVPpg+ww4+hrowze2lueqNKX/ALdTnK9VxeUGvkE76GrPY8BLdiYpyeBx6Ako6GHZe1tKElJvFcPPqei3j46mBkiMqZz23plxh2+sYPufXgZWnYtpTTj+0zpty085DFh6andzEEQ7b0pCq5tlE84iUiyIkFEXMgrKqQcJCAccEURVDBYIDzhJYU8WLOIiSptYWSLNDxJQGxluuHFkP/Uy4tkBq2SafkBvI+8efaZYt2L8jz+uhQHr2go83W5KPEyZbseOHiRWTmCb8XakujMqU09Gi5NLVog8jLNlOMU/S8CCQUENKKJ8JZWekJ3ieTG1juOJB6UWQYyUkTQBHirDMgwiOEUMugbA4AEVIOBFmVSDhOgwCgxJQDThQ0ISGCAyjgbACKKMXnt3itTKBRlXlpZnEoJmLvba0xKrXlFaHERxRxQRQJOUW/I38dtIK1kIXqZWkCOAIooMCjihYBgDBYQBQARVCAccEcLGCwOFlFgCLGggCUUUBQkeKIABODAWUGBqrSlXPK6w86KAOOOxrNUq55XXbVAUCEJxpOsG2k+da4a9+hBxQaTlpGT6Jv2IjXYUZCZL7eHDBXpZHaO0ZRFqTyIk6zVgnV4avh59xOSctE30TfsOlZJKO+xJUZS0Un0TfsR5mkUA7Uek2s2WVc6dYedBSgDiRTazZZNc6ddtBCCiwwhRQRxsLKHdzxusHTrkCYaLOH9z54qsOZwCQiUoylpGT6Jv2AuMo6xkuqa9pBGFDknJ0k30TfsFtNOnafJ4MqFBFj0m3STb5JN+wIUEXo6aafJ4MLuel4LhzA4Io4osIfTavLKudOu2qELGqt3yx9hRYRPyT/JP/rL6GtKGnDGnHVSj1TXtFkG4j8JHejXmIQZ8x9dBMshPNKmYPJ00zc7d68WZemMxnK5VwRono29R0MVKXnS8yBdnBWLbj9K822aAk7krl0wJMYOWuCPvYx8G1DXlqelbe3tbXq3Hnl+RYpdXoaRVHTAhtn2f2/l87yZ1ue8zn/SvL6mCp2yIS4o9WOGOPaOO2QQbzJLV4Ih27p8HiiBJ5cVqsV3Gb+9U3t7i/XH2VXtPzvV4yny+thkxEjicyIDkuB8x9bZwpq8OeACeBlmxHNuw8rl2fzP3naPzPevc9MO4S2MID0P54/ZMSlPE2O280bPL5N58OiPXoxyRS5I6tMB94hrNd/meSM9z3JpWePRjxZ6I+PUrbVYsyAjs4rmkBEYYc2m6TJkZ0+poxUnSKpc2pSclhZreIhEg97wlgDgbNgCxoIAYFgnWAZRwBlTDrYoIrJtnWJCCnFiCwpwsE4ADiwAGhiAQNgWa+yWQAAOIpQ4uxJxAywiIGRUosiHBUoWACBMUqZ6RGWZWeVGUbZEZ2GRSQYU04Rh+0WQNOFMsokCgkMIqigTgLGCSyAggRJUGgbAKAsAsEo44VxLAWIHBBSSK4x5I2QlmmEDJH8qHUuCRKCKiqFjSjk6FnAllFBAggMEhl0QcCcCBwgcJKLOAKAoAYKAEMEEDiiggAKDAAULHCAOOAOAmRjnnGL0bx6JXXfVDPm7jaknl0qK+FLk1x69giMsk4yeiePRqr7rsL5W4qilfKX6WuErVrTHmBt4bcZ7scEouC3cvX9PS8dK8iv8A+m89T51arpkzfz7ximvm1B//AD+VCXNrFN9+GF2Y/Hb3cyqMlK/iaevFuVU17TQ0ukb/AH04m73VVQ/JGv4pYyd68jZ+mW/KSfoTztrT0pW/P1ctTGLu2+NyffiBOluPRP5cYqkot9reFsZvYyV/E4QcvxVy4YVgTVCUKk4TctYxSdLk5tduVcsTRu7ebNmfNO3flXZQG9T/AOHcWWKrJonbufFttsxdmVxhL5e76ZY/Lr0vGpY1gaFQc5KGKt0+DrV6+QEqXphtx5r5kvPNhHsXcL+ZJRjFehLXK3cpc28OwCcs85S5vDosF4EqO28qlKM5J/DGKxl5yfCL05sIbJZ1s2/VJU3xrMlF1048Rk9ySllg8kYNqKXk9XzvzNdKU86nNO7TppxXpd0rRNnCUpNwi5xm24teb48qbrGiBW5Usk6XrvNFWk3GVPH+oXLd3G7TceEYxeC5KuPYN3fTkgvU4J3WNyk8UsOZMyT2sVGb3PKLcIX0+KSXdiUQ93Kt6VJNKVtXq6Ta0fHXsDUveNx3HO23hVqKrhj6a9prIRzTUW8rd4yTu9eNYvuNhFb8cIrcT5Y5b77jXmQRN1xe5NxxV/38bNabPcUVuTUcFf8AfxsgGmSS66Pyd14NMecreCTfRN+wtGR7ks0Np0l/iYRVL4lwMYWDuk/J3Xg0ZPKE/l7Xplh8y/S+MsLwMYSctE30TfsObTfb7twdJXtwwWnHQx2nV060unXaZPvRlUHllhtRvB4Vd3hgalfM+XKryWs3w64d/II3+2pPZeWWT/kxebKksq1fWjR7kZpLNLPF6NSco338RK25yjmScleKTbp88vTlZt6cNqeb053HLF64PF1wCtytvcjtQW2nc1mk1g+FK7w18DF9z5iyx3E8LabxeOqtOn34mxnm3NvaypyikotLGpLDFLy0Bpw2ZKeFyjki9VT9Trgv3xAxmmqtNXirTV9DZqc8sYQzKrby3cnzdJOhU/mZYZ7rL6Ph0w5Y8tSb8uccsoOUlJfFDN3rDHtoIfuX8uKnefM2k3clBrj388Q9p+ncjlj/AIU3dPM8EtW32Abmb5cXO82ZpNrHIlx7+eJK24S/5PTL/CmsYvV1hoFYkbOEM+5GDtY4pprCrrg8SJUoySpqVqrVO7w18zIIycN5Pcu79WnGNLTDkVG7nH3iUm4qSSdRppKk8MG8e9Gm2G5b8W8G3K1iqeV3qa+W3u5ncZOV/EufBqWi+xtNxOW6lFrPkVtNq5pO0mlrX0Kjsm9X+JmaWMVuNy88PLqB7vG88kryRuKq/VjXHhQna25xnH0uOV228EktcdHfkbDbk5PeUHUp4wel1Jtrq08ApbXvEE5SUmqea2mqeuClh3aGIoyXZhOM4tRlBL4m04rLxu1iaN03JrS3XS8MAJRHZqZzrR3zNNnb4nz9PpJE8TYueVGOWUsT06Y29PWG3FckaebywSWtE56UYrJ5n5LQmM3WsrwTGKWpsXIgUS6P3Emn5mkW2XROocd3FF4MnLAAo2yhvEzSvme7ee1Lw/b8DFWbjZmoOaek4Nd/A+F1cfLH8rt6IwAQSBJ8d9RsY6HoPuv+I/8A/m/ajzWLpmTbU/lzjLho+jPu98XOf3R7u3gaPcfobGSdNo1ebMup+LfqGC7fxZjN5buB5reVLmaRybPZeXm3plEnm1wI2TlJS7zGxhzeJvaa1LNEtyUcLMgW7natIrKhhv8AKn5CMnmYRrCFPQ33y3zRpJpppG0aaOBOIXFks9ryOI/eSizQiEgIU0FPFFnAUKsZ3iWZVwQgcUGWIGEZUKxXmOOKqyyHpoOTsB5wBwBlAnACGccBLs4gaE4BIgcLZAkqxYsyJJZHCIHnAGwyhpHRl0TSUbhEGSpkuzSI2IGxsojBWQTrIooeA0YRRhlTwiOEQWcKOKOBLYZUcixRwHAHDCiPriCWiQZEcAaJKphwAwIUGUGBxQAQACiwAoyxYYAYFWCcAYIsIgYLBZRQJTLBAIQOEgUK4jxADgCgQFlhiQDElgAcCUWABWNUnJLlmdY+V0EKATQ63VZpVpWaVVyqyxQBKlGaxt1FVoo2r48dNBQZRRJzz/PP/vL6kN23bbb5tu8POwgQJWef55/9pfUuMqcpPM3lai7xzNVbblwRDBADQlqUlgpTX8UvqRigHNt6tvq2/aUpOOjkuja9jFHAAsNOBOzz/PP/ALS+pGACBeOtu+ePtJGaVVmlWlZpVXLUiFBRhiizTCwk2nabT8m17AQzQlZ5/nn/ANpfUhpuPwtro2vYWCYaSHObwcp1+KX1I1uqt0+Fuuw4EMOTadptPmm17Cm23bbb5tt+0o4A02nabT5ptew5tyxbbfNtv2gHEaHbdYt1grbddC03HRtXybXsOOIqnjbeLfF4vtZPzz/PP/tL6kEoqGNtu223zbd4eYvXW31xOLAkqUoqlKSXJSa+5BpDAiolOUmqcpNcnJv7kXUsIokOUmqcpNcnJv7iQQQMUlDKQaPdXFSTs8Xao5RNoZt44OxaVGzjFzdRTl++Z9iT7uOwP1DEj0SPuc38UlHyWLMvj7rsx1ub839jxXq9PD5/Jy5rw6+WPQ2CjJ6Rk/4WfTKqOiS6KgrPmf8AIvrCp4vnH5e7VuDSRo7PqvA+efeNr5U8Phlivofe6fUuXeacrGLHYlHH6VwCAPE8DhXQpkJons11tH5t9JzVGy1NPdm2ieuVlv8AO2knwBU5LR6o1lE2Lo+TX0ZWreLAym5oWzkwh6GpbHN2RqNMIoxEmg2FbzbnWBlKds8qN7GaWqfazk6PV9FiYXuTUqrhxAkpuKm8Y4LpfM0DRuORHF9SYQsf1dpKs9DgaMFizQZZ1lUhdBTThINGRLFlUxgETmWiwABHC2WAZQBxQYkYAZFXeo0iMNMCSUCLAYWJKKJASI4YE8jssaQagUbSO3KeOiMijsxWuPsMKxBJvRGQrb5mUiCiPQiiWEZEUmIEcsAqYiWQh4EkaIDIGDhA8o4IWAiKmHdhxZAs444oqgkwSwiiggADOBFFDARYJkECOElVQQssBhRxwHAFgAUCHRQHHCTgOODFgUCECBYBwDAsALiUAQIQAHAhAACUUWApgjhAFFHAAACNBAUAMOAoAIAAQiiygQQgAOKF2LsBgBHOAeLOGUAkIkBAICDLDICyzjUQQIQJABRZxGgHBFFQJxxwRRxZYVRZZwHFnHACWWcQcUWcaZcUccFccWWZHpxgG5tNz9PHHyR6QccN2dkYzDYgvi9T89DLlyWHQSPqz5erf7qjeWoj7b8jo4Gz8266ni3hi0jK6H0YfL3rajpml+FfWjEX77L9MK6su872xV7NR5377H/iUuMZLxMCfvm9/T4/U2Moe8bsLm1COtP6HonnjlLdSOTzwWa5vHB2Itn9G83j03xTeBoraLttm/I03hrnXQnMieJ8N7EIlx1I5KOTbaoS2R4sXJHF1byItqzSJmxzHNs9oiUThQZa1mubNm0aphSQQiwMp29x04N+lklxy4XZiGhtc+FMK2QKNUm2bA6uRuARHfMPvKyXTWjC9XkLth5iiYUQCgJlkU44g4UOFAG9QS3qUAJQsMAwDgALI7HHEDLsAhaMmgCWLKAYMEFgTCSa4mkG2W40qIj3JczRsWRW7zy5j1uGlBKjO1JPQlHnZuIzaIrMRhHJhzBDxI4KIIoEolBEYMokhiAgposIoAjiytAGCxQxEDABRZRQ8jDwFgjhBBYIQYAABgAHgBgWWBQs4IBIwYcAABRYHFFAagUCECBYsYLAoo4sBI8rQSAIw4AASyxYCQwxYAgnWCAAQoTYDwSJYFgShdkUACTYqwAqKABJVDKAhBUTygIdDKJBwCywjgKFjxYFCxhwQAscLOkcxAhAmGnAhAkAgDCiqE4I4CjgjgKOOOAsEsoAijgSDjigio4I4IjQTYxjZLjDizfHIZNQkyarNU40dXJCROwWLdLmR+J5DvZ8zztvlyo+XcLldb4Rm8ve1ptr+KX2RgMpSm7k3Lqa0efqMOljj6/l49uJEIT3HUIuXs7TNtv3WUsdx5Fy4/yHbnva2/RsJUuPDu+pwy6snGPN/RrTYw2Ye7evddy4JfZcWeY729LeeOHKPBL6+ZoZTcncnmfmREfCmNt3lzfXw9Z9Bhij7SGYFCB5sNuyMccGiyUvsyGbWEXJ0uVnJWo0NvqdOOV4kKL4HF2RngAZJVkfKYVrUbogaDwOZp2bohUBpjrJNEagpJt9SFRJDKQnSaGvQ1vEmWmwiUmdZXB9CIuTNstoDQAw0hVDAxZocLLLIgRY0AAXqzv5iwyhRYJQDECGAAAIYswEsk8EJZy0KDBOOA44oogabM1ZsHggNUMFEgBhQRxkLJSxLSsyCKo0rbIkoUNOQmDCMOAscLHFVYQIRQZZHGoKMaLOAccxZxkEVRwBQQPEIEoMUCSWABwksA/M44oAgQQrIKOLFAcCDxHAcCLHAKLLOQCxYwWAAR1oECyhYNgSBYixNgSiiDYFgTQTX2DYE+xVkE4B1gWAXQCbAJNBUBrwieHQGtDon0cBDobRJOAQMCFlFnBHALFjzgEBhnAUAEUGQAhFBQghAhHCR4B0YUAOBMNAODBAEos4NALLOA4444DjiigOKBCAo4I4Cizjbxg3rgYRCSsyWMK6kpYaDzmoSywTmP/Z;" vertex="1" parent="1">
                    <mxGeometry x="140" y="420" width="90" height="50.71" as="geometry"/>
                </mxCell>
                <mxCell id="53" value="" style="shape=image;imageAspect=0;aspect=fixed;verticalLabelPosition=bottom;verticalAlign=top;fontSize=9;image=data:image/jpeg,/9j/4AAQSkZJRgABAgAAAQABAAD//gAQTGF2YzU4LjU0LjEwMAD/2wBDAAgyMjsyO0RERERERFFLUVRUVFFRUVFUVFRaWlpqampaWlpUVFpaZGRqanN2c21tam12dn19fZaWj4+vr7XX1///xACYAAACAgMBAQAAAAAAAAAAAAACAwQBBgUABwgBAQEBAQEBAQEAAAAAAAAAAAABAgMEBQYHEAACAgAEAwUHAwIFBAICAwEAAQIRIRIxA2FRQXGRgSITwQQyUqHRseHwQmKSgvEjchQz0qJTQ7LiJDTCg2MRAQEBAAEEAQMFAQEBAAAAAAABEQJRITEDEhNBYfCxMoEikXHR/8AAEQgC0AUAAwEiAAIRAAMRAP/aAAwDAQACEQMRAD8AlDCgzxNCCLIk5KGpBpd2NqzRetLKorVKrIU5uf2JccsI3q+f24HRlIglDzT15dTRN2xTdu2ck5NRWrOolwg92WVadXyRke5LM/R28EtWSZv0Yrah8UtWYy/9JUqfN839jY3E5R245I2ubWrMBtPT6jnim31NwlDbipVmlLSwNPS+ZKu1mw2vLK3jSbV8+hNefBzxvp0SvkXHbe9uOMfhTxfJB2ZFtRl7w7k/Iu5vkib7xuZvKufQmb26tutqHTXh+rMDwS/qvXgHATXG31NWOvEp4Bo9SwI7i80bevLmayRusZp1waAyZQyxvper5kGTSTslpPK8zt610TNVKVRqdO+h1cWHpW8CX8OmL5/YC+i068Tm026VcArpVhV6Y3zChKUWpLWJFBDSRKTm7fU9BjuepHFLkeZvFulgSelWBmO21mlFYrWzKiBtyzQXRrBm0ObQQwhgFnFDAKMN2/haf8XRlBpctSk71rAgQ8TZJYFUbWKNPtevz/TRUFRu3FLrZVB87lMrU5bVMcopYLQ2JOSDzGxRsCqLCLOaUk09GWXoEeEO4Np6rA9v90nm28t4wf0ZjnvG35VL+S+Px+xge1P0pqXTRrmj6PL/AFxeR6X77HNCMvldPsZ43ofS7hGcWtVNa33PwPmvJN15JdzPB6rksVtYqtuUnq5KEfDFkInz0jBfwWP+56mrOdu16UoyLbnlknzwfiY6Wcmnqe5PZjqozfJK+9mMvfm8FUF0S17zGYwb0wM1jsxXPtNNMdzSfV95s1u7kdJvxpkaUVHSWbhXt0IQGULel1Sf0Ngt6LwaaMAzLpj+CKm28Ttjm9reBj7Nk5R5mjsy0A4TYBFNFVeHNpB2jdQSW5tr+nO/YRovdvPKuzuNNn5ipvMzWGBlqZvHUlRhqXebhMqsXe0rxt9rDUUuiMneJpjqySWUcaYMGADqfINFlm0W3Jm4WywMRIjPSVsx6sS1COFNv6GVYdCLbVantZ556kkqSUexDs831ODozhyUdWkBnj8yPP6viTsj5MjTJHvQXN9i+5jO5vKSpJhenwZCe3wfcaHlG7qYoZ7vRowVn1I8iN1J5rjZG3NRxxZ6HJm3u8tzNSk8q1Wq8Ez0Yw/3ZeS+bM1Pl16SRBKEnF0JLCBClnDCwFhFBhACR5ZERiywgriwCyoaWAcVAgkkUdERzgwDk2o1skpKnibMQBgz2P6sPqZSo0iQOQGucTE5QsztmtoDy4zWMsy49SJLbd3EqEGrb6kGQIoMsyqMT0QyXHQy2iPUhMmyIBwdAGy2Y5p38qNaZfsxqF82VllY0SWYZC7TzLVarmjYppq1oyMQvgd/xevB8+wo3JL1IYJpDBZKIZlVDBIZA8YJGEDCwAgGFgBAcYD71Lyxgv5O32HoOp45OXqb0pdI4I6wZFtRx7DNzT7aqPabsjmWANAMtlADQAEiCSAB5x7zLSJ5mb7dlmm3xNDV0uZ7mHpPu8ahfMycellSXIA8rKENBJJzdCm0lbPMJyc3ZkG7O8EYmk5Ol/kbZNjHNrotfsVJ5ny5LkPk18K0X1fM151aLZnir3aGZ/HL6EbZhS9WX+Fe01eZSm57jul5VzOjLcRT24vcl8c8P9q6vtMKeOL8FwNjPde430RqEuqWHMo28HcumZtJLoo9SbmipOTTcunJdhW2rW3S0m7NRKf0OamzlLdlGKWJ6VJx902sqxk/q+fh0F7O2vd4Pcn8T+nDtfUxSF7snuz0Wi/fRHRGiSaxd3q75lXzIM91ylfRjOJAxuy/YRwbfRWVUd4tJGx2m3glYqMObXtPS4uLXlwXI5qxfc3MmFYnnjdu3ier78M0L6x/B5IajCYnYwVFOrrTVjuzE7IolqPWWC+rH0o6039EVmebN1IIuCdpGT7ctvbjPMrk8FhhTMbeIaTk0lrdGht9mWWVdJYePQ9CMcjsZXcnma5aIyS0c2jAiu/uZNUZPSMn4EEQtm39Pc+XvaIz25dXBf4kBpBkYuTpKybUVruba/xIlertxjlW5CPNq22US1Hag6dzf/ibq9r5Guz/ADPO/U2f/Y/CDGevtfNN/wCFfcLuM8rZ5Nd/3KybXNo8ln7z8mZdvU9IWKTWjVoI2fpQ6T/H6DfSfSSf77TWhUjKJ/pT/pfjXsYn09z5Y/3P/tQjTTDswAcppqMW3J6K8O18jQ6pLWLXd7Bkdcz0j9ZdO42s3aULTfWT4Gmk4qldJaX14mUQ5+aMreqPE8O3ie6qS5Skq0UW74cjzle7b3JR7ZL2BWPR3Z7a1w6Jhy3tzdpN9iRt57GT49xZuUVf1dGvjFR7efU4ZEaen2DqoyGO3KelLxxJ620tTsrH0pSNooxjizYZovDOoJavXuXVms9XK/8ASXSs88X2pHNhkeNW62485a+EdTRS3VTUIuV6yn7EvyYxjKWNzlzeJs8nzPwX3+x0kGrUpPBPHsXtHNO/M7/fA2GalUUooU8VZ9OcXHWrLDoZR6nJmqxQ7AiRxRJPk3y9sVYoYUcG0erwXXAymOO5vy5Jba7iBt/Gn0Scn4IhbF5G/mdsyqCBRuGiPRQC1N+R1Fm/V8AjTUR/TkzMzqIrE1tc2bFbUeLNzQVGglRitIo2F9gFDqMq62UOGmBFNQ4yfEyUM0MVW2+Bt1tpG3HEaDQ84MgI0u4rRvTmjSvCtyGZUeTs+i9yNY8meJb0cs3yeKPfHBiBtFiiAZf7vFSlKL0lH6o9DzsfOJ04ODpkI7MPUvd3cK6x/BmJ5Fsyqa44Hr586vRCSiyjg6FgBlEFBlFlCAQgAKOCBCBBGCwqiwgAiwwQwKDBCOjJIscUYUsSOIxlosaCGUJEDwAq6ItGwKowIImjYCQNYSEMI5lopmu5o2DIPJnJ1QmZLtTyOn8L14PmaZ1aGG3N6nocY3szvyPVfDxXIyE4AhwkIojxeV5X/hfsNiRWsyru4MpO9dVr9yiemNZCHp9DQUWELMB40jjiBpxRYBhABEEDcn6e3KXgvE8t2o4Ljizf+9O3DbXazabSxb5YHoYZWGWccWgAhggKBGAgQW1HUgbsskG/BG3w0fU8p948ryXhrXI6QeemU+7xzTvpFfUxY9e93jl276yxPVXFkZHJgg8bbXmNb068q8TaTnkXHoeZhoGhtn5Fl6v4n7Do+VZ3q/hXtNUdBRt9rb9R2/hjrxNaoucsq8XyRnO5ljD04zUa59TqMd3d7PhHRPTpgY1ri77sAcvcuvR9nMlGmEUjOUtH06dB7j1RC3HcjQ2sdxxvK3jiZx7rtZn6stE8O3n4GGbGy92VXlVW3w4G7zZJOMG1CXR9OJGm+3GveJ1mpRff+pp96auO2sIrUlNbainF0/5LraPPZKm9fEjLcbuVLLg3z5cDVwTx5GqJDk64EevldrcYdpH802orqKbwM/2oZFb1f0XIjg3eVVVJ1wMXf+hJSXwv6GXaGg3JxcXHmeRWbrvR4ZvQ9ObXTp2GYbO9SUW7SNxvSiuLPTGHmEXJYO8vVXVk26vL5U34pcrNY5W8SSjuwkurwuhIRZpFHdU+JxwVmn/KXTah42xf/M3eiguyJi6UOrl2JB/6fKb7kYabp+9b7/m/BJew073d167k/wC5l3D5F4tnZl8kANM23q77WKw4G+zvlFeBfqT5/QI0lfuiRlfJ9xsvUn8zFZ5fNLvCnelP5fqiC1Q22RWwLPXvdpXBx+R/RnjCZnnu08m6r0l5X7CD14s3NLkhOW8EBq6bdLX8GulOO0qj5pS1fWT+xNnuR2lSt3yxcnyRjvwLM1cngly4fcINLL8TuT6cuw9D2lCnUVFp06R5xGDXXzydZtct8j16EFCKiun14vizInGumrXYbA45NPmiUXFtPv5kc9L3oYnmzw1aXidUBdaYHOUnqzVOfLH8EHtxOuObYqpPgbGlVyfgjSdBET1/Fx1kGfClgQNeJHbXayPi9e7oepxPbXb2fciPM1Q8BmxkkdtyVt0jE9zVq8FoZBPKqjmcklotO8x9py0RkZptO4o3Ri+0nHAyU8PJ64A4A48LuNutrdfXCC8dTe7caikY/P4NqPzzcn4YHoqRlUGiTRsaCIIlBkk4AAwggODODILGAhgEEUGQEGCGAQZQYDAwB4aGEUWVGl3FcWeG+8LCL8D6Ieh4rvvLt1WrPVHN4mzabUss4vjXea9i+HOj6Dg9Y96jjGXCmebHu+7HNtyT6Y9x4GcYylLBrtX5PfDwSKuUVzkj38xybiOASBR43YkM4ooSGcURCyggQAOGFEVQoMA0OCADCBCKLA4oI4qCEjQTsyjADADzuihYYICjixgVQZYZAsSOFmRGFYEoiPSyNo1V2EOiSRDk2WWEcdnMH5PRoy9SObr/ACXH9TzolQlklfg1zRGXowRXZinimGedsZClfxLVfVEsIoXd4rqWQPhfB/R/qTDbKfqKFkwypA0WGYU0IAMBhYJjHvE8m3hrLADAov1Jy3ObwPWIKkjBdqGi5YnpJ1YWcWUcmggDASqEAYY/ubsdpxzaSvTVFGMe9NvJCOvxHlspOTtu2bfc3M0nLm8Owxk9sc0hK2lzZ9FVVVp0PMvdIW5TfTAztRyy1w5cjjWEwQSxBxdHi0pOTs6MVK2/hjrx4EXU67VX5V9WdVNlLM77iGyC7w4HoewoKD3HjK67DoF5o+7xa13Hrw4GrhCc5KEripYvBac2bSSqbqr1lJvBN44czDpblSdScr6yK23m/LNJUqjVRXQx5EFTdZel2SLNOaSFFW8I5n05EbCOuN6nr+xFwj6k9WsFyj92UYXvQyZalJtfHyT5LDQkv05Jtp1lw/QTLelPN5Us3bdGqg4xtSXlf0Iy3Wy4tJySywVt9ZO7SMO3dx7snJ9RbuNq8PzxBpLXuAgJNkuorXEU3fBciIGmSRcOWKMilveB5tdGxeMeJzVs8zm8PFsOkmSqyLL1eLIpUap4SZk8oJ7MdyK0wl9zQyV0beEpQVJ62mujNIgqaW24ZVi7zdTUIlVjRkMElaWOZUbRoTidKDg615EQ0hRRZQHEckAkUsIosyoAyiwoyjiwOAeIZYGmRtiNLphoNQH1Xty9WEZLqse3qafd3VBUsb5ayf2PL9jecFKGLTxSXPl2GUf9LzS805YJL8LhzIyH/p+aWM3gkunBcObJsVJeadZny6cF7RKjl80sZP6cESlG3mev4RpTKpX1VPudnrx5VOUYxeZ64cWZts7i3IJ6dGuRyG9FhMUcWmObyuN8vweDbscbPpN4po8GnHBnsjm89Hi2ST6zxiQiiSRzTIihQ40gDqJtEwggJcMDZIs4ipawZkstTDVuSVwWCbt83XsMxfwxfgeGu8QgG6RxKgs04rm19MX9D571tul/+zCPTbgl41ZnJg/u7zz3tzi0vHQzUwCLKCIqgjiwKCLOAsIoMAgygwBDOGEHBlHWuYDBhDzIVn5IitoGau5PRC/NzS8So3wFo02V8/oy8i4+LSX0KJ7ktOZ55uwzwmuqd9xmySXyr6mN7klDPer0wNI+bGWsGq1tGRvavG68BeWMMXcsUfR1zez7256cXzeB88HvO/Fbm03jhUkeEEjLd7P/AFYeP4PcTw7ZTe5GultnuRyoSCEAcHQJxYBBQox7elKKWW7Zqoe8J4TwYGbgik09B4CyhoBEIOGFFUAZwJUGUcCRRnAhlCztAAAhpDJnAindgAIZx53QBQYYUZZxZBqtz4WYcn1PQzBZ7bu49xltOW5KWmTjrfcbSWjMN25qLdmcpKUe1HndGoIgL8uCdgo6snllgnVyUcECVGUbM/4PR/DwfLxMr0PKT0iE/Ujf8lhL7nmabEEWUYUx01T0IEW/heq0fNE4RJXpqsU/Z4mhLJKZr08yvvXJ8iUaE0UORRhVBglmQw8u3X6m9S0hh4noc5+nCUuWnazy/Zjhxlizqj0PaWF8zfADDmysosoNuBCKCLPKd1x3tya+SLyvij0acskJS5LDtZ85t8TvFVUm1/HDVkNquKur6B23rjSwN8n/AKeVVrmZ6nBmfuklUo9U7PQDBPdtvD1HrLRdKM9PG0SJJAkw2+f3bwXUvB9i04vmK0V3r+CO3gketktuxib0Wl2QzjSlSlmbfM14QsyizcRfeaujewg5NRjqzbTLfd9r1ZZpYxjrxfIyHf3XN5V4m03ZLYgtuHf+WecaEYOuo0u8jvFX3jqbTl007WQU6MhBr3i7JrwNQVpwoeSYQluPBePQjTUGabOxPd0qK5syuGzGH9T4mc3lj2nDWnh+4pQnjjxQJsN520RFgdFWBLTsZMHUdHEtO0ZJtR6vwMNj5ZJdGeoBWr3I5o8dUebHrx5xuRyy7fyVGoLOKNoso4sCnXRVw/zFkgNYGGkUcsDZLK6WCeOK69tsjyTWtY8mgIoAZQUAwo4IEgRNmanRgZBGWSSkuh7BFfzeMpfRckeKnpvuzuL1uOHgEZTQMprbjb8OJKby6mDZZbsnJtYdOkVwN5a57GuxnLNLwXRGXbO5kmuUsH7H++ZutvYg0m25cNO/qbNKMb0iv0LIrOrQk+d/d930ZtJ5oN/5M+g8MHzPPZlaGefONnoJiM5LbdvRtR7yRt4JOOVtcnRHR6R71DFS5qn2r9DzJH2I8CWQ6Jxx6GCKfJd5NODMjhhaTeism0lr5nyWneZEMYHKeGNJclp92ai5PTDi/sYabS1FY4fnuNnBuSfRLvZjqili8XzZl0GeavSQbHbwcpfJCT8dEa0Y8Nmf9U4R7sTwOzK/dY1s3zf4MuNPDy7e2uF95NswqWEQrOxIqcWQsS8QJxxBriDXEDYWVmRAw4hYcgJmZAZ+BHvgg8z4gTLk+gNS5peJCtlkEmub+gVR/wAyF4jQJ1pdF3WNzdv4IdPkSaZQV8O8Z5uCKp8wsqAXj1kLw5mwyobhyCtO65vuNHvRtozkxTf+F0Vl4LOVs1VOWCSNlRsYYNPSjsPRt2WGXC3rXQwf0os3EJQq7WONm7TiuR5O72R2zFQTMgMcg7k3zMlO7ylkcmC6NuaORG1HUpy6Rpv6IipddXzPLbiori5YttcF0NZ6b1TTfczJSj5/yRg+jxTg+a9q+xvFuV8X9y0Nu0nriaN7XJuuR6vkMlKNSo5fhw/DJil0ap/vRnfQ8EIWdxRwJZUWcdYZVCUGcBwgMoBQ8WUbYJDJBENCigyzi2eAGa+fwsinkOWGJgtpkim8FRzdW4yQnTaDlPotDH7y4PTgyU7jrjxMKqiWhFcbFHVzbMQUEdGVgADwgSTGbhJS8GuaIwJgeqOumKeKAMW2Z/wfXGL5Pl4mTaHmbMDBCIqC/K83R/F9zaiREcPLy+Hs/Q0jZk7UgjzYIEeRrUU2+hyV597y80o7a6YyN/tLV+CMC27m5T6yZ69FUkjs5pRZRZxbccccBRRZVpW3osSjzj3ufw7fi+3oeRzi4yaksV01NxJy3Z4K5TeBqnnjJxlaksGe6MoDu2nh7BsY3JRbq3RlUMuTccoqTlhFvVYa2Y1i2lFO+Sx0Ojg+mKy4LpgCHdpPgUfOdiBQ8UGnzU3ZHFjD2srCBDChpdSKkTLrEk3mx0AXoj1zZgtjbe5P4pLujy7WYp7vterK38MNeL6I2HvE3vT9Nadf3wAxlyc25Pr9OAgdLB0v2iIZEqUrSVJJKv17SAWLKhz+EVk8sWsXdNfgQmlJNq8dD0yMVC66sw0x6Gx1n/b9zNezBcgSSeDXVNirNRuS7kbqTyKjyrelhS5qzDLUvzFR5EpCZLqvE+o5tiSkRk8xuYqqKI04XGlqZTHBJPohtUcADYue1mhXXnxJMcce4XjLdr+MFb4voVHkQRk2/DJK+kvyYuaZWWccVVhPuAOsisslvuUXFw28Vqk7MRDBOOYpngn2gBGsxTOo2gIiw7AYRJEmzrAYb3am9uWH8lRj1jyjOI7mbVu1ax5G5Tc1W3bd1ph/kSfd4bcoJxhml/JzvKn11w7jNZb+3Gln8IL9o+t8vw+T8Py2O3CUF5mr1w0PMfeMuepSlFV0695lz3paRVLnqzyfcVzt49pwnl62pw82XFU65+NH0XsyzbUOCSfaj5wbySw0aafieze6PySXH2HDk7x6QYtvQU40/wBsyYgyxR85tgeO5syi/ihXjXXuPHHgz2uLyyUu/sZ51vwySfbh2H0I4VoghSHH0HnOJKrr3EUg5m9F4swN054fKuS0/U09t6Lxf2Oy88TZnndUZQXb2mwosccXYVGyXQ19gWZVtHqa7d+Dajwcv7nh9CdPQDep7sktIZYLw/U8roy66rgiWpGqofRhW6zDLNYkydRFPKCoZQCTiXgGBEG0SQwEUMy8QwwByoZSLoZQVeA2yqG0Auwh1DaAilk0eQQKLo2gYGto1e4vK/EycjS0Z0R8yshyfQyGSxYiW1mV03XI6sMcjJq7tL+nmbFNSdKNc28WK9J85dxvYxUdCK3+2qMvMe2zIiIhyvLKtadHhcdyUerfM98PL9/ybmCWKxXRgbCE/C+Zk551Cd4Rw5wlp4M3EZPRYP5Xh3M8Ngy4AhRlmJx8tVFBFGEUA0nriMKKIWMecl9V9yUmnp9RhGcU+D5o9s5CQUQrccJf3LT9CSfS1HDBZZ1UYJZQHAhAkQBYwA0oAmii0dXMsYEAc2lFlDjLbDJbV4p5X9GY21KOsfFHqJBYaeWWn0JCbSpO1ybszlxTNW9tcistdHF6UbWilDKSTLKHRxPAo0rXlkwhhBCxoBFAekxn6kc3VYS7eZ5wbDbnklfR4S7P0OavREOEaezsHHmaGJavTVYoeGUVF5lf7RLNO/K83R/F9zdG0ORg3vUqUYLWTt9hmhiW7t+dTxfsNoVtR7ombEKKpE05giyjjDSzjigOMH96nUVD5sX2I3m7vLaq1beNcDxbdm9ybfWTpI6xGV+6Rty3OXliZDvbS3NXj/GXsfAyKMVtxUV/HDxLPrR5Hzk3KLp6o9L9zh8W4+xe0DfgpOEFjJvB8keoKKilFaLA83JpwAwA+c9JYocLKPlYcExR7GTxyQoNukVSm23RPSbaitXgQVgj173bbyp7j1fw9nVnQT91r3fayx/zfVmKRj6W25P4p/RD5zefN0WCwtGMb+45tfuzk5sWzY2bdOzHjeQjhbI6mi6bGXyI6zTaV/5BG5hFReZ+bgZ7FqStEXJCqyr295i7vZlesX9V9zy10Z+bmKpWRYrNj05kLcmeVWj3JmH1zHXmxDPdI5uGAFHdGvXklXQzisPFfk0Mo3Hj0N6k1CnrQG3IDZKNaAz1orCKcu3BGhe/uY1UMemr8WC4Y8CettFGpi3PNGTbtXb6SRjR6yopdDAdxeZ10dP7lZaU44E0LOXBWxJ2mJFbJQm9I/VL8sRiuZtJOUWs2jWJIpJ3qnhZFY9YvK3ojd7jSVKr5kGE2lSoDlt87JPprj9PsP8AUf8AT3fqMzvlH6/cCH6fF/QrJxf0J3qcF9QfU/294CorJKMtUmnijLt7dzZ4YON4O/E8+tz5v8GRelKHxOC/xX+CjtqnLLNvK/NSunJcDN7UdIpfnuRh8VFO423xwX0xNhUnq+46MJDnzfs+itmt3HnWhu47aN96ZpHmuVvU9U92VPwYtQRm+3GkcqraiB5FZ5W2MaPgaTfjcVww7UbuWpMaU40/odB8+RLz9FibqeyovVvtEVR9DXmxqMvPE2aQ0Iw2IMooyoywSjKngDwqMKyTbWacFxvux9hisfPLN80nLvZk8XljOXywffLBGk2ViuCOTozUMdQ+jmEWSB44ilEoskkC6DokBECKGDQwBGHDCq4M4MgsM4MCxoAYBjRYwIIss40OFPQccdUeDbi8zPQNlVt3zdmO7sfMZ/BVBLgVGF77MNRvt54mhRUZNE3Bpom7CIZ5Xvu5vuPU2eL7mE5dplWqo2OZ9fNXPXvIgq6POj07bcWvK+1dTenjemJmUN75sePXxR82xWZHAJp4oM8oEoIoCjiwQGGty18P9v2NiLbS1dHSCOpJ+1PVDyE6clXJ2bA+1As4ss6gCigwjqLLFlUYsIoAgQBx3cihxQJwdBEQaRyqQGEMQAUQaNwJA05VEsoCEQ2bSiKwiAcMOIqMcNAAzPZlayPWOMeK5GQI8vTcWmtU7PULUkpLSX0fI8zSUGKQ85qsgwweR9sXzX6E8jSWZYYNYp/vmBPHJkKMsyvvXJ8iSdUShQ1FGAs444irIM5x21crrgTTAfepJxy/uyjzrcn6m5KfTRdhkPusbk9x6R8q7WYJoqWrwR71CC24qK6a9vU+hHCn6E5Y/vQimP7zcYqEfi3HS7Op7HAOz/qTnvdPhh2czMgFFQiorSKoafHvd6iwQwTm2WLGiwPltshkhxdtGcv3deknbz65elfc9rLEFiiFqzIoNONL4idGEY/1P6IBW1tvcnFaJ9XyWpn+7u5sqiqWfLh1XA86nNS1kZ3tyh5ZdY6s0g28ufbry9L6YmJzh/pRk5a3lXWuY/P6u470bXctViQPeNz1J4YRWEVySMMMLDxZwZHVKTwM62Y5Y29Zfg8/jVpPS8TO57vLD8nKqyS61NHOcWsutmDPcbN9jtw08z68jhgnbW84rJeHQhTlmllMUSo2euWtUd8G8CFFHZDSRFWzWmYxjSAkpEzUUc3QGvu0hxGRsAgiQQM0X/KPejY6MqNNuby2uMuXRdp5Pmblb6vE229DJK+kv3Rttj02px3Fg9J0/K/A0NO8BJJ140tSGUUZLswzPM9I6cWQNrbe7JRWHVvkj0qTjGNqsq0oisV3X/HxZoI8qvoiPd4vVhKMtUm+KT9iCAnHK669TS0ZFllyk/B/YXT5PuNDUUclj7OZKs9q9392SWafxP6cDDTAlLcjbpW+3uH+tudYxZ6vLaRjr2TCvNXOT6VwH6rQzT0SLkoo1Ks3SF5TcqHHHMlXaaG3iZrGHPuJsNtRJraWrS8TmpTIxAlu7a/kvyaN+8ba5vwMMspIrMJfvUeke9mpfvUuUV4EVvp6kuDtGAPeb1aRD9ZfP3WzQzLdg30MIyskXfzv/DL7BZZdNuT7aX5Z0Zayiq4mQZJ/JBdsvsO9Pc5wXZb+xdGN0SMvBm0yy67ldkf1NHK/mkzGiblfIbl/295j2L+ZlZVyI0yDT+URGZfMaqKVvBDa1IiY5+Vq9avwZk2zFrFqrVrxMIadduB7G15pclUV4I0rhoAwwGDRQZFSR5HJdPiQUMG0xeHNd6IqyxOaPzR70Bnh8yAljDWept/N9H9gPVhzf9r+wG4DMf8AWh/V3F+tHlPuX3AyMMxv1o/LP6fcX66+WX0+4GWBmFf8j+h94j/kP5P/AC/QDPgzzr/kv5F/d/8AiD/yn8i/u/8AxKPSyzy//lS+Rf3P/tEf8qfyR/uf2KPWDjyH/lbnyx739hH/AC9z5Yd7+xsZLPGRkd1E85hu+pqsrXLRmxnu4UV0rFZu2Q0LHI087L4m1NdHQnGglnkO9DFviexMxKaxKjxq600JdpmUygmYRKDRlE8eaOJPvmccVkUZuOmHtM8juKXB/vQ8mslnisV7ICYbDdrCWPHqZhqeDAQJwm0jAeYZuyQ+e7R565Xi2fSkHpGysLMoPOYzltYSWD7vB+w9Bi4yVxPoIWHgERyqaLLDAI4ChwFAhAlCwziggihgs7MFCxzFHFsokC0SCKE44oCOJJYoqIpFJxHKNeyObMhEUgocUBHMk2ZU8j0lpwl+poRbOavVdCWamE/Ujm6rCXbzNmjytGFghEED4ZX0lg+D6M2xHpNU9GIg38L1j9V0ZsbAlkQcjaBI7VppOr6k4SZVpozawkvMl34anjW7P1HdVwM+96VxTzVTw4rqeSM9MZSITyTjOry9D3NOM1mg7TPnc223uS2pWvFcz1PM+gI4/vQxjZ/1Jz3unww7OZEnuxnBR235tx011jzszlRUEorSKoxasMKLKPnPSEEIEAABgAHkmxB7m5ekItvtZtJ+9L1PhtLDNZL3JLY2lCOr/bZ4+etllW41tybSwkY3U58EbeLzQafR1zNU9x1XLqVDKjEbCaz4adTWKN+aTZKwaaSqsbKN3vQyvMvhl9GYoZ3tyU45GYXKLi2mZaQABogqlFlghGRbMc0reiJL3FJvUbN+nBRWr1MPStkVkfVuhPwskobVlaGNZCjyY/gGW02427MwI0Y5UkTAjjXvElM0M5+nHi9PuZZJnuemuP0PP3KU3i2zcJZ4xvo3b7aGZksIr9/U0jWenLgvFG3/ANWMcqflfJp/jE1r4shKTTw7yq9A28q21nqd3UFqq7q6+BoZTc0lpFaRWiDjKPxvBrSK6vm+Rok+8jLeKvTn0+HxZpUm2klbeCQ1y8rXG/oZdtf6UXP+csI8Fz7Stts/9JPag7k/jl//AFXBGIyawitF9WPby4fyer5cDUHGOiz0L3Sfme3z80e1ao8+GJtNNappo9Tk+pFZlBju154qfzJOuVmRmGiGkYm5x5oyGW5COskvEw9+9w/jcuxN/hGQ1PkpPwf2KySfTvZqHub89ISXdH/7YkD0t6Wriu2Tf0SMK3rSWs4rsxNTe3zm+xFr3Z9dz+2K9rZs/wDj7fVzl2uv/rRVaPPFaQ/uka572OGRPgrf0tmdLY2lptxfbj+TdbeW5KKSSpOkkr6rDl1NI80/1J/+1/4XFd8qRH9Hcf8A8X90o+xs91OIjxP/AI27y214y/7Qv+HN/FNLsx/KR7UcFeRf8GPWTf74MTL3fZh/G+/7nr5jm4rRkeaZdtaQX0JClXSi2QJYUvHgQMe5PmQM8n/JkOwQHNy5vvNW75s2LNOyIQTSCSCKsaRhxQl/EbGWvajWM2LxiuAALVXzT7jLPXjjUZvG8Wo/hGFlkVm3rcoLxk37EM9WXKHc/uYRbNY92fP6IrT1LPPml2JfYvNP5pfT7GLqVwhLwfamazdtPVgZ3cvml3sj978WeTa12r8nvjDTFsq5fQLKuX0N+KMt61dcDicJBqMcNEhjXWLs4WGXWBZxQC7EWxwBRrG2uRFzPgTpGsNAszwNzWF8TQPVGSfx8WbRrDaQcIrzQcnz6EKkFgdcctbO0+lEEbhzLpGsY1FJ8dSPSNjHAuDJ0SqIyJpMVGNI0b8iNDEYu0aCUEzOMpCy8Bg8mcMuPgaS6weJ7K4WYjLasuDGMt6MRiimnDhxNipJ4PBnnrSzZRm46ECizwj0NbsXra8DFdxq21ZFRFkxIjT6432jnpX7QFrxHaa9/Q+gr1KHmjTxVaMxuW1Lb823dfX9USNqV4GXkGh2t1bnJS5cze0aKe1Hcx+GXP7kOO64vJuqv6uYVkwFDaKCuCsA4gaEKLKADLBCAGXYoE6sALDAFBjQQzi6AKLAAEWGWVEcik0QURCOThQGvOHFBUcAkCyI2G3PJK+jwl9/A9EeGB5QZ7tSzxrrD6x/Q81aZAWR0SDi0sgSwqS1j9Y9TYDO7DXgaB8Vo9CzVx8rydHjH2o2ptEpYkPV0u8U30XiK3JentykulV4ujY8n95nnnlWkMPE8/JDZDPYy4s4nQg92aguuvBdTbk9J9z26T3Xq8I9nVnphVJUlglgiz5joEosojagAwABBCBA+e92b3Jt93YaXgtWPVtpLVmce77Ttzkqy6fc9jLtxLZ21Fav9sw+aUkpIrdn6km+nTsIu3KnT0ZUQIyoVZOlBp4HZUtQERm0zO5r1I5lqjE5baq0SdrcysitORTMN6FPMtH9DEQpBNSfxcmiPV4GSbjyxUF4hGOzlnk3zNjFGrSsyJFDhwJJDSDJG12sceqI5eVwnFx6lGeCxrNdJmWUN4swTduU65YGaGI155tq64N/hoBrvywXZ1WvOyPOPptxdWuTsir6kR429Qim9MCqvFkum1dNpYX0OKOITJhvHL1skUqrV8LDSHtJZsz0j9X0Mmxk8zaTel9F2DZKMUuS0XNmHtuTtmHRIeXpKUudxr2tkcos6uAgxYRVZx7tJufp55RTtqq15YpnqnpR/k9yXbJ/hUfOeOqwadrtPpKG4t2CmuuvB9SKtbe3HSEO639SbbEEYiNlYwiIaQSQhAtvDDXReIQbzSTUcMKzPpfLmb+EVCKjHBJUOisqokBpZRYJFEcccQLNS1ao2przmryuRpGZRvKpdpipRFFIsWA1mlZuWaJkQsaRhgDiQRCdh9goCRDGLREDhgwBOLeDYsDjFJfEZWYa9WVGe7LuE1ykpeDwZsNzGK7PwY3sP/Ur5ote1GWawo02wXqu0yqO449TFkbAyj1pOxh57Dcy4dDNlIyJIBRRAsAYLAUAOAClixgAChZIKKNUzXG3kak2iK9UZB/FdrMefQ36+FeJpEc4AM2wMsoIIolIjkoiskgbsx6JkBQsjslEcrKORrZIBLoi4kEm0INay1TxRg0tr5e49LaNZRrVeV244M2ax0MvlG+hjD2uWBwxUtGob5a8xeWV1ZvVFGWGoiqN+o2XlNyj0jH3tNYweK6fY323uqXlflkbKjXzgp669H1IrIKYEoqSyyVowxbk9t5Z4rozNlK0XsjDvP7vznt/WJlyakrTtEnNXExOW24PPteMOngOysoEmvhuw3FpTWqNtgTDSjhxwxNCANAJigFhHGGjCqADPT9nH7qLBCPE9CwBgAUso44qFADQChAokCQIpHJxEAEWPAAQNjJwkpLp+OoAsyPVcNVo8V2DzFNmVpwfTGPZ1Rkp4XROWDPEZep7vu3et4/xmuJ7UKcYzTjJWn+8DY0cJx34+XCUca6p8ODN+pKUc3fwfI8P3Nqfu8lKLw/jPquEjPtrcW7j8NyWblm5rtNssyjoYH73uYLbXa/sZ7KShFyfT88j5wlJybb1eLPREQAAgT0uaz2j3XbywzvWenCP6nm2zt+ruZeixl2cvE+hzy0CUWUeR2UCECUUCECUUAGAB8+RSjG3/LpyRsXvScHC7useC6GttyxeOgeXO3VKk3wPayxcJR6vBE14iJ1hXQgmrz3jX5MdaoanTsyCSzrMgNTGVYdAJKnZrjap2qIrN9qSnFwej0MPlFwdMgJ5Wehut6NvWPIK1mzFJPceitIwqTzNs9B3fghGOlY0YWo4oLiqy0+ZkIyiWVkuho8ekQMiupu0qEpEk0GGjeptXpRpFtvq+79TIUaeaXmfNfvqZZ6ce3tJLimmkksOhB5N0AHae0X4oDaLceTJhRrCrXMsourPRtuMYQvFN91cTB4NJ46WZjBXGfVv4XwZUYrN+pNJc6QlpxbT1To9QjtQhHLrerrHDkzHN2Ll0uaXT+cefajbLGVkqWaLk2lld0o82yHdmZR93eu5guker7eRtN3buCkl8PTgB54MFBlUZm3uu5knkfwz04S/UwYEK+kmRTS7e56kM3XSXb+ps0ZZbgcRAiCYa6e5HbcHJ1i8adaNEofw1XIoyeMlJWmn2Eo8pfu8buDe1zy9ezkZjteW455Sevm1p/kisnBLKMqso1k9yMNX9zG/+VDlLu/UyrMGa9lRnGfwu/z3PE5nJWO7yuN8jzFnszVxkuB4qaEcBFgI0h8jRs3UjRmVRghYYQ0ksjEllUIBxa1IiS+fMjDP49jEBXMw8yWXwsxtG0T08rUuTTPWXhOS539zyA9IUrW3Lgl3YBtiX8hxNmqkQiII2MZNEFGQ+nauOJlW3UrJVmF4xZlUZKRETrCsXQFASCiICFTCiIWBIAEnEEWRqTaSIR0Rrn0MkXwrxMfl0Mo/hHx/JpGpYRJBKwWOCBCrCBJAG2iZCjH4m9IDAHCTSFkckABUQEeCER6I1E8QUa9og0b4jBGO0GkbYGgIh1GwoVRQoaixhBHcU8GrRiWWWzivNDlyM3GAa6E1PFf5G1MNltNPNt4PkS4byevla1QVI3ttNZl5ZLqupD29x3WvHqjX7m5m9ht9qOVX1eoRvwijgKBxDBKhogAE3tZxJwLwIg866544o4I8juE4sEyrgQijQWCGKAEUOFlQkSSRAVGLLCASLHCyAE3FprVHqNppSWksTy0yjYlrB9cY9vI4VWYoaQyYedsXBq09U+poI7MYpxV09ODN6ajd3PSg5dXhH7+BtHmvvG89yo/JrxlzMBGMQfScnAhGf+6bWeWd/DDTjL9CsvQ9ja9LbSfxSxl9jIxgJ8p2LKLKNNKOLKCBBCBAEEIAo+fWys3ky83bIhHPWyA1jNka9gRDYwllfAVGLloZ3DbUeL5mGmo9G3ei+p6ZtJbadYGqNrLBUeTWnmW9FOXaBHc9NrG+BG3Zp0l017bNE1eJ645snW4uwclbctL0MZjG3Rnp1dCaJFDBhGCiegETSBoQssIMMEsBgYIZBr57cZ9vM8/yc/HA9RNLuR/kvH7gDDa20k6vtNHvwp51o8HwZttuWV10ZlXD8lV5Tt7b3OEer+x6nGMY4Rw/JfQlaR7TTIWNjG4z3PkvJ2rF9+neR8XSWrdL98DMp1twUFoEYXKWbHnibOGBhcNMvWOHh0+hmCIPJt3b9ObXTVdhpj1rdjnjxWK+x5IaFllHFVvNqeSXCWD9jPYlgeAnrOxuZ4Y6xwfsZEZiGQLGAbAlmtJRBsjFdxbi3YbqdwSqSuqXV9nXwMmWJov/AORcYSqCdSktZP5Vw5vqRXpZAnLJFslJKKSWiwRhfvE8lN6K349DLbF47ct+UrlUU6bVXJ9UuSRv37ntdM6fNSd/W0ZHswe3txi9ax7Xi/qbwjLxCe3PYxfnj8ywlEyuG9mXzLmtfFGfGBz93V5tt+nPh8L7V9iKyeLvFYpnjs1UmuJu87hKpr0pP+S+CXsIm9mbzNLHqsUQYyAcCUMZpGbhmnMhJYIQDR7IwwDgDigJvVrmr7iENeGV+Ao0jXT08TSm0n0NcjapBl23/wBNr5ZfRmJGR7T8zXzRfesSNNvPFJmpNmsYdj/U1hkcbaEspqxpkZq8u5wZjUouD9pENstx6PEgmx3Oj7zIDA3XQNScQM4Bo1i3E+BsbAqgKGlBUWhVEwUBrGAkSpG32lmi+00MLn0Mm/hDs9po91UbxfBDs9ptlGFjwCsqDAHAJHgjgNrE3SNLE3CIHiR4k0IoAZQFCxhQCDh4kISWEcERyhhxUBYIQwBAmiQEBrxgwSFWabcg5PNF49U9GbIWBpIwrF6/gylGmZkCjWpHok0AYNULDFmGCjig5miBgsg4M44gs44sgoIoEosA44oEEsECgDgjQUCEAAlkYmkdhAgBlBUcDitUSGJMj1FSUkpL+X56j0YXsSxcPmxXavuZeeJ0TDwbf3fUm30WEezmehe87mSORayxfBHih6oyE44o9bkck5NRjq8EfS8IraioLRfV8zAPdNrKvUessI8Fz8T0Q8VaRZ7ig4ReLm6r2m2PEPeFKO63eLqUXyr7Hr23P1IKfPXg+qPO6pAI4SECUWUUUCWCUCAEAB83CiwD1oQyMlmdAsyvajSvnp2GVZDVYLQlAkg8Dq2kF15Gqm7NxLBUYDOVSVdNRGGjlt0+DEZeRm0mq7TSn0XJGg77TIEYzKNeZGQxlmVlaTxoaCCLJYoYQcEUEBYwAsBgQAZAwI4AKxCUcrru+xkW3LMuKGSWZUYqm077zIzYcR1TpjngbRkmwrk5fLh4v9DSbs8zZl1ejtV1evb1PL2RhDfleflg+z9DLTRrHB9cCoO4q9V5X4FVtrMC3oU7Wj/JmoElmVFR5MWG1TrkLNtLNhCfpyUumkuw1xYHuA6zCdiVrK9Y6cV+hmJEbCx9kIcQTnLKm+tOu03OxljCMF0X16/U85cszvuRkm3Kmc23ph5VuQW5uQVt27aawUYv2ukejSeBi+0lLcnLpGoL8vvbXcaeiXGbCB4g5PMUQ2SyKzm017pqmk0+j0PPpxfu9em7g/4N6djPQzHN/wD6f+JGkYhUN3GHll8rMdaccGqI9f5m+jvOsu4s8efVHRGlZq2Zo9rMs228y5dUYWRUc4I4gsME4CwAwAG6xa8RF3XYSU6fgzUmkQJ6+AhDJfEwUdFPJsZZZRfJ/Q1whkHoKwlOPj3GuDb823L5o4/ga9TKkjCgjKrOOLILKLOIqxoosglWFZFLAlWyrZHBKJds9M93XlZ5Met+7fCwMU94VHfwh2e0m+9N6UyTGLyK015axw6nRhpAixRpBlhjQFDxRNAcjbI1ZtkBLFDwAIookCioQCNFhQFCzgy4EIsABAwEqKDALKCAGCQAKDFkUkhG2ILQGlmvKzFtrdltPDzR6wenhyM/pVRop7UGsE4yXVYqXaungV1lxm23uR3V5fGL1X37QsvLuv7nhKtO1g11Wp6jt+8qVLcwl83R9vIw+vs5eW7BNvKPZfPmauqDxXjgBdDyKw8Khws4inFCgyDigAiososooA4IADgAwDQAo4oIWKHgFEMMsjkU4SA5JajiCPxWqxPTPUWT1Ho1p/VyPMzHpzfw35buuJzVrJyc25PVmvKKPWws3uztetPLoljJ+zxND+eh9E7W36UMvV4y7f0OFRPjeWn/AB8vgtCURXg1xwfb0ZMo8Tsx/f2/V23WscVx5owz3RSzOSwh1XNnqdilUVSVcDaNgRiMtSQZAghAhQglggCLDFlHzWJY4VVnqRDSzOj0xGMwShizKjzVs420Via82L8qPKrWTlqeeptuyduy6d4g9cZSCURhx6mE1GmScZrL1N2kS0gJpJIpJMqcUWCEWEcGBwWgQADAjgSBws4oKkGm3I/y7/ubUIgx3blTrmbeTaXivoY/OOV8On2JNua4rX7kGTy3vW6VXG7NLRiBsozyKqzdrKyy9IgvySbfwy14S+zMkWKTRJoqNbQVB+lKGMNOsHgvB9A4yhK8UmtVJpNFGG78P5rsf3MBPcs0NHKPeeOzjkk0sV0fA0rXHHFmhLjJwkpLp9V1Pc8Gk1o8UeBmcbG6orJJ0tU6b8MDKPSaIc2vhtX1x0Ne97b+eb7IP2mk9XZWCjurnUY2+1tmBMJaZo3vbfSO6+1wXsYn1o/+t8vj/wDxMuj1PPW3meiv995kGzFw24p61b7Xi/qYZu1CFa1S7X/mY1/y97lt/X7leivdSMeBv3ref8orsS9tkH/kb3/s+kPsR5X0OIo+cXv7j/8All9PYjX+rL/2z/ukZV9I0+RjnvCeTxR4PnvWUn4yImaPNlGWUwaMQzR4936i80eT7kaRl6uLtPK+DMmzw3MNxJP5l7TyjMuTLz8Pr+hVZ3PZlDlJc0Y94oHb35Q005PQy7Lt72MfLLl0fiBiniBaI01PbwlFduJp875L6kGQWv3YNo1CcpNJJWz0uOxBK5ed9W9F2UHtnG1hyavURLLev4PQK21/GPhGx3k+Vf2I09/0/wAx47Jpsq1zPaPJ8qX/APmirj8v/gjo39P8/r/rxVyRCPe8y+X/AMYjM6X8ZLsUfuRr6c6/r/rBKjPa28XFr+lv8Atr+t/4GZ56nCXi0vuF6j+WX9/6ET4Tr+zz+/6dz+39SO5pfxku1Ueh+o+X/k/sSMJxxV8Hf6GF+E6/s8y9Rcvr+gv1L0jff9jLVsxU3WieBlreXS/BUgx8OteT538n/wBis7+T6SPTM75P+79C875P+79DS/Dj1/Z5lnl8v/jIj+o+Hcz1rP8A7vz9hGZcn3L7g+E6/s8t9SX7iFnf7j+h6dmXJ9y+52bg+5fcq/CdXm2aXH+39BuaXH+1/Y9JzcGJzvl9f0C/Cdf2YDmfOXc/sT/Xn/7ZL98UZbn4EmoT+KLa7vrr9SH051aGO62rlNsyvN5Vi2ed7u2o6aGa9I/7SPiWYQcMQVBwKHFjgFUSaEk8gYjYohInoCYAOEFChI8QUJAHiQEgjRYZcAEAAoIEsqOBCLKFlhFgRyykcBYqhhQUujqHHAYnPbUuBgbTWDPZjVSipI0MJ2t6W1h8UPl5cUerqUdyNxeZdV1Xhqjx+e249hr4ylB3FuL/AD2mH0pyx7S14/kjkbb347mD8k/o+xm2cexPkYei8d8NUdY0SHyFllFEQZxQJQZQZZUCLLLAWUWCUALLBKgwQgShBAJ7NO3RlWnm7k+BsNvR9pjpk8aSxKCnLKuLMHZMlK3Zrzojjjjabe292SitNZPkjTDOvdNr/wCV9MIfc9WBpLBYJadhx8x1Q5q4sKMs8U/B9pNMXXk3K/jLFEaZGLWOLFvF0TDuwKqKJIgwpIIQBlQgBABQgBCwj5ozchOOGOprzI9pW2+X5PUMicOTZrIye26ehsXNI00tzMeVp6ZHn0NJOWrMWhuOPlZr5yt10RjAq/qSkqEIlHtZSRqxZENrDSzQ2oRQ4iCHih5FPLI5JCKHADgBACZwBHFFkHHADgqwAiwFtWqMXarqZYauccLWpBjNAlweWaT8ylhj0D33io6Vr2kRKU5RVJtLtIz3JPWX/k/uYkKNDI83FfkQ2nr+K/BpwgNx6j+aRHc0+fiaoGrNCeCF07ADYIsE4I7NJdQc0uYYeUyI1vmzMvdVm3c0nhBZvHoYvlM72k1tSr+Txf8ASlp3h6OPlJ97naik078zrgeWG1q8eYdGG+XlqqKo3QRp5WloOmboMo0VMLKzbhEGlynZTdHUFaXKVlRtaBA12VDKRNKIN0t6VVLzLia5wi/h7mRiw0yL3dVKb5RrvZn3Pt9hjXu68snzl+EZGvy2yvv3twaJ4MEnzNYdX5gwaAPMtCBBAsiuALBMqQzJEYo2ZfEy+t6/KinoUvh8CQbe32eGgCEsE6PzKSWJsaRRHAgkHCjhJloBkBjvUykw9/DzGMb+FM2ieZKuio1W+vMuxEnakqUaxXA7Poc82NscSH4FHJ8WlHDiwwQbVGvNrEI2SiyVVEuKGMyqACSiOURACQINMkgjRQAADiOABxYoCxYwWVlwRRYABFAFBHFCmQccMKClhigwDE0PB1KIjRg89rqsDPSOaHjjRne37y1Udy5L5uq+5MntqRgUouIeiXHru5OMUqqTeN8DXKSlivE8uTym2T6pnJ2t16IEaKO5euDIDm81ruI8TKgzFPVfJBeq+S+oGWAGK+q+S+oXrPkvqUZUWYn6z5L6nes+S+oGTFGNeq+S+oPqvkvqBvQjHvV4I71eH1NDISjRepw+p3qcPqZGwbSMemyFuNzroQEn1KGolSfTkL0NQzSFFHFnVkJ71s7a24KsXNJt+zwPI9uN+Z+H3PYdm8rjy8y7OqPLWmRhCB55HVZq9yOaPFYo2gJUavadw4rBm2NF8E0+kvK+3ozdnZg1DmQidqBEFjRJzaALDFlUAJYIR8pl6HFHqFG72o3LsNEZZ8G3xkGWnnLNJs5GrNrRFbUMip2SuhpQvHAy8x/bWN+BkIBDRQ4yhpYJYU4YJGhEgcRCSABYssBpRxYFBgBBTAxYRECcCGFY7uwVWsKMKxk7Z6JPFGHtAaujqJ1BFESg6JRwEYUTqBasCMRGT+3wYDRUa84so2LMi29uW7dZUo6uTpcO8xwJf5kG19nLFGdy8m2lySXtf1Zhdq0jee8Y5VzipPxxDLQBBKTiunDmynJvkZbdQdEe2FbAYEIt8QcQJYVGuxAINtQs1QGAG0A7jV4AYftAbTDh3g4czU4C7QG5WOITwNQnjyObwYV69s+Xaj2N97Zu6o6qSjyyx+48r7Xs8SfrsRSojZVyRs1oINPglKKvRdxv6XJdyNbHU25kKpcl3BeCCx4BkaLCxOBx4GVaCV5mKX3JWrkyC/gl/tf4I+v6/uGPwrsRvErZrun9v5NotTTv7FNLkhRIEG355xs+41S1NsBxxxZhQAUuSGFY8kZVoNxLDAgm23NEzTIr28PKDuRuXgiQkkbB6+CKO70ezyUEWMOb5IygxhQuiekLJiIMhiMZGio80THXNGFa8jEjAjGkIAGCzaIpw04IjHB0UXEIBoki6GACOScRdFxCSh9AUXAIkbTOomIWCHRVFwAUMBxGKjsIuuBQxTgSjiKF6gjWCwIprnFM2goDzie249ho9D1yrMTntdUaGMN4DpJxdNq1yxTIAJkSfNyddjBx5S7mT4zlDs5WZ9GaksDmrzHH+ruYNvj3M9dsO2Gnj2Z8fqLz8WezW+YJWXjWfidn4nstizQ8gz8S8/E9cpciM4x+WPcgPK875l52ekuMPlj3ELJD5Y9xlXnbdux+bMq6kuaTdJcMDm+N5VlT4FEBaHCwjqwskxjndd5GPQoRyquvUMnVRJjLJJS5a9nUWLPM6PWGqf4CMf2pZtvjDDw6G7PI6GghAgR5RzJp9RcZZopvXR9qJRrPhnwn/wDZfc2jaEhEQ47MpjIpM1IZzUkWGLIABLBCPBHspq4uzFWmtSSm46G6zZ011R6WmNpN6E6c81dKNpDyRc/3+7MWCJSNsQ0jZFESiTdjyDTWKAzWKpIlmvjJTRsDKmFgBhBjBYwimlhHFQwIWMAM4o4BgBYQHDQCwOFjRYBBHAhUGepiJlEjQECDiQXRRHLHBAJoAeGBAehT1J3QqKb6NW+TA0LRENzuSUfKseOP0NOaQBYAsBqwknxM93tNuWuFeK/QwgzvbkpKmVWDvHUK2ZF6cOT8Ww/Th8plGM3xF3x+pmOWPyx7h9LlHuCsCtcwv3ozPxtsDz6nyfcwql8r7jODgMNyy+X6ovJPku9GYiGBi/py4d53py5x+v2N8wG6MjQ+m+aIGXibfUhSpKjTTVp+JsduOacFzkjWGae6r/VX9MZP6UV6OPmPYni/GwC/t+QiO/Py4AcUHzFrU2nIhx1J/UirKDOMqV18BoPUaQY50Zq38D/wLvkjYPQhy+H/ABQXt9gfe9f/AMTvuicR17fYS0acPZ9lgDwCvjELU2nMgLU2JBxQwEjRQRYRkajc0XiY+vYb3c6GjXsK9vDykywknwokWK3PYmQlijrrrzbSw74EMeddfIxIsISSCaYcSqAJ5nVTvSXNhZF+2bdaAs56rG6EE9kI3oSAELLqFgnADWcHYmyxQ1cXYu2CCXUwyzrEjC6mKATYIgaYeViAMNbTA2VYAJdrOHWKsAo1tTIcDYoovyqYcHZFDNfKphhRGDN/JMWdgKQgm/gz8ioBosR1NbOh/bHp7Zhbi0eqGpkrHZe7zmyenWKJEoNGo0PI7vQY7ilg8Gbc8y1MmhudJd5waZUERizaHjBRQDRZwsKSa1uiWzHpvAjTQaO1r04Ep+d20uNGvJCOjLXuLXYXobdJydWlxbpXRrLtcTs5t/spW31Whlp5hG4q+pnu3POr8DkNgJHimc2my2pZZq9JeV+OhnmmHI8n1PToyzxjLrpLtR5K6NiUAizm04101mjhqsV2ongGkLUsyUuasaamOEpR/wAS9psjsicgCOTWEQBYwUYAlHFAfLhMipdEb1RSNsj6GOWsbnJ5YxqqNClZkW9quwhRObo6PInhhGWgmxjoRDcEVDhGpN9DfCxxkCOFlhDBgokEUwYwSyoEMAJAMLOLAIMWEAwAEMKIsoEAgRhQGglqQR71BAQGPLIIoYygwBHLEUOVrTArtM3ul0YjPdtpR8XzNrL+N43L8Ixt7dTw66cDT6vLnvadoKTThT1TWX2oBwyrVN9UuhKcsuEdesvsRoxtWrzXjfw1+SPhtK2KSbMllGN2vFcmQzQNZFGVpuWCjj8PEKDxIr1AAz9SUsHqMpriY4nmRsU5R4oyjYFjE1IZRloksEYAksEEgaa8eQGwFNkIYapysqmOXI1Y9KyzaEHo3uq/6kuyPfj7DClE9X93Xk/3S/GBl9Lh5ZT1fbXcji/a2wyvJy81YA8Ejznx6kwSvaSCCygijKgDejKFy+FkGOPQB6L/AH/iLLfQt/x8X+A/Q8PH9pyJhERORt8/n5WANBK+aWtfEnkNa+JOMiigziKAs4Mg0e50NEuhkG5ojQLp2B7eH8mwn0/2mOweBlE9V2Iw6HxNFejn9mQjyhhp8kZIEkoCQbAhInkG8QbEoNmFapkQmsiG0RyITCKaQgWxwAACwwQFFBlALBCAKhQQ0QAkIsEBhRQJRQIIQCyyiygigSyoooMoAAA9DnfABYsaUBGFUSCyjU0YvLb6ruM0ojdTY8w0HXZlMoX2mJNNEG+jNx7DLE7VnmyZtE3HQwjPB5pFJM2R01zw8iMkWQma7NITMXk7ZtJv9TGdWYbTI8x4w18mdGCKc3SMlltKMk7uNO751phzG7Sy+JlVXa5poiPLLPQI0kq06HnK6HoEPhRETQBgBhskyjYeMofNiu1GLnW4tSXR2ca6PUBot08Vo8V4nHjbELCAKNVPCpfK/o9TbCjWw+GuscPsdWG1JqNcSFqdGTCMTGRDm0WAGAQeGLXtNojHou5cEZGfTeRh8/NIktdUIji2zZnneiAWI8itdV4k5UzDocjaoQkSgogwAyIaUANAIcLHkU4SEEBQ8WUUMKBGBFDBI4AQizgCOADCmkF4IkEOXII1ZQwaRSAggiCjhgZRHDLIUuXf9gInxT4RVLtZq5Yv6G9+FdhjAGueB6Co5UkuVfcw2CuaXLHuPQDbK9x6RiqjHvk31bPPcE3R6HRiu5DqvEqNMLYwYFR06fDqZcYdRkG278vLTsINg1Y1OUeKGBkVtllno8SFKLWpqmrNpHdlHCSzL6kVBCN0lGeMe7qY3JNa6ARrIzwFt0adsgNuwUr7A0uZsSqSMUTeqOGgo7OZR6LtrLCPZfe2edP9+J68l05ZV++44PucPukaFjmctSvjKBGMWRE1aIYV08BhBRxYJlXEWfwk41s9EBqmsV2Mr5eyX5LfxeAn2R/LZH6Xh4bZL2fgmIQuvb7CYdHxefkJwwoPEjomESP3JpFUGUF9yKUGUEBpdzQx9dDIdw0C6dge3j5jaT18DCV8b8TOZfx7DBV8feV6Of2ZOShCJhXyRkwjkgCSTiCTkBtUSBMcKJpyVpSCbdmoOiI4sIUaQoA4sABI4SQLAGiwpeBZwJpC6FDWRqCGhCwwFhFoAoWWUUAIQARUANFglDxRYIBFagAaAcGVgKA44UGVDiGyQLKrV0amST1MgITRpGASjREujOmrMUcf8zLS06xRuPUSq0YhjE2mpxVnN4GvlKjCY7mV10vQnydsCK2SoohrE256nMDwxJ23DDM9eiI8Y55cF9WZyzTmx9amRGOs26xMKwGayzl22ZNDR9pqt5eZPnH8Dtt/j8AZMUUGYVCOGMjmHRnOy726+R/Rm5MF2pZdxcpeV+OhnLwwPG6GgHAmQBqtJp/Mqfb0Noa6auL712o2jYjCInmSfNWSTsw2WqIoxFMyIoAYsy08NgqXaPm6iSTR7mLSXafUeMMVSJhFTvtJJ5HsTUa9przLxROJJkPTUsUSyDFZb4smhXDAQiBhYIQEhBCR4BFggBTSiwQgywQgGjBAwDgAzgGggBhXEF4s2NmtAQGWOAQHQ4FEBixoYEU1UdLNzWD7DWw+CPYBB3HglzMbZtNx3J8MDRNlGUbKwcubruMsFRjljFcl9SaaCAGidQRlHmEo5XwYg9ElDMqPOdMGaBCLad9USQDSMvi7VmwUbML25U66P8m8c/LS66nNUt0urf4Il0Y78RMKHdbMgjv1hKnxMMcuRDCvTZbG3uYwlT/fQwV7cofEvFaDI3HRsy6O98yAxVI3UVRkfpxkrg12GrqsGQIlgQCZMgHauSTFXOPavpierx18bPNNqvUjf9X/ANWehJ0cH6Pj/FsmGtTXZv3gOzIj5PxvQ8SxWY7MgnxvSsg5+ABDzxKzLmDL0qacQsyBzoyZelbE1c/4js6NZKVtPkGsvREfxM59fBdyQP4fX2HdZdvsRH6LjMjIESSBmRJtGnweUumlCLQGZB5spsSaa2LX0JdrmExJC6+JGtF2uZTDAxSa5jbXAhjSbhoF0N7uNGmXYae3jO6dLp2GCx+PvM2ngvBmEbfx+Ad+bMETERkSg+OcPEkkBxNRDHrVEG8RJsx1SadcTIzmrWsgM2rNabEQEMUbQkUOEEAgBAAKADElFiAywhYAYoChogUVDgBjEFURQsZYQYstglRwnEoMo4AYLAYCRRoHAsM4ACOh+AoqGiyxhVLEMkiyo07Na0btmrZhpicl3fg1cpNtP6o9AjtvctWlzNlu7cFtaaUk+JlXm7xpurEEZu2TY4m2U9EqrwANzHQ6uTbJUqROEnEGrkOiy2REVUfe0T5Ou81MMGu2u8yeeMJd/cYSv1KM7GCyzI4ikgSYaRz1LNnjGfNY9q1PLzK9iVqUP8S9p5q6MlDIg887SxQYBtGthg5R42uxm4NJLyuMvB9jN4dmBk9muJy0CIYseIMNvHTFli2zZbkqVGvWh7q80P62SxI5HB6U0mECJtSBgYJYUYQIRAQwYCEWGUURoZYIZQQQosBgQAwBgBxwDAAwAG9xYJYAvQiEhiQiyyzgqgwOg4IAZQRsIQc3yS1fIDUt5UarbwhG+iv2gf8AUk8bSbp8P1HbjqPbSCsL4+JcFmlFcbfgLehkuxH45dkV7SjNtSxqGkCTY0gDZoCJRgW/t4Z14np5OVJNypRrGyo+bFiMFvLby/DeF9EEaCmiJJs2YpYMB6vBPWjKVSRh2bEzBUmr0xIIUqn28zVJUZHNqTUqUcNEaVBTKN0o0clRJMiFVYxeV8Dc+r03Ff8AUiIMWjKyfLbzLNB5jF9AE3F3F0bz1Iz+NV/UijGpOq4WZat2eVfyXHVcMDE5wlH+pc17UaxNrQw+px5Y9C9eXyx7mV60vlj3M0Pqt9K8R+eXM823o+j9SdG89aS6Q7n9wfWl/QafMxmd/ujffofUnRs/VlzQXqy5r9+Bqs8js7G3ov1J0bj1Z/8A/PuO9Wf9P9rNTnf7oLO+Y79In1J0bH1p8o/2sZ60/lXczVZ3zF5nzJ36Rj6n4T5SnNU17Bq3N1JKrrmvaY9Pcklg8TL08yTTq0eC2z7L9T8I63+cF3skesvlX9xop+VX8XcR1K+iPXLq/OdGTesvlX9xIW7/AEr+4xPwG4ckz0Hz49GV+pH5Zf8Ai/ahnqR/q/tX/cYta+VHXHkjjv4a+fH8so9SPKf9q/7jvVXyS+hitx+VF+X5UX+j58fyyT1V8j+h3qx+WX0MfzLkjrj8qLv4a+fH8sj9WHKfcvuF6y/irfH9DGfL8qGRa5Gd/FT58W2najb1kava1kxO4yXtaXzZ1fF5XWVkgjIlHR4zSSRSQBJRORDJhBEk6knyZlphu46x7GZRph0N37MLZqmbhmoOTqhiiQRTaFCCSLIEADRJQoUSCOVkQosEBRxWhwAgBAgUIoki2UCUcCUMYsAsrJRwQkoYEEBQQJYQIUuwdAQwKOALKjkGLGlUAJxwRGehr2Tma9swpkXl7WaXd3MzyrSP1Zp5YNkVKjQ18o9UblKgCQdWUWTrxNvCSZobuh6wdkYZuONSnZLIqYzUGwIDNI2ax8VR5zHp3GeIw6SqUv8AcVGXJ4LsHkCGnY2S0QGCWURpFJcJZJxlxx7HgyGR2cG3q0lTaOIMZZ4Ql1rK+1Eg8bqeUUcURmsyaDi80U+/tGEKOEpR5+Ze02y25JRFGHVk9kUnMhGFfLaxZkBolzNwj0KkjBAwyraxNgRx5A0MUMIGlAFgTgBA4IeAUUFGUUWFEWAGEOKFjAoiywAih4AQU04UEBECCGgLDLBAaiyxYQw0TbmqTaUui5Lqwdx4eD7xu1hC+svwBs0klSMZ3XilyX5MtR55J5pN8QrXs9N2o5duK6vF+J5mlmaXzNI9tepoIJJQwyHkzoQTYADKUYRcpPD8nju9uz3sdIrSJmO9OM6gsUnd8eBi5UZXt+5RjtyluunX9nc8WeQp6GR7u9LdSTeC+vFmlSzXzKJBRBV6GwKNab1OTRB1NkApX1JYA0itnEnEJYGxZkCU8Iixc9DvHGsfCKBOLqRmcXgM8suD4GvYsgmNOPEiXm/jfgMzOJtc0dcYvgVWg8DsB9a4vgJoo4oChxpAYFDTiKWcNLNIEK3VXgCLM4ghibWggEYqdmlzZeZ82QAyiXmfzMHNLmxYIEjNLmysz5kQYBIzP5mdmfzMjnAPzPmzYwnlT4moMnioJcTIhts9DgqSRga80kj0azKp5IISZNCHDyMSLKieTUau0S0QK3PYZCvNFcUjRy6Gz28IpckjV8IkERmxZr2cHVBI44A6MkkYkCQEkccKIBEjhZplFKHAACJGAgKLLAAoE6xZQRxRxUWJG4FUVAiyvEoossoEBwoTiSAFFBiwKEjASoaCLKAYKDIgCTXkojmGmmka4kt2xB0QYdWUTkehyalJK7V2qXB8yAmZG0aZxIh6dGQp2YanRsE6xRxVmIhiFKx5VCjQbvx9qX2N4jW7v8fFHRD9vr4GzNHt6+D+huyMmAlgEaR2JJjIRzbZZsP44/4l4am8MFjLJOMuP0eBn7VNo8VdTzhKGmVCa2WDjLk6fYzZCGrTXMqNiWQIvNFPhj2k47sJq0I4aOZkfMCG6YoMadXQSdk1amqrqjbwxsMt0NEDiKYECcQcGUNAIeIHgcUCGAQQoMKMMUOCLOOOCmAWGAENCEjwohY4iACNKDAsYLKCDA0QwlpqPmatK7vTTQPVx43k8xx3JRj4s9D08DQ7Mckb6yN+aedFk8qb5L8nnOiM13n5Uub/AAYSyIyP3dXNv5V9WekmJe7qoN/M78FgZeUMDAHaK3gYBGM7u7mtR+G+8gznn4L96mPSll7Sgm8pirbkHqVRUObuvKlhTrrxPRvddvbcHuTadNprkeeVyJWXpzaviGkiVeaS+G6x5EM9HjsWnm6mAOD23TIyjkhMjnGhkNElI1cWbUKaSWRgzIclbIMzZRNTPVnq+zz/AHaksoUeV3a4WGMKE03odTNigGnVBWuKFjDSOOKONsrKOLNoso44wqjiyiqs4I4IAs44DiyyiKooIsCiziwOCKCMjLdtdTOEYzAyRHNU1DiOSSofQVDBh31zxWUlJFEg5a0kLA2MepANgupwdks1BtTWPUghCiQRjbJQkaABHFDRJQsAMAqBFjhJELEMkEMAwCxQFM44AocBiixJpADBQZUECECAZC6jirKCBL6CQHghMoAmQ2SSOyhWpYOgRB1kEaIIpDNfJ0jYGPt4mVRTiifFW+w7uTcwjS7Q6NgKOzmhGuaN8a9oqMWlE1+hmNGllEio3YZCpWYjoTOw4tMlI258PY0LUrJbxhLs/GJtGlhqu38mUmEL7Mz1kQk4AYVS2QiaRWYaJeK+h6OnmhCXCn2rA84Mt2HcZx5NSX4Z5K6t8iQQiWcG1nHHFRBjg5L/ABI25pnhKL/wvxNsdmDiWyCTuhpHy2mTCH1NiadgGwy6NYMiG6DK4vNrqicRlgOAcWLDIDCAGEDwwCyjgiigCDFhBTixQwBhwocEEAGcAZxZwFiBwoDiQAUFWGUGBaxYxrMv6dEub5g6RdfFLyr2vuGYaLRYLwNv0M/zw3qoWMGIy/PME3Xc65L8mNMnt23Lm7D21m3I9t9xR6ullUY8kkTRBTeXUyJTaStmGzk5v2CW3LU0Ep1ggGSnWhjpRINDieotjoxcj2TZ930cu77kRp9n3e8XgvqzLPSipWlRlbo1jMNNQzEt2OZGYM1DRUeI1WoB6ZKKZgUo5X+DQhm5izShlGUDSGnY0DarQx8yDoaQ9FedBIzJpGZ53ZqSQUTQo0SaCQ4DHMoujIqI1FRo6BNpQuiiBRdGxougjW0dRPOAgFE+gaKIJxNoECGcSTqKIxxKo4gjnEqiiiMESyZRBq6NrFEpI2qiYVuYo3BGRMMiQGKRMAeMEDwHjiOOIJpPWpryatV2M5OjZmsZsSCwIJFJZFNojCB4kqEixgooWLDFlAiQwQiiMSGKASKHAhCwjhTA4UUEaQeoosoos444gAWGCVFi9TgyhhRwIHPEjYjgGUIFlkYwObEFjqvpZFa+TpGPEmTtkQ2LMsSymngupvju4HdRgsI2LEEoWREGiJRtyMzaMZlE0ehmrNPKIaa030Hmw6mKaFN9UcWjF7DPeiMAXRmaxjSXeVhKKLBKqhLGiyKhG12nl3I8n5X4mqEs8zq9Pqm1yJItvNUvmSZyPG6HnFHFRCkri1+8CanmSfNFEKGCa+V/Q2y25KRDHo6svnFIlFhmnU1E4UiUA0s4sIYcccA0MUGZDwxYRRQYJYBFgBhRhAhAUOFhANDAKAYMFjABBLLoI4ossKII4kxVv99Q6ybV9b4fllCru3zeHYsAzT7HsveToAjSeWMnw/OBLMb3n5UubvuD4TDehlfu6xlL/CYmzPdp5Ntc5XLvAyiTUViYk23iyM3eLMflO8EQSJT6I0pxKKKNxCDkSYbbkeswgogP2tpRxdGdo0aN2jDSMzUsnmrl7TKFGrZLbNabRr2Y5JWZQzTtFR561TI5ljVmMtUEUnRkd3Ri5Mi6ZtGV32EBmwZCZRBZBZs2QTCoZsCKbMKIkBUdQQIqiWAQaqgKNm0IKI1YjqGIcBrxZLBAi0CTigqFQFG0oXQGuoqjZA0BBoqjYHBGuoo2NHARCahpNQDEjbIEl0QSSWJQ0gIlCwgqSOEDSCQNEjyCYiby7SESDDbcWa1jjmQawjkkjm0RiOSBBUIOCAKgBBJI5QsUGLIFCiWRCgSixYRYkaJAAMEWaQoeIGagcAUEAkEeJAYWJGGkcEWJAdRGZwIFEAkkcypZrJSy9psDEJea2QXxD5GjtwMkhjjz0PQw3qJhHROo24iLsUWVUkUWAFEILFmmS2RyUAaGgnHqjG6M+NHKNmVarClSxxzPnyoyiMrweph+hNOYzEAhxleupNCiFDRQEZiCWyEcHVnW0726+SVeDxNiY3sPzOPzRfesTIDxOrYHABERRB0n/uX4JprJ4U+TRpG8GABHZh4OWWMNOqWSBY4AijiyoM4EMIMcJGkUwAYUARZRRAQQBxVOOKOAYEAWVDygBxBQwEYFWKCKCGFihgDTYLTtNahyeLfSOC4vqzT7Xrn36KqsOWBZRxHzLduhPP5yzy7MDODHN1YprV6kcGHsyfN05Ggy61bqrfRWR7NqmuVkM4mAUZFDbzEOMbM9TojLfRVG0RjqkbOwrJkbxfkw5So2XqnNpPkaFkTM2IKyaRShRVEQWSSMEaBmuas37NMwMVaoA3jVml0No2sZVqbi0YibCE8jsDYshmxZrjIUbg1aN8VRkkiDyBZYZYENiCeIA5DikMAQJJLFgLBolAgJFkwUURKDHgkCwqCDAj0GPLQRxJSFExBWzRIFEkIYcgAyB40WNCjHixxA4eKHEVJJBFJJlUqgwUvAYYaa4jE8hHRlGEjhJULEjBZULALI5RTEBMoChA0WBHCKKA5kQkiwAAOOKjgCjqAsGihYBCwgSoIEsoCixRZQVkdlkcCxZYoyqJJ0jRGzalJZq8uhrTalVzN0hVExHd52xHiwioeEVRZRwAywAhQRZRRGoGh5RpCKIpsRYRjUo2Y7oZuamUbA1hkMZZtdTEdCYcmmYgEOMr7SaGiiETCIcXQ+Mskoy5NHpUlUmjyt4o9JTzQhLnHHtWB5K6pCGEZEg5DhLVpoaUVFQdxj2E41EMMy5P8AJtju5vEBoI026mjRQ0gMYhQZWVllBlDAxQZFMCFBAEEAcQGWCWVTSizgghgJYBDhIwoMYKLAsIWEAwMSOAkJ1jyTf2+oNUkuX56jP0+mJHNP0l/zwzqsAYOoy+BJa0zkaJ11Dflu+hjMpWRgF1aV0/qLR1GwSNsBHrEWZRGJFFFG2JSibpRA1xKSZt1E2yRBo0h1GVqPYSpadDDTDaOo3DREo0y1hFZtyJQGqIxsiG0BDNYzcMgMDRsB7cp/Di0r8EbGg7rTU2ywgiPE2U49TXkabSL6E0iJEwgI3RpjfoCw9AgwEjARgETUAksSA4aEcBryWWEAijiQWAgUSCOUCGGCRAjCqCCgCGjQhNE1YAoaBKGBDAOHiAyCQEUNCnDhI0KcOI48yJZNRCRsDKpqWB1DAjm01ZBJ7Ih1ZRCMSiOaRFFjBQRHAGiyhIJYBAooMEoWJHUIIihogEoWyygCgQBgogAovoUUCWWUUB4lHHWAIRZGAIQGRwDIEuS1lgSh20refu7A9PGbWVKoqlolRhs4pbjS6a9pmLeVOXLTt6GDJd7O77vsyTEkYhoxFflFjBYwIaAECVBBgnFRQsssoSCNFGkWLCOCI5DoniANDKNmO6Gcs1E42QaviZGnm7TDNDY8UcmmVCGcnZRGyDNtl3tyXyyvwZg5kmw/O180WvFYnkrqyckkIlHlaEcCcaRG0n2o2ppJYU+TN2dWXi40UNOzZpYIQBhHFEBjSOGESjhYRQQQsIAghQZAwMAsqjCBOCDGCwgDGihoDBZQBQ445DQOGCiQ3lV9mHaafS4Ta5/E+GHaAIx668DaJEevl/vl2+xaJmCTbdRWr9iF4RVydL6vsPMN3de610S0jyI+j24Qvdn6k5NYK8FwNajkjZJWaflbdUlZm8YUiTCCRuiMMYUMTJaCRMIGpGwEk8A6NgiITkRWyQ1gxObOatORiYRGaYQyCzYMiM0IIglMjgQmQGjYigNOIZvDW0ej7ObUM0rjWhlrRqmed2assHQMIko3hjhtUyjZhABgMCBKIFFFsoolFglkAnBhFABHAEFgFiigiloWUyoAYhIxERI1GCxwRY0Wg0FSrDFFkDwxI5APHkUeFSRgkaRTySRiWQGT0QTZIy0mLr4fgNgr7FHNUUiEkjHREIjkoim2SBI4UEJEDhBRFZY4EBRQRQCWQsCSyIQDZVhCyo44AcBHsXdhgAMQks4oEMWCAZbFAlCwAhIDSOWR31IEtZmo89ewzfsNFtRpW9ZfjojcSlkjm66Lt5+Bp+s4TJvVotx3LL0j+epF0ICNodX53ldpwJZYeBIBKGFAliwSsjsI4Eo4IUWVkARxxoLKLKCAADBAogsnCgMelGzQJ0ZmQpRTj1zdPaFam6xRkrMajF2ZGcGkUdGWWUZcmhYhnmd3qslTfaChN5owlzivsWjxtHlHFGgmStMkxdpPgARYaVyZtl5iMFjD0tHFgBkBFnHAWGCUA0MSNAIIE4IMsosBhxxQDQwAygjqADAMsEMCgwSyqseRggJKxYN3L/b+WNQcVh2495p+s9cyWpKQ1yjtrM/BcxM5LbWZ+C5nk85vcdy7uRlrtwh25uPcdvwXIipFJG1UbNPzFuuSbMxhGg4qjZrAjztggwhwAEwSSwGksUiUFWThBLMqnLEey1gcc1alkAmshG2UUjMlkNlEcjDxQEUEkkcIEgmz6GuPTXIDNS0bkiM8zsx5o12hvWiEQPhDNj0MsyqqoxCMvTfB6r29pnHFYpkfp+Emfuxysrpkg2rSeDNHitTT5fLjiQUUWHzCwAzioecNQQVFDLDCAGgDAECiQJAosJFBDiN1GlANJBFJADQgB5BZwZwHBAjQoiQhY0geOI48KlEkjDwJJJIZLMq2iGakNfcnnNpA7CKbU15tGuZFJZENsogsaAERxYwAoSUELAAjskkQgQyMPBKhRxxwADH0FHFCSxZRBYsaLKALGCwCEFAlBiGWLIBF1nlXRYv2IW3Ss30I5Vx69ofS4cdrbmH7ks0qWkcFx4mQTlkjxlguzqYekdH2PZyyZ1TUTER0PD8mcDYBRUSACwzTJYYsaVHFsEIqKKGCzTIxBZRRRwYoooooEDhYwAgQIJIoCNQwYJZyaKEjBR5nZm20/wDTr5ZV34mzRjuw/jjzV9xvjxtphRRwHEWPxSXPEkkPSS7GjQ82Gixp6gYYBYBnAlgEGKDAMYKLKGlgBAGELCIhpxxwDSxI8ooMEYAIYJQU4oEIoscRjapUHq4zT0qGykttZnr0XMjSkoK34LmeVTk5u3qafprZxmLnNzlb1/AtItI28Y2R+Vt1cY5jL0gIqjYhxEjYIiDgJw4gImERJHkckIomolEREtEVKJpEJRFbBCpEpEFmFRCAbAgMrKMa02RANCOKHCAhYsAI0GvQ15LZDO1coEUECed3RGa6jadBVFRoybCeTD+L+gDRCMvRLj0AS1aMWhPJg/h/HZw5mXkfqpZyjGtHiSdTZNWaXTBlfneXHP8AxKKFiivnJp3iccFGdRQJUMBDBIFHDgCoI44ICOWOAAYMFhWA8MWABILARZA4IEEipZIIBJAkjyIMA2I4hEtBUkkkceRU9e02ZrF9jZo5NANczZM1jNI1rIZPIjNsogkkCSojiQgChYJxwCyCSiCEWJGkYDhYwAASwhZQsEeLAAEVYYHBAAgLOBBKBALHJxWvXBdr6mVIis0r6R04v9DKCLFZUlyIG7Ko5estew0/acZ8Y0MpZ5X00XYNREWBPNPyXK7RkkQNI8phwsaUUCCMNIIoAI0yM4EsqGHAlGkUCECVFAnAlQQBxwAHHAgKBCEEVYtlgHNUYAMA87s3Oy63I8bXejLDzy6afJp/U9Kl8TPI2I4A4wriFLpwaJZFloyjzwMEYexAXHMouWXm6uvArcWR4bkZrW0jFE1dtX40GpAZQnY4xd4MkKbNDJQjRqfM2iaYEkoAYRk0EEsKYGAGARxxYBlglgMOBGAcECEFUGUWUcSXuKEbeNaEQl1g3awWj4ug+hxt3s85lJzdvEclSV6k57bjjhr0fsGxiVnlu93RjeJkaRyRJMvClBCyyqeSCMiUVE0lkBEggkkgQMKrbIlkFEsglE0hGwRlW5NWyYa56mBDZAJrIJplHIpIIpoIEsaJAQcsWcWjpHOoz1EjXqxAqwAoZoCc3RT0EjQCiEzXNG6aIpEag2m3OvK9OnBkRo14evjceiCGsy48zQbc68r8H7DJzL9T25RjOmDHpmylHMuJok3oyvzXLjjYDBQZXzzCgS6KO8EixBZAwUGUVHBnBAcEAKsCaUJHWiBhYssBxYiyyKmHCxoBEkQdYE0MjjwJRNRrxwVsR5BJRFTEbk0q7WbNdpyaFaIDJhEZURPuaxmxIB0Za84aJKhJHJJGKFAhiAAI7HiQIhQwHQCiMSBARWpRyBKLBFnAWUCCBxRwAAlHFlEc0E8WuBkRAkrIJSnlrqmrNX8UnJ9WRNaXJV9TaIr7HLnsw4cAND4wzgDgOGkccEEUUWioLocIDNIaWJCNoYcAEEEAECaQossAqLCElgUAcAUEJDFmQoEIWZaIBLBPO6gZ6LdqL5xR50Znt47a4No89bblBCEOODShI0Ao86EvCLGkOfwntZaFEqjVmde63Lehwt/Q0MSlqQzON9Zp7k70nRggZPJFkEIrTfqZvE70MGJsXTIjMQxQREOCEhhTiwSyCzjjgGjRRYDQATiqYWAEUNJrS6O8Ea4nHSP0Pq83/wAXJOk+bf0NekSxZF9t7ydDAgQTm/OnjxZbCnDEChoEpBWRB5RMRMNWbBFG0RsjTI2pBskbCtDXo2K/fEyqSzSvU2r58jTGQtkMmEI0yisjEkhlAEcaRwBLKOZ2jCCUcWclAUKDI0SUFRZQoEcIAjGsaN8QmiDRmRbc/wCMvB8uDNW0QSvdx5Y9IIUo5u010J4U/B+w2cpZcOv4Mv0/bk0ehJNcSyvyfKZUsY2KBK8wwQTiIaKOFhDhgkEoYcJHEBFHFBTxRY0golEcdYFjhRaAMIAaUcjYkYsDYEghEgKmjyOOMqmpktdCETFijk0mCyXRGYRpmaxm0Zr2dWUIEsEqEkUcyOUALKFBACtBpFCiOFnAAKHCgEliufaWEGCUJKgyyPqWFOKEAgPZQgsos444IhscgiiBI0ssoMoEIiFhABAWUWCUWWWUaQ0WCEVBFAhFQZYos0jgQxJUEAcAUEAGIIKKOBAEEsWZaKADFnB0LMo2vhmuKZjBv9nVrnH8HGtskRJIZNPK0Ek0LDKPLjUbmiNsaDc1XYe5lqD1H3Ff6jfKLPKzPvd930lO1eZVfLX7mxrpP/TX9UmzFTcTknGCXRY9ppyIs4E4qjJ+lEJEzWS7SozIMUWZDQxZYBFlFkDjgCgJRYssAyxJYU8oWGUP1JRATx/fQnnaP1nq+5T1BAOOb4PP+VMDEDTDwHBiCiNJZJIRJCJQwjjQHkkgkoqtojaox1G6RRtzbLA0RMxMNNszRG2bNQRC2yCWyMzbIRJQsgWIGkOyix70InUaz0RxRBQ8E87qXQFjSOQECccFWUWXYHCQigIrNYbgisDVhu2sCRRORp6Jysa9KiQS2hSRHFJQxnCysOoaGABRQxkcgeERSSQCLC8AyihwkMCmWVZYDTrKoIB5wAwoboOFFhEgYhJYVNJJARJCtkiYaklIyNuicvv+TVI2C6nJptiAySaqyCCa8mEBnVkoisYRjSEAgghFkQ4SBYBYsKSxaKGBDyMNIoAHDAAFgDRQHFnCyjhNjCwBoAMAqDOsWdqQGAF1BAsAsAgMEsEoMosoCygCgGFHFFRwQoYVFhAgGkMOFnFQZQsooIEooAhZwBUWUCWBHBDAMqEWNFHJ0CbPaw3I+K7zWDY/Eu1HCqzsnlNYvtAPK6E3iiWaeWqN6aZeSGOzdyZkZiL1Z6wk23Q1RtHodEa4o4E0LOKOIqbElw+IirQ2O3qyjIghYRkMGCgiIYWCWBZZxZAwYLCKBHCggqxgsICUh5FQ7oeqP2/r7cUYIWWed+LpxYo4yweUAMAkEhEUsCYSCINAlFoWMCp6NgmaomIg3Vm1g8LMcRPTpUZVu5ST0NKEQGA4hi7IpUSCOKEFDRAIAQ5aitA0A9T0/ZwAWKBPM7rOCFEFAnBFAlFiQHFBCyBggOwSgCSJLAIAYCUMOYCDAoEAeARGBDIBGnFgUGJKKHnCygjhpzBAeUcMKBGihoQ0IAaAY8hIlhTR5FGBU0lEAcQbSyWu00Q9MgyAj2Q7I7ZkOITBEM0hRHBFlAsAMWERQWdYgBxGCRwUICCOCBYsoEqCFjBDCnEcMAIWUPFgcUWUFAWCEBYksEBgIQIFHCwyAAxAZQZQYgiLGgAlRZZQJRYQsoBhwAADTgDjSCAKLCKAKBKGAAAgGcAWECLGCQrhYwV90cm29W03i3XDqZLGKjoiVL4n2gI8boI4o45iBLQ2pAejJC0XYbR5eYgZa9GYkepAGyehryazqIQJZQFnFDwGPRG529GaNmSw+EK2RZRZEGMEhkDThYYBBgFgMCALAaUAERVhEccUTloV0OAZ6377x6/6ACUEeR+BWccWBw0EoCQixYwB2gQnoWA+ycaxDQNmbCzTImAbZMmWagfYGwsjNkZi2ZUZGKFBBWRzgCqSccMDJi5ChvTj0EnocnCwizzuwjgbOAWWCUUGCECQAGUcVFBiQwBCBKAYWCCFUMBQwqAHoAWQMFDACDiwRYUZYssqDHEcIB4YmzrKhxdgCyiaURhgDyQIskkAjSMcFSxpEGgPCFhED7DBHgMAEgADYqyxAQuxdliQpwo4ABbFDSOUHqUWLYQAoIAI6xZxYFgI4AKMSNFhCyywQKOCLAsEEEK4oAsiGCiyyqoAooIsMSGFEWUCRBCyyioIoE4o4osog4o4oAQgSgGiiwCixZRYRQJZxUcUUAUWUcUBQh6DADDb0l40+aRSIUfgh/tJSPnuhxRxQAgx+FBkeOhoeaPRmMsyWWhjTPSgUSGKQbOyIpRZQDTZrAgolvQDXGXR0RiBmMdEBKDBKIGFlBAWELGEBhCwiBhxwJRYZRZFCMFj1qadJ3qWIkNEvqeqv3ft/iWGCCeR+AWPEDAHlFFhDC9RYwAyxYwKsaRxwEgdYooDZWMIBaAnlWRiwOBBFGQ4UUIKGAiwgjYrAiDSMeuuEEUWKPK7uOKOCiKAOsIkCxdghTyhYYQJRRwDuZwg4B4BxwVQYkMoIsISQMLKBAoo44CwgCgixoIRUAGhYZUU2NEjApo0SNAsMUMA4kkYkYhXDiMKCJ6HGtJJlU4dZqi7CNmKIllWFPIllFAUICsEooMSLbCCABYADxYsMIWJGigBCAOAIEsMKWAPI4QgMAMAgSjgBACOCkhFHEQZwJxVECCERFAHFFFlnCwhpQIwCihZZRZRxwFABAAECcCBRRZxAJQQsoIEooCxQQsBhRRQHAFgGGmY7f8A01wbRskaba+B/wC72G2PE2llFlEUIqIZJSKjyp6GKMzAhtJnpRjiCZOyNaMROk3R1RAKLKKNjEazkJkUQDN1ojCTOAEt108SScUQNDFlkBBgFgWMBCAssUEAwAM4Ax6I5IWhuPqeubyiUReo8gHor9H7vEWMBKPI/EGhAFhRBCxwAWGUWA0MUGA4oo4IcSERRoUwZYkMAwiMEA0o4EgsEoIATi7OKiWyKMI56a4Qy6KENlHnd1gjACCixXQtAOFBFBVjhQIDWAEABQwEMI4EE4AiiziiqOCOA4MsEChYwWAQIQsIIMUcA0opajCgNETNSOMAotHFogcFYJZQQ0jB2RUuxQBxQ4YJCIHFEcsBtiwSyDuhQoMISAWCUWKLFgCWUWEMFgCwKxDBFgM8QCwALKs4IKqwChYDACiwOLKBA4AoMAABwkiCBDKKFhFggLCLKAossoI44IAAwTiigQjhZAQsI4AQSywBOCBAooooCwTgQKFhiiAwDjiDgSwSKyfa0n2o3Ro9r+XYb48jolBElI2iVBEJRJpbZKjBvU9Di8GBGiTLuA7UMA0jWuHI0hl3Tia6eKvqbZIRCeoqhZsMWpmph8dUZeVVhFFkBliSrA58l4lZVyBjz5kwBKdYMlCwEBJOBOAccAcRTCT0REJp3j9L6Z3oiCSyOWuvu8xRRwJ5n5U8MEoqDCFi7CpRYgIIeEJGhRnHHBBDxAQU0kEc4CQBYo4BhQsYAZQsEIfYwQEjcZMZHHsjHSsQZwoM4urjijgOCKBAMoA4inAFFhFAdQgACGCRhUAGKCCixGAFBFhFXQYVZxwgIaWCCwqigSgHlAlAGGLsYUANEDiBgIYIQ0EEsqnlAB4AKJInAoIccUAFOGkEMiGBCiwpZZQsIcACcAs444IoKwAQDAO8AAAOCAKGAgigCBOLIoDizggQQgQoxYQsIMWMBCrBLLAUcVZYRQAwAI4FligGFFlAXYQJQBCygigSiyiC+oIwECizigLFhgAUUUUBQJYJBQBYBFcWCWQcUTIxctO8zWGylxfNmBqtqLxb6ozVRJ6VHWc1XoJ10JCi5cEb9JLQ9GPPqFGFa4s2gJZ7XhfOM4ShqsOaxIWumJ7rqYfP3dSxj5XwPlvrvNix0lKHxK1zRETT0ZVOIEtCYRJdDqjXC6C0JCKOSxMiNStTamhwYAtkAalMasBfUDsUSjhWhRKKFhkFjSJ1JABhizgqQtUSSMtSSeuP2/pnahYgNiDhXwfbd5Uwo4s5vjDKOKCGFgHEVYYAYQZZHGFUwMWGEEMI4wKklCyyIZYQkEqmBAAhEgAQcBJDQgejrPLnVNiigCVYaEAcc2zhbwLsoAhYIsIeCUWGllgDWEI1GnA6BFFBBACCWGVSxwkYAwAE4AygCgGlYAggOAADCCLEjAozigmVHAhHBTQSyiIcJKAKGnCMRpFMo4UGUMCdAgkRQ8QW2UcPIY0BhHBKAeDYsoIYCLGAGRywgKFBiwKOOKA44AoDiygCAwSiwowQQAGgHAgcCMACOssAIISNFlBRFHFgKOZRwBlFlACcGCEUUEcUWUWUEUCEcAJZRRFUUWUAIIQJAsEIWRXAEuMZT+FNm/jsTetLsdmBjPWliZVDZv4u4zKO2om50IICjX2JgpsYot64BlH1wRtlCtcSYlWg09WPLqywQT0OBhFbI7dkcDRWbFOzUlHx32G4aTPP9z3ZPGOBmlmws0w8NcXHBkGR704pmB7nu/VYG0eWMVobKUJQ1RAOg2CNgadLE2NPmaVKE6uwa8SUo26xAbTeibI1VrqDblgm8q0J6n0niuj1a/QyEFA3XU40GDCKiQAQCCI/XtAnAglhUpEojIceyP6N6+3CIYYoI8r+fXvRHAFmXIRYJYQYQkMiuCLLCLCOKCjCKOKgizjiKciyigiwyOEVTAxIYRYoIsAxyIxJO8cqAEEGzi2IEosiiCBOCqBY04C0WLLAs4EYAAZxwFADAQFjABgCwheI4CygTioYCIDCusI4EIaLOAAYEcAFEEAcVDwxBxFOBKLICBACKOGCSwGFnFFQRxWBQBHCTgGgFYnERxQBRVWGLOIHChgso44WWQcUcCVBg6CwgLFjQAKKOKCLLKACmizhDAecLLxq6k1zSbWHGqILOEl41dSS55XWPGqAs4XqHjq1SdpPm1rx8dAijgknLRSfZFv8Ij3YUZQPfhV4PC9LLCLLBxpusE0rw1fTHXwOScsEm65Jv8AUWVf0HJOWik+yLf4Clhi0Np1dSa506w40AsEuwqbWapNc8rrvoqKKKCCKKOKChOK78dMOXI4CwDu/S9GsH1BVvBJt8DAoX9TIFtNvzZsOkYyl9UqMpjlhgoyV84yV+LRhpiS2ZvWo/V9xlMdmEemZ8ftobXMrrG9aSbf0TJanFtparo1T7nTOOiRX+Q4E1jmrrFvkk2/omYRsbFK2Ki4ybV4r+LtPudMm+pHFK3WDyxk1fLBNHpZTlFLtJhEjJSVp2mST3vEsI0Xqxq/M1zUZNYcaok541aaa59Co2DdGtbs0vqRq/NXNxlWPGqOc0ld4c+hHRtRFmklJYZs0e1Siu9pG5oitQECEfIfQWEUcUTUyeaQaBPcVLUwGfuy1jh+DPEyWbR4I4ShqhB780mYpLYT0w7Doy8uvgybD+V/KzZS25R49hplLK0/pwNAFoNN+4RSzJvK+qxrtNflv4Wn9GQHHzLK9V8L4ciAU8DdRjLexvFcuvabGNPAfbeis6SyaqhCtU08TYkWxb08UbKS8qmnaet6p8jTXfeRpsziiyDYrQ5hkdnrf0f8Ajw/ogYJLPG/m5oJxZUcMFnAcCWERXBlHFQwIWEFGcCcQODFhhDAhRYBliiyqskCigCCEFhDhxEJep6o89LFhizNWKLOAPO7OYfMWGFNALAAIHqUWA44UGEEULBCnFiRoRQRxwVYBZwQsIEIChgsoqiOBACDLOFAOCACCjFvUsSUMGCgiCSERCwhtAAiaCpI0SEEPFBCCiQLBCIBLOLKgxQRZAIAYGJVEUWLCGgBaABRiyiwhiEFgAHqEAWAkM4YAgoZYIRxQs4CxYbFhWwjH1Jxj0bx7ErrxqhvrTbUk8vyxXwpcmuv7oTCWScZPRPHsaavwuyvR3LUUm7+GX8a6SvHpjWoG7htxnuxwWVwW5l6Y/wAddLx08Cv/ANn46nzq1Vcsmb9fEZGa9WoP/wCP0oSemZYpvDnh1McW3uZlUZKd/E716ty0a/Jlpp7SV/vsxs326qqHyRr/ABSxbXXkbHyy3218KedtcopW+Pm5amM3rJ6u5PxxKjYy3JVhe3FLCMW+9vC2O3cZY/E4Qcv91cuj0JKhKFScJuWsYpOlyc2u+lyxNK81+bNmetp27wwX0VBG7Uv9LcWWKr09E7dz6tttmOmSRhL093yyx9OvK8aljWBo1FzkoYq2k+jrV68AJksIbcef+o/8WEe5eArPJRUV5EsXlbuUurbwfgLnLPOUubw7FgvoSlttxzSjNp/DGKxlxb6R+rDRsrmtm35pJpt65c9RddjdPqOnOSlli8kYNxilwer53xNbKU8ynNSu06acV5XdK0Tpwk5NxTnGTbi1pi9Hypusa0CFblSyTpee80VaTcZU3fTMLlu7jdpuOijGOi5KuvcP3KWSC82RNNrG5SeKWHP8kjJPaxyzc+EW4Qvs+KVeGIEXdyrdlgmlK2r1wTa0f8tRqlv7jtZ228KtQw6Y+WumOproxzTUG8rd4yTu9etYviSorfjhFbid6U8t+PlriAvccXuTccVm/wA/rZrifuZVOajgr0/NeNmrKgwPrwx9jTBG03gk32Jv8GRv9yWaG06S/wCphFUviXQxrR3SfB3X0aMolCfp7Xll/wDJeDwuXXCxMduLxeaWCdRjJrHnSIN9KK3HFtf/AB7bpYLHN9CQmlglWKWEXVvjVdeY74MrkpJLahflk9Lu6WFFPV/HlzxusmXN5a183I5NCp5ZU6rcxebIq9NdVxohPBxvFP4ZLclON4qseo6rblkbSl0bdNUk8mHTG1Yt4KWDjnnDLHG3llcpV0w/AU9RlkhlUnn883HB9KjbkqWPO8BHmU4qWZVbjmxbT1WZSada44i6zLbtOUYxytLzZZxweZK+mj+4yqjVNJzj6cXrhLzNKriq/eJUbiMlLnirWDVrtaXM1SUo5YybWreTNcpdW3GKdLogYtpRdTdQeRPJivL8uPLUdi8rdyTjhLbU12xdO+WqRthrpXUVclJypZnclCaSbdPpLS3ZvlFu8r9NRuMFHg/ilztrTkaGSl5HUnJTuObCThBXTpdZaWrxN4pNJ1FzUm3BxWDzO6fKm3rWh0CoyyvM6WdPMlb88ZKNpf1XyJ0mtzLHFXKpWmnSWaujxS7mY++kcZOGDar/AKkpp0rWXBr6hqWWSc7wn5ry4XCk/LhWKNubatbjulNY1HLlUUovDy5ld9bXYanbXqSp6XKbTtYqvLTk6xdtESUJYqUJOd/FTtvo1PRLuo2Vv1tVme36bl09XXHu5cCOgf8AXrPW5m16ZezJm5eJH21abVTyQzQWNZm3XW8KpdRag8MsJrcv4mng+rc6prvsenc95beGesrVK8vxU+bt4+JA2S3Iq36lU8+apRaevljO1X9OiNzH4VjeCx58TSxjUoOMXCsZNpxSj1Um1j+3Zv8AZ23KNryxuTjSxacnWD0XgVzagIjp2SD5z0rLKLCiLKLAIMWWQbBMlmlGlGwZByrkh1jDA1S21H4fLwWhDlC/ijF8VqZCUNV43OTjg9L68jf7Uop4Or6MzVtPVWaN7cH/ABS8D0ay2G5tx31ya6mAS2nAylRcf6l+DJkk9LTKjw9vXHkSTK92Uozy+nFrm17TQZ9tuntLwbR1HVJK8sq506J1VXgT1uQSpLcXTCQuL29Kk+1/Y6PsevN7o5Cepkaafww779pqZ69PA6P0fs5f5a8sWWcH4QQ0SWUMKKLIiyiygppYJQQQQsaFWWAWEEEAMAIeRTgGhiwSqYWCWRBDBZQBDRY493F5KW9RYBx5q9AywOhRzbMDADIACOLA4soooIMi0MCLKCACmAiwgLCKAQDAhQwCigygAACOKKLOKIGlFi7KGACQwHizjgOw5hA9w4ISNOBAkCRY4BYRxYBgADLA4oYDYADBQIDDizigBgsWBJOFAkQwEXocVVllWUQHoWRxhQHQqwhBAyzjgCjjiwAhgoMAAwmLK0AIrGquSXLM6x4XRQIFUOt1WaVVVZpVXKrBFGQ1NJTVO5VFVgkrTfXrpoRqsssKlZ5/PP8Aul9yI23i22+bbvDjqLYRBOzT+ef90vuLjKnKTzN5Wou/5NVbbl0RGKA4k5pLBSmv8UvuQSwHtt6ty7W3+Qk3HSUl1wbX4YkWBawJ+efzz/ul9yAUATx1t3zx/I7NKqzSqqrNKq5akUck5aJsMlFaGVrYb+J1wjizMY7SjokuLxZhXnUdqculLm/tqZhDZUcbk3ztx/FMy+l2jTI1WT+qf98/+47JFaWsEsJSWC00ZsiLZGkNwTwbm/8AHP8A7hDir66p1bq1wuuiNrTHUaRpvTTd6Pmm0/GqJigk7xb0ttt1yxbJ4Jpya1wi3eKfNNp+NNFqKTvFvS223Xi2TwTSICgo1V4KlbbpcLYOSNtq03rlbjfbTRsQQrW5Yxd446vFt8LdsRlWOVSV4vzSWPOkybYk6IhZEko9Fp0/A3Kset622777JJJSKy1iglo5JclKSXcnRKUIqOWlXIlLHCKcnw08XobhbU3q8vCOL72vYBiThFLL5+WVSm8OVWbn0HuKpJRjyVN/ZeFmcRhGGi8evebAjbGPQh1zS4SnJrxV0ZQKsxye/COF2+Sx/Btl45TibOMrCILjyPE9bflmOKbWDMgTTOYYEUcYBHHHAWWCWAY0SWZVLLIoZkQhsYp5i6XZ2DYrK3jdlQWTiRKaMjLOoxeTk49h5vljbdZZfQ9ncUzUPbOjLx6KcnSRt6jDXzS5LTvNhPZmvh064mOVlwao2J0pyl1pclgjW0SSium6AaAcaczDiiigiyzgighZYUwIUMCLOOKCjKOLAIIAEBgQA0ASygCoknEcIgYCUMAMMAaeyPNSCwSzxvQEYAEFMACBAMAE4AgxIRQZQJQDATggKGFAkHFgBFAhADAKDFBAUMBElDxIwEIs4EthVlCxhARwIQRYdsWWUFZQoYQGcCLKDCAOIDCABKOLFjwKACCAEsCygDOCFAd4F2UUAwErAECywAgjgTjiqMQNFhFgnFAWEAcBxxxxEELGC8ABKLFkBlFYFBXFFHEHFBFBXFFBgAELLIOBNzHanLpX+7D9TJI7C6ty7FS79TIwAyJbU3r5Vx+x6VGGXRKPYT6RkYbHYiumbtwRlKj/AJLQmgGR2hwqxOLAeR75D8vMlnRhCy8yTVBnHfHIIAQJpkAIQJkAUEUYaAa6XQ2QWTMUaFEjBaklxp6rwNtFQjTeL7/0O+OOtOlN6bcu11H6N5voZItm/jd/0/x/U2XqGqlvKPxSjHxLi6yxUlhggMyPIJe9r+MJT4tNI0T3N6eslBco695rHR7LPdjD4mo+J5+/fFLDbi58XgjDo7Kb+Z82ZmlGGmLN9nNra3tzHcnlj8sTbQhHSKpdX1CVzY2U1FZY+LPQ4MUGkIcfEfXOaT1NXjHjxNmOCKjOzaGOOHVYfgWpNYaHNWUHEdOySclUcccARYJYUZYAQQQYBYDx9kIMDZWPNQNNDY0RXFPj2h2PNDDZe7xenl7NO4xl7M1pUj1o40y8FeGqaAPdHFP9TGJe7xfSuwo81OMqexJaNPtwMclGUdU0bEYMoIoIAIoDjjhhUCcCcFGGKCCLCFBFDgSxYU0MWEARYosIMsWWFMLAKKyMIoAiiCKKAsaAGBwIZwAlAlFBnHHEBBCyyiwCwACBOCIBGFFAMAKOAYCJDAsosEDgwSgHCwwQLBOAsqDKKKKDLBCA4IEoCwiygOOOOAstFHEBFAAgNFlnFAllAkBggBFBAFgkBg2cLAaCccUNEjRJQRwJRBYQBRAAwoWARRYBBdnAhAcAWdzIOZQAcU5YJN9iIOKZki2J9cse12+4yCOxHrml24IyPOe83kdqb6Jdro9SUK0qPYSaXb2mRgcdiPVuXZgjLI7ajolHs1NwUQIpdo4WKsgcARtR2XmwE2FT7CboEdccyKQ8447uaiyijbCwSyiijjjgjgSwQCKLIeblj+AJ2CxeBqZbnRYLn1NRN7idVjV28UuyjU+knjJuT4mwt7sI9e7H8EL1Zfxg+14G5UYx0SRZjW2PtbsvinXCJy2oLpfbibsak2TWkQ2Ch1lhwJGEdMXzE9ppE3N0WCI2pDsC+htlspTwyx7zUgDNSq1CZJNd2o7xPnvY2441lsdaA2QDSeoocZRrMrjxROjMlERxT4PmQbpOwzE8Y696NwpnJW0LKCMtOCBCIiwgCwDCALCjCALAMYKLAmWPs1xZRtLGmrsaaRNFUVY6zSNBLai+i8MDGn7vyb8T0g42y8ae1NdL7Gaj6Hu9IiuKeuPaUeJAnpz2IvpXZ9jSP3drR324FGHnG2e1Nfxfhiauu0qhDBBNBhxxwFnCxoAllFhHHHHACMOKKpoIkNAGcUCQOOAOKGFgFkBCziwCOHCCoossoDgxYQFAjBIDQwDgDKBOAIsEEBosoICjgCgDCKOAoEIoADtQzihgQsWA4oA4g4IAsAiiiihhZQJA8SCMKKCFlgGUCcBxRRwDAShYDQATgCs4ooAzjgADFHHANAZQAQZRQBA0AEZTfRvsTMhRZuFs7j/jXbgbde785eEVZBiQm749iPU1sQX8b/3GQKNcl2GR5QtrceirtdG5Wxzl4RR6LS7e0cZGLx2YLSC7ZG/rj3YEkEgCkhgm/wB6AWFPAsjF0yKOxBIpDDTCPTG0gyjs5jOALNsiOAONIIEEoAygDggygAShgIIptIyHkdtLi+RpJ7iXxPKuX8n4GOXOeC/04/8Am+3kbVup7lYPzP5Y+19DV5ZT+LT5V8P6k+O2o6L98TcGmUdJLQBs5sikbCLDAMNDwCuxQzQ2LITYtuxZUMLKNtGDepWEJJsy5RUdSrjHQ0EpWep5PL//2Q==;" vertex="1" parent="1">
                    <mxGeometry x="140" y="529.29" width="90" height="50.71" as="geometry"/>
                </mxCell>
            </root>
        </mxGraphModel>
    </diagram>
</mxfile>